<?xml version="1.0" encoding="UTF-8"?>
<svg xmlns="http://www.w3.org/2000/svg" xmlns:xlink="http://www.w3.org/1999/xlink" width="350px" height="350px" viewBox="0 0 350 350" version="1.1">
<defs>
<filter id="alpha" filterUnits="objectBoundingBox" x="0%" y="0%" width="100%" height="100%">
  <feColorMatrix type="matrix" in="SourceGraphic" values="0 0 0 0 1 0 0 0 0 1 0 0 0 0 1 0 0 0 1 0"/>
</filter>
<mask id="mask0">
  <g filter="url(#alpha)">
<rect x="0" y="0" width="350" height="350" style="fill:rgb(0%,0%,0%);fill-opacity:0.6;stroke:none;"/>
  </g>
</mask>
<clipPath id="clip1">
  <rect x="0" y="0" width="350" height="350"/>
</clipPath>
<g id="surface5" clip-path="url(#clip1)">
<path style=" stroke:none;fill-rule:nonzero;fill:rgb(100%,100%,100%);fill-opacity:1;" d="M 316.359375 202.847656 C 317.273438 198.289062 318.773438 193.871094 320.824219 189.699219 C 326.425781 178.234375 330.449219 168.203125 326.886719 155.398438 C 318.15625 124.132812 282.652344 120.476562 265.140625 96.894531 C 238.0625 60.453125 171.535156 57.289062 139.753906 88.78125 C 130.011719 98.433594 125.445312 112.070312 115.597656 121.617188 C 101.085938 135.695312 79.539062 137.507812 64.636719 151.542969 C 40.339844 174.441406 37.980469 213.242188 59.550781 238.988281 C 82.328125 266.175781 114.476562 261.714844 145.703125 255.933594 C 161.070312 253.09375 177.042969 250.011719 192.703125 252.195312 C 226.101562 256.898438 265.726562 275.246094 298.09375 256.984375 C 315.335938 247.253906 315.777344 232.078125 315.378906 214.375 C 315.28125 210.507812 315.609375 206.640625 316.359375 202.847656 Z M 316.359375 202.847656 "/>
</g>
<mask id="mask1">
  <g filter="url(#alpha)">
<rect x="0" y="0" width="350" height="350" style="fill:rgb(0%,0%,0%);fill-opacity:0.301961;stroke:none;"/>
  </g>
</mask>
<clipPath id="clip2">
  <rect x="0" y="0" width="350" height="350"/>
</clipPath>
<g id="surface8" clip-path="url(#clip2)">
<path style=" stroke:none;fill-rule:nonzero;fill:rgb(100%,100%,100%);fill-opacity:1;" d="M 314.300781 269.851562 C 314.300781 254.191406 254.285156 241.5 180.25 241.5 C 106.214844 241.5 46.199219 254.191406 46.199219 269.851562 C 46.199219 285.507812 106.214844 298.199219 180.25 298.199219 C 254.285156 298.199219 314.300781 285.507812 314.300781 269.851562 Z M 314.300781 269.851562 "/>
</g>
<mask id="mask2">
  <g filter="url(#alpha)">
<rect x="0" y="0" width="350" height="350" style="fill:rgb(0%,0%,0%);fill-opacity:0.301961;stroke:none;"/>
  </g>
</mask>
<clipPath id="clip3">
  <rect x="0" y="0" width="350" height="350"/>
</clipPath>
<g id="surface11" clip-path="url(#clip3)">
<path style=" stroke:none;fill-rule:nonzero;fill:rgb(100%,100%,100%);fill-opacity:1;" d="M 27.335938 79.898438 C 27.003906 78.703125 27.199219 77.425781 27.863281 76.382812 C 28.53125 75.335938 29.613281 74.625 30.835938 74.425781 C 34.496094 73.925781 38.988281 78.839844 40.417969 81.816406 C 40.535156 82.074219 42 86.316406 41.929688 86.316406 C 41.859375 86.316406 35.441406 86.464844 32.828125 85.300781 C 30.539062 84.316406 27.945312 82.433594 27.335938 79.898438 Z M 121.359375 68.601562 C 120.820312 71.148438 118.273438 73.101562 116.046875 74.152344 C 113.820312 75.199219 108.535156 75.382812 107.238281 75.402344 C 106.539062 76.238281 105.789062 77.140625 104.984375 78.148438 C 103.585938 79.941406 102.03125 81.976562 100.492188 84.300781 C 100.078125 84.925781 99.660156 85.601562 99.238281 86.261719 C 100.175781 85.300781 101.472656 84.007812 101.613281 83.894531 C 104.195312 81.84375 110.382812 79.386719 113.457031 81.429688 C 114.46875 82.144531 115.132812 83.253906 115.28125 84.484375 C 115.425781 85.71875 115.042969 86.953125 114.226562 87.886719 C 112.566406 89.902344 109.410156 90.460938 106.945312 90.363281 C 104.480469 90.265625 99.5625 87.921875 98.511719 87.394531 C 97.609375 88.859375 96.710938 90.382812 95.871094 92.027344 C 94.308594 94.996094 93.011719 98.09375 92 101.289062 L 92.191406 101.382812 C 92.9375 100.394531 94.570312 98.355469 94.722656 98.210938 C 97.0625 95.878906 102.949219 92.765625 106.230469 94.449219 C 107.304688 95.054688 108.078125 96.078125 108.355469 97.277344 C 108.632812 98.476562 108.394531 99.738281 107.695312 100.75 C 106.296875 102.941406 103.195312 103.84375 100.738281 104.011719 C 97.9375 104.214844 92.050781 102.003906 91.824219 101.914062 C 90.917969 105.113281 90.214844 108.371094 89.726562 111.664062 C 89.347656 114.101562 89.0625 116.5625 88.796875 119.078125 C 89.304688 118.378906 91.449219 115.695312 91.59375 115.519531 C 93.933594 113.195312 99.820312 110.074219 103.097656 111.769531 C 104.183594 112.367188 104.964844 113.398438 105.246094 114.609375 C 105.523438 115.816406 105.277344 117.089844 104.566406 118.105469 C 103.164062 120.289062 100.066406 121.191406 97.609375 121.359375 C 94.84375 121.554688 89.207031 119.460938 88.746094 119.257812 C 88.628906 120.394531 88.507812 121.519531 88.394531 122.660156 C 88.03125 126.363281 87.695312 130.089844 87.234375 133.75 C 87.074219 135.015625 86.878906 136.261719 86.679688 137.507812 C 87.480469 136.472656 88.964844 134.617188 89.109375 134.46875 C 91.449219 132.144531 97.335938 129.023438 100.617188 130.71875 C 101.695312 131.316406 102.464844 132.34375 102.742188 133.542969 C 103.023438 134.742188 102.78125 136.003906 102.082031 137.019531 C 100.679688 139.203125 97.578125 140.105469 95.121094 140.28125 C 92.664062 140.453125 87.890625 138.796875 86.554688 138.304688 C 86.210938 140.40625 85.855469 142.429688 85.351562 144.425781 C 85.128906 145.285156 84.960938 146.175781 84.691406 146.984375 L 83.992188 149.429688 C 83.433594 151.082031 82.921875 152.613281 82.363281 154.140625 C 82.082031 154.910156 81.808594 155.632812 81.527344 156.378906 C 82.179688 155.203125 83.242188 153.371094 83.355469 153.210938 C 85.316406 150.554688 90.65625 146.585938 94.15625 147.761719 C 95.324219 148.1875 96.253906 149.089844 96.714844 150.238281 C 97.175781 151.390625 97.121094 152.683594 96.570312 153.796875 C 95.492188 156.175781 92.589844 157.535156 90.179688 158.074219 C 87.535156 158.675781 81.851562 157.519531 81.15625 157.375 C 80.457031 159.199219 79.757812 160.964844 79.101562 162.609375 C 77 167.8125 75.003906 172.066406 73.585938 175.027344 L 73.351562 175.503906 L 83.707031 175.503906 L 80.128906 245.222656 C 79.925781 250.582031 75.515625 254.816406 70.152344 254.800781 C 64.847656 254.804688 60.472656 250.648438 60.199219 245.351562 L 56.621094 175.628906 L 67.738281 175.628906 C 67.683594 175.148438 67.628906 174.636719 67.5625 174.0625 C 67.191406 170.84375 66.589844 166.234375 65.625 160.761719 C 65.351562 159.179688 65.035156 157.507812 64.6875 155.792969 C 63.988281 155.882812 58.234375 156.609375 55.636719 155.792969 C 53.285156 155.09375 50.484375 153.496094 49.589844 151.046875 C 49.125 149.898438 49.167969 148.605469 49.714844 147.488281 C 50.257812 146.375 51.25 145.546875 52.445312 145.207031 C 56.019531 144.289062 61.054688 148.660156 62.8125 151.445312 C 62.921875 151.628906 64.007812 153.886719 64.539062 155.058594 C 64.328125 154.019531 64.128906 152.992188 63.890625 151.914062 C 63.554688 150.367188 63.1875 148.742188 62.777344 147.160156 C 62.550781 146.347656 62.320312 145.53125 62.074219 144.703125 C 61.832031 143.878906 61.550781 143.09375 61.292969 142.269531 C 60.886719 141.078125 60.402344 139.867188 59.890625 138.65625 C 58.339844 139.089844 53.746094 140.273438 51.386719 139.929688 C 49.027344 139.585938 45.941406 138.445312 44.6875 136.164062 C 44.054688 135.097656 43.902344 133.8125 44.269531 132.625 C 44.640625 131.441406 45.496094 130.46875 46.628906 129.953125 C 50.023438 128.507812 55.65625 132.054688 57.828125 134.554688 C 57.898438 134.632812 58.304688 135.203125 58.773438 135.890625 C 58.269531 134.730469 57.769531 133.558594 57.226562 132.390625 C 55.671875 129.085938 53.984375 125.761719 52.324219 122.429688 C 51.976562 121.730469 51.625 121.03125 51.289062 120.328125 C 49.980469 120.699219 44.988281 122.03125 42.546875 121.675781 C 40.101562 121.316406 37.101562 120.191406 35.847656 117.902344 C 35.222656 116.835938 35.078125 115.554688 35.449219 114.375 C 35.824219 113.199219 36.675781 112.234375 37.800781 111.71875 C 41.195312 110.277344 46.828125 113.820312 49 116.324219 C 49.078125 116.410156 49.558594 117.097656 50.085938 117.871094 C 49.203125 116.046875 48.34375 114.21875 47.542969 112.371094 C 46.164062 109.21875 44.996094 105.976562 44.042969 102.667969 C 43.589844 102.800781 37.800781 104.480469 35.050781 104.070312 C 32.613281 103.71875 29.609375 102.585938 28.355469 100.304688 C 27.722656 99.238281 27.570312 97.953125 27.9375 96.765625 C 28.304688 95.582031 29.160156 94.609375 30.289062 94.09375 C 33.691406 92.652344 39.324219 96.195312 41.488281 98.691406 C 41.644531 98.875 43.351562 101.367188 43.933594 102.285156 C 43.929688 102.246094 43.929688 102.203125 43.933594 102.164062 C 43.074219 98.890625 42.511719 95.550781 42.253906 92.175781 C 41.996094 89.167969 41.910156 86.144531 42 83.125 C 42.070312 80.324219 42.300781 77.761719 42.523438 75.503906 C 42.65625 74.277344 42.796875 73.15625 42.945312 72.113281 L 42.882812 72.15625 C 42.820312 72.199219 41.585938 67.886719 41.539062 67.605469 C 40.992188 64.351562 41.859375 57.75 45.136719 56.050781 C 46.253906 55.511719 47.546875 55.472656 48.695312 55.941406 C 49.84375 56.414062 50.738281 57.351562 51.15625 58.519531 C 52.109375 60.949219 51.058594 63.980469 49.757812 66.085938 C 48.453125 68.195312 44.15625 71.253906 43.105469 71.988281 C 42.980469 73.074219 42.855469 74.234375 42.742188 75.488281 C 42.566406 77.75 42.390625 80.304688 42.386719 83.097656 C 42.386719 83.847656 42.386719 84.644531 42.421875 85.421875 C 42.671875 84.105469 43.042969 82.3125 43.121094 82.136719 C 44.136719 79.003906 47.941406 73.542969 51.640625 73.550781 C 52.878906 73.585938 54.046875 74.148438 54.847656 75.09375 C 55.648438 76.039062 56.007812 77.285156 55.839844 78.511719 C 55.574219 81.109375 53.242188 83.3125 51.136719 84.59375 C 49.027344 85.875 43.601562 86.667969 42.441406 86.800781 C 42.496094 88.523438 42.589844 90.300781 42.796875 92.121094 C 43.128906 95.453125 43.757812 98.753906 44.675781 101.976562 L 44.882812 101.976562 C 44.96875 100.738281 45.207031 98.140625 45.246094 97.921875 C 45.949219 94.695312 49.097656 88.824219 52.773438 88.453125 C 54.007812 88.351562 55.230469 88.78125 56.128906 89.636719 C 57.03125 90.488281 57.523438 91.683594 57.492188 92.925781 C 57.492188 95.527344 55.441406 97.984375 53.488281 99.484375 C 51.234375 101.214844 45.128906 102.597656 44.898438 102.648438 C 45.894531 105.828125 47.097656 108.9375 48.503906 111.957031 C 49.53125 114.199219 50.660156 116.429688 51.8125 118.65625 C 51.855469 117.78125 52.164062 114.371094 52.214844 114.128906 C 52.914062 110.902344 56.0625 105.027344 59.738281 104.648438 C 60.972656 104.550781 62.191406 104.984375 63.09375 105.835938 C 63.992188 106.6875 64.488281 107.882812 64.457031 109.121094 C 64.457031 111.734375 62.398438 114.183594 60.445312 115.683594 C 58.246094 117.367188 52.410156 118.726562 51.910156 118.839844 C 52.4375 119.847656 52.960938 120.863281 53.492188 121.871094 C 55.238281 125.167969 56.992188 128.457031 58.644531 131.761719 C 59.214844 132.910156 59.730469 134.058594 60.257812 135.203125 C 60.347656 133.894531 60.570312 131.53125 60.605469 131.328125 C 61.304688 128.101562 64.464844 122.226562 68.132812 121.847656 C 69.367188 121.75 70.585938 122.179688 71.488281 123.03125 C 72.386719 123.886719 72.882812 125.082031 72.847656 126.320312 C 72.847656 128.933594 70.796875 131.382812 68.84375 132.882812 C 66.890625 134.378906 61.992188 135.632812 60.613281 135.96875 C 61.472656 137.898438 62.300781 139.789062 63 141.722656 C 63.285156 142.5625 63.628906 143.394531 63.859375 144.214844 L 64.601562 146.65625 C 65.042969 148.34375 65.464844 149.90625 65.84375 151.488281 C 66.039062 152.285156 66.199219 153.039062 66.382812 153.8125 C 66.277344 152.480469 66.148438 150.359375 66.15625 150.164062 C 66.332031 146.875 68.59375 140.609375 72.164062 139.664062 C 73.371094 139.378906 74.640625 139.617188 75.660156 140.328125 C 76.679688 141.035156 77.351562 142.144531 77.503906 143.375 C 77.554688 143.695312 77.574219 144.015625 77.566406 144.339844 C 79.003906 146.859375 79.773438 149.699219 79.800781 152.601562 C 79.800781 152.808594 79.457031 155.296875 79.253906 156.5625 C 79.652344 155.582031 80.046875 154.609375 80.4375 153.585938 C 81.019531 152.109375 81.578125 150.535156 82.136719 149.007812 L 82.921875 146.578125 C 83.203125 145.761719 83.371094 144.949219 83.621094 144.117188 C 83.945312 142.898438 84.210938 141.617188 84.476562 140.351562 C 82.941406 139.847656 78.457031 138.304688 76.679688 136.71875 C 74.898438 135.128906 72.960938 132.476562 73.179688 129.878906 C 73.238281 128.640625 73.820312 127.484375 74.785156 126.703125 C 75.746094 125.917969 76.992188 125.578125 78.21875 125.769531 C 81.851562 126.46875 84.59375 132.511719 85.015625 135.777344 C 85.015625 135.882812 85.050781 136.585938 85.0625 137.417969 C 85.289062 136.171875 85.519531 134.917969 85.699219 133.644531 C 86.234375 130.03125 86.652344 126.328125 87.101562 122.625 C 87.191406 121.847656 87.296875 121.078125 87.386719 120.308594 C 86.09375 119.894531 81.222656 118.273438 79.359375 116.605469 C 77.496094 114.941406 75.640625 112.363281 75.859375 109.765625 C 75.914062 108.527344 76.496094 107.371094 77.460938 106.585938 C 78.421875 105.800781 79.671875 105.464844 80.898438 105.65625 C 84.53125 106.359375 87.269531 112.398438 87.695312 115.667969 C 87.695312 115.78125 87.695312 116.621094 87.746094 117.558594 C 88.011719 115.542969 88.304688 113.546875 88.660156 111.566406 C 89.242188 108.160156 90.054688 104.796875 91.089844 101.5 C 90.628906 101.359375 84.882812 99.566406 82.808594 97.71875 C 80.96875 96.074219 79.085938 93.476562 79.308594 90.882812 C 79.367188 89.640625 79.949219 88.484375 80.910156 87.699219 C 81.871094 86.914062 83.125 86.578125 84.351562 86.773438 C 87.976562 87.472656 90.71875 93.511719 91.148438 96.78125 C 91.148438 97.011719 91.222656 100.035156 91.203125 101.121094 C 91.203125 101.078125 91.203125 101.039062 91.238281 101.003906 C 92.332031 97.800781 93.707031 94.703125 95.347656 91.742188 C 96.804688 89.085938 98.410156 86.515625 100.164062 84.042969 C 101.765625 81.738281 103.367188 79.738281 104.8125 77.972656 C 105.59375 77.019531 106.328125 76.167969 107.023438 75.375 L 106.945312 75.375 C 106.875 75.375 108.226562 71.09375 108.347656 70.832031 C 109.691406 67.824219 114.050781 62.789062 117.71875 63.183594 C 118.953125 63.351562 120.058594 64.039062 120.753906 65.074219 C 121.449219 66.109375 121.671875 67.390625 121.359375 68.601562 Z M 79.015625 157.21875 C 78.386719 156.917969 73.550781 154.523438 71.660156 152.472656 C 70.023438 153.363281 68.335938 154.15625 66.605469 154.847656 C 67.03125 156.75 67.4375 158.605469 67.78125 160.347656 C 68.871094 165.863281 69.578125 170.5 70.027344 173.753906 C 70.117188 174.453125 70.203125 175.0625 70.273438 175.628906 L 70.519531 175.628906 L 71.328125 174.054688 C 72.792969 171.164062 74.828125 166.992188 77.054688 161.882812 C 77.699219 160.410156 78.359375 158.84375 79.015625 157.21875 Z M 98.363281 86.730469 C 98.421875 86.730469 99.539062 82.425781 99.582031 82.136719 C 100.035156 78.875 98.992188 72.296875 95.667969 70.6875 C 94.535156 70.179688 93.242188 70.175781 92.105469 70.679688 C 90.96875 71.183594 90.101562 72.144531 89.71875 73.324219 C 88.828125 75.773438 89.964844 78.777344 91.300781 80.84375 C 92.867188 83.300781 98.355469 86.730469 98.363281 86.730469 Z M 98.363281 86.730469 "/>
</g>
<mask id="mask3">
  <g filter="url(#alpha)">
<rect x="0" y="0" width="350" height="350" style="fill:rgb(0%,0%,0%);fill-opacity:0.6;stroke:none;"/>
  </g>
</mask>
<clipPath id="clip4">
  <rect x="0" y="0" width="350" height="350"/>
</clipPath>
<g id="surface14" clip-path="url(#clip4)">
<path style=" stroke:none;fill-rule:nonzero;fill:rgb(0%,0%,0%);fill-opacity:1;" d="M 85.652344 107.855469 L 67.117188 273.308594 C 67.035156 274.027344 67.390625 274.726562 68.015625 275.085938 C 68.644531 275.449219 69.425781 275.40625 70.007812 274.972656 L 79.507812 267.972656 C 80.503906 267.234375 81.761719 266.941406 82.984375 267.160156 C 84.207031 267.378906 85.285156 268.089844 85.96875 269.128906 L 97.082031 286.097656 C 97.332031 286.484375 97.8125 286.652344 98.246094 286.507812 C 98.683594 286.359375 98.960938 285.933594 98.925781 285.472656 L 85.785156 107.855469 C 85.777344 107.828125 85.75 107.808594 85.71875 107.808594 C 85.6875 107.808594 85.660156 107.828125 85.652344 107.855469 Z M 85.652344 107.855469 "/>
</g>
<mask id="mask4">
  <g filter="url(#alpha)">
<rect x="0" y="0" width="350" height="350" style="fill:rgb(0%,0%,0%);fill-opacity:0.301961;stroke:none;"/>
  </g>
</mask>
<clipPath id="clip5">
  <rect x="0" y="0" width="350" height="350"/>
</clipPath>
<g id="surface17" clip-path="url(#clip5)">
<path style=" stroke:none;fill-rule:nonzero;fill:rgb(0%,0%,0%);fill-opacity:1;" d="M 82.269531 267.078125 C 83.765625 267.105469 85.148438 267.867188 85.96875 269.113281 L 97.082031 286.082031 C 97.332031 286.472656 97.8125 286.640625 98.246094 286.492188 C 98.683594 286.34375 98.960938 285.917969 98.925781 285.460938 L 97.335938 264.011719 L 82.03125 267.007812 C 82.113281 267.023438 82.195312 267.046875 82.269531 267.078125 Z M 82.269531 267.078125 "/>
</g>
<mask id="mask5">
  <g filter="url(#alpha)">
<rect x="0" y="0" width="350" height="350" style="fill:rgb(0%,0%,0%);fill-opacity:0.490196;stroke:none;"/>
  </g>
</mask>
<clipPath id="clip6">
  <rect x="0" y="0" width="350" height="350"/>
</clipPath>
<g id="surface20" clip-path="url(#clip6)">
<path style=" stroke:none;fill-rule:nonzero;fill:rgb(14.901961%,19.607843%,21.960784%);fill-opacity:1;" d="M 95.144531 158.59375 C 95.144531 158.59375 98.699219 209.769531 101.96875 228.429688 C 105.238281 247.09375 111.300781 275.023438 111.300781 275.023438 C 111.300781 275.023438 216.300781 258.769531 268.101562 236.832031 L 263.898438 216.769531 Z M 95.144531 158.59375 "/>
</g>
</defs>
<g id="surface1">
<path style=" stroke:none;fill-rule:nonzero;fill:rgb(14.901961%,19.607843%,21.960784%);fill-opacity:1;" d="M 316.359375 202.847656 C 317.273438 198.289062 318.773438 193.871094 320.824219 189.699219 C 326.425781 178.234375 330.449219 168.203125 326.886719 155.398438 C 318.15625 124.132812 282.652344 120.476562 265.140625 96.894531 C 238.0625 60.453125 171.535156 57.289062 139.753906 88.78125 C 130.011719 98.433594 125.445312 112.070312 115.597656 121.617188 C 101.085938 135.695312 79.539062 137.507812 64.636719 151.542969 C 40.339844 174.441406 37.980469 213.242188 59.550781 238.988281 C 82.328125 266.175781 114.476562 261.714844 145.703125 255.933594 C 161.070312 253.09375 177.042969 250.011719 192.703125 252.195312 C 226.101562 256.898438 265.726562 275.246094 298.09375 256.984375 C 315.335938 247.253906 315.777344 232.078125 315.378906 214.375 C 315.28125 210.507812 315.609375 206.640625 316.359375 202.847656 Z M 316.359375 202.847656 "/>
<use xlink:href="#surface5" mask="url(#mask0)"/>
<path style=" stroke:none;fill-rule:nonzero;fill:rgb(14.901961%,19.607843%,21.960784%);fill-opacity:1;" d="M 314.300781 269.851562 C 314.300781 254.191406 254.285156 241.5 180.25 241.5 C 106.214844 241.5 46.199219 254.191406 46.199219 269.851562 C 46.199219 285.507812 106.214844 298.199219 180.25 298.199219 C 254.285156 298.199219 314.300781 285.507812 314.300781 269.851562 Z M 314.300781 269.851562 "/>
<use xlink:href="#surface8" mask="url(#mask1)"/>
<path style=" stroke:none;fill-rule:nonzero;fill:rgb(14.901961%,19.607843%,21.960784%);fill-opacity:1;" d="M 27.335938 79.898438 C 27.003906 78.703125 27.199219 77.425781 27.863281 76.382812 C 28.53125 75.335938 29.613281 74.625 30.835938 74.425781 C 34.496094 73.925781 38.988281 78.839844 40.417969 81.816406 C 40.535156 82.074219 42 86.316406 41.929688 86.316406 C 41.859375 86.316406 35.441406 86.464844 32.828125 85.300781 C 30.539062 84.316406 27.945312 82.433594 27.335938 79.898438 Z M 121.359375 68.601562 C 120.820312 71.148438 118.273438 73.101562 116.046875 74.152344 C 113.820312 75.199219 108.535156 75.382812 107.238281 75.402344 C 106.539062 76.238281 105.789062 77.140625 104.984375 78.148438 C 103.585938 79.941406 102.03125 81.976562 100.492188 84.300781 C 100.078125 84.925781 99.660156 85.601562 99.238281 86.261719 C 100.175781 85.300781 101.472656 84.007812 101.613281 83.894531 C 104.195312 81.84375 110.382812 79.386719 113.457031 81.429688 C 114.46875 82.144531 115.132812 83.253906 115.28125 84.484375 C 115.425781 85.71875 115.042969 86.953125 114.226562 87.886719 C 112.566406 89.902344 109.410156 90.460938 106.945312 90.363281 C 104.480469 90.265625 99.5625 87.921875 98.511719 87.394531 C 97.609375 88.859375 96.710938 90.382812 95.871094 92.027344 C 94.308594 94.996094 93.011719 98.09375 92 101.289062 L 92.191406 101.382812 C 92.9375 100.394531 94.570312 98.355469 94.722656 98.210938 C 97.0625 95.878906 102.949219 92.765625 106.230469 94.449219 C 107.304688 95.054688 108.078125 96.078125 108.355469 97.277344 C 108.632812 98.476562 108.394531 99.738281 107.695312 100.75 C 106.296875 102.941406 103.195312 103.84375 100.738281 104.011719 C 97.9375 104.214844 92.050781 102.003906 91.824219 101.914062 C 90.917969 105.113281 90.214844 108.371094 89.726562 111.664062 C 89.347656 114.101562 89.0625 116.5625 88.796875 119.078125 C 89.304688 118.378906 91.449219 115.695312 91.59375 115.519531 C 93.933594 113.195312 99.820312 110.074219 103.097656 111.769531 C 104.183594 112.367188 104.964844 113.398438 105.246094 114.609375 C 105.523438 115.816406 105.277344 117.089844 104.566406 118.105469 C 103.164062 120.289062 100.066406 121.191406 97.609375 121.359375 C 94.84375 121.554688 89.207031 119.460938 88.746094 119.257812 C 88.628906 120.394531 88.507812 121.519531 88.394531 122.660156 C 88.03125 126.363281 87.695312 130.089844 87.234375 133.75 C 87.074219 135.015625 86.878906 136.261719 86.679688 137.507812 C 87.480469 136.472656 88.964844 134.617188 89.109375 134.46875 C 91.449219 132.144531 97.335938 129.023438 100.617188 130.71875 C 101.695312 131.316406 102.464844 132.34375 102.742188 133.542969 C 103.023438 134.742188 102.78125 136.003906 102.082031 137.019531 C 100.679688 139.203125 97.578125 140.105469 95.121094 140.28125 C 92.664062 140.453125 87.890625 138.796875 86.554688 138.304688 C 86.210938 140.40625 85.855469 142.429688 85.351562 144.425781 C 85.128906 145.285156 84.960938 146.175781 84.691406 146.984375 L 83.992188 149.429688 C 83.433594 151.082031 82.921875 152.613281 82.363281 154.140625 C 82.082031 154.910156 81.808594 155.632812 81.527344 156.378906 C 82.179688 155.203125 83.242188 153.371094 83.355469 153.210938 C 85.316406 150.554688 90.65625 146.585938 94.15625 147.761719 C 95.324219 148.1875 96.253906 149.089844 96.714844 150.238281 C 97.175781 151.390625 97.121094 152.683594 96.570312 153.796875 C 95.492188 156.175781 92.589844 157.535156 90.179688 158.074219 C 87.535156 158.675781 81.851562 157.519531 81.15625 157.375 C 80.457031 159.199219 79.757812 160.964844 79.101562 162.609375 C 77 167.8125 75.003906 172.066406 73.585938 175.027344 L 73.351562 175.503906 L 83.707031 175.503906 L 80.128906 245.222656 C 79.925781 250.582031 75.515625 254.816406 70.152344 254.800781 C 64.847656 254.804688 60.472656 250.648438 60.199219 245.351562 L 56.621094 175.628906 L 67.738281 175.628906 C 67.683594 175.148438 67.628906 174.636719 67.5625 174.0625 C 67.191406 170.84375 66.589844 166.234375 65.625 160.761719 C 65.351562 159.179688 65.035156 157.507812 64.6875 155.792969 C 63.988281 155.882812 58.234375 156.609375 55.636719 155.792969 C 53.285156 155.09375 50.484375 153.496094 49.589844 151.046875 C 49.125 149.898438 49.167969 148.605469 49.714844 147.488281 C 50.257812 146.375 51.25 145.546875 52.445312 145.207031 C 56.019531 144.289062 61.054688 148.660156 62.8125 151.445312 C 62.921875 151.628906 64.007812 153.886719 64.539062 155.058594 C 64.328125 154.019531 64.128906 152.992188 63.890625 151.914062 C 63.554688 150.367188 63.1875 148.742188 62.777344 147.160156 C 62.550781 146.347656 62.320312 145.53125 62.074219 144.703125 C 61.832031 143.878906 61.550781 143.09375 61.292969 142.269531 C 60.886719 141.078125 60.402344 139.867188 59.890625 138.65625 C 58.339844 139.089844 53.746094 140.273438 51.386719 139.929688 C 49.027344 139.585938 45.941406 138.445312 44.6875 136.164062 C 44.054688 135.097656 43.902344 133.8125 44.269531 132.625 C 44.640625 131.441406 45.496094 130.46875 46.628906 129.953125 C 50.023438 128.507812 55.65625 132.054688 57.828125 134.554688 C 57.898438 134.632812 58.304688 135.203125 58.773438 135.890625 C 58.269531 134.730469 57.769531 133.558594 57.226562 132.390625 C 55.671875 129.085938 53.984375 125.761719 52.324219 122.429688 C 51.976562 121.730469 51.625 121.03125 51.289062 120.328125 C 49.980469 120.699219 44.988281 122.03125 42.546875 121.675781 C 40.101562 121.316406 37.101562 120.191406 35.847656 117.902344 C 35.222656 116.835938 35.078125 115.554688 35.449219 114.375 C 35.824219 113.199219 36.675781 112.234375 37.800781 111.71875 C 41.195312 110.277344 46.828125 113.820312 49 116.324219 C 49.078125 116.410156 49.558594 117.097656 50.085938 117.871094 C 49.203125 116.046875 48.34375 114.21875 47.542969 112.371094 C 46.164062 109.21875 44.996094 105.976562 44.042969 102.667969 C 43.589844 102.800781 37.800781 104.480469 35.050781 104.070312 C 32.613281 103.71875 29.609375 102.585938 28.355469 100.304688 C 27.722656 99.238281 27.570312 97.953125 27.9375 96.765625 C 28.304688 95.582031 29.160156 94.609375 30.289062 94.09375 C 33.691406 92.652344 39.324219 96.195312 41.488281 98.691406 C 41.644531 98.875 43.351562 101.367188 43.933594 102.285156 C 43.929688 102.246094 43.929688 102.203125 43.933594 102.164062 C 43.074219 98.890625 42.511719 95.550781 42.253906 92.175781 C 41.996094 89.167969 41.910156 86.144531 42 83.125 C 42.070312 80.324219 42.300781 77.761719 42.523438 75.503906 C 42.65625 74.277344 42.796875 73.15625 42.945312 72.113281 L 42.882812 72.15625 C 42.820312 72.199219 41.585938 67.886719 41.539062 67.605469 C 40.992188 64.351562 41.859375 57.75 45.136719 56.050781 C 46.253906 55.511719 47.546875 55.472656 48.695312 55.941406 C 49.84375 56.414062 50.738281 57.351562 51.15625 58.519531 C 52.109375 60.949219 51.058594 63.980469 49.757812 66.085938 C 48.453125 68.195312 44.15625 71.253906 43.105469 71.988281 C 42.980469 73.074219 42.855469 74.234375 42.742188 75.488281 C 42.566406 77.75 42.390625 80.304688 42.386719 83.097656 C 42.386719 83.847656 42.386719 84.644531 42.421875 85.421875 C 42.671875 84.105469 43.042969 82.3125 43.121094 82.136719 C 44.136719 79.003906 47.941406 73.542969 51.640625 73.550781 C 52.878906 73.585938 54.046875 74.148438 54.847656 75.09375 C 55.648438 76.039062 56.007812 77.285156 55.839844 78.511719 C 55.574219 81.109375 53.242188 83.3125 51.136719 84.59375 C 49.027344 85.875 43.601562 86.667969 42.441406 86.800781 C 42.496094 88.523438 42.589844 90.300781 42.796875 92.121094 C 43.128906 95.453125 43.757812 98.753906 44.675781 101.976562 L 44.882812 101.976562 C 44.96875 100.738281 45.207031 98.140625 45.246094 97.921875 C 45.949219 94.695312 49.097656 88.824219 52.773438 88.453125 C 54.007812 88.351562 55.230469 88.78125 56.128906 89.636719 C 57.03125 90.488281 57.523438 91.683594 57.492188 92.925781 C 57.492188 95.527344 55.441406 97.984375 53.488281 99.484375 C 51.234375 101.214844 45.128906 102.597656 44.898438 102.648438 C 45.894531 105.828125 47.097656 108.9375 48.503906 111.957031 C 49.53125 114.199219 50.660156 116.429688 51.8125 118.65625 C 51.855469 117.78125 52.164062 114.371094 52.214844 114.128906 C 52.914062 110.902344 56.0625 105.027344 59.738281 104.648438 C 60.972656 104.550781 62.191406 104.984375 63.09375 105.835938 C 63.992188 106.6875 64.488281 107.882812 64.457031 109.121094 C 64.457031 111.734375 62.398438 114.183594 60.445312 115.683594 C 58.246094 117.367188 52.410156 118.726562 51.910156 118.839844 C 52.4375 119.847656 52.960938 120.863281 53.492188 121.871094 C 55.238281 125.167969 56.992188 128.457031 58.644531 131.761719 C 59.214844 132.910156 59.730469 134.058594 60.257812 135.203125 C 60.347656 133.894531 60.570312 131.53125 60.605469 131.328125 C 61.304688 128.101562 64.464844 122.226562 68.132812 121.847656 C 69.367188 121.75 70.585938 122.179688 71.488281 123.03125 C 72.386719 123.886719 72.882812 125.082031 72.847656 126.320312 C 72.847656 128.933594 70.796875 131.382812 68.84375 132.882812 C 66.890625 134.378906 61.992188 135.632812 60.613281 135.96875 C 61.472656 137.898438 62.300781 139.789062 63 141.722656 C 63.285156 142.5625 63.628906 143.394531 63.859375 144.214844 L 64.601562 146.65625 C 65.042969 148.34375 65.464844 149.90625 65.84375 151.488281 C 66.039062 152.285156 66.199219 153.039062 66.382812 153.8125 C 66.277344 152.480469 66.148438 150.359375 66.15625 150.164062 C 66.332031 146.875 68.59375 140.609375 72.164062 139.664062 C 73.371094 139.378906 74.640625 139.617188 75.660156 140.328125 C 76.679688 141.035156 77.351562 142.144531 77.503906 143.375 C 77.554688 143.695312 77.574219 144.015625 77.566406 144.339844 C 79.003906 146.859375 79.773438 149.699219 79.800781 152.601562 C 79.800781 152.808594 79.457031 155.296875 79.253906 156.5625 C 79.652344 155.582031 80.046875 154.609375 80.4375 153.585938 C 81.019531 152.109375 81.578125 150.535156 82.136719 149.007812 L 82.921875 146.578125 C 83.203125 145.761719 83.371094 144.949219 83.621094 144.117188 C 83.945312 142.898438 84.210938 141.617188 84.476562 140.351562 C 82.941406 139.847656 78.457031 138.304688 76.679688 136.71875 C 74.898438 135.128906 72.960938 132.476562 73.179688 129.878906 C 73.238281 128.640625 73.820312 127.484375 74.785156 126.703125 C 75.746094 125.917969 76.992188 125.578125 78.21875 125.769531 C 81.851562 126.46875 84.59375 132.511719 85.015625 135.777344 C 85.015625 135.882812 85.050781 136.585938 85.0625 137.417969 C 85.289062 136.171875 85.519531 134.917969 85.699219 133.644531 C 86.234375 130.03125 86.652344 126.328125 87.101562 122.625 C 87.191406 121.847656 87.296875 121.078125 87.386719 120.308594 C 86.09375 119.894531 81.222656 118.273438 79.359375 116.605469 C 77.496094 114.941406 75.640625 112.363281 75.859375 109.765625 C 75.914062 108.527344 76.496094 107.371094 77.460938 106.585938 C 78.421875 105.800781 79.671875 105.464844 80.898438 105.65625 C 84.53125 106.359375 87.269531 112.398438 87.695312 115.667969 C 87.695312 115.78125 87.695312 116.621094 87.746094 117.558594 C 88.011719 115.542969 88.304688 113.546875 88.660156 111.566406 C 89.242188 108.160156 90.054688 104.796875 91.089844 101.5 C 90.628906 101.359375 84.882812 99.566406 82.808594 97.71875 C 80.96875 96.074219 79.085938 93.476562 79.308594 90.882812 C 79.367188 89.640625 79.949219 88.484375 80.910156 87.699219 C 81.871094 86.914062 83.125 86.578125 84.351562 86.773438 C 87.976562 87.472656 90.71875 93.511719 91.148438 96.78125 C 91.148438 97.011719 91.222656 100.035156 91.203125 101.121094 C 91.203125 101.078125 91.203125 101.039062 91.238281 101.003906 C 92.332031 97.800781 93.707031 94.703125 95.347656 91.742188 C 96.804688 89.085938 98.410156 86.515625 100.164062 84.042969 C 101.765625 81.738281 103.367188 79.738281 104.8125 77.972656 C 105.59375 77.019531 106.328125 76.167969 107.023438 75.375 L 106.945312 75.375 C 106.875 75.375 108.226562 71.09375 108.347656 70.832031 C 109.691406 67.824219 114.050781 62.789062 117.71875 63.183594 C 118.953125 63.351562 120.058594 64.039062 120.753906 65.074219 C 121.449219 66.109375 121.671875 67.390625 121.359375 68.601562 Z M 79.015625 157.21875 C 78.386719 156.917969 73.550781 154.523438 71.660156 152.472656 C 70.023438 153.363281 68.335938 154.15625 66.605469 154.847656 C 67.03125 156.75 67.4375 158.605469 67.78125 160.347656 C 68.871094 165.863281 69.578125 170.5 70.027344 173.753906 C 70.117188 174.453125 70.203125 175.0625 70.273438 175.628906 L 70.519531 175.628906 L 71.328125 174.054688 C 72.792969 171.164062 74.828125 166.992188 77.054688 161.882812 C 77.699219 160.410156 78.359375 158.84375 79.015625 157.21875 Z M 98.363281 86.730469 C 98.421875 86.730469 99.539062 82.425781 99.582031 82.136719 C 100.035156 78.875 98.992188 72.296875 95.667969 70.6875 C 94.535156 70.179688 93.242188 70.175781 92.105469 70.679688 C 90.96875 71.183594 90.101562 72.144531 89.71875 73.324219 C 88.828125 75.773438 89.964844 78.777344 91.300781 80.84375 C 92.867188 83.300781 98.355469 86.730469 98.363281 86.730469 Z M 98.363281 86.730469 "/>
<use xlink:href="#surface11" mask="url(#mask2)"/>
<path style="fill-rule:nonzero;fill:rgb(18.039216%,20.784314%,22.745098%);fill-opacity:1;stroke-width:1;stroke-linecap:round;stroke-linejoin:round;stroke:rgb(18.039216%,20.784314%,22.745098%);stroke-opacity:1;stroke-miterlimit:4;" d="M 423.610491 159.257812 C 423.610491 159.257812 413.828125 166.741071 412.477679 172.5 C 411.127232 178.258929 412.868304 184.391741 414.017857 188.041295 C 415.167411 191.690848 415.362723 209.341518 404.620536 217.198661 C 393.878348 225.061384 389.079241 232.929688 390.228795 242.717634 C 391.378348 252.511161 405.959821 263.247768 418.052455 265.719866 C 430.139509 268.191964 447.209821 262.65067 453.917411 248.258929 C 460.63058 233.872768 451.618304 218.002232 446.629464 209.001116 C 441.640625 200 442.03125 191.540179 447.628348 191.160714 C 453.231027 190.78125 456.071429 192.159598 456.272321 184.252232 C 456.467634 176.339286 454.542411 164.112723 444.36942 157.96875 C 434.202009 151.830357 423.610491 159.257812 423.610491 159.257812 Z M 423.610491 159.257812 " transform="matrix(0.7,0,0,0.7,0,0)"/>
<path style="fill:none;stroke-width:0.5;stroke-linecap:butt;stroke-linejoin:miter;stroke:rgb(100%,100%,100%);stroke-opacity:1;stroke-miterlimit:10;" d="M 399.53125 255.758929 C 400.530134 256.428571 409.53125 260.100446 416.188616 249.760045 C 422.851562 239.419643 413.777902 229.888393 415.530134 220.758929 " transform="matrix(0.7,0,0,0.7,0,0)"/>
<path style="fill:none;stroke-width:0.5;stroke-linecap:butt;stroke-linejoin:miter;stroke:rgb(100%,100%,100%);stroke-opacity:1;stroke-miterlimit:10;" d="M 434.547991 171.160714 C 434.547991 171.160714 431.428571 161.082589 438.191964 164.352679 C 445.440848 167.851562 451.188616 184.352679 448.688616 188.102679 " transform="matrix(0.7,0,0,0.7,0,0)"/>
<path style="fill:none;stroke-width:0.5;stroke-linecap:butt;stroke-linejoin:miter;stroke:rgb(100%,100%,100%);stroke-opacity:1;stroke-miterlimit:10;" d="M 432.689732 169.84933 C 432.689732 169.84933 428.939732 162.600446 431.439732 159.352679 C 433.939732 156.09933 439.6875 159.84933 442.689732 162.098214 " transform="matrix(0.7,0,0,0.7,0,0)"/>
<path style="fill:none;stroke-width:0.5;stroke-linecap:butt;stroke-linejoin:miter;stroke:rgb(100%,100%,100%);stroke-opacity:1;stroke-miterlimit:10;" d="M 441.188616 189.598214 C 441.188616 189.598214 442.1875 194.101562 439.190848 203.102679 C 436.188616 212.098214 430.691964 222.34933 436.188616 231.852679 C 441.690848 241.350446 445.9375 247.851562 439.6875 257.34933 " transform="matrix(0.7,0,0,0.7,0,0)"/>
<path style="fill:none;stroke-width:0.5;stroke-linecap:butt;stroke-linejoin:miter;stroke:rgb(100%,100%,100%);stroke-opacity:1;stroke-miterlimit:10;" d="M 441.188616 194.84933 C 441.40625 200.708705 440.987723 206.579241 439.938616 212.34933 C 438.191964 222.34933 443.688616 228.850446 449.441964 235.100446 C 455.189732 241.350446 453.688616 246.601562 451.690848 252.34933 " transform="matrix(0.7,0,0,0.7,0,0)"/>
<path style="fill:none;stroke-width:0.5;stroke-linecap:butt;stroke-linejoin:miter;stroke:rgb(100%,100%,100%);stroke-opacity:1;stroke-miterlimit:10;" d="M 432.438616 171.350446 C 432.438616 171.350446 420.691964 172.34933 417.1875 170.848214 C 413.688616 169.352679 414.441964 168.102679 414.441964 168.102679 " transform="matrix(0.7,0,0,0.7,0,0)"/>
<path style="fill-rule:nonzero;fill:rgb(100%,100%,100%);fill-opacity:1;stroke-width:1;stroke-linecap:round;stroke-linejoin:round;stroke:rgb(18.039216%,20.784314%,22.745098%);stroke-opacity:1;stroke-miterlimit:4;" d="M 434.001116 211.289062 C 434.001116 211.289062 435.530134 226.830357 437.488839 235.820312 C 439.447545 244.810268 442.572545 256.160714 441.791295 259.291295 C 441.010045 262.421875 423.789062 289.012277 423.789062 289.012277 L 418.710938 285.491071 L 429.268973 253.811384 L 420.379464 224.112723 C 420.379464 224.112723 428.521205 212.18192 434.001116 211.289062 Z M 434.001116 211.289062 " transform="matrix(0.7,0,0,0.7,0,0)"/>
<path style="fill-rule:nonzero;fill:rgb(100%,100%,100%);fill-opacity:1;stroke-width:1;stroke-linecap:round;stroke-linejoin:round;stroke:rgb(18.039216%,20.784314%,22.745098%);stroke-opacity:1;stroke-miterlimit:4;" d="M 432.628348 208.761161 C 430.128348 205.881696 424.760045 198.398438 424.760045 198.398438 L 416.322545 188.398438 L 404.620536 172.287946 C 403.080357 170.178571 397.901786 170.9375 382.940848 171.138393 C 367.979911 171.339286 322.572545 162.700893 322.572545 162.700893 L 321.037946 172.700893 C 321.037946 172.700893 362.600446 181.702009 373.147321 182.700893 C 383.699777 183.699777 393.487723 185 393.487723 185 C 392.047991 187.868304 390.764509 190.820312 389.648438 193.828125 C 388.498884 197.282366 375.072545 215.697545 375.072545 215.697545 C 375.072545 215.697545 374.737723 215.898438 374.168527 216.277902 C 374.017857 219.620536 374.341518 226.707589 379.330357 230.452009 C 383.191964 233.342634 388.839286 234.559152 392.918527 235.072545 C 392.991071 234.83817 393.052455 234.637277 393.102679 234.497768 C 393.677455 232.957589 397.901786 230.658482 400.200893 230.502232 C 402.5 230.340402 409.598214 230.691964 413.828125 230.3125 C 418.058036 229.927455 420.351562 224.168527 420.351562 224.168527 C 420.351562 224.168527 429.670759 215.072545 433.962054 211.350446 C 433.694196 210.407366 433.242188 209.52567 432.628348 208.761161 Z M 432.628348 208.761161 " transform="matrix(0.7,0,0,0.7,0,0)"/>
<path style="fill:none;stroke-width:0.75;stroke-linecap:round;stroke-linejoin:round;stroke:rgb(18.039216%,20.784314%,22.745098%);stroke-opacity:1;stroke-miterlimit:4;" d="M 398.800223 187.321429 L 393.487723 184.972098 L 397.34933 191.110491 " transform="matrix(0.7,0,0,0.7,0,0)"/>
<path style="fill:none;stroke-width:0.75;stroke-linecap:round;stroke-linejoin:round;stroke:rgb(18.039216%,20.784314%,22.745098%);stroke-opacity:1;stroke-miterlimit:4;" d="M 385.407366 222.260045 C 389.408482 224.737723 394.135045 225.764509 398.800223 225.167411 " transform="matrix(0.7,0,0,0.7,0,0)"/>
<path style="fill:none;stroke-width:0.75;stroke-linecap:round;stroke-linejoin:round;stroke:rgb(18.039216%,20.784314%,22.745098%);stroke-opacity:1;stroke-miterlimit:4;" d="M 380.998884 215.267857 C 380.998884 215.267857 381.86942 218.772321 387.410714 221.09933 " transform="matrix(0.7,0,0,0.7,0,0)"/>
<path style="fill:none;stroke-width:0.75;stroke-linecap:round;stroke-linejoin:round;stroke:rgb(18.039216%,20.784314%,22.745098%);stroke-opacity:1;stroke-miterlimit:4;" d="M 429.241071 253.811384 C 429.241071 253.811384 432.868304 252.248884 435.78125 256.328125 " transform="matrix(0.7,0,0,0.7,0,0)"/>
<path style="fill:none;stroke-width:0.75;stroke-linecap:round;stroke-linejoin:round;stroke:rgb(18.039216%,20.784314%,22.745098%);stroke-opacity:1;stroke-miterlimit:4;" d="M 430.251116 226.629464 L 420.351562 224.112723 L 429.079241 230.998884 " transform="matrix(0.7,0,0,0.7,0,0)"/>
<path style="fill:none;stroke-width:0.75;stroke-linecap:round;stroke-linejoin:round;stroke:rgb(18.039216%,20.784314%,22.745098%);stroke-opacity:1;stroke-miterlimit:4;" d="M 403.169643 175.998884 C 403.169643 175.998884 398.219866 184.732143 392.399554 184.441964 C 384.492188 184.040179 362.109375 177.438616 362.109375 175.122768 C 362.109375 172.801339 368.231027 171.919643 368.231027 171.919643 " transform="matrix(0.7,0,0,0.7,0,0)"/>
<path style="fill-rule:nonzero;fill:rgb(14.901961%,19.607843%,21.960784%);fill-opacity:1;stroke-width:1;stroke-linecap:round;stroke-linejoin:round;stroke:rgb(18.039216%,20.784314%,22.745098%);stroke-opacity:1;stroke-miterlimit:4;" d="M 420.351562 183.242188 C 420.351562 183.242188 416.350446 182.237723 413.4375 184.012277 C 410.530134 185.78125 402.890625 202.427455 402.890625 202.427455 C 402.890625 202.427455 403.459821 203.197545 405.770089 203.197545 C 408.080357 203.197545 408.649554 206.272321 408.649554 209.140625 C 408.649554 212.008929 408.448661 213.359375 409.408482 213.141741 C 410.368304 212.918527 416.127232 210.842634 417.282366 211.612723 C 418.43192 212.377232 415.742188 216.210938 416.277902 216.612723 C 416.819196 217.008929 421.651786 212.1875 423.191964 207.008929 C 424.732143 201.830357 426.261161 194.157366 425.870536 191.08817 C 425.479911 188.018973 423.002232 184.001116 420.351562 183.242188 Z M 420.351562 183.242188 " transform="matrix(0.7,0,0,0.7,0,0)"/>
<path style="fill-rule:nonzero;fill:rgb(100%,100%,100%);fill-opacity:1;stroke-width:1;stroke-linecap:round;stroke-linejoin:round;stroke:rgb(18.039216%,20.784314%,22.745098%);stroke-opacity:1;stroke-miterlimit:4;" d="M 423.610491 199.168527 C 421.495536 201.529018 419.257812 203.766741 416.897321 205.881696 C 412.477679 209.877232 408.839286 212.790179 409.029018 210.881696 C 409.21875 208.967634 413.627232 198.59933 414.782366 192.879464 C 415.93192 187.159598 418.052455 183.28125 420.351562 183.28125 C 422.65067 183.28125 427.639509 195 423.610491 199.168527 Z M 423.610491 199.168527 " transform="matrix(0.7,0,0,0.7,0,0)"/>
<path style="fill-rule:nonzero;fill:rgb(100%,100%,100%);fill-opacity:1;stroke-width:1;stroke-linecap:round;stroke-linejoin:round;stroke:rgb(18.039216%,20.784314%,22.745098%);stroke-opacity:1;stroke-miterlimit:4;" d="M 421.311384 174.419643 C 421.618304 175.362723 422.315848 176.132812 423.231027 176.529018 C 424.570312 176.908482 434.547991 171.160714 434.547991 171.160714 C 434.547991 171.160714 441.651786 186.311384 440.491071 188.610491 C 439.330357 190.909598 435.887277 193.800223 432.047991 196.478795 C 428.208705 199.157366 421.121652 201.277902 418.43192 199.737723 C 415.742188 198.197545 417.66183 182.477679 417.66183 182.477679 C 417.66183 182.477679 415.552455 179.977679 417.851562 175.948661 C 420.15067 171.919643 421.311384 174.419643 421.311384 174.419643 Z M 421.311384 174.419643 " transform="matrix(0.7,0,0,0.7,0,0)"/>
<path style="fill:none;stroke-width:0.75;stroke-linecap:round;stroke-linejoin:round;stroke:rgb(18.039216%,20.784314%,22.745098%);stroke-opacity:1;stroke-miterlimit:4;" d="M 437.377232 190.072545 C 437.377232 190.072545 437.550223 188.878348 435.329241 188.878348 C 433.108259 188.878348 429.207589 192.957589 429.207589 192.957589 " transform="matrix(0.7,0,0,0.7,0,0)"/>
<path style="fill:none;stroke-width:0.75;stroke-linecap:round;stroke-linejoin:round;stroke:rgb(18.039216%,20.784314%,22.745098%);stroke-opacity:1;stroke-miterlimit:4;" d="M 427.678571 193.297991 L 426.489955 192.109375 " transform="matrix(0.7,0,0,0.7,0,0)"/>
<path style="fill:none;stroke-width:0.75;stroke-linecap:round;stroke-linejoin:round;stroke:rgb(18.039216%,20.784314%,22.745098%);stroke-opacity:1;stroke-miterlimit:4;" d="M 425.998884 195.518973 C 425.998884 195.518973 422.940848 195.011161 422.427455 191.08817 " transform="matrix(0.7,0,0,0.7,0,0)"/>
<path style="fill:none;stroke-width:0.75;stroke-linecap:round;stroke-linejoin:round;stroke:rgb(18.039216%,20.784314%,22.745098%);stroke-opacity:1;stroke-miterlimit:4;" d="M 433.080357 183.889509 C 433.080357 183.889509 432.321429 180.16183 429.079241 179.441964 " transform="matrix(0.7,0,0,0.7,0,0)"/>
<path style=" stroke:none;fill-rule:nonzero;fill:rgb(18.039216%,20.784314%,22.745098%);fill-opacity:1;" d="M 300.460938 130.121094 C 299.914062 130.550781 299.3125 130.691406 299.109375 130.429688 C 298.90625 130.171875 299.179688 129.617188 299.71875 129.191406 C 300.257812 128.765625 300.867188 128.625 301.070312 128.882812 C 301.273438 129.144531 301 129.695312 300.460938 130.121094 Z M 300.460938 130.121094 "/>
<path style=" stroke:none;fill-rule:nonzero;fill:rgb(18.039216%,20.784314%,22.745098%);fill-opacity:1;" d="M 303.835938 134.53125 C 303.386719 134.882812 302.890625 135.003906 302.722656 134.785156 C 302.554688 134.566406 302.777344 134.085938 303.226562 133.757812 C 303.675781 133.425781 304.171875 133.292969 304.339844 133.503906 C 304.507812 133.714844 304.28125 134.175781 303.835938 134.53125 Z M 303.835938 134.53125 "/>
<path style="fill-rule:nonzero;fill:rgb(100%,100%,100%);fill-opacity:1;stroke-width:1;stroke-linecap:round;stroke-linejoin:round;stroke:rgb(18.039216%,20.784314%,22.745098%);stroke-opacity:1;stroke-miterlimit:4;" d="M 415.379464 355.46875 L 425.189732 369.101562 C 425.189732 369.101562 425.189732 371.601562 421.690848 371.601562 C 418.191964 371.601562 416.188616 371.601562 414.190848 369.101562 C 412.1875 366.601562 412.1875 365.100446 410.189732 364.101562 C 408.191964 363.102679 406.188616 363.102679 407.1875 357.600446 C 408.191964 352.098214 415.379464 355.46875 415.379464 355.46875 Z M 415.379464 355.46875 " transform="matrix(0.7,0,0,0.7,0,0)"/>
<path style="fill-rule:nonzero;fill:rgb(100%,100%,100%);fill-opacity:1;stroke-width:1;stroke-linecap:round;stroke-linejoin:round;stroke:rgb(18.039216%,20.784314%,22.745098%);stroke-opacity:1;stroke-miterlimit:4;" d="M 425.15067 369.408482 C 423.59375 370.15625 421.852679 370.412946 420.15067 370.15067 C 416.612723 369.508929 414.458705 365.970982 413.147321 364.447545 C 411.841518 362.929688 410.239955 362.940848 408.727679 361.668527 C 408.013393 361.054688 407.382812 360.340402 406.86942 359.547991 C 406.657366 363.108259 408.387277 363.231027 410.111607 364.101562 C 412.109375 365.100446 412.109375 366.601562 414.112723 369.101562 C 416.110491 371.601562 418.108259 371.601562 421.612723 371.601562 C 424.419643 371.601562 425 370.078125 425.15067 369.408482 Z M 425.15067 369.408482 " transform="matrix(0.7,0,0,0.7,0,0)"/>
<path style="fill-rule:nonzero;fill:rgb(18.039216%,20.784314%,22.745098%);fill-opacity:1;stroke-width:1;stroke-linecap:round;stroke-linejoin:round;stroke:rgb(18.039216%,20.784314%,22.745098%);stroke-opacity:1;stroke-miterlimit:4;" d="M 414.821429 353.738839 C 412.81808 347.739955 409.972098 311.819196 408.487723 300.452009 C 405.491071 277.332589 392.148438 247.321429 392.148438 247.321429 L 392.918527 235.039062 C 388.839286 234.53125 383.191964 233.309152 379.330357 230.418527 C 374.330357 226.679688 374.017857 219.592634 374.168527 216.25 C 371.640625 217.879464 364.168527 222.790179 357.801339 227.952009 C 349.938616 234.280134 344.559152 256.729911 343.030134 263.822545 C 341.501116 270.909598 339.771205 291.819196 339.771205 291.819196 C 339.771205 291.819196 325.948661 297.1875 320.390625 304.821429 C 314.832589 312.449777 297.940848 329.760045 297.940848 329.760045 L 299.481027 335.518973 C 299.481027 335.518973 304.659598 331.88058 309.06808 328.420759 C 313.482143 324.960938 347.829241 305.78125 350.128348 304.419643 C 352.427455 303.058036 355.128348 300.418527 358.191964 292.717634 C 359.308036 289.910714 360.887277 285.3125 362.449777 280.602679 L 367.779018 264.001116 L 372.907366 259.631696 C 377.96875 273.309152 389.732143 299.68192 391.40067 303.448661 C 393.398438 307.96875 394.921875 328.069196 400.452009 340.641741 C 405.982143 353.208705 407.449777 359.241071 407.449777 359.241071 C 407.449777 359.241071 416.830357 359.771205 414.821429 353.738839 Z M 414.821429 353.738839 " transform="matrix(0.7,0,0,0.7,0,0)"/>
<path style="fill:none;stroke-width:0.5;stroke-linecap:butt;stroke-linejoin:miter;stroke:rgb(100%,100%,100%);stroke-opacity:1;stroke-miterlimit:10;" d="M 392.589286 237.410714 L 394.497768 248.560268 " transform="matrix(0.7,0,0,0.7,0,0)"/>
<path style="fill-rule:nonzero;fill:rgb(14.901961%,19.607843%,21.960784%);fill-opacity:1;stroke-width:1;stroke-linecap:round;stroke-linejoin:round;stroke:rgb(18.039216%,20.784314%,22.745098%);stroke-opacity:1;stroke-miterlimit:4;" d="M 122.18192 151.289062 L 93.297991 396.590402 C 93.219866 397.310268 93.554688 398.013393 94.168527 398.404018 C 94.782366 398.789062 95.563616 398.800223 96.177455 398.420759 L 114.737723 386.997768 C 117.03125 385.580357 120.033482 386.233259 121.529018 388.470982 L 144.84933 423.141741 L 154.581473 277.299107 Z M 122.18192 151.289062 " transform="matrix(0.7,0,0,0.7,0,0)"/>
<path style="fill-rule:nonzero;fill:rgb(14.901961%,19.607843%,21.960784%);fill-opacity:1;stroke-width:1;stroke-linecap:round;stroke-linejoin:round;stroke:rgb(18.039216%,20.784314%,22.745098%);stroke-opacity:1;stroke-miterlimit:4;" d="M 121.997768 157.460938 L 95.898438 390.457589 C 95.78683 391.489955 96.289062 392.488839 97.1875 393.002232 C 98.080357 393.521205 99.196429 393.454241 100.027902 392.840402 L 113.59933 382.840402 C 115.027902 381.785714 116.824777 381.361607 118.571429 381.674107 C 120.31808 381.986607 121.858259 383.007812 122.829241 384.492188 L 138.710938 408.727679 C 139.0625 409.285714 139.748884 409.52567 140.373884 409.313616 C 140.998884 409.101562 141.395089 408.493304 141.339286 407.840402 L 122.801339 157.472098 C 122.762277 157.282366 122.594866 157.148438 122.405134 157.142857 C 122.209821 157.142857 122.042411 157.271205 121.997768 157.460938 Z M 121.997768 157.460938 " transform="matrix(0.7,0,0,0.7,0,0)"/>
<use xlink:href="#surface14" mask="url(#mask3)"/>
<path style="fill-rule:nonzero;fill:rgb(14.901961%,19.607843%,21.960784%);fill-opacity:1;stroke-width:1;stroke-linecap:round;stroke-linejoin:round;stroke:rgb(18.039216%,20.784314%,22.745098%);stroke-opacity:1;stroke-miterlimit:4;" d="M 117.527902 381.540179 C 119.665179 381.579241 121.640625 382.667411 122.8125 384.447545 L 138.688616 408.688616 C 139.045759 409.246652 139.732143 409.486607 140.351562 409.274554 C 140.976562 409.0625 141.372768 408.454241 141.322545 407.801339 L 139.051339 377.159598 L 117.1875 381.439732 C 117.304688 381.462054 117.421875 381.495536 117.527902 381.540179 Z M 117.527902 381.540179 " transform="matrix(0.7,0,0,0.7,0,0)"/>
<use xlink:href="#surface17" mask="url(#mask4)"/>
<path style="fill-rule:nonzero;fill:rgb(18.039216%,20.784314%,22.745098%);fill-opacity:1;stroke-width:1;stroke-linecap:round;stroke-linejoin:round;stroke:rgb(18.039216%,20.784314%,22.745098%);stroke-opacity:1;stroke-miterlimit:4;" d="M 122.767857 151.138393 L 144.83817 423.141741 L 402.1875 374.101562 L 341.707589 161.969866 Z M 122.767857 151.138393 " transform="matrix(0.7,0,0,0.7,0,0)"/>
<path style="fill-rule:nonzero;fill:rgb(14.901961%,19.607843%,21.960784%);fill-opacity:1;stroke-width:1;stroke-linecap:round;stroke-linejoin:round;stroke:rgb(18.039216%,20.784314%,22.745098%);stroke-opacity:1;stroke-miterlimit:4;" d="M 134.698661 157.008929 L 149.860491 408.761161 L 391.858259 364.760045 L 340.848214 169.168527 Z M 134.698661 157.008929 " transform="matrix(0.7,0,0,0.7,0,0)"/>
<path style="fill-rule:nonzero;fill:rgb(100%,100%,100%);fill-opacity:1;stroke-width:1;stroke-linecap:round;stroke-linejoin:round;stroke:rgb(18.039216%,20.784314%,22.745098%);stroke-opacity:1;stroke-miterlimit:4;" d="M 149.492188 280.898438 L 160.998884 400.228795 L 380.881696 360.251116 L 360.452009 270.558036 Z M 149.492188 280.898438 " transform="matrix(0.7,0,0,0.7,0,0)"/>
<path style="fill-rule:nonzero;fill:rgb(100%,100%,100%);fill-opacity:1;stroke-width:1;stroke-linecap:round;stroke-linejoin:round;stroke:rgb(18.039216%,20.784314%,22.745098%);stroke-opacity:1;stroke-miterlimit:4;" d="M 191.930804 394.291295 L 188.28125 355.959821 " transform="matrix(0.7,0,0,0.7,0,0)"/>
<path style="fill-rule:nonzero;fill:rgb(100%,100%,100%);fill-opacity:1;stroke-width:1;stroke-linecap:round;stroke-linejoin:round;stroke:rgb(18.039216%,20.784314%,22.745098%);stroke-opacity:1;stroke-miterlimit:4;" d="M 225.580357 388.359375 L 222.059152 356.41183 " transform="matrix(0.7,0,0,0.7,0,0)"/>
<path style="fill-rule:nonzero;fill:rgb(100%,100%,100%);fill-opacity:1;stroke-width:1;stroke-linecap:round;stroke-linejoin:round;stroke:rgb(18.039216%,20.784314%,22.745098%);stroke-opacity:1;stroke-miterlimit:4;" d="M 258.571429 381.969866 L 254.458705 356.41183 " transform="matrix(0.7,0,0,0.7,0,0)"/>
<path style="fill-rule:nonzero;fill:rgb(100%,100%,100%);fill-opacity:1;stroke-width:1;stroke-linecap:round;stroke-linejoin:round;stroke:rgb(18.039216%,20.784314%,22.745098%);stroke-opacity:1;stroke-miterlimit:4;" d="M 292.561384 376.138393 L 287.667411 345.669643 " transform="matrix(0.7,0,0,0.7,0,0)"/>
<path style="fill-rule:nonzero;fill:rgb(100%,100%,100%);fill-opacity:1;stroke-width:1;stroke-linecap:round;stroke-linejoin:round;stroke:rgb(18.039216%,20.784314%,22.745098%);stroke-opacity:1;stroke-miterlimit:4;" d="M 322.5 370.742188 L 318.331473 340.998884 " transform="matrix(0.7,0,0,0.7,0,0)"/>
<path style="fill-rule:nonzero;fill:rgb(100%,100%,100%);fill-opacity:1;stroke-width:1;stroke-linecap:round;stroke-linejoin:round;stroke:rgb(18.039216%,20.784314%,22.745098%);stroke-opacity:1;stroke-miterlimit:4;" d="M 351.210938 365.429688 L 345 329.670759 " transform="matrix(0.7,0,0,0.7,0,0)"/>
<path style="fill-rule:nonzero;fill:rgb(100%,100%,100%);fill-opacity:1;stroke-width:1;stroke-linecap:round;stroke-linejoin:round;stroke:rgb(18.039216%,20.784314%,22.745098%);stroke-opacity:1;stroke-miterlimit:4;" d="M 418.677455 285.491071 C 418.677455 285.491071 415.61942 288.571429 415.418527 290.167411 C 415.217634 291.768973 416.819196 296.590402 416.819196 296.590402 L 421.640625 297.388393 L 423.761161 289.012277 Z M 418.677455 285.491071 " transform="matrix(0.7,0,0,0.7,0,0)"/>
<use xlink:href="#surface20" mask="url(#mask5)"/>
<path style="fill-rule:nonzero;fill:rgb(14.901961%,19.607843%,21.960784%);fill-opacity:1;stroke-width:1;stroke-linecap:round;stroke-linejoin:round;stroke:rgb(18.039216%,20.784314%,22.745098%);stroke-opacity:1;stroke-miterlimit:4;" d="M 129.140625 154.268973 L 339.810268 165.61942 C 339.810268 165.61942 360.31808 227.070312 380.731027 261.768973 C 401.138393 296.467634 434.799107 294.207589 434.799107 294.207589 C 434.799107 294.207589 357.600446 336.417411 297.472098 358.889509 C 234.888393 382.260045 180.61942 386.462054 180.61942 386.462054 C 180.61942 386.462054 131.188616 318.939732 129.140625 154.268973 Z M 129.140625 154.268973 " transform="matrix(0.7,0,0,0.7,0,0)"/>
<path style="fill-rule:nonzero;fill:rgb(100%,100%,100%);fill-opacity:1;stroke-width:1;stroke-linecap:butt;stroke-linejoin:miter;stroke:rgb(18.039216%,20.784314%,22.745098%);stroke-opacity:1;stroke-miterlimit:10;" d="M 153.258929 143.331473 C 149.352679 143.331473 146.517857 146.802455 145.63058 152.237723 L 149.631696 152.460938 C 150.251116 149.319196 151.478795 147.332589 153.247768 147.332589 C 155.3125 147.332589 157.600446 150.641741 157.600446 155.401786 C 157.600446 160.16183 155.3125 163.482143 153.247768 163.482143 C 152.142857 163.482143 151.25 164.375 151.25 165.479911 C 151.25 166.584821 152.142857 167.477679 153.247768 167.477679 C 157.929688 167.477679 161.601562 162.170759 161.601562 155.401786 C 161.601562 148.627232 157.940848 143.331473 153.258929 143.331473 Z M 153.258929 143.331473 " transform="matrix(0.7,0,0,0.7,0,0)"/>
<path style="fill:none;stroke-width:0.75;stroke-linecap:round;stroke-linejoin:round;stroke:rgb(18.039216%,20.784314%,22.745098%);stroke-opacity:1;stroke-miterlimit:4;" d="M 159.001116 158.638393 C 158.805804 159.347098 158.560268 160.033482 158.258929 160.697545 " transform="matrix(0.7,0,0,0.7,0,0)"/>
<path style="fill:none;stroke-width:0.75;stroke-linecap:round;stroke-linejoin:round;stroke:rgb(18.039216%,20.784314%,22.745098%);stroke-opacity:1;stroke-miterlimit:4;" d="M 147.611607 150.440848 C 147.611607 150.440848 149.112723 145.022321 153.537946 145.31808 C 157.020089 145.558036 159.888393 150.731027 159.408482 156.261161 " transform="matrix(0.7,0,0,0.7,0,0)"/>
<path style="fill-rule:nonzero;fill:rgb(100%,100%,100%);fill-opacity:1;stroke-width:1;stroke-linecap:butt;stroke-linejoin:miter;stroke:rgb(18.039216%,20.784314%,22.745098%);stroke-opacity:1;stroke-miterlimit:10;" d="M 188.002232 145.078125 C 184.090402 145.078125 181.261161 148.549107 180.368304 153.989955 L 184.36942 154.207589 C 184.988839 151.071429 186.222098 149.079241 187.991071 149.079241 C 190.050223 149.079241 192.33817 152.388393 192.33817 157.148438 C 192.33817 161.908482 190.050223 165.228795 187.991071 165.228795 C 186.886161 165.228795 185.987723 166.127232 185.987723 167.232143 C 185.987723 168.337054 186.886161 169.229911 187.991071 169.229911 C 192.667411 169.229911 196.339286 163.917411 196.339286 157.148438 C 196.339286 150.379464 192.689732 145.078125 188.002232 145.078125 Z M 188.002232 145.078125 " transform="matrix(0.7,0,0,0.7,0,0)"/>
<path style="fill:none;stroke-width:0.75;stroke-linecap:round;stroke-linejoin:round;stroke:rgb(18.039216%,20.784314%,22.745098%);stroke-opacity:1;stroke-miterlimit:4;" d="M 193.75 160.390625 C 193.560268 161.09375 193.309152 161.785714 193.007812 162.449777 " transform="matrix(0.7,0,0,0.7,0,0)"/>
<path style="fill:none;stroke-width:0.75;stroke-linecap:round;stroke-linejoin:round;stroke:rgb(18.039216%,20.784314%,22.745098%);stroke-opacity:1;stroke-miterlimit:4;" d="M 182.360491 152.1875 C 182.360491 152.1875 183.861607 146.768973 188.292411 147.070312 C 191.768973 147.310268 194.637277 152.477679 194.157366 158.007812 " transform="matrix(0.7,0,0,0.7,0,0)"/>
<path style="fill-rule:nonzero;fill:rgb(100%,100%,100%);fill-opacity:1;stroke-width:1;stroke-linecap:butt;stroke-linejoin:miter;stroke:rgb(18.039216%,20.784314%,22.745098%);stroke-opacity:1;stroke-miterlimit:10;" d="M 222.762277 146.830357 C 218.850446 146.830357 216.021205 150.301339 215.128348 155.742188 L 219.129464 155.959821 C 219.748884 152.81808 220.982143 150.831473 222.751116 150.831473 C 224.810268 150.831473 227.098214 154.140625 227.098214 158.90067 C 227.098214 163.660714 224.810268 166.981027 222.751116 166.981027 C 221.646205 166.981027 220.747768 167.873884 220.747768 168.978795 C 220.747768 170.083705 221.646205 170.982143 222.751116 170.982143 C 227.427455 170.982143 231.09933 165.669643 231.09933 158.90067 C 231.09933 152.131696 227.438616 146.830357 222.762277 146.830357 Z M 222.762277 146.830357 " transform="matrix(0.7,0,0,0.7,0,0)"/>
<path style="fill:none;stroke-width:0.75;stroke-linecap:round;stroke-linejoin:round;stroke:rgb(18.039216%,20.784314%,22.745098%);stroke-opacity:1;stroke-miterlimit:4;" d="M 228.498884 162.137277 C 228.309152 162.845982 228.063616 163.532366 227.762277 164.202009 " transform="matrix(0.7,0,0,0.7,0,0)"/>
<path style="fill:none;stroke-width:0.75;stroke-linecap:round;stroke-linejoin:round;stroke:rgb(18.039216%,20.784314%,22.745098%);stroke-opacity:1;stroke-miterlimit:4;" d="M 217.109375 153.939732 C 217.109375 153.939732 218.610491 148.521205 223.041295 148.822545 C 226.517857 149.0625 229.391741 154.229911 228.91183 159.760045 " transform="matrix(0.7,0,0,0.7,0,0)"/>
<path style="fill-rule:nonzero;fill:rgb(100%,100%,100%);fill-opacity:1;stroke-width:1;stroke-linecap:butt;stroke-linejoin:miter;stroke:rgb(18.039216%,20.784314%,22.745098%);stroke-opacity:1;stroke-miterlimit:10;" d="M 257.511161 148.582589 C 253.59933 148.582589 250.770089 152.047991 249.877232 157.488839 L 253.878348 157.712054 C 254.497768 154.570312 255.731027 152.578125 257.5 152.578125 C 259.559152 152.578125 261.852679 155.887277 261.852679 160.647321 C 261.852679 165.407366 259.559152 168.727679 257.5 168.727679 C 256.395089 168.727679 255.502232 169.626116 255.502232 170.731027 C 255.502232 171.835938 256.395089 172.728795 257.5 172.728795 C 262.18192 172.728795 265.848214 167.421875 265.848214 160.647321 C 265.848214 153.878348 262.1875 148.582589 257.511161 148.582589 Z M 257.511161 148.582589 " transform="matrix(0.7,0,0,0.7,0,0)"/>
<path style="fill:none;stroke-width:0.75;stroke-linecap:round;stroke-linejoin:round;stroke:rgb(18.039216%,20.784314%,22.745098%);stroke-opacity:1;stroke-miterlimit:4;" d="M 263.247768 163.889509 C 263.058036 164.592634 262.8125 165.284598 262.511161 165.948661 " transform="matrix(0.7,0,0,0.7,0,0)"/>
<path style="fill:none;stroke-width:0.75;stroke-linecap:round;stroke-linejoin:round;stroke:rgb(18.039216%,20.784314%,22.745098%);stroke-opacity:1;stroke-miterlimit:4;" d="M 251.858259 155.691964 C 251.858259 155.691964 253.359375 150.267857 257.790179 150.569196 C 261.272321 150.809152 264.140625 155.982143 263.660714 161.512277 " transform="matrix(0.7,0,0,0.7,0,0)"/>
<path style="fill-rule:nonzero;fill:rgb(100%,100%,100%);fill-opacity:1;stroke-width:1;stroke-linecap:butt;stroke-linejoin:miter;stroke:rgb(18.039216%,20.784314%,22.745098%);stroke-opacity:1;stroke-miterlimit:10;" d="M 292.890625 150.128348 C 288.978795 150.128348 286.149554 153.59933 285.267857 159.051339 L 289.268973 159.268973 C 289.899554 156.127232 291.127232 154.129464 292.890625 154.129464 C 294.949777 154.129464 297.248884 157.449777 297.248884 162.209821 C 297.248884 166.969866 294.949777 170.279018 292.890625 170.279018 C 291.785714 170.279018 290.887277 171.177455 290.887277 172.282366 C 290.887277 173.387277 291.785714 174.280134 292.890625 174.280134 C 297.578125 174.280134 301.25 168.978795 301.25 162.209821 C 301.25 155.440848 297.578125 150.128348 292.890625 150.128348 Z M 292.890625 150.128348 " transform="matrix(0.7,0,0,0.7,0,0)"/>
<path style="fill:none;stroke-width:0.75;stroke-linecap:round;stroke-linejoin:round;stroke:rgb(18.039216%,20.784314%,22.745098%);stroke-opacity:1;stroke-miterlimit:4;" d="M 298.627232 165.452009 C 298.4375 166.155134 298.191964 166.835938 297.890625 167.5 " transform="matrix(0.7,0,0,0.7,0,0)"/>
<path style="fill:none;stroke-width:0.75;stroke-linecap:round;stroke-linejoin:round;stroke:rgb(18.039216%,20.784314%,22.745098%);stroke-opacity:1;stroke-miterlimit:4;" d="M 287.237723 157.248884 C 287.237723 157.248884 288.75 151.819196 293.169643 152.120536 C 296.657366 152.360491 299.520089 157.539062 299.051339 163.069196 " transform="matrix(0.7,0,0,0.7,0,0)"/>
<path style="fill-rule:nonzero;fill:rgb(100%,100%,100%);fill-opacity:1;stroke-width:1;stroke-linecap:butt;stroke-linejoin:miter;stroke:rgb(18.039216%,20.784314%,22.745098%);stroke-opacity:1;stroke-miterlimit:10;" d="M 326.88058 151.997768 C 322.96875 151.997768 320.139509 155.46875 319.257812 160.909598 L 323.258929 161.138393 C 323.889509 158.002232 325.122768 155.998884 326.88058 155.998884 C 328.939732 155.998884 331.238839 159.319196 331.238839 164.06808 C 331.238839 168.822545 328.939732 172.148438 326.88058 172.148438 C 325.77567 172.148438 324.877232 173.046875 324.877232 174.151786 C 324.877232 175.256696 325.77567 176.149554 326.88058 176.149554 C 331.56808 176.149554 335.239955 170.842634 335.239955 164.06808 C 335.239955 157.299107 331.56808 151.997768 326.88058 151.997768 Z M 326.88058 151.997768 " transform="matrix(0.7,0,0,0.7,0,0)"/>
<path style="fill:none;stroke-width:0.75;stroke-linecap:round;stroke-linejoin:round;stroke:rgb(18.039216%,20.784314%,22.745098%);stroke-opacity:1;stroke-miterlimit:4;" d="M 332.622768 167.260045 C 332.433036 167.96875 332.18192 168.655134 331.88058 169.319196 " transform="matrix(0.7,0,0,0.7,0,0)"/>
<path style="fill:none;stroke-width:0.75;stroke-linecap:round;stroke-linejoin:round;stroke:rgb(18.039216%,20.784314%,22.745098%);stroke-opacity:1;stroke-miterlimit:4;" d="M 321.227679 159.06808 C 321.227679 159.06808 322.739955 153.638393 327.159598 153.939732 C 330.647321 154.179688 333.510045 159.352679 333.041295 164.877232 " transform="matrix(0.7,0,0,0.7,0,0)"/>
<path style="fill-rule:nonzero;fill:rgb(100%,100%,100%);fill-opacity:1;stroke-width:1;stroke-linecap:round;stroke-linejoin:round;stroke:rgb(18.039216%,20.784314%,22.745098%);stroke-opacity:1;stroke-miterlimit:4;" d="M 423.761161 289.001116 C 423.761161 289.001116 425.758929 291.741071 425.758929 292.907366 C 425.758929 294.079241 423.018973 296.037946 423.018973 298.772321 C 423.018973 301.501116 419.497768 300.770089 419.112723 298.772321 C 418.722098 296.768973 419.888393 294.079241 419.888393 294.079241 C 419.888393 294.079241 418.258929 293.080357 417.890625 289.559152 C 417.522321 286.037946 420.691964 287.042411 420.691964 287.042411 Z M 423.761161 289.001116 " transform="matrix(0.7,0,0,0.7,0,0)"/>
<path style="fill-rule:nonzero;fill:rgb(100%,100%,100%);fill-opacity:1;stroke-width:1;stroke-linecap:round;stroke-linejoin:round;stroke:rgb(18.039216%,20.784314%,22.745098%);stroke-opacity:1;stroke-miterlimit:4;" d="M 373.761161 261.930804 C 359.268973 237.287946 344.051339 198.381696 338.638393 184.0625 L 150.368304 176.428571 C 150.251116 315.580357 192.371652 373.069196 192.371652 373.069196 C 192.371652 373.069196 240.31808 369.358259 295.61942 348.699777 C 348.761161 328.850446 412.137277 295.530134 412.137277 295.530134 C 412.137277 295.530134 391.791295 292.600446 373.761161 261.930804 Z M 373.761161 261.930804 " transform="matrix(0.7,0,0,0.7,0,0)"/>
<path style="fill-rule:nonzero;fill:rgb(18.039216%,20.784314%,22.745098%);fill-opacity:1;stroke-width:1;stroke-linecap:round;stroke-linejoin:round;stroke:rgb(18.039216%,20.784314%,22.745098%);stroke-opacity:1;stroke-miterlimit:4;" d="M 338.638393 184.0625 L 150.368304 176.428571 C 150.368304 190.122768 150.758929 203.002232 151.478795 215.128348 L 350.301339 213.270089 C 345.15067 200.998884 340.998884 190.251116 338.638393 184.0625 Z M 338.638393 184.0625 " transform="matrix(0.7,0,0,0.7,0,0)"/>
<path style="fill:none;stroke-width:3;stroke-linecap:round;stroke-linejoin:round;stroke:rgb(18.039216%,20.784314%,22.745098%);stroke-opacity:1;stroke-miterlimit:4;" d="M 341.969866 225.541295 L 350.870536 225.228795 " transform="matrix(0.7,0,0,0.7,0,0)"/>
<path style="fill:none;stroke-width:3;stroke-linecap:round;stroke-linejoin:round;stroke:rgb(18.039216%,20.784314%,22.745098%);stroke-opacity:1;stroke-miterlimit:4;" d="M 315.809152 226.428571 L 335.301339 225.758929 " transform="matrix(0.7,0,0,0.7,0,0)"/>
<path style="fill:none;stroke-width:3;stroke-linecap:round;stroke-linejoin:round;stroke:rgb(18.039216%,20.784314%,22.745098%);stroke-opacity:1;stroke-miterlimit:4;" d="M 284.140625 227.5 L 309.190848 226.651786 " transform="matrix(0.7,0,0,0.7,0,0)"/>
<path style="fill:none;stroke-width:3;stroke-linecap:round;stroke-linejoin:round;stroke:rgb(18.039216%,20.784314%,22.745098%);stroke-opacity:1;stroke-miterlimit:4;" d="M 251.919643 228.58817 L 278.610491 227.689732 " transform="matrix(0.7,0,0,0.7,0,0)"/>
<path style="fill:none;stroke-width:3;stroke-linecap:round;stroke-linejoin:round;stroke:rgb(18.039216%,20.784314%,22.745098%);stroke-opacity:1;stroke-miterlimit:4;" d="M 220.770089 229.648438 L 245.239955 228.822545 " transform="matrix(0.7,0,0,0.7,0,0)"/>
<path style="fill:none;stroke-width:3;stroke-linecap:round;stroke-linejoin:round;stroke:rgb(18.039216%,20.784314%,22.745098%);stroke-opacity:1;stroke-miterlimit:4;" d="M 187.952009 230.770089 L 212.438616 229.927455 " transform="matrix(0.7,0,0,0.7,0,0)"/>
<path style="fill:none;stroke-width:3;stroke-linecap:round;stroke-linejoin:round;stroke:rgb(18.039216%,20.784314%,22.745098%);stroke-opacity:1;stroke-miterlimit:4;" d="M 159.0625 231.752232 L 181.852679 230.970982 " transform="matrix(0.7,0,0,0.7,0,0)"/>
<path style="fill:none;stroke-width:1;stroke-linecap:round;stroke-linejoin:round;stroke:rgb(18.039216%,20.784314%,22.745098%);stroke-opacity:1;stroke-miterlimit:4;" d="M 155.351562 253.197545 L 362.477679 240.580357 " transform="matrix(0.7,0,0,0.7,0,0)"/>
<path style="fill:none;stroke-width:1;stroke-linecap:round;stroke-linejoin:round;stroke:rgb(18.039216%,20.784314%,22.745098%);stroke-opacity:1;stroke-miterlimit:4;" d="M 188.080357 251.417411 C 188.080357 251.417411 191.478795 306.501116 227.790179 367.639509 " transform="matrix(0.7,0,0,0.7,0,0)"/>
<path style="fill:none;stroke-width:1;stroke-linecap:round;stroke-linejoin:round;stroke:rgb(18.039216%,20.784314%,22.745098%);stroke-opacity:1;stroke-miterlimit:4;" d="M 221.501116 249.207589 C 221.501116 249.207589 225.329241 312.209821 265.139509 358.342634 " transform="matrix(0.7,0,0,0.7,0,0)"/>
<path style="fill:none;stroke-width:1;stroke-linecap:round;stroke-linejoin:round;stroke:rgb(18.039216%,20.784314%,22.745098%);stroke-opacity:1;stroke-miterlimit:4;" d="M 251.757812 247.34933 C 251.757812 247.34933 253.761161 305.351562 298.510045 347.03125 " transform="matrix(0.7,0,0,0.7,0,0)"/>
<path style="fill:none;stroke-width:1;stroke-linecap:round;stroke-linejoin:round;stroke:rgb(18.039216%,20.784314%,22.745098%);stroke-opacity:1;stroke-miterlimit:4;" d="M 283.13058 245.998884 C 283.13058 245.998884 288.069196 310.479911 331.378348 333.191964 " transform="matrix(0.7,0,0,0.7,0,0)"/>
<path style="fill:none;stroke-width:1;stroke-linecap:round;stroke-linejoin:round;stroke:rgb(18.039216%,20.784314%,22.745098%);stroke-opacity:1;stroke-miterlimit:4;" d="M 315.998884 243.409598 C 315.998884 243.409598 319.481027 292.18192 363.777902 318.889509 " transform="matrix(0.7,0,0,0.7,0,0)"/>
<path style="fill:none;stroke-width:1;stroke-linecap:round;stroke-linejoin:round;stroke:rgb(18.039216%,20.784314%,22.745098%);stroke-opacity:1;stroke-miterlimit:4;" d="M 341.88058 241.830357 C 341.88058 241.830357 353.800223 291.830357 387.148438 308.018973 " transform="matrix(0.7,0,0,0.7,0,0)"/>
<path style="fill:none;stroke-width:1;stroke-linecap:round;stroke-linejoin:round;stroke:rgb(18.039216%,20.784314%,22.745098%);stroke-opacity:1;stroke-miterlimit:4;" d="M 159.888393 281.612723 L 371.450893 258.342634 " transform="matrix(0.7,0,0,0.7,0,0)"/>
<path style="fill:none;stroke-width:1;stroke-linecap:round;stroke-linejoin:round;stroke:rgb(18.039216%,20.784314%,22.745098%);stroke-opacity:1;stroke-miterlimit:4;" d="M 165.407366 306.501116 C 165.407366 306.501116 210.580357 304.732143 381.289062 273.270089 " transform="matrix(0.7,0,0,0.7,0,0)"/>
<path style="fill:none;stroke-width:1;stroke-linecap:round;stroke-linejoin:round;stroke:rgb(18.039216%,20.784314%,22.745098%);stroke-opacity:1;stroke-miterlimit:4;" d="M 173.381696 332.851562 C 173.381696 332.851562 217.377232 337.851562 389.760045 282.957589 " transform="matrix(0.7,0,0,0.7,0,0)"/>
<path style="fill:none;stroke-width:1;stroke-linecap:round;stroke-linejoin:round;stroke:rgb(18.039216%,20.784314%,22.745098%);stroke-opacity:1;stroke-miterlimit:4;" d="M 182.901786 355.842634 C 182.901786 355.842634 219.581473 367.991071 399.760045 290.842634 " transform="matrix(0.7,0,0,0.7,0,0)"/>
<path style=" stroke:none;fill-rule:nonzero;fill:rgb(100%,100%,100%);fill-opacity:1;" d="M 162.183594 142.554688 L 114.710938 141.917969 C 113.914062 141.90625 113.25 141.308594 113.15625 140.519531 L 112.75 136.683594 C 112.699219 136.234375 112.847656 135.789062 113.148438 135.457031 C 113.453125 135.125 113.882812 134.9375 114.332031 134.945312 L 161.230469 135.757812 C 161.945312 135.769531 162.558594 136.257812 162.734375 136.949219 L 163.6875 140.59375 C 163.808594 141.0625 163.707031 141.558594 163.414062 141.941406 C 163.121094 142.324219 162.664062 142.550781 162.183594 142.554688 Z M 162.183594 142.554688 "/>
</g>
</svg>
