<svg xmlns="http://www.w3.org/2000/svg" viewBox="0 0 500 500"><g id="freepik--Floor--inject-4"><ellipse id="freepik--floor--inject-4" cx="249.05" cy="341.29" rx="238.53" ry="140.13" style="fill:#ebebeb"></ellipse></g><g id="freepik--Shadows--inject-4"><path id="freepik--Shadow--inject-4" d="M215.82,436.26a6.51,6.51,0,0,1-3.31-.79l-16.71-9.65-15.66,9.05a6.64,6.64,0,0,1-3.31.79,6.54,6.54,0,0,1-3.31-.8L163,428.78a2.7,2.7,0,0,1,0-5l14.66-8.47L162,406.28a2.7,2.7,0,0,1,0-5l13.13-7.59a7.27,7.27,0,0,1,6.63,0l16.7,9.64,15.55-9a7.35,7.35,0,0,1,6.63,0l10.53,6.08a2.7,2.7,0,0,1,0,5l-14.55,8.41,15.7,9.06a2.71,2.71,0,0,1,0,5l-13.13,7.58A6.55,6.55,0,0,1,215.82,436.26Z" style="opacity:0.1"></path><path id="freepik--shadow--inject-4" d="M255.39,389.43a6.44,6.44,0,0,1-3.31-.81l-10.53-6.07a2.7,2.7,0,0,1,0-5l51-29.43a7.27,7.27,0,0,1,6.63,0l10.53,6.07a2.71,2.71,0,0,1,0,5l-51,29.43A6.52,6.52,0,0,1,255.39,389.43Z" style="opacity:0.1"></path><path id="freepik--shadow--inject-4" d="M101.49,405.38,33,365.82c-2.39-1.38-2.39-3.62,0-5l137.62-79.45a9.55,9.55,0,0,1,8.65,0L247.72,321c2.4,1.38,2.4,3.62,0,5L110.15,405.38A9.57,9.57,0,0,1,101.49,405.38Z" style="opacity:0.1"></path><ellipse id="freepik--shadow--inject-4" cx="353.8" cy="412.19" rx="61.38" ry="37" style="opacity:0.1"></ellipse><path id="freepik--shadow--inject-4" d="M431,380.3c6.41,3.7,6.41,9.7,0,13.4s-16.79,3.7-23.2,0-6.41-9.7,0-13.4S424.63,376.6,431,380.3Z" style="opacity:0.1"></path></g><g id="freepik--Plants--inject-4"><g id="freepik--plants--inject-4"><path d="M89.12,338c-.16-1.55-2.19-41.62-15-63.65s-31.77-32.33-41.53-23c-8.78,8.39,2,20.57,15.1,33.15C63.24,299.44,74.37,316,77.53,336.81Z" style="fill:#263238"></path><path d="M89.12,338c-.16-1.55-2.19-41.62-15-63.65s-31.77-32.33-41.53-23c-8.78,8.39,2,20.57,15.1,33.15C63.24,299.44,74.37,316,77.53,336.81Z" style="opacity:0.15"></path><path d="M82.13,334.87a.82.82,0,0,1-.81-.76c-2.43-44-33.16-72.3-41.25-77.47a.81.81,0,1,1,.87-1.36c8.24,5.26,39.53,34.06,42,78.74a.81.81,0,0,1-.76.85Z" style="fill:#fff"></path><path d="M90.37,329.85c-2.05-5.55-7.68-9.12-13.36-10.94-5.86-1.88-12.11-2.39-17.93-4.41s-10.85-5.37-16.56-7.38S29.07,304.79,24,308.55c-7.83,5.81.92,13.92,5.4,17.79,2.81,2.43,5,6.35,3.59,9.8s-5.38,4.89-6.7,8.2c-1.63,4.09,1.71,8.47,5.28,11.06a35.39,35.39,0,0,0,15.6,6.34c3.27.47,7.15.8,8.83,3.65,1.27,2.14.7,4.84.84,7.33.28,5.11,3.79,9.67,8.21,12.25,4.67,2.74,12.84,5,18.21,3.47l15.65-4.53c3.93-1.11,6.1-8.1,6.64-11.6a21.38,21.38,0,0,0-2.68-14.19c-3.22-5.35-8.82-9.31-10.59-15.3-1.19-4-.45-8.42-1.73-12.42C90.5,330.22,90.44,330,90.37,329.85Z" style="fill:#263238"></path><path d="M94.38,381.1a.56.56,0,0,1-.38-.42c-7.18-32.29-47.14-61.22-62.6-67.85a.57.57,0,0,1-.3-.76.6.6,0,0,1,.76-.31c15.62,6.7,56,36,63.28,68.66a.59.59,0,0,1-.45.7A.65.65,0,0,1,94.38,381.1Z" style="fill:#fff"></path><path d="M43.43,349.38a.73.73,0,0,1-.45-.47.71.71,0,0,1,.48-.9,75.92,75.92,0,0,1,9.65-2.26,73.35,73.35,0,0,1,20-1,5.14,5.14,0,0,1,2,.39c.32.17.63.49.55.84-.2.79-1.21.39-1.72.33-.86-.1-1.74-.18-2.61-.24-1.73-.12-3.47-.15-5.2-.12a78.8,78.8,0,0,0-9.7.8,85.51,85.51,0,0,0-12,2.49l-.48.15A.72.72,0,0,1,43.43,349.38Z" style="fill:#fff"></path></g></g><g id="freepik--Calculator--inject-4"><g id="freepik--calculator--inject-4"><path d="M250.68,39.58c0-2.75-1-4.68-2.52-5.59s-14.73-8.59-16.33-9.48-3.7-.72-6.06.64l-131.6,76c-4.78,2.76-8.66,9.48-8.66,15V387.31c0,2.76,1,4.7,2.54,5.6s14.65,8.48,16.18,9.4,3.77.83,6.19-.57l131.6-76c4.78-2.76,8.66-9.48,8.66-15Z" style="fill:#37474f"></path><path d="M101.76,396.74V125.56c0-5.52,3.87-12.24,8.66-15l131.6-76c4.78-2.76,8.66-.52,8.66,5V310.76c0,5.52-3.88,12.24-8.66,15l-131.6,76C105.64,404.5,101.76,402.26,101.76,396.74Z" style="fill:#37474f"></path><path d="M136.37,347.19a1.05,1.05,0,0,0-1.09.06L116,358.42c-1.11.64-2,2.76-2,4.72v18.93a2.8,2.8,0,0,0,.91,2.46c.31.19,3.51,2,4.06,2.34a1.05,1.05,0,0,0,1.09-.05l19.34-11.17c1.11-.64,2-2.76,2-4.73V352a2.74,2.74,0,0,0-.94-2.47Z" style="fill:#263238"></path><path d="M119,386.9l0,0-4.07-2.34a2.83,2.83,0,0,1-.91-2.46V363.15a7.42,7.42,0,0,1,.65-3l4.06,2.34a7.42,7.42,0,0,0-.65,3v18.92C118,385.7,118.39,386.6,119,386.9Z" style="opacity:0.25"></path><path d="M140.39,349.51a1.06,1.06,0,0,0-1,.08L120,360.76a3.67,3.67,0,0,0-1.36,1.74l-4.06-2.34a3.75,3.75,0,0,1,1.36-1.73l19.33-11.17a1.06,1.06,0,0,1,1.08-.07C136.91,347.5,140,349.29,140.39,349.51Z" style="fill:#fff;opacity:0.5"></path><path d="M139.35,375.65,120,386.82c-1.1.64-2-.44-2-2.41V365.48c0-2,.89-4.08,2-4.72l19.33-11.17c1.11-.64,2,.44,2,2.4v18.93C141.35,372.89,140.46,375,139.35,375.65Z" style="fill:#263238"></path><path d="M205.41,307.33a1,1,0,0,0-1.08.06L185,318.56c-1.11.64-2,2.75-2,4.72v18.93a2.83,2.83,0,0,0,.91,2.46L188,347a1,1,0,0,0,1.09-.06l19.33-11.17c1.11-.64,2-2.75,2-4.72V312.13a2.75,2.75,0,0,0-.94-2.47C209.15,309.49,206,307.64,205.41,307.33Z" style="fill:#263238"></path><path d="M188,347l-.05,0-4.07-2.34a2.83,2.83,0,0,1-.91-2.46V323.28a7.42,7.42,0,0,1,.65-3l4.06,2.34a7.42,7.42,0,0,0-.65,3v18.92C187.06,345.83,187.44,346.73,188,347Z" style="opacity:0.25"></path><path d="M209.44,309.64a1.06,1.06,0,0,0-1.05.08l-19.33,11.17a3.67,3.67,0,0,0-1.36,1.74l-4.06-2.34a3.75,3.75,0,0,1,1.36-1.73l19.33-11.17a1.06,1.06,0,0,1,1.08-.07C206,307.63,209,309.42,209.44,309.64Z" style="fill:#fff;opacity:0.5"></path><path d="M208.39,335.78,189.06,347c-1.11.64-2-.43-2-2.4V325.62c0-2,.9-4.09,2-4.73l19.33-11.17c1.11-.64,2,.44,2,2.41v18.93C210.4,333,209.5,335.14,208.39,335.78Z" style="fill:#263238"></path><path d="M239.93,287.39a1.06,1.06,0,0,0-1.08.07l-19.33,11.16c-1.11.64-2,2.76-2,4.73v18.93a2.8,2.8,0,0,0,.91,2.46l4.06,2.34a1.05,1.05,0,0,0,1.09-.06l19.34-11.17c1.1-.64,2-2.75,2-4.72V292.2a2.76,2.76,0,0,0-.94-2.48Z" style="fill:#263238"></path><path d="M222.54,327.1l0,0-4.07-2.34a2.83,2.83,0,0,1-.91-2.46V303.35a7.42,7.42,0,0,1,.65-3l4.06,2.34a7.42,7.42,0,0,0-.65,3v18.92C221.58,325.9,222,326.8,222.54,327.1Z" style="opacity:0.25"></path><path d="M244,289.71a1.06,1.06,0,0,0-1.05.08L223.58,301a3.67,3.67,0,0,0-1.36,1.74l-4.06-2.34a3.75,3.75,0,0,1,1.36-1.73l19.33-11.17a1.06,1.06,0,0,1,1.08-.07C240.48,287.7,243.56,289.49,244,289.71Z" style="fill:#fff;opacity:0.5"></path><path d="M242.92,315.85,223.58,327c-1.1.64-2-.44-2-2.41V305.69c0-2,.89-4.09,2-4.73l19.33-11.17c1.11-.64,2,.44,2,2.41v18.93C244.92,313.1,244,315.21,242.92,315.85Z" style="fill:#263238"></path><path d="M239.93,247.48a1,1,0,0,0-1.08.07l-19.33,11.16c-1.11.64-2,2.76-2,4.73v18.93a2.8,2.8,0,0,0,.91,2.46l4.06,2.33a1,1,0,0,0,1.09-.05l19.34-11.17c1.1-.64,2-2.75,2-4.72V252.29a2.76,2.76,0,0,0-.94-2.48Z" style="fill:#263238"></path><path d="M222.54,287.19l0,0-4.07-2.34a2.83,2.83,0,0,1-.91-2.46V263.44a7.42,7.42,0,0,1,.65-3l4.06,2.34a7.42,7.42,0,0,0-.65,3V284.7C221.58,286,222,286.89,222.54,287.19Z" style="opacity:0.25"></path><path d="M244,249.8a1.06,1.06,0,0,0-1.05.08l-19.33,11.17a3.67,3.67,0,0,0-1.36,1.74l-4.06-2.34a3.75,3.75,0,0,1,1.36-1.73l19.33-11.17a1.06,1.06,0,0,1,1.08-.07C240.48,247.79,243.56,249.58,244,249.8Z" style="fill:#fff;opacity:0.5"></path><path d="M242.92,275.94l-19.34,11.17c-1.1.64-2-.44-2-2.41V265.77c0-2,.89-4.08,2-4.72l19.33-11.17c1.11-.64,2,.44,2,2.41v18.93C244.92,273.19,244,275.3,242.92,275.94Z" style="fill:#263238"></path><path d="M239.93,207.57a1.06,1.06,0,0,0-1.08.06L219.52,218.8c-1.11.64-2,2.76-2,4.73v18.93a2.8,2.8,0,0,0,.91,2.46l4.06,2.33a1,1,0,0,0,1.09-.05L242.92,236c1.1-.64,2-2.75,2-4.72V212.38a2.76,2.76,0,0,0-.94-2.48Z" style="fill:#263238"></path><path d="M222.54,247.28l0,0-4.07-2.34a2.83,2.83,0,0,1-.91-2.46V223.53a7.42,7.42,0,0,1,.65-3l4.06,2.34a7.42,7.42,0,0,0-.65,3v18.92C221.58,246.08,222,247,222.54,247.28Z" style="opacity:0.25"></path><path d="M244,209.89a1.06,1.06,0,0,0-1.05.08l-19.33,11.17a3.67,3.67,0,0,0-1.36,1.74l-4.06-2.34a3.75,3.75,0,0,1,1.36-1.73l19.33-11.17a1.06,1.06,0,0,1,1.08-.07C240.48,207.88,243.56,209.67,244,209.89Z" style="fill:#fff;opacity:0.5"></path><path d="M242.92,236,223.58,247.2c-1.1.64-2-.44-2-2.41V225.86c0-2,.89-4.08,2-4.72L242.91,210c1.11-.64,2,.44,2,2.41v18.93C244.92,233.28,244,235.39,242.92,236Z" style="fill:#263238"></path><path d="M239.93,167.66a1,1,0,0,0-1.08.06l-19.33,11.17c-1.11.64-2,2.76-2,4.73v18.92a2.82,2.82,0,0,0,.91,2.47l4.06,2.33a1,1,0,0,0,1.09-.05l19.34-11.17c1.1-.64,2-2.76,2-4.73V172.47A2.76,2.76,0,0,0,244,170C243.67,169.82,240.49,168,239.93,167.66Z" style="fill:#263238"></path><path d="M222.54,207.37l0,0L218.42,205a2.83,2.83,0,0,1-.91-2.46V183.62a7.42,7.42,0,0,1,.65-3l4.06,2.34a7.42,7.42,0,0,0-.65,3v18.92C221.58,206.17,222,207.07,222.54,207.37Z" style="opacity:0.25"></path><path d="M244,170a1.06,1.06,0,0,0-1.05.08l-19.33,11.17a3.67,3.67,0,0,0-1.36,1.74l-4.06-2.34a3.75,3.75,0,0,1,1.36-1.73l19.33-11.17a1.06,1.06,0,0,1,1.08-.07C240.48,168,243.56,169.76,244,170Z" style="fill:#fff;opacity:0.5"></path><path d="M242.92,196.12l-19.34,11.17c-1.1.64-2-.44-2-2.41V186c0-2,.89-4.08,2-4.72l19.33-11.17c1.11-.64,2,.44,2,2.41V191.4C244.92,193.36,244,195.48,242.92,196.12Z" style="fill:#263238"></path><path d="M239.93,127.75a1,1,0,0,0-1.08.06L219.52,139c-1.11.64-2,2.76-2,4.72v18.93a2.8,2.8,0,0,0,.91,2.46c.31.19,3.51,2,4.06,2.34a1,1,0,0,0,1.09-.05l19.34-11.17c1.1-.64,2-2.76,2-4.73V132.56c0-1.28-.37-2.17-.94-2.48C243.67,129.91,240.49,128.06,239.93,127.75Z" style="fill:#263238"></path><path d="M222.54,167.46l0,0-4.07-2.34a2.83,2.83,0,0,1-.91-2.46V143.71a7.42,7.42,0,0,1,.65-3l4.06,2.34a7.42,7.42,0,0,0-.65,3V165C221.58,166.26,222,167.16,222.54,167.46Z" style="opacity:0.25"></path><path d="M244,130.07a1.06,1.06,0,0,0-1.05.08l-19.33,11.17a3.67,3.67,0,0,0-1.36,1.74l-4.06-2.34a3.75,3.75,0,0,1,1.36-1.73l19.33-11.17a1.06,1.06,0,0,1,1.08-.07C240.48,128.06,243.56,129.85,244,130.07Z" style="fill:#fff;opacity:0.5"></path><path d="M242.92,156.21l-19.34,11.17c-1.1.64-2-.44-2-2.41V146c0-2,.89-4.08,2-4.72l19.33-11.17c1.11-.64,2,.44,2,2.41v18.92C244.92,153.45,244,155.57,242.92,156.21Z" style="fill:#263238"></path><path d="M205.41,147.68a1.06,1.06,0,0,0-1.08.06L185,158.91c-1.11.64-2,2.76-2,4.73v18.93a2.83,2.83,0,0,0,.91,2.46l4.07,2.33a1,1,0,0,0,1.09-.05l19.33-11.17c1.11-.64,2-2.75,2-4.72V152.49a2.78,2.78,0,0,0-.94-2.48Z" style="fill:#263238"></path><path d="M188,187.39l-.05,0L183.9,185a2.83,2.83,0,0,1-.91-2.46V163.64a7.42,7.42,0,0,1,.65-3L187.7,163a7.42,7.42,0,0,0-.65,3V184.9C187.06,186.19,187.44,187.09,188,187.39Z" style="opacity:0.25"></path><path d="M209.44,150a1.06,1.06,0,0,0-1.05.08l-19.33,11.17A3.67,3.67,0,0,0,187.7,163l-4.06-2.34a3.75,3.75,0,0,1,1.36-1.73l19.33-11.17a1.06,1.06,0,0,1,1.08-.07C206,148,209,149.78,209.44,150Z" style="fill:#fff;opacity:0.5"></path><path d="M208.39,176.14l-19.33,11.17c-1.11.64-2-.44-2-2.41V166c0-2,.9-4.08,2-4.72l19.33-11.17c1.11-.64,2,.44,2,2.41v18.93C210.4,173.39,209.5,175.5,208.39,176.14Z" style="fill:#263238"></path><path d="M170.89,167.61a1.06,1.06,0,0,0-1.08.07l-19.34,11.17c-1.11.63-2,2.75-2,4.72V202.5a2.8,2.8,0,0,0,.91,2.46l4.06,2.34a1.07,1.07,0,0,0,1.1-.06l19.33-11.17c1.11-.64,2-2.75,2-4.72V172.42a2.78,2.78,0,0,0-.93-2.48Z" style="fill:#263238"></path><path d="M153.5,207.32l-.05,0L149.38,205a2.83,2.83,0,0,1-.91-2.46V183.57a7.42,7.42,0,0,1,.65-3l4.06,2.34a7.42,7.42,0,0,0-.65,3v18.92C152.54,206.12,152.92,207,153.5,207.32Z" style="opacity:0.25"></path><path d="M174.92,169.93a1.06,1.06,0,0,0-1,.08l-19.33,11.17a3.67,3.67,0,0,0-1.36,1.74l-4.06-2.34a3.75,3.75,0,0,1,1.36-1.73l19.33-11.17a1.06,1.06,0,0,1,1.08-.07C171.44,167.92,174.52,169.71,174.92,169.93Z" style="fill:#fff;opacity:0.5"></path><path d="M173.87,196.07l-19.33,11.17c-1.11.64-2-.44-2-2.41V185.91c0-2,.9-4.09,2-4.73L173.87,170c1.11-.64,2,.44,2,2.41v18.93C175.88,193.32,175,195.43,173.87,196.07Z" style="fill:#263238"></path><path d="M136.37,187.55a1.05,1.05,0,0,0-1.09.06L116,198.78c-1.11.64-2,2.75-2,4.72v18.93a2.8,2.8,0,0,0,.91,2.46l4.06,2.34a1,1,0,0,0,1.09-.06L139.35,216c1.11-.64,2-2.75,2-4.72V192.35c0-1.27-.37-2.17-.94-2.47Z" style="fill:#263238"></path><path d="M119,227.25l0,0-4.07-2.34a2.83,2.83,0,0,1-.91-2.46V203.5a7.42,7.42,0,0,1,.65-3l4.06,2.34a7.42,7.42,0,0,0-.65,3v18.92C118,226.05,118.39,227,119,227.25Z" style="opacity:0.25"></path><path d="M140.39,189.86a1.06,1.06,0,0,0-1,.08L120,201.11a3.67,3.67,0,0,0-1.36,1.74l-4.06-2.34a3.75,3.75,0,0,1,1.36-1.73l19.33-11.17a1.06,1.06,0,0,1,1.08-.07C136.91,187.85,140,189.64,140.39,189.86Z" style="fill:#fff;opacity:0.5"></path><path d="M139.35,216,120,227.17c-1.1.64-2-.43-2-2.4V205.84c0-2,.89-4.09,2-4.73l19.33-11.17c1.11-.64,2,.44,2,2.41v18.93C141.35,213.25,140.46,215.36,139.35,216Z" style="fill:#263238"></path><path d="M170.89,327.26a1,1,0,0,0-1.08.06l-19.34,11.17c-1.11.64-2,2.75-2,4.72v18.93a2.8,2.8,0,0,0,.91,2.46c.31.19,3.51,2,4.06,2.34a1,1,0,0,0,1.1-.06l19.33-11.16c1.11-.64,2-2.76,2-4.73V332.06c0-1.27-.37-2.17-.93-2.47Z" style="fill:#e0e0e0"></path><path d="M174.92,329.57a1.06,1.06,0,0,0-1,.08l-19.33,11.17a3.67,3.67,0,0,0-1.36,1.74l-4.06-2.34a3.75,3.75,0,0,1,1.36-1.73l19.33-11.17a1.06,1.06,0,0,1,1.08-.07C171.44,327.56,174.52,329.35,174.92,329.57Z" style="fill:#f0f0f0"></path><path d="M153.5,367l-.05,0-4.07-2.34a2.83,2.83,0,0,1-.91-2.46V343.21a7.42,7.42,0,0,1,.65-3l4.06,2.34a7.42,7.42,0,0,0-.65,3v18.92C152.54,365.76,152.92,366.66,153.5,367Z" style="opacity:0.2"></path><path d="M136.37,307.28a1.05,1.05,0,0,0-1.09.06L116,318.51c-1.11.64-2,2.75-2,4.72v18.93a2.8,2.8,0,0,0,.91,2.46c.31.19,3.51,2,4.06,2.34a1.05,1.05,0,0,0,1.09,0l19.34-11.17c1.11-.64,2-2.76,2-4.73V312.08c0-1.27-.37-2.17-.94-2.47Z" style="fill:#e0e0e0"></path><path d="M140.39,309.59a1.06,1.06,0,0,0-1,.08L120,320.84a3.67,3.67,0,0,0-1.36,1.74l-4.06-2.34a3.75,3.75,0,0,1,1.36-1.73l19.33-11.17a1.06,1.06,0,0,1,1.08-.07C136.91,307.58,140,309.37,140.39,309.59Z" style="fill:#f0f0f0"></path><path d="M119,347l0,0-4.07-2.34a2.83,2.83,0,0,1-.91-2.46V323.23a7.42,7.42,0,0,1,.65-3l4.06,2.34a7.42,7.42,0,0,0-.65,3v18.92C118,345.78,118.39,346.68,119,347Z" style="opacity:0.2"></path><path d="M205.41,267.42a1,1,0,0,0-1.08.06L185,278.65c-1.11.64-2,2.75-2,4.72V302.3a2.83,2.83,0,0,0,.91,2.46L188,307.1a1,1,0,0,0,1.09-.06l19.33-11.17c1.11-.64,2-2.75,2-4.72V272.22a2.78,2.78,0,0,0-.94-2.48C209.15,269.58,206,267.73,205.41,267.42Z" style="fill:#e0e0e0"></path><path d="M209.44,269.73a1.06,1.06,0,0,0-1.05.08L189.06,281a3.67,3.67,0,0,0-1.36,1.74l-4.06-2.34a3.75,3.75,0,0,1,1.36-1.73l19.33-11.17a1.06,1.06,0,0,1,1.08-.07C206,267.72,209,269.51,209.44,269.73Z" style="fill:#f0f0f0"></path><path d="M188,307.12l-.05,0-4.07-2.34a2.83,2.83,0,0,1-.91-2.46V283.37a7.42,7.42,0,0,1,.65-3l4.06,2.34a7.42,7.42,0,0,0-.65,3v18.92C187.06,305.92,187.44,306.82,188,307.12Z" style="opacity:0.2"></path><path d="M170.89,287.35a1,1,0,0,0-1.08.06l-19.34,11.17c-1.11.64-2,2.75-2,4.72v18.93a2.8,2.8,0,0,0,.91,2.46l4.06,2.34a1,1,0,0,0,1.1-.06l19.33-11.16c1.11-.64,2-2.76,2-4.73V292.15c0-1.27-.37-2.17-.93-2.47Z" style="fill:#e0e0e0"></path><path d="M174.92,289.66a1.06,1.06,0,0,0-1,.08l-19.33,11.17a3.67,3.67,0,0,0-1.36,1.74l-4.06-2.34a3.75,3.75,0,0,1,1.36-1.73l19.33-11.17a1.06,1.06,0,0,1,1.08-.07C171.44,287.65,174.52,289.44,174.92,289.66Z" style="fill:#f0f0f0"></path><path d="M153.5,327.05l-.05,0-4.07-2.34a2.83,2.83,0,0,1-.91-2.46V303.3a7.42,7.42,0,0,1,.65-3l4.06,2.34a7.42,7.42,0,0,0-.65,3v18.92C152.54,325.85,152.92,326.75,153.5,327.05Z" style="opacity:0.2"></path><path d="M136.37,267.38a1.08,1.08,0,0,0-1.09.06L116,278.61c-1.11.64-2,2.76-2,4.73v18.93a2.8,2.8,0,0,0,.91,2.46l4.06,2.33A1,1,0,0,0,120,307l19.34-11.17c1.11-.64,2-2.75,2-4.72V272.19a2.76,2.76,0,0,0-.94-2.48Z" style="fill:#e0e0e0"></path><path d="M140.39,269.7a1.06,1.06,0,0,0-1,.08L120,281a3.67,3.67,0,0,0-1.36,1.74l-4.06-2.34a3.75,3.75,0,0,1,1.36-1.73l19.33-11.17a1.06,1.06,0,0,1,1.08-.07C136.91,267.69,140,269.48,140.39,269.7Z" style="fill:#f0f0f0"></path><path d="M119,307.09l0,0-4.07-2.34a2.83,2.83,0,0,1-.91-2.46V283.34a7.42,7.42,0,0,1,.65-3l4.06,2.34a7.42,7.42,0,0,0-.65,3V304.6C118,305.89,118.39,306.79,119,307.09Z" style="opacity:0.2"></path><path d="M205.41,227.52a1,1,0,0,0-1.08.06L185,238.75c-1.11.64-2,2.75-2,4.72V262.4a2.83,2.83,0,0,0,.91,2.46L188,267.2a1.05,1.05,0,0,0,1.09-.05L208.39,256c1.11-.64,2-2.76,2-4.73V232.32a2.75,2.75,0,0,0-.94-2.47C209.15,229.68,206,227.83,205.41,227.52Z" style="fill:#e0e0e0"></path><path d="M209.44,229.83a1.06,1.06,0,0,0-1.05.08l-19.33,11.17a3.67,3.67,0,0,0-1.36,1.74l-4.06-2.34a3.75,3.75,0,0,1,1.36-1.73l19.33-11.17a1.06,1.06,0,0,1,1.08-.07C206,227.82,209,229.61,209.44,229.83Z" style="fill:#f0f0f0"></path><path d="M188,267.22l-.05,0-4.07-2.34a2.83,2.83,0,0,1-.91-2.46V243.47a7.42,7.42,0,0,1,.65-3l4.06,2.34a7.42,7.42,0,0,0-.65,3v18.92C187.06,266,187.44,266.92,188,267.22Z" style="opacity:0.2"></path><path d="M170.89,247.45a1,1,0,0,0-1.08.06l-19.34,11.17c-1.11.64-2,2.76-2,4.73v18.92a2.82,2.82,0,0,0,.91,2.47l4.06,2.33a1,1,0,0,0,1.1-.05l19.33-11.17c1.11-.64,2-2.76,2-4.73V252.26a2.78,2.78,0,0,0-.93-2.48Z" style="fill:#e0e0e0"></path><path d="M174.92,249.77a1.06,1.06,0,0,0-1,.08L154.54,261a3.67,3.67,0,0,0-1.36,1.74l-4.06-2.34a3.75,3.75,0,0,1,1.36-1.73l19.33-11.17a1.06,1.06,0,0,1,1.08-.07C171.44,247.76,174.52,249.55,174.92,249.77Z" style="fill:#f0f0f0"></path><path d="M153.5,287.16l-.05,0-4.07-2.34a2.83,2.83,0,0,1-.91-2.46V263.41a7.42,7.42,0,0,1,.65-3l4.06,2.34a7.42,7.42,0,0,0-.65,3v18.92C152.54,286,152.92,286.86,153.5,287.16Z" style="opacity:0.2"></path><path d="M136.37,227.48a1.05,1.05,0,0,0-1.09.06L116,238.71c-1.11.64-2,2.75-2,4.72v18.93a2.8,2.8,0,0,0,.91,2.46c.31.19,3.51,2,4.06,2.34a1.05,1.05,0,0,0,1.09-.05l19.34-11.17c1.11-.64,2-2.76,2-4.73V232.28c0-1.27-.37-2.17-.94-2.47Z" style="fill:#e0e0e0"></path><path d="M140.39,229.79a1.06,1.06,0,0,0-1,.08L120,241a3.67,3.67,0,0,0-1.36,1.74l-4.06-2.34a3.75,3.75,0,0,1,1.36-1.73l19.33-11.17a1.06,1.06,0,0,1,1.08-.07C136.91,227.78,140,229.57,140.39,229.79Z" style="fill:#f0f0f0"></path><path d="M119,267.18l0,0-4.07-2.34a2.83,2.83,0,0,1-.91-2.46V243.43a7.42,7.42,0,0,1,.65-3l4.06,2.34a7.42,7.42,0,0,0-.65,3v18.92C118,266,118.39,266.88,119,267.18Z" style="opacity:0.2"></path><path d="M205.41,187.62a1,1,0,0,0-1.08.06L185,198.85c-1.11.64-2,2.75-2,4.72V222.5a2.83,2.83,0,0,0,.91,2.46L188,227.3a1,1,0,0,0,1.09-.06l19.33-11.17c1.11-.64,2-2.75,2-4.72V192.42a2.78,2.78,0,0,0-.94-2.48C209.15,189.78,206,187.93,205.41,187.62Z" style="fill:#e0e0e0"></path><path d="M209.44,189.93a1.06,1.06,0,0,0-1.05.08l-19.33,11.17a3.67,3.67,0,0,0-1.36,1.74l-4.06-2.34a3.75,3.75,0,0,1,1.36-1.73l19.33-11.17a1.06,1.06,0,0,1,1.08-.07C206,187.92,209,189.71,209.44,189.93Z" style="fill:#f0f0f0"></path><path d="M188,227.32l-.05,0L183.9,225a2.83,2.83,0,0,1-.91-2.46V203.57a7.42,7.42,0,0,1,.65-3l4.06,2.34a7.42,7.42,0,0,0-.65,3v18.92C187.06,226.12,187.44,227,188,227.32Z" style="opacity:0.2"></path><path d="M170.89,207.55a1,1,0,0,0-1.08.06l-19.34,11.17c-1.11.64-2,2.75-2,4.72v18.93a2.8,2.8,0,0,0,.91,2.46l4.06,2.34a1,1,0,0,0,1.1-.06L173.87,236c1.11-.64,2-2.76,2-4.73V212.35c0-1.27-.37-2.17-.93-2.47Z" style="fill:#e0e0e0"></path><path d="M174.92,209.86a1.06,1.06,0,0,0-1,.08l-19.33,11.17a3.67,3.67,0,0,0-1.36,1.74l-4.06-2.34a3.75,3.75,0,0,1,1.36-1.73l19.33-11.17a1.06,1.06,0,0,1,1.08-.07C171.44,207.85,174.52,209.64,174.92,209.86Z" style="fill:#f0f0f0"></path><path d="M153.5,247.25l-.05,0-4.07-2.34a2.83,2.83,0,0,1-.91-2.46V223.5a7.42,7.42,0,0,1,.65-3l4.06,2.34a7.42,7.42,0,0,0-.65,3v18.92C152.54,246.05,152.92,247,153.5,247.25Z" style="opacity:0.2"></path><path d="M127.88,255.16a1.31,1.31,0,0,1,0-.23l2.43-10.13L127,246.73a.16.16,0,0,1-.21,0,.38.38,0,0,1-.09-.28V244.6a.92.92,0,0,1,.09-.38A.57.57,0,0,1,127,244l5.38-3.1a.15.15,0,0,1,.21,0,.38.38,0,0,1,.09.28v1.61a5,5,0,0,1-.18,1l-2.44,10.15a2.53,2.53,0,0,1-.12.36.58.58,0,0,1-.21.25l-1.57.91a.15.15,0,0,1-.19,0A.33.33,0,0,1,127.88,255.16Z" style="fill:#455a64"></path><path d="M161,227.94a6.25,6.25,0,0,1,.25-1.7,7.58,7.58,0,0,1,.69-1.6,7.17,7.17,0,0,1,1-1.36,5.72,5.72,0,0,1,1.21-1,3,3,0,0,1,1.22-.42,1.58,1.58,0,0,1,1,.2,1.67,1.67,0,0,1,.69.8,3.39,3.39,0,0,1,.25,1.41,6.23,6.23,0,0,1-.15,1.36,7.5,7.5,0,0,1-.45,1.31,1.74,1.74,0,0,1,.56.79,3.41,3.41,0,0,1,.21,1.29,5.57,5.57,0,0,1-.26,1.7,6.8,6.8,0,0,1-.71,1.61,7.57,7.57,0,0,1-1.05,1.39,6,6,0,0,1-1.31,1,3.47,3.47,0,0,1-1.3.48,1.75,1.75,0,0,1-1.06-.17,1.67,1.67,0,0,1-.71-.79,3.36,3.36,0,0,1-.26-1.4,6.06,6.06,0,0,1,.2-1.53,7.8,7.8,0,0,1,.57-1.45,1.94,1.94,0,0,1-.44-.79A3.74,3.74,0,0,1,161,227.94Zm1.91,3.78a.69.69,0,0,0,.31.66c.21.11.52,0,.94-.2a2.53,2.53,0,0,0,.94-.89,1.91,1.91,0,0,0,.31-1,.68.68,0,0,0-.31-.67c-.2-.1-.52,0-.94.21a2.59,2.59,0,0,0-.94.88A2,2,0,0,0,163,231.72Zm.17-5a.74.74,0,0,0,.29.68.8.8,0,0,0,.79-.12,2.19,2.19,0,0,0,.8-.8,2,2,0,0,0,.28-1,.72.72,0,0,0-.28-.67.82.82,0,0,0-.8.12,2.17,2.17,0,0,0-.79.8A2,2,0,0,0,163.12,226.7Z" style="fill:#455a64"></path><path d="M195.43,208.67a7,7,0,0,1,.28-2,8,8,0,0,1,.73-1.78,7.59,7.59,0,0,1,1.06-1.46,5.25,5.25,0,0,1,1.23-1A2.92,2.92,0,0,1,200,202a1.72,1.72,0,0,1,1.06.24,2,2,0,0,1,.74.94,4.31,4.31,0,0,1,.27,1.65,6.24,6.24,0,0,1-.07,1,8.43,8.43,0,0,1-.19.9c-.08.3-.17.58-.27.87s-.19.55-.29.81l-2.14,5.79c0,.08-.08.18-.12.29a.56.56,0,0,1-.22.26l-1.79,1c-.07,0-.13,0-.17,0a.35.35,0,0,1-.06-.23.68.68,0,0,1,0-.15.49.49,0,0,1,0-.11l1.44-3.94a2.32,2.32,0,0,1-1,.14,1.54,1.54,0,0,1-.89-.37,2.25,2.25,0,0,1-.61-.92A4.4,4.4,0,0,1,195.43,208.67Zm4.51-2.6a1.44,1.44,0,0,0-.1-.58.67.67,0,0,0-.27-.32.63.63,0,0,0-.39-.09,1,1,0,0,0-.45.15,1.92,1.92,0,0,0-.46.37,3.11,3.11,0,0,0-.39.54,3.32,3.32,0,0,0-.27.64,2.35,2.35,0,0,0-.1.69,1.35,1.35,0,0,0,.1.57.66.66,0,0,0,.27.33.65.65,0,0,0,.39.09,1.08,1.08,0,0,0,.46-.15,1.88,1.88,0,0,0,.45-.37,2.66,2.66,0,0,0,.39-.54,3.32,3.32,0,0,0,.27-.64A2.35,2.35,0,0,0,199.94,206.07Z" style="fill:#455a64"></path><path d="M130.23,294.12a.15.15,0,0,1-.21,0,.38.38,0,0,1-.09-.28v-1.76l-3.55,2a.16.16,0,0,1-.21,0,.38.38,0,0,1-.09-.28V292a2.27,2.27,0,0,1,.15-.83l3.36-8.47a3,3,0,0,1,.18-.36,1,1,0,0,1,.24-.19l1.69-1a.18.18,0,0,1,.22,0,.38.38,0,0,1,.09.28v6.65l1-.56a.17.17,0,0,1,.21,0,.38.38,0,0,1,.09.28v1.83a.85.85,0,0,1-.09.38.61.61,0,0,1-.21.27l-1,.55v1.77a.85.85,0,0,1-.09.38.49.49,0,0,1-.22.26Zm-.25-4.86v-3.19l-1.64,4.14Z" style="fill:#455a64"></path><path d="M163,271.51l.17.23a.68.68,0,0,0,.23.18.67.67,0,0,0,.33.07,1.17,1.17,0,0,0,.45-.16,2.37,2.37,0,0,0,.45-.36,2.44,2.44,0,0,0,.38-.5,2.62,2.62,0,0,0,.26-.62,2.37,2.37,0,0,0,.1-.72.9.9,0,0,0-.3-.79c-.2-.13-.47-.1-.81.1a1,1,0,0,0-.3.25,3.4,3.4,0,0,0-.26.29l-.22.28a.59.59,0,0,1-.17.16l-1.75,1a.19.19,0,0,1-.23,0,.36.36,0,0,1-.08-.29l.34-6.38a1.31,1.31,0,0,1,.09-.38.63.63,0,0,1,.21-.26l4.82-2.78a.15.15,0,0,1,.21,0,.35.35,0,0,1,.09.27V263a.88.88,0,0,1-.09.38.52.52,0,0,1-.21.26l-3.28,1.89-.07,1.59a4.7,4.7,0,0,1,.46-.56,3.06,3.06,0,0,1,.58-.44,3,3,0,0,1,1.21-.42,1.51,1.51,0,0,1,1,.23,1.85,1.85,0,0,1,.64.92,4.82,4.82,0,0,1,.23,1.61,7.46,7.46,0,0,1-.25,2,7.71,7.71,0,0,1-.7,1.75,6.84,6.84,0,0,1-1,1.42,5.74,5.74,0,0,1-1.28,1,3.26,3.26,0,0,1-1.37.49,1.62,1.62,0,0,1-1-.23,1.7,1.7,0,0,1-.64-.81,3.34,3.34,0,0,1-.24-1.24.75.75,0,0,1,.08-.31.46.46,0,0,1,.17-.21l1.43-.83a.31.31,0,0,1,.28,0A.34.34,0,0,1,163,271.51Z" style="fill:#455a64"></path><path d="M202.08,248.38a7.28,7.28,0,0,1-.27,2,7.83,7.83,0,0,1-.73,1.78,7.67,7.67,0,0,1-1.07,1.48,5.32,5.32,0,0,1-1.28,1,3.06,3.06,0,0,1-1.28.44,1.78,1.78,0,0,1-1.08-.24,1.9,1.9,0,0,1-.73-.93,4.38,4.38,0,0,1-.27-1.67,6.83,6.83,0,0,1,.08-1c.06-.33.13-.64.21-.94s.17-.59.27-.87.19-.54.28-.79l2.15-5.7a2.85,2.85,0,0,0,.12-.29.53.53,0,0,1,.23-.26l1.79-1a.11.11,0,0,1,.16,0,.38.38,0,0,1,.06.24.61.61,0,0,1,0,.14l0,.11-1.47,3.9a2.61,2.61,0,0,1,1.12-.21,1.59,1.59,0,0,1,.92.36,2.06,2.06,0,0,1,.62.94A4.56,4.56,0,0,1,202.08,248.38Zm-4.63,2.68a1.51,1.51,0,0,0,.11.61.65.65,0,0,0,.7.39,1.28,1.28,0,0,0,.47-.17,2.17,2.17,0,0,0,.47-.37,2.7,2.7,0,0,0,.4-.54,3.29,3.29,0,0,0,.29-.66,2.6,2.6,0,0,0,.11-.74,1.48,1.48,0,0,0-.11-.61.79.79,0,0,0-.29-.33.66.66,0,0,0-.4-.07,1.28,1.28,0,0,0-.47.17,2.17,2.17,0,0,0-.47.37,3.2,3.2,0,0,0-.41.54,3.89,3.89,0,0,0-.29.66A2.72,2.72,0,0,0,197.45,251.06Z" style="fill:#455a64"></path><path d="M127.37,327.46a.48.48,0,0,1-.06-.31,1.06,1.06,0,0,1,.13-.39l2.42-4.25c.06-.11.13-.23.22-.37a.8.8,0,0,1,.29-.31l1.38-.79a.15.15,0,0,1,.21,0,.38.38,0,0,1,.09.28v11.19a.92.92,0,0,1-.09.38.57.57,0,0,1-.21.26l-1.48.85a.16.16,0,0,1-.21,0,.38.38,0,0,1-.09-.28v-7.57l-1.34,2.33a.49.49,0,0,1-.22.23.16.16,0,0,1-.21-.07Z" style="fill:#455a64"></path><path d="M167.3,304.49a8.42,8.42,0,0,1-.07,1,7.1,7.1,0,0,1-.23,1.05,9.4,9.4,0,0,1-.43,1.12,13.7,13.7,0,0,1-.65,1.24l-1.57,2.74,2.82-1.63a.17.17,0,0,1,.22,0,.37.37,0,0,1,.09.27v1.84a.88.88,0,0,1-.09.38.49.49,0,0,1-.22.26l-5.94,3.43a.15.15,0,0,1-.21,0,.38.38,0,0,1-.09-.28v-1.49a2.55,2.55,0,0,1,.07-.59,2.1,2.1,0,0,1,.26-.62l3.36-5.65a4.09,4.09,0,0,0,.49-1.11,3.24,3.24,0,0,0,.11-.77,2.23,2.23,0,0,0,0-.32.82.82,0,0,0-.13-.36.47.47,0,0,0-.29-.21.73.73,0,0,0-.5.13,1.62,1.62,0,0,0-.51.46,3.44,3.44,0,0,0-.31.55,2.74,2.74,0,0,0-.15.52c0,.16-.06.28-.08.36a.9.9,0,0,1-.17.42.92.92,0,0,1-.28.24l-1.38.8c-.07,0-.13,0-.17,0a.28.28,0,0,1-.08-.22,7.63,7.63,0,0,1,.21-1.57,8,8,0,0,1,.57-1.64,7.76,7.76,0,0,1,1-1.51,5.06,5.06,0,0,1,1.37-1.15,2.52,2.52,0,0,1,1.31-.42,1.4,1.4,0,0,1,1,.35,2.15,2.15,0,0,1,.58,1A4.66,4.66,0,0,1,167.3,304.49Z" style="fill:#455a64"></path><path d="M201.39,280.74a.17.17,0,0,1,.21,0,.38.38,0,0,1,.09.28v1.83a1.09,1.09,0,0,1-.08.39,3.05,3.05,0,0,1-.15.35l-1.36,2.9a1.56,1.56,0,0,1,1.43.34,2.48,2.48,0,0,1,.55,1.86,6.43,6.43,0,0,1-3.33,5.85,3.67,3.67,0,0,1-1.43.53,1.68,1.68,0,0,1-1-.17,1.54,1.54,0,0,1-.66-.72,2.59,2.59,0,0,1-.24-1.11.67.67,0,0,1,.07-.31.46.46,0,0,1,.18-.22l1.41-.82c.16-.09.28-.1.36,0l.28.2a.75.75,0,0,0,.39.12,1.27,1.27,0,0,0,.69-.23,3,3,0,0,0,.9-.79,1.86,1.86,0,0,0,.35-1.09c0-.41-.12-.63-.35-.68a1.33,1.33,0,0,0-.9.24l-.93.54a.15.15,0,0,1-.21,0,.37.37,0,0,1-.09-.27v-1.49a1.16,1.16,0,0,1,.07-.4l.16-.36,1.19-2.55-2.93,1.7a.17.17,0,0,1-.22,0,.35.35,0,0,1-.09-.27v-1.84a.88.88,0,0,1,.09-.38.58.58,0,0,1,.22-.26Z" style="fill:#455a64"></path><path d="M164.2,342a2.74,2.74,0,0,1,1.45-.46,1.47,1.47,0,0,1,1,.44,2.51,2.51,0,0,1,.6,1.15,8.21,8.21,0,0,1,.23,1.66c0,.49,0,1,0,1.55s0,1.05,0,1.54a12.88,12.88,0,0,1-.23,1.92,8.09,8.09,0,0,1-.6,1.84,7,7,0,0,1-1,1.61,5.2,5.2,0,0,1-1.45,1.22,2.76,2.76,0,0,1-1.45.45,1.45,1.45,0,0,1-1-.44,2.6,2.6,0,0,1-.59-1.15,7.56,7.56,0,0,1-.23-1.66c0-.47,0-1,0-1.51s0-1.07,0-1.57a11.67,11.67,0,0,1,.23-1.93,8.6,8.6,0,0,1,.59-1.84,7.65,7.65,0,0,1,1-1.61A5.47,5.47,0,0,1,164.2,342Zm1.21,7q0-1.5,0-2.91a7,7,0,0,0-.09-.75,1.31,1.31,0,0,0-.2-.52.47.47,0,0,0-.35-.21,1,1,0,0,0-.57.17,2,2,0,0,0-.56.48,2.45,2.45,0,0,0-.36.63,3.44,3.44,0,0,0-.2.75,5.7,5.7,0,0,0-.08.84q-.06,1.47,0,2.91a5.33,5.33,0,0,0,.07.76,1.26,1.26,0,0,0,.2.51.49.49,0,0,0,.37.21.91.91,0,0,0,.56-.16,1.93,1.93,0,0,0,.57-.49,2.45,2.45,0,0,0,.36-.63,3.44,3.44,0,0,0,.2-.75A7.48,7.48,0,0,0,165.41,349Z" style="fill:#455a64"></path><path d="M124.9,214.32a.53.53,0,0,1-.15-.19l-1.06-2.25v5.73a.85.85,0,0,1-.09.38.61.61,0,0,1-.21.27l-1.48.85a.17.17,0,0,1-.21,0,.38.38,0,0,1-.09-.28V207.62a.92.92,0,0,1,.09-.38.63.63,0,0,1,.21-.26l1.31-.75c.15-.09.26-.09.33,0a.84.84,0,0,1,.15.2l1.82,3.74,1.83-5.85c0-.07.07-.19.14-.36a.79.79,0,0,1,.34-.38l1.3-.76a.17.17,0,0,1,.22,0,.35.35,0,0,1,.09.27v11.19a.85.85,0,0,1-.09.38.56.56,0,0,1-.22.27l-1.47.85a.17.17,0,0,1-.21,0,.38.38,0,0,1-.09-.28v-5.73l-1.06,3.47c0,.11-.09.24-.15.37a.61.61,0,0,1-.27.3l-.72.42C125.05,214.38,125,214.39,124.9,214.32Z" style="fill:#fafafa"></path><path d="M132.82,205.29c0,.15,0,.36,0,.63s0,.55,0,.83,0,.56,0,.83,0,.47,0,.62a4.53,4.53,0,0,0,.1.7,1.23,1.23,0,0,0,.25.5.59.59,0,0,0,.43.19,1.09,1.09,0,0,0,.64-.2,2.53,2.53,0,0,0,.63-.5,3.08,3.08,0,0,0,.41-.58,3.23,3.23,0,0,0,.24-.58c0-.19.1-.37.13-.52a2.64,2.64,0,0,1,.12-.46.59.59,0,0,1,.26-.26l1.47-.86a.15.15,0,0,1,.18,0,.28.28,0,0,1,.07.22,7,7,0,0,1-.28,1.83,8.68,8.68,0,0,1-.74,1.78,9.09,9.09,0,0,1-1.11,1.55,5.62,5.62,0,0,1-1.38,1.13,2.86,2.86,0,0,1-1.44.46,1.64,1.64,0,0,1-1.09-.38,2.42,2.42,0,0,1-.69-1.1,5.8,5.8,0,0,1-.28-1.65c0-.47,0-1,0-1.51s0-1.07,0-1.58a9.62,9.62,0,0,1,.27-2,10,10,0,0,1,.69-1.9,7.93,7.93,0,0,1,1.09-1.64,5.53,5.53,0,0,1,1.45-1.21,3.08,3.08,0,0,1,1.38-.46,1.88,1.88,0,0,1,1.11.27,2,2,0,0,1,.74.92,4,4,0,0,1,.28,1.5.67.67,0,0,1-.07.31.46.46,0,0,1-.18.22l-1.47.85c-.13.07-.21.09-.26,0a1,1,0,0,1-.12-.32,3.43,3.43,0,0,0-.13-.38.73.73,0,0,0-.24-.3.66.66,0,0,0-.41-.1,1.35,1.35,0,0,0-.63.22,2.42,2.42,0,0,0-.64.54,3.4,3.4,0,0,0-.43.68,4.27,4.27,0,0,0-.25.79A7.35,7.35,0,0,0,132.82,205.29Z" style="fill:#fafafa"></path><path d="M159.48,194.36a1,1,0,0,1-.15-.2l-1.06-2.25v5.73a.92.92,0,0,1-.09.39.63.63,0,0,1-.21.26l-1.47.85a.17.17,0,0,1-.22,0,.35.35,0,0,1-.09-.27V187.66a.85.85,0,0,1,.09-.38.56.56,0,0,1,.22-.27l1.3-.75c.15-.09.26-.09.34,0a.81.81,0,0,1,.14.19l1.83,3.74,1.82-5.85a2.85,2.85,0,0,1,.15-.36.73.73,0,0,1,.33-.38l1.31-.76a.17.17,0,0,1,.21,0,.38.38,0,0,1,.09.28v11.19a.92.92,0,0,1-.09.38.63.63,0,0,1-.21.26l-1.47.85a.17.17,0,0,1-.22,0,.35.35,0,0,1-.09-.27v-5.74l-1.06,3.47a1.86,1.86,0,0,1-.15.38.7.7,0,0,1-.26.3l-.72.41C159.63,194.42,159.55,194.42,159.48,194.36Z" style="fill:#fafafa"></path><path d="M169,179.82a4,4,0,0,1,1.33-.52,1.46,1.46,0,0,1,1,.15,1.54,1.54,0,0,1,.63.88,4.93,4.93,0,0,1,.22,1.63,7.35,7.35,0,0,1-.35,2.36,6.14,6.14,0,0,1-1,1.88l1.4,3.31a.55.55,0,0,1,0,.17.67.67,0,0,1-.07.31.51.51,0,0,1-.17.22l-1.54.88c-.15.09-.25.1-.32,0a1.07,1.07,0,0,1-.15-.22l-1.25-3-1,.6v3.7a.92.92,0,0,1-.09.39.63.63,0,0,1-.21.26l-1.48.85a.15.15,0,0,1-.21,0,.35.35,0,0,1-.09-.27V182.23a.85.85,0,0,1,.09-.38.61.61,0,0,1,.21-.27Zm-1.27,6,1.27-.74a2.18,2.18,0,0,0,.78-.73,2,2,0,0,0,.31-1.18c0-.48-.1-.76-.31-.83a1,1,0,0,0-.78.18l-1.27.73Z" style="fill:#fafafa"></path><path d="M195.32,173.66a.9.9,0,0,1-.15-.19l-1.06-2.25V177a.85.85,0,0,1-.09.38.61.61,0,0,1-.21.27l-1.47.85a.18.18,0,0,1-.22,0,.38.38,0,0,1-.09-.28V167a.92.92,0,0,1,.09-.38.58.58,0,0,1,.22-.26l1.3-.75c.15-.09.26-.09.34,0a1.07,1.07,0,0,1,.14.2L196,169.5l1.82-5.85a2.85,2.85,0,0,1,.15-.36.73.73,0,0,1,.33-.38l1.31-.76a.15.15,0,0,1,.21,0,.37.37,0,0,1,.09.27v11.19a.85.85,0,0,1-.09.38.61.61,0,0,1-.21.27l-1.48.85a.15.15,0,0,1-.21,0,.37.37,0,0,1-.09-.27V169.1l-1.06,3.47a1.8,1.8,0,0,1-.15.37.6.6,0,0,1-.26.3l-.72.42C195.47,173.72,195.39,173.73,195.32,173.66Z" style="fill:#fafafa"></path><path d="M201.57,169.25a.16.16,0,0,1-.21,0,.38.38,0,0,1-.09-.28v-1.75a.88.88,0,0,1,.09-.38.52.52,0,0,1,.21-.26l3.55-2a.15.15,0,0,1,.21,0,.35.35,0,0,1,.09.27v1.75a.85.85,0,0,1-.09.38.52.52,0,0,1-.21.26Z" style="fill:#fafafa"></path><path d="M229,154.23a.75.75,0,0,1-.15-.2l-1.06-2.24v5.73a.88.88,0,0,1-.09.38.52.52,0,0,1-.21.26L226,159a.15.15,0,0,1-.21,0,.38.38,0,0,1-.09-.28V147.53a.92.92,0,0,1,.09-.38.57.57,0,0,1,.21-.26l1.31-.75c.15-.09.26-.09.33,0a1.15,1.15,0,0,1,.15.19l1.82,3.75,1.83-5.85c0-.07.07-.19.14-.36a.87.87,0,0,1,.34-.39l1.31-.75a.15.15,0,0,1,.21,0,.35.35,0,0,1,.09.27V154.2a.85.85,0,0,1-.09.38.52.52,0,0,1-.21.26l-1.48.86a.17.17,0,0,1-.21,0,.38.38,0,0,1-.09-.28v-5.73l-1.06,3.47c0,.11-.09.24-.15.37a.61.61,0,0,1-.27.3l-.72.42C229.13,154.29,229,154.29,229,154.23Z" style="fill:#fafafa"></path><path d="M238.77,147.77v2.86a.85.85,0,0,1-.09.38.52.52,0,0,1-.21.26l-1.42.82a.15.15,0,0,1-.21,0,.38.38,0,0,1-.09-.28v-2.86L235,150a.15.15,0,0,1-.21,0,.35.35,0,0,1-.09-.27v-1.75a.85.85,0,0,1,.09-.38.61.61,0,0,1,.21-.27l1.75-1V143.4a.88.88,0,0,1,.09-.38.52.52,0,0,1,.21-.26l1.42-.82a.16.16,0,0,1,.21,0,.38.38,0,0,1,.09.28v2.86l1.73-1a.18.18,0,0,1,.22,0,.38.38,0,0,1,.09.28v1.75a.88.88,0,0,1-.09.38.49.49,0,0,1-.22.26Z" style="fill:#fafafa"></path><path d="M229.9,191.84a.15.15,0,0,1-.21,0,.38.38,0,0,1-.09-.28V189.8a.88.88,0,0,1,.09-.38.57.57,0,0,1,.21-.26l6.7-3.87a.17.17,0,0,1,.21,0,.38.38,0,0,1,.09.28v1.74a.92.92,0,0,1-.09.39.63.63,0,0,1-.21.26Z" style="fill:#fafafa"></path><path d="M234.36,183.1a3,3,0,0,1-1.11,2.36c-.62.35-1.11-.13-1.11-1.07a2.91,2.91,0,0,1,1.11-2.36C233.86,181.67,234.36,182.15,234.36,183.1Z" style="fill:#fafafa"></path><path d="M234.36,193c0-.94-.5-1.42-1.11-1.07a2.93,2.93,0,0,0-1.11,2.36c0,.94.49,1.42,1.11,1.07A3,3,0,0,0,234.36,193Z" style="fill:#fafafa"></path><path d="M231.82,229.42,230.37,228a.35.35,0,0,1-.09-.27.85.85,0,0,1,.09-.38l1-2.12a.61.61,0,0,1,.21-.27.18.18,0,0,1,.22,0l1.45,1.41,1.45-3.07a.57.57,0,0,1,.21-.26.18.18,0,0,1,.22,0l1,1a.38.38,0,0,1,.09.28.92.92,0,0,1-.09.38l-1.45,3.07,1.45,1.38a.38.38,0,0,1,.09.28.92.92,0,0,1-.09.38l-1,2.12a.58.58,0,0,1-.22.26.15.15,0,0,1-.21,0l-1.45-1.38-1.45,3.08a.58.58,0,0,1-.22.26.15.15,0,0,1-.21,0l-1-1a.38.38,0,0,1-.09-.28.88.88,0,0,1,.09-.38Z" style="fill:#fafafa"></path><path d="M229.9,271.77a.16.16,0,0,1-.21,0,.38.38,0,0,1-.09-.28v-1.75a.88.88,0,0,1,.09-.38.52.52,0,0,1,.21-.26l6.7-3.87a.15.15,0,0,1,.21,0,.35.35,0,0,1,.09.27v1.75a.85.85,0,0,1-.09.38.61.61,0,0,1-.21.27Z" style="fill:#fafafa"></path><path d="M126.86,363.77c.15-.09.27-.09.34,0a.66.66,0,0,1,.17.29l2.45,9.49a.93.93,0,0,1,.05.24.75.75,0,0,1-.08.31.46.46,0,0,1-.17.21l-1.42.82c-.15.09-.26.1-.32,0a.48.48,0,0,1-.12-.22l-.31-1.26-3,1.73-.31,1.62a1.62,1.62,0,0,1-.12.35.75.75,0,0,1-.32.34l-1.42.82a.14.14,0,0,1-.17,0,.28.28,0,0,1-.07-.22,1.37,1.37,0,0,1,0-.29l2.45-12.33a2.26,2.26,0,0,1,.17-.47.81.81,0,0,1,.34-.39ZM125,372.39l1.82-1.05-.91-3.63Z" style="fill:#fafafa"></path><path d="M132.4,365.18c0,.15,0,.37,0,.63s0,.55,0,.83,0,.56,0,.83,0,.47,0,.62a3,3,0,0,0,.1.7,1.11,1.11,0,0,0,.24.5.64.64,0,0,0,.43.2,1.19,1.19,0,0,0,.64-.21,2.32,2.32,0,0,0,.63-.5,3.38,3.38,0,0,0,.41-.57,3.66,3.66,0,0,0,.24-.59,4.38,4.38,0,0,0,.13-.52,2.64,2.64,0,0,1,.12-.46.65.65,0,0,1,.26-.26l1.48-.85a.12.12,0,0,1,.17,0,.28.28,0,0,1,.07.22,6.56,6.56,0,0,1-.28,1.83,8.68,8.68,0,0,1-.74,1.78,8.57,8.57,0,0,1-1.11,1.55,5.4,5.4,0,0,1-1.38,1.13,2.86,2.86,0,0,1-1.44.46,1.64,1.64,0,0,1-1.09-.38,2.42,2.42,0,0,1-.69-1.1,5.81,5.81,0,0,1-.27-1.65c0-.47,0-1,0-1.51s0-1.07,0-1.58a9,9,0,0,1,.26-2,9.38,9.38,0,0,1,.7-1.9,7.51,7.51,0,0,1,1.08-1.64,5.74,5.74,0,0,1,1.45-1.21,3.08,3.08,0,0,1,1.38-.46,1.86,1.86,0,0,1,1.11.27,2,2,0,0,1,.74.92,3.79,3.79,0,0,1,.28,1.5.74.74,0,0,1-.07.32.54.54,0,0,1-.17.21l-1.48.85c-.12.07-.21.09-.26,0a1,1,0,0,1-.12-.32,2.14,2.14,0,0,0-.13-.38.73.73,0,0,0-.24-.3.66.66,0,0,0-.41-.1,1.35,1.35,0,0,0-.63.22,2.42,2.42,0,0,0-.64.54,3.71,3.71,0,0,0-.43.68,3.61,3.61,0,0,0-.24.79A4.59,4.59,0,0,0,132.4,365.18Z" style="fill:#fafafa"></path><path d="M195.53,329.4a.17.17,0,0,1-.21,0,.38.38,0,0,1-.09-.28v-1.75a.92.92,0,0,1,.09-.38.63.63,0,0,1,.21-.26l6.39-3.69a.17.17,0,0,1,.22,0,.35.35,0,0,1,.09.27v1.75a.85.85,0,0,1-.09.38.62.62,0,0,1-.22.27Zm0,4.26a.17.17,0,0,1-.21,0,.38.38,0,0,1-.09-.28v-1.75a.92.92,0,0,1,.09-.38.63.63,0,0,1,.21-.26l6.39-3.69a.17.17,0,0,1,.22,0,.35.35,0,0,1,.09.27v1.75a.85.85,0,0,1-.09.38.62.62,0,0,1-.22.27Z" style="fill:#fafafa"></path><path d="M234.27,309.16V312a.88.88,0,0,1-.09.38.53.53,0,0,1-.22.26l-1.41.82a.18.18,0,0,1-.22,0,.38.38,0,0,1-.09-.28v-2.86l-1.74,1a.18.18,0,0,1-.22,0,.38.38,0,0,1-.09-.28v-1.75a.92.92,0,0,1,.09-.38.65.65,0,0,1,.22-.26l1.74-1v-2.86a.85.85,0,0,1,.09-.38.56.56,0,0,1,.22-.27l1.41-.81a.17.17,0,0,1,.22,0,.38.38,0,0,1,.09.28v2.86l1.73-1a.15.15,0,0,1,.21,0,.38.38,0,0,1,.09.28v1.75a.88.88,0,0,1-.09.38.57.57,0,0,1-.21.26Z" style="fill:#fafafa"></path><path d="M104.32,117a17.7,17.7,0,0,0-2.57,8.59V396.74c0,2.69.92,4.6,2.41,5.54-1.78-1.07-14.58-8.47-16.13-9.36s-2.53-2.85-2.53-5.61V116.13a17.69,17.69,0,0,1,2.54-8.55Z" style="fill:#263238"></path><path d="M248.16,34l.09.06c-1.57-1-3.78-.88-6.24.54l-131.6,76a17.59,17.59,0,0,0-6.09,6.41l-16.27-9.39a17.71,17.71,0,0,1,6.12-6.45l131.6-76c2.36-1.37,4.5-1.51,6.06-.65S246.59,33.07,248.16,34Z" style="fill:#455a64"></path><path d="M237.86,111.52h0a4.51,4.51,0,0,1-1.54,1.61L116.11,182.55c-1.2.69-2.17.13-2.17-1.25V125.05a4.8,4.8,0,0,1,2.16-3.75l69.3-40Z" style="fill:#455a64"></path><path d="M238.49,53.14v56.25a4.43,4.43,0,0,1-.63,2.13L185.4,81.31l49-28.33,1.89-1.09C237.52,51.2,238.49,51.76,238.49,53.14Z" style="fill:#263238"></path><path d="M234.43,53v54.07a4.78,4.78,0,0,1-2.17,3.75L113.94,179.1v-54a4.8,4.8,0,0,1,2.16-3.75Z" style="fill:#263238"></path><path d="M234.43,53v54.07a4.78,4.78,0,0,1-2.17,3.75L113.94,179.1v-54a4.8,4.8,0,0,1,2.16-3.75Z" style="opacity:0.25"></path><g style="opacity:0.5"><path d="M136.21,150.92,132,153.36a2.28,2.28,0,0,1-3-.18,5.18,5.18,0,0,1-1.24-3.88,3,3,0,0,1,.32-1.32,1.88,1.88,0,0,1,.75-.92.56.56,0,0,1,.74.05,1.36,1.36,0,0,1,.3,1,2.61,2.61,0,0,0,.62,1.94,1.13,1.13,0,0,0,1.49.09l4.22-2.43a4.08,4.08,0,0,0,1.5-1.82,6.1,6.1,0,0,0,.63-2.66v-4.14a6.69,6.69,0,0,1-2.13,2.12L132,143.61a2.26,2.26,0,0,1-3-.18,5.16,5.16,0,0,1-1.24-3.88v-3.24A12.21,12.21,0,0,1,129,131a7.91,7.91,0,0,1,3-3.63l4.22-2.43a2.29,2.29,0,0,1,3,.17,5.18,5.18,0,0,1,1.24,3.88v13a12.27,12.27,0,0,1-1.24,5.31A7.87,7.87,0,0,1,136.21,150.92Zm2.13-20.71a2.59,2.59,0,0,0-.62-1.94,1.14,1.14,0,0,0-1.51-.08L132,130.62a4,4,0,0,0-1.49,1.81,6.23,6.23,0,0,0-.62,2.66v3.25a2.63,2.63,0,0,0,.62,1.94,1.15,1.15,0,0,0,1.49.09l4.22-2.44a4,4,0,0,0,1.5-1.82,6.07,6.07,0,0,0,.63-2.66Z"></path><path d="M146.76,127.78a.62.62,0,0,0,.16.48.28.28,0,0,0,.37,0l5.8-3.35a2.28,2.28,0,0,1,3,.18,5.16,5.16,0,0,1,1.24,3.88v3.25a12.2,12.2,0,0,1-1.24,5.3,7.86,7.86,0,0,1-3,3.63l-4.22,2.43a2.26,2.26,0,0,1-3-.18,5.16,5.16,0,0,1-1.24-3.88,3.16,3.16,0,0,1,.31-1.33,2,2,0,0,1,.75-.9.57.57,0,0,1,.75,0,1.32,1.32,0,0,1,.3,1,2.63,2.63,0,0,0,.62,1.94,1.15,1.15,0,0,0,1.49.09l4.22-2.44a4,4,0,0,0,1.49-1.81,6.2,6.2,0,0,0,.62-2.66v-3.24a2.59,2.59,0,0,0-.62-1.94,1.13,1.13,0,0,0-1.49-.09l-6.33,3.65a1.13,1.13,0,0,1-1.49-.09,2.61,2.61,0,0,1-.62-1.94v-8.12a3,3,0,0,1,.31-1.33,1.91,1.91,0,0,1,.75-.9l10.54-6.09a.57.57,0,0,1,.75,0,1.28,1.28,0,0,1,.31,1,3.11,3.11,0,0,1-.31,1.32,2,2,0,0,1-.75.9l-9,5.17a1,1,0,0,0-.37.46,1.52,1.52,0,0,0-.16.69Z"></path><path d="M170,131.43l-4.22,2.44a2.28,2.28,0,0,1-3-.18,5.18,5.18,0,0,1-1.24-3.88v-13a12.21,12.21,0,0,1,1.24-5.31,7.91,7.91,0,0,1,3-3.63l4.22-2.43a2.28,2.28,0,0,1,3,.18,5.22,5.22,0,0,1,1.24,3.88v13a12.42,12.42,0,0,1-1.24,5.31A7.88,7.88,0,0,1,170,131.43Zm-4.22-.81,4.22-2.43a3.45,3.45,0,0,0,1-1l-7.33-11.32v12.71a2.59,2.59,0,0,0,.62,1.94A1.13,1.13,0,0,0,165.75,130.62ZM170,108.7l-4.22,2.43a3.36,3.36,0,0,0-1,1l7.34,11.32V110.73a2.59,2.59,0,0,0-.62-1.94A1.13,1.13,0,0,0,170,108.7Z"></path><path d="M185.77,122.31,179.45,126a.58.58,0,0,1-.75,0,1.28,1.28,0,0,1-.31-1,3.27,3.27,0,0,1,.31-1.34,2,2,0,0,1,.75-.91l2.11-1.21V105.25a2.63,2.63,0,0,0-.61-1.93,1.15,1.15,0,0,0-1.47-.12l0,0a.58.58,0,0,1-.75,0,1.28,1.28,0,0,1-.31-1,3,3,0,0,1,.31-1.33,1.89,1.89,0,0,1,.75-.91v0a2.26,2.26,0,0,1,3,.18,5.2,5.2,0,0,1,1.24,3.88v16.24l2.1-1.22a.57.57,0,0,1,.76,0,1.35,1.35,0,0,1,.3,1,3,3,0,0,1-.31,1.32A2,2,0,0,1,185.77,122.31Z"></path><path d="M199.51,114.38l-4.22,2.44a2.29,2.29,0,0,1-3-.18,5.23,5.23,0,0,1-1.23-3.88v-13a12.33,12.33,0,0,1,1.23-5.3,7.87,7.87,0,0,1,3-3.63l4.22-2.44a2.28,2.28,0,0,1,3,.18,5.24,5.24,0,0,1,1.24,3.88v13a12.34,12.34,0,0,1-1.24,5.3A7.92,7.92,0,0,1,199.51,114.38Zm-4.22-.81,4.22-2.44a3.28,3.28,0,0,0,1-1l-7.33-11.33v12.72a2.61,2.61,0,0,0,.61,1.94A1.17,1.17,0,0,0,195.29,113.57Zm4.22-21.93-4.22,2.44a3.14,3.14,0,0,0-1,1l7.34,11.32V93.67a2.63,2.63,0,0,0-.62-1.94A1.15,1.15,0,0,0,199.51,91.64Z"></path><path d="M220.29,101.9a2,2,0,0,1-.75.91.56.56,0,0,1-.74,0,1.32,1.32,0,0,1-.31-1v-9a6.6,6.6,0,0,1-2.11,2.11l-4.22,2.44a2.28,2.28,0,0,1-3-.18,5.24,5.24,0,0,1-1.24-3.88V85.15a3.18,3.18,0,0,1,.31-1.32,1.94,1.94,0,0,1,.74-.91.57.57,0,0,1,.75,0,1.27,1.27,0,0,1,.31,1v8.12a2.61,2.61,0,0,0,.62,1.94,1.14,1.14,0,0,0,1.49.09l4.22-2.44a3.93,3.93,0,0,0,1.5-1.81,6.17,6.17,0,0,0,.61-2.65V79.06a3.18,3.18,0,0,1,.31-1.32,1.94,1.94,0,0,1,.74-.91.57.57,0,0,1,.75,0,1.27,1.27,0,0,1,.31,1v22.74A3,3,0,0,1,220.29,101.9Z"></path></g></g></g><g id="freepik--Character--inject-4"><g id="freepik--character--inject-4"><path d="M435.84,342.48l-15,43.64a1.4,1.4,0,0,1-2.66,0l-14.76-44Z" style="fill:#ffa8a7"></path><path d="M418.22,386.11a1.4,1.4,0,0,0,2.66,0l2.92-8.52h0a7.76,7.76,0,0,1-8.08-.45l-.66-.45Z" style="fill:#263238"></path><path d="M404,147.51v4.27l0,5.15-.53,185.19c3.43,3.91,8.5,5.9,13.64,6.41,7.83.82,15.86-1.75,18.73-6l.52-185.08,0-9.85C436,153.93,403.74,153.91,404,147.51Z" style="fill:#263238"></path><path d="M404,147.51v4.27l0,5.15-.53,185.19c3.43,3.91,8.5,5.9,13.64,6.41,7.83.82,15.86-1.75,18.73-6l.52-185.08,0-9.85C436,153.93,403.74,153.91,404,147.51Z" style="opacity:0.25"></path><path d="M403.93,163.76v9.54c-.1,2.76,5.79,4.55,12.59,5.17,9,.86,19.65-1.59,19.78-5.25l0-7,0-2.51c-.14,3.66-10.76,6.11-19.79,5.26-6.51-.61-12.21-2.3-12.54-4.88v0A.6.6,0,0,1,403.93,163.76Z" style="fill:#ebebeb"></path><path d="M403.94,166.14c-.23,6.42,32.13,6.34,32.36-.08l0-9.54c-.23,6.42-32.58,6.5-32.35.08Z" style="fill:#263238"></path><path d="M404,147.51l0,9.42c-.27,6.3,30.95,6.49,32.36.47a1.29,1.29,0,0,0,.06-.36l0-9.49C436,153.93,403.74,153.91,404,147.51Z" style="fill:#ebebeb"></path><path d="M436.52,107.13v-.4c0-4.6-7.25-8.33-16.18-8.33s-16.17,3.73-16.17,8.33v4.34L404,147.51c-.12,2.73,5.7,4.54,12.44,5.19,9,.88,19.7-1.5,19.9-5.15,0,0,0,0,0,0l.14-40.12Z" style="fill:#f28f8f"></path><ellipse cx="420.34" cy="106.73" rx="16.18" ry="8.33" style="fill:#fff;opacity:0.2"></ellipse><path d="M436.34,157.4l.18-50.27c-.22,3.94-6.93,7.66-14.25,7.93l-.52,233.62-.87,37.44,15-43.64h0Z" style="opacity:0.1"></path><path d="M379.79,179.75c6.14-.89,15.28,2.32,20.56,9.74S424,215,426,220.71c1.47,4.19,2.74,14.69-5.93,11-8.39-3.58-37.24-32.43-37.24-32.43Z" style="fill:#ffa8a7"></path><path d="M421.2,214.07l15-14.52,0-14.39s3,1,4.16,5.64,2.66,10,2.07,14-13.08,26-17.9,27.48C418.76,234.1,421.2,214.07,421.2,214.07Z" style="fill:#ffa8a7"></path><path d="M366.29,384.85c-.13,2.25-.38,4.28.54,6.73,1.33,3.52,4,5.09,5.59,6.46a26.54,26.54,0,0,1,4.63,5.4,23.22,23.22,0,0,0,4.85,5.81c1.5,1.25,5.66,1.28,7.64.4s2.65-1.65,2.46-4.85-9.91-4.09-9.91-4.09Z" style="fill:#455a64"></path><path d="M390.55,395.28c.84.3,1.08,1.87,1.26,5,.15,2.37,1.21,5.82-2,7.38-2.61,1.26-6.84.55-8.67-1.65-2.28-2.75-3.83-5.18-7.07-8.52-2.81-2.89-5.69-3.83-7-9.71-.86-3.78-.28-5.36,2.25-6.5,3.49-1.57,9.1,3.21,11.87,3.92C383.52,385.82,389.72,395,390.55,395.28Z" style="fill:#263238"></path><path d="M390.55,395.28c.84.3,1.08,1.87,1.26,5,.15,2.37,1.21,5.82-2,7.38-2.61,1.26-6.84.55-8.67-1.65-2.28-2.75-3.83-5.18-7.07-8.52-2.81-2.89-5.69-3.83-7-9.71-.86-3.78-.28-5.36,2.25-6.5,3.49-1.57,9.1,3.21,11.87,3.92C383.52,385.82,389.72,395,390.55,395.28Z" style="opacity:0.4"></path><path d="M381.14,385.2a3.18,3.18,0,0,1-.47-.15,9,9,0,0,0-7.5,5.14c-.45,1,1,1.82,1.85,1,1.88-3.94,5.89-4.89,7.5-5.11A4.22,4.22,0,0,0,381.14,385.2Z" style="fill:#fafafa"></path><path d="M383.44,387a9,9,0,0,0-7,5.08c-.45,1,1,1.82,1.85,1a9.27,9.27,0,0,1,6.24-4.86C384.19,387.73,383.81,387.32,383.44,387Z" style="fill:#fafafa"></path><path d="M323.14,434.23c-.49,2.66.5,4,4,5.94s8.86,2.48,14.49.72,8.28-4.28,10.62-4.92,8.16-.8,10.47-1.53,2.25-1.92,2.18-4.71Z" style="fill:#455a64"></path><path d="M362.33,416.3s1.17,3.33,1.82,6.24c.52,2.32,1.28,6.2.5,8s-3.94,3-8.86,3c-3.2,0-8.13,2.31-11.49,4.28s-7.29,2.11-11,1.75c-4.4-.42-9-2.88-9.73-4.68s-1-3.16,9.28-7.77c.1,0,11.9-4.66,16.79-10.28Z" style="fill:#263238"></path><g style="opacity:0.4"><path d="M362.33,416.3s1.17,3.33,1.82,6.24c.52,2.32,1.28,6.2.5,8s-3.94,3-8.86,3c-3.2,0-8.13,2.31-11.49,4.28s-7.29,2.11-11,1.75c-4.4-.42-9-2.88-9.73-4.68s-1-3.16,9.28-7.77c.1,0,11.9-4.66,16.79-10.28Z"></path></g><path d="M342.9,438.5s-1.06-8.85-8.32-11.24c-6.57-2.16-12.16,2.78-11.44,7C323.62,437,331.68,443.3,342.9,438.5Z" style="fill:#fafafa"></path><path d="M336.37,425.56a8.36,8.36,0,0,1,5,2.09c2.12,1.71,2.2,2.87,2.2,2.87a1.09,1.09,0,0,0,1.86-.94s-.57-4.46-6.48-5.26A2.4,2.4,0,0,0,336.37,425.56Z" style="fill:#fafafa"></path><path d="M340.45,423.5a7.36,7.36,0,0,1,5,1.88c2.11,1.71,2.15,3.08,2.15,3.08a1.1,1.1,0,0,0,1.87-.94s-.58-4.46-6.48-5.26A2.41,2.41,0,0,0,340.45,423.5Z" style="fill:#fafafa"></path><path d="M344.5,421.09a7.38,7.38,0,0,1,5.12,1.52c2.23,1.56,2.36,2.93,2.36,2.93a1.09,1.09,0,0,0,1.79-1.06s-.87-4.41-6.82-4.81A2.39,2.39,0,0,0,344.5,421.09Z" style="fill:#fafafa"></path><path d="M390.45,390.21l.12,6s-3.94,3.15-9.72.46c-.17-.37-.78-6.27-.78-6.27Z" style="fill:#ffa8a7"></path><path d="M362.24,412.14s.05,2.86.09,4.49-1.83,4.1-6.82,4c-3.51-.06-6-1-5.89-3.84l-.09-4.16Z" style="fill:#ffa8a7"></path><path d="M395.92,339c-.58-12.69-3.31-18.2-3.31-18.2s.66-15.7,2.38-34.94c2.63-29.28.31-33.62-5.72-46.65,0,0-48.56-5.29-49.65,15.18-1.36,25.49-.54,77.28.32,86.26s.68.66,3.23,18.82c2,14.37,6.36,53.17,6.36,53.17,6.6,3.4,12.71-.52,12.71-.52s3.07-47.64,2.44-58c-.77-12.66-1.55-15.87-1.55-15.87s4.93-41.13,5.68-47.76c0,0,1,11.81,1.9,20.79s.94,16.22,3.21,34.78c1.78,14.56,6,46,6,46a12.07,12.07,0,0,0,10.71-1S396.38,349.28,395.92,339Z" style="fill:#455a64"></path><path d="M368.72,392.12s.13-7,9.61-8.2l.55.3a8.21,8.21,0,0,0-4.74-3.52c-3.18-.79-5.65.08-7.27,2.25S367.05,390.78,368.72,392.12Z" style="fill:#fafafa"></path><path d="M368.81,290.5l.62-8.4a69.09,69.09,0,0,0,15-7.53,20.19,20.19,0,0,1-12.09,9.16L370.84,292l-.13,19.31Z" style="fill:#37474f"></path><path d="M374,169.09l1,11h0c2.48.77,2.05,4.26.58,6.41l.3,3.23L359.7,191.2l-2.43-18.59Z" style="fill:#ffa8a7"></path><path d="M391.84,188.09c-1.8-4.9-8.9-8.65-13.21-8.32l-3.62.32c1,2-.44,3.42-3.06,4.18-3.38,1-9.59,1.53-13.25-.64l-.11-.93s-6.91,2-8.94,2.73c-5.72,2.16-7.61,3.26-13.54,18.65-2.54,6.58-1,13.4,5.86,17.12.51,4.07,1.08,10.48,1.08,10.48a232.8,232.8,0,0,0-4.14,26.45s3.61,8.16,28.53,6.79c19.3-1.07,28.28-10.83,28.28-10.83-.47-4.74-3.47-12.3-9.61-26.57C393.37,207,394.51,195.35,391.84,188.09Z" style="fill:#37474f"></path><path d="M346.75,147.69s-11.42-6-2.19-16.91c6.63-7.85,17.43-6.89,30.41-2.36,6.07,2.12,14.91,8.27,15.69,20.2.6,9.2-25.06,16-24.47,22.28Z" style="fill:#263238"></path><path d="M344.56,152.47s-3.48,5.58-3,6.15,2.81,1.12,2.81,1.12Z" style="fill:#f28f8f"></path><path d="M355.18,134.79c-3.48,1.92-9.48,5.45-10.7,18.48-1.25,13.39,1.85,17.94,3.71,19.64,1.26,1.15,7.61,1.4,10.88.29,4.1-1.4,12.93-6.06,16.95-13.06,4.72-8.23,5.45-19-.37-23.13C367.47,131.27,358.13,133.17,355.18,134.79Z" style="fill:#ffa8a7"></path><path d="M357.39,173.61c-2.9.51-6.75.35-8.49-.31a15.62,15.62,0,0,0,8.37-2.4Z" style="fill:#f28f8f"></path><path d="M355.35,150.54a13.26,13.26,0,0,1-8.49-10.69c-1.31-8.49,9.29-12.09,9.29-12.09Z" style="fill:#263238"></path><path d="M390.67,147.26c-.87-6.13-4.92-14.36-12.8-16.75-14.67-4.44-23.72,4.87-23.72,4.87a44.85,44.85,0,0,0-.69,13.36,3.07,3.07,0,0,0-.95-.05v5.84a3.2,3.2,0,0,0,3.2,3.2v-3.3c.79-1.3,2.69-3.69,5.74-2.77,4.14,1.26,4.32,6.64,1.35,9.72s-5.63,1.94-6.32.83c-.1-.18-.15-.29-.15-.29l-1.63,13.41s0,2.1,10.64,2.61,20.88-2.39,24-6.45S391.54,153.39,390.67,147.26Z" style="fill:#263238"></path><path d="M355.72,154.42s-2.65-8.87-.28-16.24,6.29-11,11-12.16a13.75,13.75,0,0,1,10.69,3.29,17.82,17.82,0,0,0-13.36,6.12c-5.38,5.88-5.81,12.67-6.11,16.82A11.53,11.53,0,0,0,355.72,154.42Z" style="fill:#263238"></path><path d="M301,217.05l36.67,19.7.61.95v.76a1.1,1.1,0,0,1-.61.95l-27.34,15.74a2,2,0,0,1-1,.25,2.07,2.07,0,0,1-1-.25l-36-20.81v-.76Z" style="fill:#263238"></path><path d="M309.31,254.64a2,2,0,0,0,1-.25l27.34-15.74a1.11,1.11,0,0,0,.61-1,1.1,1.1,0,0,0-.61-.95l-35.38-20.44-30,17.27,36,20.81A2.07,2.07,0,0,0,309.31,254.64Z" style="fill:#455a64"></path><path d="M302.27,214.07l35.07,20.26.28.4v3h0a.49.49,0,0,1-.28.4L310,253.84a1.53,1.53,0,0,1-1.38,0l-35.07-20.26v-3Z" style="fill:#f0f0f0"></path><path d="M273.55,230.61l.35.2,4.5,2.6.84.48,29.38,17a1.57,1.57,0,0,0,1.37,0l27.35-15.75a.42.42,0,0,0,0-.79l-.37-.21-34.7-20.05-28.38,16.34-.08.05Z" style="fill:#ebebeb"></path><path d="M309.31,251v3a1.34,1.34,0,0,0,.68-.16l27.35-15.75a.48.48,0,0,0,.28-.39v-3a.49.49,0,0,1-.28.39L310,250.87A1.34,1.34,0,0,1,309.31,251Z" style="fill:#e0e0e0"></path><path d="M273.55,230.21l5,2.88.79.45,29.3,16.93a1.5,1.5,0,0,0,1.37,0l23.31-13.41.87-.5a8.55,8.55,0,0,0,2.8-2.44.36.36,0,0,1,.07-.1.6.6,0,0,0,.08-.21.62.62,0,0,0-.48-.7A12.86,12.86,0,0,1,334,232l0,0-31.73-18.34Z" style="fill:#fafafa"></path><path d="M285,231.74l19.45-11.23a1,1,0,0,1,.86,0l0,0a.26.26,0,0,1,0,.5L285.9,232.27a1,1,0,0,1-.87,0l0,0A.26.26,0,0,1,285,231.74Z" style="fill:#e0e0e0"></path><path d="M286.89,232.82l19.45-11.23a1,1,0,0,1,.86,0l.05,0c.24.14.24.37,0,.5l-19.44,11.23a1,1,0,0,1-.87,0l-.05,0A.26.26,0,0,1,286.89,232.82Z" style="fill:#e0e0e0"></path><path d="M288.8,233.9l19.44-11.22a1,1,0,0,1,.87,0l.05,0c.24.14.24.37,0,.5l-19.44,11.23a1,1,0,0,1-.87,0l-.05,0A.26.26,0,0,1,288.8,233.9Z" style="fill:#e0e0e0"></path><path d="M302.37,241.79l19.44-11.23a1,1,0,0,1,.87,0l.05,0a.27.27,0,0,1,0,.5l-19.45,11.23a1,1,0,0,1-.86,0l-.05,0C302.13,242.15,302.13,241.92,302.37,241.79Z" style="fill:#e0e0e0"></path><text transform="matrix(0.87, -0.5, 0.87, 0.5, 313.13, 233.65)" style="font-size:3.102570056915283px;fill:#e0e0e0;font-family:Rubik-Medium, Rubik;font-weight:500">544</text><text transform="matrix(0.87, -0.5, 0.87, 0.5, 310.16, 231.6)" style="font-size:3.102570056915283px;fill:#e0e0e0;font-family:Rubik-Medium, Rubik;font-weight:500">216</text><text transform="matrix(0.87, -0.5, 0.87, 0.5, 306.86, 229.96)" style="font-size:3.102570056915283px;fill:#e0e0e0;font-family:Rubik-Medium, Rubik;font-weight:500">954</text><text transform="matrix(0.87, -0.5, 0.87, 0.5, 306.5, 232.65)" style="font-size:3.102570056915283px;fill:#e0e0e0;font-family:Rubik-Medium, Rubik;font-weight:500">+</text><text transform="matrix(0.87, -0.5, 0.87, 0.5, 303.71, 239.1)" style="font-size:3.102570056915283px;fill:#e0e0e0;font-family:Rubik-Medium, Rubik;font-weight:500">914</text><text transform="matrix(0.87, -0.5, 0.87, 0.5, 300.23, 237.34)" style="font-size:3.102570056915283px;fill:#e0e0e0;font-family:Rubik-Medium, Rubik;font-weight:500">356</text><text transform="matrix(0.87, -0.5, 0.87, 0.5, 297.13, 235.6)" style="font-size:3.102570056915283px;fill:#e0e0e0;font-family:Rubik-Medium, Rubik;font-weight:500">984</text><text transform="matrix(0.87, -0.5, 0.87, 0.5, 296.82, 238.25)" style="font-size:3.102570056915283px;fill:#e0e0e0;font-family:Rubik-Medium, Rubik;font-weight:500">+</text><path d="M278.71,229.86c.35.21.35.54,0,.74a1.38,1.38,0,0,1-1.28,0c-.36-.2-.36-.53,0-.74A1.38,1.38,0,0,1,278.71,229.86Z" style="opacity:0.1"></path><path d="M273.7,229.46a4.68,4.68,0,0,0,0,.64l.45-.26c0-.13,0-.26,0-.38a1.76,1.76,0,0,1,.65-1.59.94.94,0,0,1,.47-.12,1.56,1.56,0,0,1,.78.24,4.84,4.84,0,0,1,1.94,2.77,1.44,1.44,0,0,0,.47-.06,5.4,5.4,0,0,0-2.17-3.13,1.71,1.71,0,0,0-1.72-.12A2.21,2.21,0,0,0,273.7,229.46Z" style="fill:#263238"></path><path d="M273.79,230.35a.52.52,0,0,0,0,.11l.08-.05Z" style="fill:#263238"></path><path d="M282.58,227.63a.39.39,0,0,1,0,.74,1.4,1.4,0,0,1-1.29,0c-.35-.21-.35-.54,0-.74A1.4,1.4,0,0,1,282.58,227.63Z" style="opacity:0.1"></path><path d="M277.56,227.22a4.6,4.6,0,0,0,.05.64l.45-.26c0-.12,0-.25,0-.38a1.77,1.77,0,0,1,.65-1.59.94.94,0,0,1,.47-.12,1.59,1.59,0,0,1,.78.24,4.84,4.84,0,0,1,1.94,2.77,1.22,1.22,0,0,0,.47-.06,5.34,5.34,0,0,0-2.17-3.12,1.7,1.7,0,0,0-1.73-.12A2.22,2.22,0,0,0,277.56,227.22Z" style="fill:#263238"></path><path d="M286.45,225.39a.4.4,0,0,1,0,.75,1.46,1.46,0,0,1-1.29,0,.4.4,0,0,1,0-.75A1.46,1.46,0,0,1,286.45,225.39Z" style="opacity:0.1"></path><path d="M281.43,225a4.72,4.72,0,0,0,.05.64l.45-.26c0-.13,0-.25,0-.38a1.77,1.77,0,0,1,.65-1.59.93.93,0,0,1,.46-.12,1.59,1.59,0,0,1,.79.24,4.84,4.84,0,0,1,1.94,2.77,1.22,1.22,0,0,0,.47-.06,5.34,5.34,0,0,0-2.17-3.12,1.68,1.68,0,0,0-1.73-.12A2.2,2.2,0,0,0,281.43,225Z" style="fill:#263238"></path><path d="M290.32,223.16a.39.39,0,0,1,0,.74,1.4,1.4,0,0,1-1.29,0,.39.39,0,0,1,0-.74A1.4,1.4,0,0,1,290.32,223.16Z" style="opacity:0.1"></path><path d="M285.3,222.76a4.72,4.72,0,0,0,.05.64l.45-.26a2.48,2.48,0,0,1,0-.38,1.75,1.75,0,0,1,.65-1.59.91.91,0,0,1,.46-.13,1.65,1.65,0,0,1,.79.25,4.82,4.82,0,0,1,1.94,2.76,1.48,1.48,0,0,0,.47-.05,5.44,5.44,0,0,0-2.17-3.13,1.7,1.7,0,0,0-1.73-.12A2.23,2.23,0,0,0,285.3,222.76Z" style="fill:#263238"></path><path d="M294.18,220.93c.36.2.36.53,0,.74a1.38,1.38,0,0,1-1.28,0c-.36-.21-.36-.54,0-.74A1.38,1.38,0,0,1,294.18,220.93Z" style="opacity:0.1"></path><path d="M289.17,220.52a4.6,4.6,0,0,0,.05.64l.45-.26a2.36,2.36,0,0,1,0-.38,1.75,1.75,0,0,1,.65-1.59.9.9,0,0,1,.46-.12,1.62,1.62,0,0,1,.79.24,4.79,4.79,0,0,1,1.93,2.77,1.27,1.27,0,0,0,.48-.06,5.43,5.43,0,0,0-2.17-3.12,1.7,1.7,0,0,0-1.73-.12A2.2,2.2,0,0,0,289.17,220.52Z" style="fill:#263238"></path><path d="M298.05,218.69a.4.4,0,0,1,0,.75,1.44,1.44,0,0,1-1.28,0,.4.4,0,0,1,0-.75A1.44,1.44,0,0,1,298.05,218.69Z" style="opacity:0.1"></path><path d="M293,218.29a4.72,4.72,0,0,0,0,.64l.45-.26a2.42,2.42,0,0,1,0-.38,1.75,1.75,0,0,1,.65-1.59.9.9,0,0,1,.46-.12,1.62,1.62,0,0,1,.79.24,4.79,4.79,0,0,1,1.93,2.77,1.27,1.27,0,0,0,.48-.06,5.43,5.43,0,0,0-2.17-3.12,1.68,1.68,0,0,0-1.73-.12A2.18,2.18,0,0,0,293,218.29Z" style="fill:#263238"></path><path d="M301.92,216.46a.39.39,0,0,1,0,.74,1.38,1.38,0,0,1-1.28,0,.39.39,0,0,1,0-.74A1.38,1.38,0,0,1,301.92,216.46Z" style="opacity:0.1"></path><path d="M296.91,216.05a3.63,3.63,0,0,0,0,.65l.45-.26a2.56,2.56,0,0,1,0-.39,1.75,1.75,0,0,1,.66-1.59,1,1,0,0,1,.46-.12,1.65,1.65,0,0,1,.79.25,4.81,4.81,0,0,1,1.93,2.76,1.54,1.54,0,0,0,.48,0,5.42,5.42,0,0,0-2.18-3.13,1.68,1.68,0,0,0-1.72-.12A2.2,2.2,0,0,0,296.91,216.05Z" style="fill:#263238"></path><g style="opacity:0.30000000000000004"><path d="M273.7,229.46a4.68,4.68,0,0,0,0,.64l.45-.26c0-.13,0-.26,0-.38a1.76,1.76,0,0,1,.65-1.59.94.94,0,0,1,.47-.12,1.56,1.56,0,0,1,.78.24,4.84,4.84,0,0,1,1.94,2.77,1.44,1.44,0,0,0,.47-.06,5.4,5.4,0,0,0-2.17-3.13,1.71,1.71,0,0,0-1.72-.12A2.21,2.21,0,0,0,273.7,229.46Z"></path><path d="M277.56,227.22a4.6,4.6,0,0,0,.05.64l.45-.26c0-.12,0-.25,0-.38a1.77,1.77,0,0,1,.65-1.59.94.94,0,0,1,.47-.12,1.59,1.59,0,0,1,.78.24,4.84,4.84,0,0,1,1.94,2.77,1.22,1.22,0,0,0,.47-.06,5.34,5.34,0,0,0-2.17-3.12,1.7,1.7,0,0,0-1.73-.12A2.22,2.22,0,0,0,277.56,227.22Z"></path><path d="M281.43,225a4.72,4.72,0,0,0,.05.64l.45-.26c0-.13,0-.25,0-.38a1.77,1.77,0,0,1,.65-1.59.93.93,0,0,1,.46-.12,1.59,1.59,0,0,1,.79.24,4.84,4.84,0,0,1,1.94,2.77,1.22,1.22,0,0,0,.47-.06,5.34,5.34,0,0,0-2.17-3.12,1.68,1.68,0,0,0-1.73-.12A2.2,2.2,0,0,0,281.43,225Z"></path><path d="M285.3,222.76a4.72,4.72,0,0,0,.05.64l.45-.26a2.48,2.48,0,0,1,0-.38,1.75,1.75,0,0,1,.65-1.59.91.91,0,0,1,.46-.13,1.65,1.65,0,0,1,.79.25,4.82,4.82,0,0,1,1.94,2.76,1.48,1.48,0,0,0,.47-.05,5.44,5.44,0,0,0-2.17-3.13,1.7,1.7,0,0,0-1.73-.12A2.23,2.23,0,0,0,285.3,222.76Z"></path><path d="M289.17,220.52a4.6,4.6,0,0,0,.05.64l.45-.26a2.36,2.36,0,0,1,0-.38,1.75,1.75,0,0,1,.65-1.59.9.9,0,0,1,.46-.12,1.62,1.62,0,0,1,.79.24,4.79,4.79,0,0,1,1.93,2.77,1.27,1.27,0,0,0,.48-.06,5.43,5.43,0,0,0-2.17-3.12,1.7,1.7,0,0,0-1.73-.12A2.2,2.2,0,0,0,289.17,220.52Z"></path><path d="M293,218.29a4.72,4.72,0,0,0,0,.64l.45-.26a2.42,2.42,0,0,1,0-.38,1.75,1.75,0,0,1,.65-1.59.9.9,0,0,1,.46-.12,1.62,1.62,0,0,1,.79.24,4.79,4.79,0,0,1,1.93,2.77,1.27,1.27,0,0,0,.48-.06,5.43,5.43,0,0,0-2.17-3.12,1.68,1.68,0,0,0-1.73-.12A2.18,2.18,0,0,0,293,218.29Z"></path><path d="M296.91,216.05a3.63,3.63,0,0,0,0,.65l.45-.26a2.56,2.56,0,0,1,0-.39,1.75,1.75,0,0,1,.66-1.59,1,1,0,0,1,.46-.12,1.65,1.65,0,0,1,.79.25,4.81,4.81,0,0,1,1.93,2.76,1.54,1.54,0,0,0,.48,0,5.42,5.42,0,0,0-2.18-3.13,1.68,1.68,0,0,0-1.72-.12A2.2,2.2,0,0,0,296.91,216.05Z"></path></g><path d="M307.38,252.83c6.81-.67,29.8-3.06,31.68-7.7,2.32-5.73,14-36.25,14-36.25s3.23-20.88-6.84-21.74c-4.36.86-8.27,3.15-9.92,10.9-.86,4-5.4,20.29-9,38.33,0,0-26.42,8.17-28.37,7.5s-2-2.51-3.57-4.73-2.64-5.06-3.87-4.28-.45,4.43,0,6.16a4.44,4.44,0,0,1-.65,3.32s-1.16-.43-2.23-.73c-.58-.16-9.67-5.47-9.67-5.47s-.87,5.77,1.93,8.6c3.52,4.06,8.52,5.57,13.08,6.23C299.15,253.74,300.57,253.49,307.38,252.83Z" style="fill:#ffa8a7"></path></g></g><g id="freepik--speech-bubble--inject-4"><g id="freepik--speech-bubble--inject-4"><g id="freepik--speech-bubble--inject-4"><path d="M367.58,110.86l-6.8-3.93a.72.72,0,0,1-.32-.28l-1.25-2.19,4-2.33-.12.36Z" style="fill:#263238"></path><path d="M367.58,110.86l-6.8-3.93a.72.72,0,0,1-.32-.28l-1.25-2.19,4-2.33-.12.36Z" style="opacity:0.2"></path><path d="M362.63,102.46l4.71,8.16a.7.7,0,0,0,1.27-.12l5-14.36Z" style="fill:#263238"></path><path d="M426.71,30.7a7.29,7.29,0,0,0-3.29-5.7l-2.68-1.54a7.27,7.27,0,0,0-6.58,0L342.69,64.68a7.27,7.27,0,0,0-3.29,5.7v31a7.27,7.27,0,0,0,3.29,5.7l2.68,1.55a7.25,7.25,0,0,0,6.57,0l71.78-41.45c3-1.69,3-3.38,3-5.48Z" style="fill:#263238"></path><path d="M339.4,101.41a7.27,7.27,0,0,0,3.29,5.7l2.68,1.55a7.35,7.35,0,0,0,6,.27c-1.55.59-2.73-.3-2.73-2.17v-31a6.67,6.67,0,0,1,1-3.24l-9.26-5.34a6.76,6.76,0,0,0-1,3.24Z" style="opacity:0.2"></path><path d="M426.6,29.77c-.39-1.4-1.66-1.85-3.18-1L351.94,70a6.61,6.61,0,0,0-2.32,2.45l-9.25-5.34a6.61,6.61,0,0,1,2.32-2.45l71.46-41.23a7.29,7.29,0,0,1,6.59,0L423.42,25A7.24,7.24,0,0,1,426.6,29.77Z" style="fill:#fff;opacity:0.4"></path></g><path d="M355.67,92.81a.88.88,0,0,1,0-.17s0-.08,0-.12l1.66-4.59a2.68,2.68,0,0,1-1.31.41,1.58,1.58,0,0,1-1-.33,2.28,2.28,0,0,1-.69-1.06,5.17,5.17,0,0,1-.26-1.75,8.37,8.37,0,0,1,.26-2.06,8.8,8.8,0,0,1,.71-1.88,7.37,7.37,0,0,1,1.06-1.54,5.32,5.32,0,0,1,1.32-1.09,2.77,2.77,0,0,1,1.31-.43,1.56,1.56,0,0,1,1.06.32,2.25,2.25,0,0,1,.71,1,5.33,5.33,0,0,1,.26,1.77,7.66,7.66,0,0,1-.08,1.09c-.06.35-.13.7-.22,1s-.18.66-.28,1l-.32.91-2.36,6.52c0,.1-.08.21-.13.33a.55.55,0,0,1-.26.28l-1.12.65a.18.18,0,0,1-.24,0A.41.41,0,0,1,355.67,92.81Zm.13-8.59c0,.72.15,1.18.46,1.38a1.1,1.1,0,0,0,1.18-.11,3.19,3.19,0,0,0,1.17-1.26,3.87,3.87,0,0,0,.46-1.9c0-.71-.15-1.17-.46-1.38a1,1,0,0,0-1.17.09,3.07,3.07,0,0,0-1.18,1.26A4,4,0,0,0,355.8,84.22Z" style="fill:#fafafa"></path><path d="M363.12,76.06a.92.92,0,0,1,.1-.42.55.55,0,0,1,.24-.29l4.7-2.72a.18.18,0,0,1,.24,0,.38.38,0,0,1,.1.3v1.37a1,1,0,0,1-.1.43.72.72,0,0,1-.24.29l-3.51,2-.14,2.54a3.23,3.23,0,0,1,.67-.63c.22-.16.4-.27.54-.36a3.29,3.29,0,0,1,1.3-.46,1.47,1.47,0,0,1,1,.26,2.07,2.07,0,0,1,.69,1,5.13,5.13,0,0,1,.25,1.76,9.35,9.35,0,0,1-.26,2.26,7.81,7.81,0,0,1-.7,1.85,6.1,6.1,0,0,1-2.32,2.43,3.83,3.83,0,0,1-1.48.55,1.49,1.49,0,0,1-1-.25,1.75,1.75,0,0,1-.61-.86,3.92,3.92,0,0,1-.23-1.3.82.82,0,0,1,.09-.43.72.72,0,0,1,.24-.29l1-.58a.2.2,0,0,1,.22,0,.39.39,0,0,1,.14.26,1.25,1.25,0,0,0,.24.59.63.63,0,0,0,.37.22.91.91,0,0,0,.48-.05,3,3,0,0,0,.55-.26,2.89,2.89,0,0,0,1.15-1.26,4.11,4.11,0,0,0,.44-1.89,1.39,1.39,0,0,0-.44-1.19,1,1,0,0,0-1.15.06,3.11,3.11,0,0,0-.59.43,2.57,2.57,0,0,0-.36.41c-.09.13-.17.25-.25.35a1,1,0,0,1-.29.25l-1.15.67a.19.19,0,0,1-.24,0,.46.46,0,0,1-.1-.31Z" style="fill:#fafafa"></path><path d="M377.59,72.22c0,.24,0,.5,0,.8v1.81c0,.3,0,.57,0,.82a16.91,16.91,0,0,1-.22,2.19,8.49,8.49,0,0,1-.58,2,6.62,6.62,0,0,1-1,1.7,5.89,5.89,0,0,1-1.55,1.28,2.86,2.86,0,0,1-1.55.5,1.34,1.34,0,0,1-1-.51,3,3,0,0,1-.58-1.32,11.81,11.81,0,0,1-.22-2c0-.47,0-1,0-1.65s0-1.18,0-1.68a17.76,17.76,0,0,1,.22-2.22,9.43,9.43,0,0,1,.58-2,7,7,0,0,1,1-1.71,5.35,5.35,0,0,1,1.55-1.31,3,3,0,0,1,1.55-.5,1.34,1.34,0,0,1,1,.51,2.94,2.94,0,0,1,.58,1.32A11.94,11.94,0,0,1,377.59,72.22Zm-5,6.24a4,4,0,0,0,.43,1.9c.25.37.67.38,1.25,0a2.81,2.81,0,0,0,1.25-1.48,8.18,8.18,0,0,0,.43-2.39c0-.5,0-1,0-1.64s0-1.12,0-1.6a4.07,4.07,0,0,0-.43-1.9c-.25-.37-.67-.38-1.25,0A2.81,2.81,0,0,0,373,72.83a7.93,7.93,0,0,0-.43,2.4c0,.49,0,1,0,1.63S372.53,78,372.54,78.46Z" style="fill:#fafafa"></path><path d="M379.24,70.59a.52.52,0,0,1-.07-.35,1,1,0,0,1,.13-.42L382,65a3.79,3.79,0,0,1,.2-.34.55.55,0,0,1,.24-.24l1-.57a.18.18,0,0,1,.24,0,.4.4,0,0,1,.1.31V76.59a.92.92,0,0,1-.1.42.65.65,0,0,1-.24.29l-1,.59a.18.18,0,0,1-.24,0,.4.4,0,0,1-.1-.31V68l-1.78,3.17a.46.46,0,0,1-.24.24.19.19,0,0,1-.23-.06Z" style="fill:#fafafa"></path><path d="M392.71,63.49c0,.24,0,.5,0,.8V66.1c0,.3,0,.57,0,.82a17.25,17.25,0,0,1-.22,2.2,8.56,8.56,0,0,1-.58,2,6.62,6.62,0,0,1-1,1.7,5.89,5.89,0,0,1-1.55,1.28,2.88,2.88,0,0,1-1.55.5,1.36,1.36,0,0,1-1-.5,3.09,3.09,0,0,1-.58-1.33,11.81,11.81,0,0,1-.22-1.94c0-.48,0-1,0-1.66s0-1.18,0-1.68a17.76,17.76,0,0,1,.22-2.22,9.18,9.18,0,0,1,.58-2,6.92,6.92,0,0,1,1-1.72,5.37,5.37,0,0,1,1.55-1.31,3,3,0,0,1,1.55-.5,1.34,1.34,0,0,1,1,.51,2.94,2.94,0,0,1,.58,1.32A11.94,11.94,0,0,1,392.71,63.49Zm-5,6.24a4,4,0,0,0,.43,1.9c.25.37.67.38,1.25,0a2.75,2.75,0,0,0,1.24-1.48A7.49,7.49,0,0,0,391,67.8c0-.5,0-1,0-1.64s0-1.12,0-1.6a3.82,3.82,0,0,0-.44-1.9c-.24-.37-.66-.38-1.24,0a2.81,2.81,0,0,0-1.25,1.48,7.93,7.93,0,0,0-.43,2.4c0,.49,0,1,0,1.63S387.65,69.25,387.66,69.73Z" style="fill:#fafafa"></path><path d="M399,68.33a.19.19,0,0,1-.24,0,.4.4,0,0,1-.1-.31V65.67l-3.88,2.24a.18.18,0,0,1-.24,0,.38.38,0,0,1-.1-.3V66.22a1.77,1.77,0,0,1,.08-.52c.06-.17.12-.35.2-.55l3.83-9.57a1.48,1.48,0,0,1,.51-.78l.95-.55a.18.18,0,0,1,.24,0,.4.4,0,0,1,.1.31v7.71l1.07-.63a.19.19,0,0,1,.24,0,.41.41,0,0,1,.1.31v1.37a.92.92,0,0,1-.1.42.55.55,0,0,1-.24.29l-1.07.62V67a.92.92,0,0,1-.1.42.65.65,0,0,1-.24.29Zm-.34-5.07V59.14L396.5,64.5Z" style="fill:#fafafa"></path><path d="M407.43,58.8v3.51a1.17,1.17,0,0,1-.1.43.72.72,0,0,1-.24.29l-.95.55a.19.19,0,0,1-.24,0,.4.4,0,0,1-.1-.31V59.74L403.56,61a.18.18,0,0,1-.24,0,.4.4,0,0,1-.1-.31V59.44a.92.92,0,0,1,.1-.42.76.76,0,0,1,.24-.3l2.24-1.29V53.94a.92.92,0,0,1,.1-.42.6.6,0,0,1,.24-.29l.95-.55a.18.18,0,0,1,.24,0,.41.41,0,0,1,.1.3v3.49l2.22-1.28a.18.18,0,0,1,.24,0,.41.41,0,0,1,.1.31V56.8a1,1,0,0,1-.1.43.59.59,0,0,1-.24.29Z" style="fill:#fafafa"></path><path d="M413.28,57.14a.19.19,0,0,1,.24,0,.41.41,0,0,1,.1.31v1.89a.92.92,0,0,1-.1.42.63.63,0,0,1-.24.3l-1.16.67a.18.18,0,0,1-.24,0,.4.4,0,0,1-.1-.31V58.52a.92.92,0,0,1,.1-.42.65.65,0,0,1,.24-.29Z" style="fill:#fafafa"></path><path d="M417.18,54.89a.17.17,0,0,1,.23,0,.39.39,0,0,1,.1.31V57.1a.94.94,0,0,1-.1.43.58.58,0,0,1-.23.29l-1.17.67a.18.18,0,0,1-.24,0,.41.41,0,0,1-.1-.3V56.28a1.17,1.17,0,0,1,.1-.43.72.72,0,0,1,.24-.29Z" style="fill:#fafafa"></path><path d="M421.07,52.64a.19.19,0,0,1,.24,0,.44.44,0,0,1,.1.31v1.89a1.07,1.07,0,0,1-.1.42.65.65,0,0,1-.24.29l-1.17.67a.17.17,0,0,1-.23,0,.41.41,0,0,1-.1-.31V54a.92.92,0,0,1,.1-.42.54.54,0,0,1,.23-.29Z" style="fill:#fafafa"></path></g></g><g id="freepik--addition-sign--inject-4"><g id="freepik--Plus--inject-4"><path d="M232.92,408.87a1.89,1.89,0,0,0-1.15-1.62L226.1,404l4.52-2.61a1.91,1.91,0,0,0,1.15-1.62V386.42a1.89,1.89,0,0,0-1.15-1.62l-10.53-6.08a5.54,5.54,0,0,0-2.81-.66,5.6,5.6,0,0,0-2.82.66L198.41,388l-17.2-9.93a6.25,6.25,0,0,0-5.63,0l-13.13,7.58a1.89,1.89,0,0,0-1.15,1.62h0v13.32h0a1.89,1.89,0,0,0,1.14,1.61l5.67,3.28-4.62,2.67a1.93,1.93,0,0,0-1.15,1.62h0v13.31h0a1.91,1.91,0,0,0,1.15,1.62L174,430.79a6.23,6.23,0,0,0,5.62,0l16.16-9.33L213,431.39a6.25,6.25,0,0,0,5.63,0l13.13-7.58a1.9,1.9,0,0,0,1.13-1.58h0V408.92h0S232.92,408.89,232.92,408.87Z" style="fill:#263238"></path><path d="M232.92,408.87a1.89,1.89,0,0,0-1.15-1.62L226.1,404l4.52-2.61a1.91,1.91,0,0,0,1.15-1.62V386.42a1.89,1.89,0,0,0-1.15-1.62l-10.53-6.08a5.54,5.54,0,0,0-2.81-.66,5.6,5.6,0,0,0-2.82.66L198.41,388l-17.2-9.93a6.25,6.25,0,0,0-5.63,0l-13.13,7.58a1.89,1.89,0,0,0-1.15,1.62h0v13.32h0a1.89,1.89,0,0,0,1.14,1.61l5.67,3.28-4.62,2.67a1.93,1.93,0,0,0-1.15,1.62h0v13.31h0a1.91,1.91,0,0,0,1.15,1.62L174,430.79a6.23,6.23,0,0,0,5.62,0l16.16-9.33L213,431.39a6.25,6.25,0,0,0,5.63,0l13.13-7.58a1.9,1.9,0,0,0,1.13-1.58h0V408.92h0S232.92,408.89,232.92,408.87Z" style="opacity:0.25"></path><path d="M212.05,404.72H227.4l-1.3-.75,4.52-2.61a1.91,1.91,0,0,0,1.15-1.62V386.42a1.89,1.89,0,0,0-1.15-1.62L228,383.3h-16Z" style="opacity:0.25"></path><path d="M215.85,432.05a5.49,5.49,0,0,0,2.79-.66l13.13-7.58a1.9,1.9,0,0,0,1.13-1.58h0V408.92h0s0,0,0-.05a1.47,1.47,0,0,0-.24-.72H215.85Z" style="opacity:0.25"></path><path d="M162.45,385.64a1.89,1.89,0,0,0-1.15,1.62h0v13.32h0a1.89,1.89,0,0,0,1.14,1.61l5.67,3.28H183.7V384.57H164.31Z" style="opacity:0.25"></path><path d="M176.9,431.44a5.5,5.5,0,0,0,2.74-.65l16.16-9.33V408.15H176.9Z" style="opacity:0.25"></path><path d="M214.57,397.31l17.2,9.94a1.72,1.72,0,0,1,0,3.25l-13.13,7.58a6.33,6.33,0,0,1-5.63,0l-17.21-9.93-16.16,9.33a6.31,6.31,0,0,1-5.62,0l-10.53-6.08a1.72,1.72,0,0,1,0-3.25l16.16-9.33-17.21-9.93a1.73,1.73,0,0,1,0-3.25l13.13-7.58a6.25,6.25,0,0,1,5.63,0l17.2,9.93,16.05-9.27a5.6,5.6,0,0,1,2.82-.66,5.54,5.54,0,0,1,2.81.66l10.53,6.08a1.89,1.89,0,0,1,1.15,1.62,1.92,1.92,0,0,1-1.15,1.63Z" style="fill:#263238"></path></g></g><g id="freepik--substraction-sign--inject-4"><g id="freepik--Minus--inject-4"><path d="M304.66,357.76l4.52-2.61a1.89,1.89,0,0,0,1.15-1.62V340.22a1.89,1.89,0,0,0-1.15-1.63l-10.53-6.08a5.54,5.54,0,0,0-2.81-.66,5.6,5.6,0,0,0-2.82.66l-16,9.27-30.29,17.49-4.63,2.67a1.93,1.93,0,0,0-1.15,1.62h0v13.32h0a1.9,1.9,0,0,0,1.15,1.62l10.53,6.08a5.46,5.46,0,0,0,2.81.67,5.64,5.64,0,0,0,2.81-.66l16.16-9.33Z" style="fill:#263238"></path><path d="M304.66,357.76l4.52-2.61a1.89,1.89,0,0,0,1.15-1.62V340.22a1.89,1.89,0,0,0-1.15-1.63l-10.53-6.08a5.54,5.54,0,0,0-2.81-.66,5.6,5.6,0,0,0-2.82.66l-16,9.27-30.29,17.49-4.63,2.67a1.93,1.93,0,0,0-1.15,1.62h0v13.32h0a1.9,1.9,0,0,0,1.15,1.62l10.53,6.08a5.46,5.46,0,0,0,2.81.67,5.64,5.64,0,0,0,2.81-.66l16.16-9.33Z" style="opacity:0.25"></path><path d="M255.6,369.27V385.2a5.58,5.58,0,0,0,2.6-.61l16.16-9.33,30.3-17.5,4.52-2.61a1.89,1.89,0,0,0,1.15-1.62V340.22a1.89,1.89,0,0,0-1.15-1.63l-4.86-2.81Z" style="opacity:0.25"></path><path d="M293.13,351.11l-18.77,10.83-16.16,9.33a6.31,6.31,0,0,1-5.62,0l-10.53-6.08a1.72,1.72,0,0,1,0-3.25l16.16-9.33L277,341.78l16-9.27a5.6,5.6,0,0,1,2.82-.66,5.54,5.54,0,0,1,2.81.66l10.53,6.08a1.72,1.72,0,0,1,0,3.25Z" style="fill:#263238"></path></g></g></svg>