<?xml version="1.0" encoding="UTF-8"?>
<svg xmlns="http://www.w3.org/2000/svg" xmlns:xlink="http://www.w3.org/1999/xlink" width="350px" height="350px" viewBox="0 0 350 350" version="1.1">
<defs>
<filter id="alpha" filterUnits="objectBoundingBox" x="0%" y="0%" width="100%" height="100%">
  <feColorMatrix type="matrix" in="SourceGraphic" values="0 0 0 0 1 0 0 0 0 1 0 0 0 0 1 0 0 0 1 0"/>
</filter>
<mask id="mask0">
  <g filter="url(#alpha)">
<rect x="0" y="0" width="350" height="350" style="fill:rgb(0%,0%,0%);fill-opacity:0.901961;stroke:none;"/>
  </g>
</mask>
<clipPath id="clip1">
  <rect x="0" y="0" width="350" height="350"/>
</clipPath>
<g id="surface5" clip-path="url(#clip1)">
<path style=" stroke:none;fill-rule:nonzero;fill:rgb(100%,100%,100%);fill-opacity:1;" d="M 34.34375 152.355469 C 33.761719 170.429688 37.90625 192.828125 62.964844 194.804688 C 75.515625 195.78125 89.425781 191.660156 101.921875 193.5 C 115.21875 195.476562 123.976562 200.117188 139.796875 198.261719 C 201.25 191.035156 237.882812 138.941406 233.667969 102.828125 C 230.167969 72.960938 200.023438 20.273438 142.945312 53.828125 C 131.699219 60.445312 122.722656 69.144531 111.644531 75.761719 C 101.144531 82.019531 84.484375 76.59375 64.203125 91.160156 C 45.886719 104.378906 34.804688 137.957031 34.34375 152.355469 Z M 34.34375 152.355469 "/>
</g>
<mask id="mask1">
  <g filter="url(#alpha)">
<rect x="0" y="0" width="350" height="350" style="fill:rgb(0%,0%,0%);fill-opacity:0.2;stroke:none;"/>
  </g>
</mask>
<clipPath id="clip2">
  <rect x="0" y="0" width="350" height="350"/>
</clipPath>
<g id="surface8" clip-path="url(#clip2)">
<path style=" stroke:none;fill-rule:nonzero;fill:rgb(0%,0%,0%);fill-opacity:1;" d="M 254.058594 86.136719 C 254.1875 84.5 253.625 82.882812 252.5 81.683594 C 251.378906 80.484375 249.804688 79.8125 248.164062 79.835938 L 151.261719 79.835938 C 147.730469 79.886719 144.816406 82.613281 144.535156 86.136719 L 142.308594 119.699219 L 128.359375 222.886719 C 128.082031 224.476562 128.535156 226.109375 129.59375 227.328125 C 130.648438 228.550781 132.199219 229.230469 133.8125 229.1875 L 230.71875 229.1875 C 234.316406 229.089844 237.328125 226.441406 237.882812 222.886719 L 251.832031 119.699219 Z M 254.058594 86.136719 "/>
</g>
<mask id="mask2">
  <g filter="url(#alpha)">
<rect x="0" y="0" width="350" height="350" style="fill:rgb(0%,0%,0%);fill-opacity:0.901961;stroke:none;"/>
  </g>
</mask>
<clipPath id="clip3">
  <rect x="0" y="0" width="350" height="350"/>
</clipPath>
<g id="surface11" clip-path="url(#clip3)">
<path style=" stroke:none;fill-rule:nonzero;fill:rgb(100%,100%,100%);fill-opacity:1;" d="M 144.269531 111.480469 L 145.824219 88.011719 C 145.972656 86.15625 147.507812 84.71875 149.367188 84.691406 L 242.515625 84.691406 C 243.378906 84.679688 244.210938 85.035156 244.800781 85.664062 C 245.390625 86.296875 245.6875 87.148438 245.617188 88.011719 L 244.0625 111.480469 C 243.910156 113.335938 242.378906 114.769531 240.519531 114.800781 L 147.371094 114.800781 C 146.507812 114.8125 145.679688 114.457031 145.089844 113.824219 C 144.496094 113.195312 144.199219 112.34375 144.269531 111.480469 Z M 144.269531 111.480469 "/>
</g>
<mask id="mask3">
  <g filter="url(#alpha)">
<rect x="0" y="0" width="350" height="350" style="fill:rgb(0%,0%,0%);fill-opacity:0.4;stroke:none;"/>
  </g>
</mask>
<clipPath id="clip4">
  <rect x="0" y="0" width="350" height="350"/>
</clipPath>
<g id="surface14" clip-path="url(#clip4)">
<path style=" stroke:none;fill-rule:nonzero;fill:rgb(14.901961%,19.607843%,21.960784%);fill-opacity:1;" d="M 235.800781 88.535156 L 234.746094 89.523438 C 234.691406 89.574219 234.621094 89.601562 234.550781 89.601562 L 228.949219 89.601562 C 228.867188 89.601562 228.792969 89.570312 228.738281 89.507812 L 227.828125 88.527344 C 227.75 88.445312 227.730469 88.324219 227.777344 88.21875 C 227.820312 88.113281 227.925781 88.046875 228.039062 88.046875 L 235.621094 88.046875 C 235.734375 88.046875 235.839844 88.121094 235.878906 88.226562 C 235.917969 88.335938 235.890625 88.460938 235.800781 88.535156 Z M 235.800781 88.535156 "/>
<path style=" stroke:none;fill-rule:nonzero;fill:rgb(14.901961%,19.607843%,21.960784%);fill-opacity:1;" d="M 234.316406 106.730469 L 226.738281 106.730469 C 226.617188 106.730469 226.511719 106.65625 226.46875 106.546875 C 226.425781 106.4375 226.453125 106.3125 226.539062 106.230469 L 227.589844 105.253906 C 227.644531 105.203125 227.714844 105.175781 227.785156 105.175781 L 233.386719 105.175781 C 233.46875 105.171875 233.546875 105.210938 233.597656 105.273438 L 234.515625 106.253906 C 234.585938 106.335938 234.605469 106.449219 234.5625 106.550781 C 234.523438 106.652344 234.425781 106.722656 234.316406 106.730469 Z M 234.316406 106.730469 "/>
<path style=" stroke:none;fill-rule:nonzero;fill:rgb(14.901961%,19.607843%,21.960784%);fill-opacity:1;" d="M 235.054688 97.578125 L 234.515625 98.089844 C 234.460938 98.140625 234.390625 98.167969 234.316406 98.167969 L 227.746094 98.167969 C 227.667969 98.167969 227.59375 98.132812 227.539062 98.074219 C 227.484375 98.015625 227.460938 97.9375 227.464844 97.859375 L 227.535156 96.871094 C 227.546875 96.722656 227.671875 96.605469 227.820312 96.605469 L 234.414062 96.605469 C 234.496094 96.605469 234.570312 96.640625 234.625 96.699219 L 235.074219 97.179688 C 235.125 97.238281 235.152344 97.308594 235.148438 97.386719 C 235.144531 97.460938 235.109375 97.53125 235.054688 97.578125 Z M 235.054688 97.578125 "/>
<path style=" stroke:none;fill-rule:nonzero;fill:rgb(14.901961%,19.607843%,21.960784%);fill-opacity:1;" d="M 235.949219 98.117188 L 235.394531 105.699219 C 235.386719 105.8125 235.308594 105.910156 235.203125 105.945312 C 235.09375 105.980469 234.976562 105.953125 234.898438 105.867188 L 233.996094 104.886719 C 233.941406 104.828125 233.914062 104.75 233.917969 104.671875 L 234.332031 99.035156 C 234.335938 98.964844 234.367188 98.894531 234.421875 98.847656 L 235.472656 97.867188 C 235.5625 97.785156 235.691406 97.769531 235.800781 97.828125 C 235.90625 97.882812 235.964844 98 235.949219 98.117188 Z M 235.949219 98.117188 "/>
<path style=" stroke:none;fill-rule:nonzero;fill:rgb(14.901961%,19.607843%,21.960784%);fill-opacity:1;" d="M 236.601562 89.125 L 236.046875 96.726562 C 236.039062 96.839844 235.964844 96.9375 235.855469 96.976562 C 235.746094 97.015625 235.628906 96.984375 235.550781 96.902344 L 234.640625 95.914062 C 234.589844 95.855469 234.5625 95.78125 234.570312 95.703125 L 234.976562 90.070312 C 234.984375 89.996094 235.015625 89.929688 235.066406 89.878906 L 236.117188 88.894531 C 236.203125 88.8125 236.332031 88.792969 236.4375 88.84375 C 236.542969 88.894531 236.609375 89.003906 236.601562 89.125 Z M 236.601562 89.125 "/>
</g>
<mask id="mask4">
  <g filter="url(#alpha)">
<rect x="0" y="0" width="350" height="350" style="fill:rgb(0%,0%,0%);fill-opacity:0.4;stroke:none;"/>
  </g>
</mask>
<clipPath id="clip5">
  <rect x="0" y="0" width="350" height="350"/>
</clipPath>
<g id="surface17" clip-path="url(#clip5)">
<path style=" stroke:none;fill-rule:nonzero;fill:rgb(14.901961%,19.607843%,21.960784%);fill-opacity:1;" d="M 223.664062 109.898438 C 223.710938 109.359375 224.15625 108.9375 224.699219 108.925781 L 236.601562 108.925781 C 236.882812 108.925781 237.152344 109.039062 237.34375 109.242188 C 237.535156 109.449219 237.632812 109.722656 237.613281 110.003906 C 237.570312 110.550781 237.117188 110.96875 236.570312 110.976562 L 224.699219 110.976562 C 224.414062 110.992188 224.136719 110.878906 223.9375 110.671875 C 223.738281 110.46875 223.640625 110.183594 223.664062 109.898438 Z M 223.664062 109.898438 "/>
</g>
<mask id="mask5">
  <g filter="url(#alpha)">
<rect x="0" y="0" width="350" height="350" style="fill:rgb(0%,0%,0%);fill-opacity:0.4;stroke:none;"/>
  </g>
</mask>
<clipPath id="clip6">
  <rect x="0" y="0" width="350" height="350"/>
</clipPath>
<g id="surface20" clip-path="url(#clip6)">
<path style=" stroke:none;fill-rule:nonzero;fill:rgb(14.901961%,19.607843%,21.960784%);fill-opacity:1;" d="M 208.78125 109.898438 C 208.828125 109.359375 209.273438 108.9375 209.816406 108.925781 L 221.71875 108.925781 C 222 108.925781 222.269531 109.039062 222.460938 109.242188 C 222.652344 109.449219 222.753906 109.722656 222.734375 110.003906 C 222.6875 110.550781 222.234375 110.96875 221.691406 110.976562 L 209.789062 110.976562 C 209.507812 110.984375 209.238281 110.867188 209.046875 110.664062 C 208.855469 110.457031 208.757812 110.179688 208.78125 109.898438 Z M 208.78125 109.898438 "/>
</g>
<mask id="mask6">
  <g filter="url(#alpha)">
<rect x="0" y="0" width="350" height="350" style="fill:rgb(0%,0%,0%);fill-opacity:0.4;stroke:none;"/>
  </g>
</mask>
<clipPath id="clip7">
  <rect x="0" y="0" width="350" height="350"/>
</clipPath>
<g id="surface23" clip-path="url(#clip7)">
<path style=" stroke:none;fill-rule:nonzero;fill:rgb(14.901961%,19.607843%,21.960784%);fill-opacity:1;" d="M 193.898438 109.898438 C 193.945312 109.359375 194.394531 108.9375 194.9375 108.925781 L 206.835938 108.925781 C 207.117188 108.925781 207.382812 109.042969 207.574219 109.246094 C 207.765625 109.449219 207.863281 109.726562 207.84375 110.003906 C 207.800781 110.550781 207.347656 110.972656 206.800781 110.976562 L 194.902344 110.976562 C 194.621094 110.980469 194.351562 110.867188 194.160156 110.660156 C 193.972656 110.457031 193.875 110.179688 193.898438 109.898438 Z M 193.898438 109.898438 "/>
</g>
<mask id="mask7">
  <g filter="url(#alpha)">
<rect x="0" y="0" width="350" height="350" style="fill:rgb(0%,0%,0%);fill-opacity:0.4;stroke:none;"/>
  </g>
</mask>
<clipPath id="clip8">
  <rect x="0" y="0" width="350" height="350"/>
</clipPath>
<g id="surface26" clip-path="url(#clip8)">
<path style=" stroke:none;fill-rule:nonzero;fill:rgb(14.901961%,19.607843%,21.960784%);fill-opacity:1;" d="M 179.019531 109.898438 C 179.0625 109.359375 179.511719 108.9375 180.054688 108.925781 L 191.953125 108.925781 C 192.234375 108.925781 192.5 109.042969 192.691406 109.246094 C 192.882812 109.449219 192.980469 109.726562 192.960938 110.003906 C 192.917969 110.550781 192.464844 110.972656 191.917969 110.976562 L 180.019531 110.976562 C 179.738281 110.980469 179.46875 110.867188 179.28125 110.660156 C 179.089844 110.457031 178.996094 110.179688 179.019531 109.898438 Z M 179.019531 109.898438 "/>
</g>
<mask id="mask8">
  <g filter="url(#alpha)">
<rect x="0" y="0" width="350" height="350" style="fill:rgb(0%,0%,0%);fill-opacity:0.101961;stroke:none;"/>
  </g>
</mask>
<clipPath id="clip9">
  <rect x="0" y="0" width="350" height="350"/>
</clipPath>
<g id="surface29" clip-path="url(#clip9)">
<path style=" stroke:none;fill-rule:nonzero;fill:rgb(14.901961%,19.607843%,21.960784%);fill-opacity:1;" d="M 146.152344 167.558594 L 150.535156 135.171875 C 150.871094 132.980469 152.730469 131.34375 154.945312 131.285156 L 187.335938 131.285156 C 188.328125 131.257812 189.285156 131.679688 189.933594 132.429688 C 190.585938 133.183594 190.863281 134.1875 190.695312 135.171875 L 186.3125 167.558594 C 185.976562 169.75 184.125 171.382812 181.910156 171.445312 L 149.511719 171.445312 C 148.519531 171.472656 147.5625 171.050781 146.914062 170.296875 C 146.261719 169.542969 145.984375 168.539062 146.152344 167.558594 Z M 146.152344 167.558594 "/>
</g>
<mask id="mask9">
  <g filter="url(#alpha)">
<rect x="0" y="0" width="350" height="350" style="fill:rgb(0%,0%,0%);fill-opacity:0.101961;stroke:none;"/>
  </g>
</mask>
<clipPath id="clip10">
  <rect x="0" y="0" width="350" height="350"/>
</clipPath>
<g id="surface32" clip-path="url(#clip10)">
<path style=" stroke:none;fill-rule:nonzero;fill:rgb(14.901961%,19.607843%,21.960784%);fill-opacity:1;" d="M 192.296875 167.558594 L 196.699219 135.171875 C 197.039062 132.980469 198.894531 131.34375 201.109375 131.285156 L 233.5 131.285156 C 234.496094 131.253906 235.449219 131.675781 236.101562 132.429688 C 236.753906 133.183594 237.03125 134.1875 236.859375 135.171875 L 232.484375 167.558594 C 232.144531 169.75 230.289062 171.382812 228.074219 171.445312 L 195.648438 171.445312 C 194.65625 171.472656 193.699219 171.050781 193.050781 170.296875 C 192.402344 169.542969 192.125 168.539062 192.296875 167.558594 Z M 192.296875 167.558594 "/>
</g>
<mask id="mask10">
  <g filter="url(#alpha)">
<rect x="0" y="0" width="350" height="350" style="fill:rgb(0%,0%,0%);fill-opacity:0.101961;stroke:none;"/>
  </g>
</mask>
<clipPath id="clip11">
  <rect x="0" y="0" width="350" height="350"/>
</clipPath>
<g id="surface35" clip-path="url(#clip11)">
<path style=" stroke:none;fill-rule:nonzero;fill:rgb(14.901961%,19.607843%,21.960784%);fill-opacity:1;" d="M 139.914062 213.703125 L 144.296875 181.300781 C 144.636719 179.109375 146.492188 177.476562 148.707031 177.414062 L 181.097656 177.414062 C 182.09375 177.386719 183.046875 177.808594 183.699219 178.5625 C 184.347656 179.3125 184.628906 180.320312 184.457031 181.300781 L 180.074219 213.695312 C 179.738281 215.882812 177.882812 217.515625 175.671875 217.574219 L 143.277344 217.574219 C 142.285156 217.601562 141.332031 217.179688 140.683594 216.433594 C 140.03125 215.683594 139.75 214.679688 139.914062 213.703125 Z M 139.914062 213.703125 "/>
</g>
<mask id="mask11">
  <g filter="url(#alpha)">
<rect x="0" y="0" width="350" height="350" style="fill:rgb(0%,0%,0%);fill-opacity:0.101961;stroke:none;"/>
  </g>
</mask>
<clipPath id="clip12">
  <rect x="0" y="0" width="350" height="350"/>
</clipPath>
<g id="surface38" clip-path="url(#clip12)">
<path style=" stroke:none;fill-rule:nonzero;fill:rgb(14.901961%,19.607843%,21.960784%);fill-opacity:1;" d="M 186.058594 213.703125 L 190.433594 181.300781 C 190.773438 179.109375 192.628906 177.476562 194.84375 177.414062 L 227.234375 177.414062 C 228.230469 177.386719 229.183594 177.808594 229.835938 178.5625 C 230.484375 179.3125 230.765625 180.320312 230.59375 181.300781 L 226.21875 213.695312 C 225.875 215.882812 224.023438 217.511719 221.808594 217.574219 L 189.414062 217.574219 C 188.421875 217.601562 187.46875 217.183594 186.820312 216.433594 C 186.171875 215.683594 185.890625 214.679688 186.058594 213.703125 Z M 186.058594 213.703125 "/>
</g>
<mask id="mask12">
  <g filter="url(#alpha)">
<rect x="0" y="0" width="350" height="350" style="fill:rgb(0%,0%,0%);fill-opacity:0.2;stroke:none;"/>
  </g>
</mask>
<clipPath id="clip13">
  <rect x="0" y="0" width="350" height="350"/>
</clipPath>
<g id="surface41" clip-path="url(#clip13)">
<path style=" stroke:none;fill-rule:nonzero;fill:rgb(100%,100%,100%);fill-opacity:1;" d="M 143.996094 167.558594 L 148.398438 135.171875 C 148.738281 132.980469 150.59375 131.34375 152.808594 131.285156 L 185.199219 131.285156 C 186.195312 131.257812 187.148438 131.679688 187.800781 132.429688 C 188.449219 133.183594 188.730469 134.1875 188.558594 135.171875 L 184.175781 167.558594 C 183.84375 169.75 181.988281 171.382812 179.773438 171.445312 L 147.355469 171.445312 C 146.363281 171.472656 145.40625 171.050781 144.757812 170.296875 C 144.105469 169.542969 143.828125 168.539062 143.996094 167.558594 Z M 143.996094 167.558594 "/>
</g>
<mask id="mask13">
  <g filter="url(#alpha)">
<rect x="0" y="0" width="350" height="350" style="fill:rgb(0%,0%,0%);fill-opacity:0.2;stroke:none;"/>
  </g>
</mask>
<clipPath id="clip14">
  <rect x="0" y="0" width="350" height="350"/>
</clipPath>
<g id="surface44" clip-path="url(#clip14)">
<path style=" stroke:none;fill-rule:nonzero;fill:rgb(100%,100%,100%);fill-opacity:1;" d="M 190.140625 167.558594 L 194.515625 135.171875 C 194.855469 132.980469 196.710938 131.34375 198.925781 131.285156 L 231.316406 131.285156 C 232.3125 131.253906 233.265625 131.675781 233.917969 132.429688 C 234.570312 133.183594 234.847656 134.1875 234.675781 135.171875 L 230.300781 167.558594 C 229.960938 169.75 228.105469 171.382812 225.890625 171.445312 L 193.492188 171.445312 C 192.5 171.472656 191.546875 171.050781 190.894531 170.296875 C 190.246094 169.542969 189.96875 168.539062 190.140625 167.558594 Z M 190.140625 167.558594 "/>
</g>
<mask id="mask14">
  <g filter="url(#alpha)">
<rect x="0" y="0" width="350" height="350" style="fill:rgb(0%,0%,0%);fill-opacity:0.2;stroke:none;"/>
  </g>
</mask>
<clipPath id="clip15">
  <rect x="0" y="0" width="350" height="350"/>
</clipPath>
<g id="surface47" clip-path="url(#clip15)">
<path style=" stroke:none;fill-rule:nonzero;fill:rgb(100%,100%,100%);fill-opacity:1;" d="M 137.761719 213.703125 L 142.140625 181.300781 C 142.480469 179.109375 144.335938 177.476562 146.550781 177.414062 L 178.941406 177.414062 C 179.9375 177.386719 180.890625 177.808594 181.542969 178.5625 C 182.191406 179.3125 182.472656 180.320312 182.300781 181.300781 L 177.917969 213.695312 C 177.582031 215.882812 175.726562 217.515625 173.515625 217.574219 L 141.121094 217.574219 C 140.128906 217.601562 139.175781 217.179688 138.527344 216.433594 C 137.875 215.683594 137.59375 214.679688 137.761719 213.703125 Z M 137.761719 213.703125 "/>
</g>
<mask id="mask15">
  <g filter="url(#alpha)">
<rect x="0" y="0" width="350" height="350" style="fill:rgb(0%,0%,0%);fill-opacity:0.2;stroke:none;"/>
  </g>
</mask>
<clipPath id="clip16">
  <rect x="0" y="0" width="350" height="350"/>
</clipPath>
<g id="surface50" clip-path="url(#clip16)">
<path style=" stroke:none;fill-rule:nonzero;fill:rgb(100%,100%,100%);fill-opacity:1;" d="M 183.902344 213.703125 L 188.300781 181.300781 C 188.640625 179.109375 190.496094 177.476562 192.710938 177.414062 L 225.097656 177.414062 C 226.09375 177.386719 227.046875 177.808594 227.699219 178.5625 C 228.351562 179.3125 228.628906 180.320312 228.460938 181.300781 L 224.085938 213.695312 C 223.742188 215.882812 221.886719 217.511719 219.675781 217.574219 L 187.257812 217.574219 C 186.265625 217.601562 185.3125 217.183594 184.664062 216.433594 C 184.015625 215.683594 183.734375 214.679688 183.902344 213.703125 Z M 183.902344 213.703125 "/>
</g>
<mask id="mask16">
  <g filter="url(#alpha)">
<rect x="0" y="0" width="350" height="350" style="fill:rgb(0%,0%,0%);fill-opacity:0.4;stroke:none;"/>
  </g>
</mask>
<clipPath id="clip17">
  <rect x="0" y="0" width="350" height="350"/>
</clipPath>
<g id="surface53" clip-path="url(#clip17)">
<path style=" stroke:none;fill-rule:nonzero;fill:rgb(100%,100%,100%);fill-opacity:1;" d="M 88.84375 118.300781 C 84.230469 119.355469 80.445312 131.136719 80.445312 131.136719 L 89.710938 138.199219 C 92.105469 135.644531 93.796875 132.507812 94.613281 129.101562 C 96.195312 122.914062 93.5625 117.207031 88.84375 118.300781 Z M 88.84375 118.300781 "/>
</g>
<mask id="mask17">
  <g filter="url(#alpha)">
<rect x="0" y="0" width="350" height="350" style="fill:rgb(0%,0%,0%);fill-opacity:0.2;stroke:none;"/>
  </g>
</mask>
<clipPath id="clip18">
  <rect x="0" y="0" width="350" height="350"/>
</clipPath>
<g id="surface56" clip-path="url(#clip18)">
<path style=" stroke:none;fill-rule:nonzero;fill:rgb(0%,0%,0%);fill-opacity:1;" d="M 92.800781 126.953125 C 90.292969 129.429688 89.472656 133.953125 89.300781 137.871094 L 89.710938 138.1875 C 92.105469 135.628906 93.792969 132.492188 94.613281 129.085938 C 94.703125 128.722656 94.785156 128.386719 94.851562 127.988281 Z M 92.800781 126.953125 "/>
</g>
<mask id="mask18">
  <g filter="url(#alpha)">
<rect x="0" y="0" width="350" height="350" style="fill:rgb(0%,0%,0%);fill-opacity:0.4;stroke:none;"/>
  </g>
</mask>
<clipPath id="clip19">
  <rect x="0" y="0" width="350" height="350"/>
</clipPath>
<g id="surface59" clip-path="url(#clip19)">
<path style=" stroke:none;fill-rule:nonzero;fill:rgb(100%,100%,100%);fill-opacity:1;" d="M 118.007812 123.199219 C 119.015625 128.519531 119.644531 139.445312 116.71875 161.078125 L 90.382812 161.078125 C 90.203125 157.039062 92.742188 137.3125 88.84375 118.265625 C 91.757812 117.707031 94.703125 117.332031 97.664062 117.152344 C 101.394531 116.9375 105.132812 116.9375 108.863281 117.152344 C 110.097656 117.265625 111.308594 117.445312 112.363281 117.636719 C 115.214844 118.144531 117.457031 120.355469 118.007812 123.199219 Z M 118.007812 123.199219 "/>
</g>
<mask id="mask19">
  <g filter="url(#alpha)">
<rect x="0" y="0" width="350" height="350" style="fill:rgb(0%,0%,0%);fill-opacity:0.2;stroke:none;"/>
  </g>
</mask>
<clipPath id="clip20">
  <rect x="0" y="0" width="350" height="350"/>
</clipPath>
<g id="surface62" clip-path="url(#clip20)">
<path style=" stroke:none;fill-rule:nonzero;fill:rgb(0%,0%,0%);fill-opacity:1;" d="M 113.972656 131.089844 L 118.734375 129.949219 C 118.882812 132.832031 118.894531 136.402344 118.679688 140.820312 C 116.488281 138.328125 113.695312 134.433594 113.972656 131.089844 Z M 113.972656 131.089844 "/>
</g>
<mask id="mask20">
  <g filter="url(#alpha)">
<rect x="0" y="0" width="350" height="350" style="fill:rgb(0%,0%,0%);fill-opacity:0.2;stroke:none;"/>
  </g>
</mask>
<clipPath id="clip21">
  <rect x="0" y="0" width="350" height="350"/>
</clipPath>
<g id="surface65" clip-path="url(#clip21)">
<path style=" stroke:none;fill-rule:nonzero;fill:rgb(0%,0%,0%);fill-opacity:1;" d="M 109.269531 274.9375 L 109.019531 280.820312 L 104.089844 280.820312 L 104.34375 274.9375 Z M 109.269531 274.9375 "/>
</g>
<mask id="mask21">
  <g filter="url(#alpha)">
<rect x="0" y="0" width="350" height="350" style="fill:rgb(0%,0%,0%);fill-opacity:0.2;stroke:none;"/>
  </g>
</mask>
<clipPath id="clip22">
  <rect x="0" y="0" width="350" height="350"/>
</clipPath>
<g id="surface68" clip-path="url(#clip22)">
<path style=" stroke:none;fill-rule:nonzero;fill:rgb(0%,0%,0%);fill-opacity:1;" d="M 72.546875 273.441406 L 77.363281 274.484375 L 74.863281 279.957031 L 70.054688 278.914062 Z M 72.546875 273.441406 "/>
</g>
<mask id="mask22">
  <g filter="url(#alpha)">
<rect x="0" y="0" width="350" height="350" style="fill:rgb(0%,0%,0%);fill-opacity:0.301961;stroke:none;"/>
  </g>
</mask>
<clipPath id="clip23">
  <rect x="0" y="0" width="350" height="350"/>
</clipPath>
<g id="surface71" clip-path="url(#clip23)">
<path style=" stroke:none;fill-rule:nonzero;fill:rgb(0%,0%,0%);fill-opacity:1;" d="M 103.84375 174.503906 C 97.382812 175.769531 98.070312 199.863281 98.847656 212.261719 C 100.710938 203.496094 103.4375 186.640625 105.300781 174.679688 C 104.851562 174.457031 104.335938 174.394531 103.84375 174.503906 Z M 103.84375 174.503906 "/>
</g>
<mask id="mask23">
  <g filter="url(#alpha)">
<rect x="0" y="0" width="350" height="350" style="fill:rgb(0%,0%,0%);fill-opacity:0.4;stroke:none;"/>
  </g>
</mask>
<clipPath id="clip24">
  <rect x="0" y="0" width="350" height="350"/>
</clipPath>
<g id="surface74" clip-path="url(#clip24)">
<path style=" stroke:none;fill-rule:nonzero;fill:rgb(100%,100%,100%);fill-opacity:1;" d="M 107.6875 124.839844 C 105.320312 131.199219 119.195312 138.699219 119.195312 138.699219 L 125.203125 130.996094 C 125.203125 130.996094 121.191406 123.023438 116.277344 119.425781 C 110.199219 114.96875 109.480469 119.992188 107.6875 124.839844 Z M 107.6875 124.839844 "/>
</g>
<mask id="mask24">
  <g filter="url(#alpha)">
<rect x="0" y="0" width="350" height="350" style="fill:rgb(0%,0%,0%);fill-opacity:0.4;stroke:none;"/>
  </g>
</mask>
<clipPath id="clip25">
  <rect x="0" y="0" width="350" height="350"/>
</clipPath>
<g id="surface77" clip-path="url(#clip25)">
<path style=" stroke:none;fill-rule:nonzero;fill:rgb(100%,100%,100%);fill-opacity:1;" d="M 148.933594 140 C 148.933594 140.53125 148.308594 140.960938 147.53125 140.960938 C 146.753906 140.960938 146.132812 140.53125 146.132812 140 C 146.132812 139.46875 146.753906 139.046875 147.53125 139.046875 C 148.308594 139.046875 148.933594 139.445312 148.933594 140 Z M 148.933594 140 "/>
</g>
</defs>
<g id="surface1">
<path style=" stroke:none;fill-rule:nonzero;fill:rgb(14.901961%,19.607843%,21.960784%);fill-opacity:1;" d="M 34.34375 152.355469 C 33.761719 170.429688 37.90625 192.828125 62.964844 194.804688 C 75.515625 195.78125 89.425781 191.660156 101.921875 193.5 C 115.21875 195.476562 123.976562 200.117188 139.796875 198.261719 C 201.25 191.035156 237.882812 138.941406 233.667969 102.828125 C 230.167969 72.960938 200.023438 20.273438 142.945312 53.828125 C 131.699219 60.445312 122.722656 69.144531 111.644531 75.761719 C 101.144531 82.019531 84.484375 76.59375 64.203125 91.160156 C 45.886719 104.378906 34.804688 137.957031 34.34375 152.355469 Z M 34.34375 152.355469 "/>
<use xlink:href="#surface5" mask="url(#mask0)"/>
<path style=" stroke:none;fill-rule:nonzero;fill:rgb(96.078431%,96.078431%,96.078431%);fill-opacity:1;" d="M 310.722656 291.367188 C 310.722656 286.992188 249.957031 283.445312 175 283.445312 C 100.042969 283.445312 39.277344 286.992188 39.277344 291.367188 C 39.277344 295.746094 100.042969 299.292969 175 299.292969 C 249.957031 299.292969 310.722656 295.746094 310.722656 291.367188 Z M 310.722656 291.367188 "/>
<path style=" stroke:none;fill-rule:nonzero;fill:rgb(14.901961%,19.607843%,21.960784%);fill-opacity:1;" d="M 254.058594 86.136719 C 254.1875 84.5 253.625 82.882812 252.5 81.683594 C 251.378906 80.484375 249.804688 79.8125 248.164062 79.835938 L 151.261719 79.835938 C 147.730469 79.886719 144.816406 82.613281 144.535156 86.136719 L 142.308594 119.699219 L 128.359375 222.886719 C 128.082031 224.476562 128.535156 226.109375 129.59375 227.328125 C 130.648438 228.550781 132.199219 229.230469 133.8125 229.1875 L 230.71875 229.1875 C 234.316406 229.089844 237.328125 226.441406 237.882812 222.886719 L 251.832031 119.699219 Z M 254.058594 86.136719 "/>
<use xlink:href="#surface8" mask="url(#mask1)"/>
<path style=" stroke:none;fill-rule:nonzero;fill:rgb(14.901961%,19.607843%,21.960784%);fill-opacity:1;" d="M 227.269531 229.195312 L 130.359375 229.195312 C 128.746094 229.234375 127.199219 228.554688 126.144531 227.332031 C 125.089844 226.113281 124.636719 224.484375 124.90625 222.894531 L 138.859375 119.699219 L 248.382812 119.699219 L 234.429688 222.886719 C 233.878906 226.441406 230.867188 229.097656 227.269531 229.195312 Z M 227.269531 229.195312 "/>
<path style=" stroke:none;fill-rule:nonzero;fill:rgb(14.901961%,19.607843%,21.960784%);fill-opacity:1;" d="M 151.234375 77.371094 L 165.667969 77.371094 L 165.667969 78.070312 L 151.234375 78.070312 Z M 151.234375 77.371094 "/>
<path style=" stroke:none;fill-rule:nonzero;fill:rgb(14.901961%,19.607843%,21.960784%);fill-opacity:1;" d="M 144.410156 78.820312 L 144.117188 78.183594 C 145.273438 77.648438 146.535156 77.371094 147.8125 77.371094 L 147.8125 78.070312 C 146.636719 78.070312 145.476562 78.328125 144.410156 78.820312 Z M 144.410156 78.820312 "/>
<path style=" stroke:none;fill-rule:nonzero;fill:rgb(14.901961%,19.607843%,21.960784%);fill-opacity:1;" d="M 244.71875 79.800781 L 147.8125 79.800781 C 144.28125 79.851562 141.367188 82.578125 141.085938 86.101562 L 138.859375 119.699219 L 248.382812 119.699219 L 250.601562 86.136719 C 250.742188 84.496094 250.183594 82.871094 249.066406 81.664062 C 247.945312 80.457031 246.367188 79.78125 244.71875 79.800781 Z M 244.71875 79.800781 "/>
<use xlink:href="#surface11" mask="url(#mask2)"/>
<use xlink:href="#surface14" mask="url(#mask3)"/>
<use xlink:href="#surface17" mask="url(#mask4)"/>
<use xlink:href="#surface20" mask="url(#mask5)"/>
<use xlink:href="#surface23" mask="url(#mask6)"/>
<use xlink:href="#surface26" mask="url(#mask7)"/>
<use xlink:href="#surface29" mask="url(#mask8)"/>
<use xlink:href="#surface32" mask="url(#mask9)"/>
<use xlink:href="#surface35" mask="url(#mask10)"/>
<use xlink:href="#surface38" mask="url(#mask11)"/>
<path style=" stroke:none;fill-rule:nonzero;fill:rgb(14.901961%,19.607843%,21.960784%);fill-opacity:1;" d="M 143.996094 167.558594 L 148.398438 135.171875 C 148.738281 132.980469 150.59375 131.34375 152.808594 131.285156 L 185.199219 131.285156 C 186.195312 131.257812 187.148438 131.679688 187.800781 132.429688 C 188.449219 133.183594 188.730469 134.1875 188.558594 135.171875 L 184.175781 167.558594 C 183.84375 169.75 181.988281 171.382812 179.773438 171.445312 L 147.355469 171.445312 C 146.363281 171.472656 145.40625 171.050781 144.757812 170.296875 C 144.105469 169.542969 143.828125 168.539062 143.996094 167.558594 Z M 143.996094 167.558594 "/>
<use xlink:href="#surface41" mask="url(#mask12)"/>
<path style=" stroke:none;fill-rule:nonzero;fill:rgb(14.901961%,19.607843%,21.960784%);fill-opacity:1;" d="M 190.140625 167.558594 L 194.515625 135.171875 C 194.855469 132.980469 196.710938 131.34375 198.925781 131.285156 L 231.316406 131.285156 C 232.3125 131.253906 233.265625 131.675781 233.917969 132.429688 C 234.570312 133.183594 234.847656 134.1875 234.675781 135.171875 L 230.300781 167.558594 C 229.960938 169.75 228.105469 171.382812 225.890625 171.445312 L 193.492188 171.445312 C 192.5 171.472656 191.546875 171.050781 190.894531 170.296875 C 190.246094 169.542969 189.96875 168.539062 190.140625 167.558594 Z M 190.140625 167.558594 "/>
<use xlink:href="#surface44" mask="url(#mask13)"/>
<path style=" stroke:none;fill-rule:nonzero;fill:rgb(14.901961%,19.607843%,21.960784%);fill-opacity:1;" d="M 137.761719 213.703125 L 142.140625 181.300781 C 142.480469 179.109375 144.335938 177.476562 146.550781 177.414062 L 178.941406 177.414062 C 179.9375 177.386719 180.890625 177.808594 181.542969 178.5625 C 182.191406 179.3125 182.472656 180.320312 182.300781 181.300781 L 177.917969 213.695312 C 177.582031 215.882812 175.726562 217.515625 173.515625 217.574219 L 141.121094 217.574219 C 140.128906 217.601562 139.175781 217.179688 138.527344 216.433594 C 137.875 215.683594 137.59375 214.679688 137.761719 213.703125 Z M 137.761719 213.703125 "/>
<use xlink:href="#surface47" mask="url(#mask14)"/>
<path style=" stroke:none;fill-rule:nonzero;fill:rgb(14.901961%,19.607843%,21.960784%);fill-opacity:1;" d="M 183.902344 213.703125 L 188.300781 181.300781 C 188.640625 179.109375 190.496094 177.476562 192.710938 177.414062 L 225.097656 177.414062 C 226.09375 177.386719 227.046875 177.808594 227.699219 178.5625 C 228.351562 179.3125 228.628906 180.320312 228.460938 181.300781 L 224.085938 213.695312 C 223.742188 215.882812 221.886719 217.511719 219.675781 217.574219 L 187.257812 217.574219 C 186.265625 217.601562 185.3125 217.183594 184.664062 216.433594 C 184.015625 215.683594 183.734375 214.679688 183.902344 213.703125 Z M 183.902344 213.703125 "/>
<use xlink:href="#surface50" mask="url(#mask15)"/>
<path style=" stroke:none;fill-rule:nonzero;fill:rgb(100%,100%,100%);fill-opacity:1;" d="M 164.445312 164.84375 C 163.449219 164.863281 162.5 164.441406 161.847656 163.691406 C 161.199219 162.941406 160.917969 161.9375 161.085938 160.957031 L 163.679688 141.777344 C 164.023438 139.589844 165.875 137.953125 168.089844 137.886719 C 169.085938 137.859375 170.039062 138.285156 170.691406 139.039062 C 171.34375 139.789062 171.621094 140.796875 171.449219 141.777344 L 168.859375 160.957031 C 168.515625 163.148438 166.660156 164.777344 164.445312 164.84375 Z M 164.445312 164.84375 "/>
<path style=" stroke:none;fill-rule:nonzero;fill:rgb(100%,100%,100%);fill-opacity:1;" d="M 152.789062 151.367188 C 153.132812 149.175781 154.988281 147.542969 157.207031 147.476562 L 176.398438 147.476562 C 177.394531 147.453125 178.347656 147.875 178.996094 148.628906 C 179.648438 149.382812 179.925781 150.386719 179.761719 151.367188 C 179.414062 153.554688 177.5625 155.1875 175.351562 155.253906 L 156.171875 155.253906 C 155.171875 155.28125 154.214844 154.863281 153.5625 154.109375 C 152.90625 153.359375 152.625 152.351562 152.789062 151.367188 Z M 152.789062 151.367188 "/>
<path style=" stroke:none;fill-rule:nonzero;fill:rgb(100%,100%,100%);fill-opacity:1;" d="M 149.210938 207.03125 C 147.902344 205.519531 148.238281 203.050781 149.953125 201.535156 L 165.355469 187.972656 C 167.070312 186.460938 169.554688 186.460938 170.847656 187.972656 C 172.15625 189.484375 171.820312 191.960938 170.105469 193.472656 L 154.707031 207.03125 C 152.992188 208.542969 150.5 208.542969 149.210938 207.03125 Z M 149.210938 207.03125 "/>
<path style=" stroke:none;fill-rule:nonzero;fill:rgb(100%,100%,100%);fill-opacity:1;" d="M 151.789062 187.972656 C 153.503906 186.460938 155.988281 186.460938 157.289062 187.972656 L 169.015625 201.535156 C 170.324219 203.050781 169.988281 205.519531 168.273438 207.03125 C 166.558594 208.542969 164.074219 208.542969 162.777344 207.03125 L 151.046875 193.472656 C 149.738281 191.960938 150.074219 189.484375 151.789062 187.972656 Z M 151.789062 187.972656 "/>
<path style=" stroke:none;fill-rule:nonzero;fill:rgb(100%,100%,100%);fill-opacity:1;" d="M 198.925781 151.367188 C 199.273438 149.175781 201.125 147.542969 203.34375 147.476562 L 222.523438 147.476562 C 223.519531 147.449219 224.472656 147.875 225.125 148.628906 C 225.773438 149.382812 226.054688 150.386719 225.882812 151.367188 C 225.539062 153.554688 223.6875 155.1875 221.472656 155.253906 L 202.300781 155.253906 C 201.304688 155.28125 200.347656 154.859375 199.695312 154.105469 C 199.042969 153.355469 198.761719 152.351562 198.925781 151.367188 Z M 198.925781 151.367188 "/>
<path style=" stroke:none;fill-rule:nonzero;fill:rgb(100%,100%,100%);fill-opacity:1;" d="M 193.507812 191.457031 C 193.855469 189.269531 195.710938 187.636719 197.925781 187.570312 L 217.105469 187.570312 C 218.097656 187.550781 219.050781 187.972656 219.699219 188.722656 C 220.347656 189.476562 220.628906 190.476562 220.464844 191.457031 C 220.121094 193.644531 218.269531 195.28125 216.054688 195.347656 L 196.867188 195.347656 C 195.875 195.371094 194.921875 194.949219 194.269531 194.195312 C 193.621094 193.441406 193.339844 192.4375 193.507812 191.457031 Z M 193.507812 191.457031 "/>
<path style=" stroke:none;fill-rule:nonzero;fill:rgb(100%,100%,100%);fill-opacity:1;" d="M 191.878906 203.546875 C 192.222656 201.359375 194.074219 199.726562 196.285156 199.660156 L 215.46875 199.660156 C 216.460938 199.636719 217.414062 200.058594 218.066406 200.808594 C 218.71875 201.5625 219 202.566406 218.835938 203.546875 C 218.488281 205.734375 216.632812 207.371094 214.417969 207.4375 L 195.238281 207.4375 C 194.242188 207.464844 193.285156 207.039062 192.636719 206.285156 C 191.984375 205.53125 191.707031 204.527344 191.878906 203.546875 Z M 191.878906 203.546875 "/>
<path style=" stroke:none;fill-rule:nonzero;fill:rgb(100%,54.509804%,48.235294%);fill-opacity:1;" d="M 93.351562 125.789062 C 92.09375 128.128906 90.796875 130.648438 89.613281 133.113281 C 88.429688 135.574219 87.289062 138.089844 86.308594 140.601562 C 86.050781 141.230469 85.839844 141.863281 85.609375 142.492188 C 85.488281 142.816406 85.417969 143.15625 85.398438 143.5 C 85.371094 144.492188 85.554688 145.480469 85.9375 146.398438 C 86.941406 148.753906 88.273438 150.953125 89.894531 152.9375 L 87.507812 155.734375 C 86.839844 155.304688 86.199219 154.839844 85.589844 154.335938 C 84.972656 153.855469 84.386719 153.335938 83.832031 152.789062 C 82.652344 151.65625 81.621094 150.382812 80.757812 148.996094 C 79.757812 147.402344 79.128906 145.601562 78.925781 143.730469 C 78.824219 142.652344 78.914062 141.566406 79.183594 140.519531 C 79.378906 139.816406 79.5625 139.046875 79.785156 138.328125 C 80.644531 135.464844 81.679688 132.660156 82.886719 129.925781 C 83.488281 128.574219 84.105469 127.238281 84.785156 125.921875 C 85.464844 124.605469 86.113281 123.332031 86.925781 121.988281 Z M 93.351562 125.789062 "/>
<path style=" stroke:none;fill-rule:nonzero;fill:rgb(100%,54.509804%,48.235294%);fill-opacity:1;" d="M 88.898438 152.132812 L 92.398438 153.054688 L 89.796875 158.117188 C 89.796875 158.117188 87.191406 157.121094 86.546875 154.832031 Z M 88.898438 152.132812 "/>
<path style=" stroke:none;fill-rule:nonzero;fill:rgb(100%,54.509804%,48.235294%);fill-opacity:1;" d="M 97.230469 154.652344 L 94.09375 158.621094 L 89.804688 158.117188 L 92.40625 153.054688 Z M 97.230469 154.652344 "/>
<path style=" stroke:none;fill-rule:nonzero;fill:rgb(14.901961%,19.607843%,21.960784%);fill-opacity:1;" d="M 109.859375 99.09375 C 109.933594 99.484375 110.207031 99.757812 110.460938 99.707031 C 110.710938 99.660156 110.859375 99.296875 110.773438 98.910156 C 110.691406 98.523438 110.425781 98.210938 110.171875 98.292969 C 109.921875 98.378906 109.773438 98.699219 109.859375 99.09375 Z M 109.859375 99.09375 "/>
<path style=" stroke:none;fill-rule:nonzero;fill:rgb(100%,33.72549%,32.156863%);fill-opacity:1;" d="M 110.171875 99.765625 C 110.878906 100.859375 111.730469 101.855469 112.707031 102.71875 C 112.242188 103.203125 111.585938 103.457031 110.914062 103.417969 Z M 110.171875 99.765625 "/>
<path style=" stroke:none;fill-rule:nonzero;fill:rgb(14.901961%,19.607843%,21.960784%);fill-opacity:1;" d="M 110.699219 102.410156 C 109.558594 102.410156 108.421875 101.164062 108.078125 99.457031 C 107.894531 98.621094 107.949219 97.753906 108.242188 96.949219 C 108.40625 96.273438 108.945312 95.757812 109.628906 95.617188 C 110.308594 95.476562 111.007812 95.742188 111.425781 96.300781 C 112.582031 97.59375 112.953125 99.410156 112.390625 101.050781 C 112.1875 101.707031 111.65625 102.210938 110.992188 102.382812 C 110.894531 102.402344 110.796875 102.410156 110.699219 102.410156 Z M 109.941406 95.765625 C 109.847656 95.757812 109.753906 95.757812 109.660156 95.765625 C 109.0625 95.929688 108.585938 96.390625 108.402344 96.984375 C 108.121094 97.757812 108.070312 98.59375 108.246094 99.394531 C 108.605469 101.164062 109.824219 102.417969 110.972656 102.191406 C 111.574219 102.035156 112.050781 101.574219 112.230469 100.976562 C 112.765625 99.398438 112.414062 97.65625 111.308594 96.410156 C 110.957031 96.023438 110.464844 95.789062 109.941406 95.765625 Z M 109.941406 95.765625 "/>
<path style=" stroke:none;fill-rule:nonzero;fill:rgb(100%,54.509804%,48.235294%);fill-opacity:1;" d="M 146.746094 139.441406 L 151.234375 138.488281 L 151.816406 144.578125 C 151.816406 144.578125 147.9375 145.320312 146.082031 142.253906 Z M 146.746094 139.441406 "/>
<path style=" stroke:none;fill-rule:nonzero;fill:rgb(100%,54.509804%,48.235294%);fill-opacity:1;" d="M 155.476562 139.851562 L 155.191406 144.296875 L 151.816406 144.578125 L 151.234375 138.488281 Z M 155.476562 139.851562 "/>
<path style=" stroke:none;fill-rule:nonzero;fill:rgb(14.901961%,19.607843%,21.960784%);fill-opacity:1;" d="M 107.988281 97.222656 C 107.929688 97.222656 107.875 97.199219 107.835938 97.160156 C 107.789062 97.117188 107.761719 97.058594 107.761719 96.996094 C 107.761719 96.933594 107.789062 96.875 107.835938 96.832031 C 108.332031 96.269531 109.070312 95.980469 109.816406 96.0625 C 109.878906 96.070312 109.933594 96.101562 109.96875 96.152344 C 110.007812 96.203125 110.023438 96.265625 110.011719 96.328125 C 109.988281 96.453125 109.867188 96.539062 109.738281 96.523438 C 109.148438 96.464844 108.566406 96.695312 108.179688 97.144531 C 108.128906 97.195312 108.058594 97.226562 107.988281 97.222656 Z M 107.988281 97.222656 "/>
<path style=" stroke:none;fill-rule:nonzero;fill:rgb(100%,54.509804%,48.235294%);fill-opacity:1;" d="M 99.050781 106.175781 C 99.75 109.78125 100.183594 114.773438 97.648438 117.171875 C 97.648438 117.171875 98.628906 120.828125 105.351562 120.828125 C 112.714844 120.828125 108.890625 117.621094 108.890625 117.621094 C 105.832031 116.667969 105.859375 113.191406 106.5625 110.390625 Z M 99.050781 106.175781 "/>
<path style=" stroke:none;fill-rule:nonzero;fill:rgb(14.901961%,19.607843%,21.960784%);fill-opacity:1;" d="M 106.609375 116.296875 C 108.261719 115.109375 110.703125 113.714844 111.214844 115.171875 C 111.523438 116.046875 111.648438 120.324219 109.949219 120 C 107.4375 119.53125 106.609375 116.296875 106.609375 116.296875 Z M 106.609375 116.296875 "/>
<path style=" stroke:none;fill-rule:nonzero;fill:rgb(14.901961%,19.607843%,21.960784%);fill-opacity:1;" d="M 96.285156 119.582031 C 95.628906 118.65625 95.65625 115.722656 96.355469 115.207031 C 97.480469 114.371094 102.3125 114.175781 108.820312 115.675781 C 108.121094 118.515625 109.628906 120.007812 109.628906 120.007812 Z M 96.285156 119.582031 "/>
<path style=" stroke:none;fill-rule:nonzero;fill:rgb(14.901961%,19.607843%,21.960784%);fill-opacity:1;" d="M 74.402344 285.769531 C 74.804688 285.910156 75.246094 285.882812 75.628906 285.699219 C 75.78125 285.5625 75.828125 285.34375 75.738281 285.160156 C 75.699219 285.003906 75.59375 284.878906 75.445312 284.816406 C 74.746094 284.492188 73.246094 285.117188 73.183594 285.144531 C 73.140625 285.164062 73.113281 285.203125 73.113281 285.25 C 73.113281 285.296875 73.136719 285.339844 73.179688 285.363281 C 73.574219 285.535156 73.984375 285.671875 74.402344 285.769531 Z M 75.207031 284.976562 L 75.339844 285.027344 C 75.429688 285.0625 75.496094 285.132812 75.523438 285.222656 C 75.585938 285.433594 75.523438 285.503906 75.480469 285.523438 C 75.214844 285.746094 74.226562 285.523438 73.542969 285.265625 C 74.070312 285.046875 74.636719 284.949219 75.207031 284.976562 Z M 75.207031 284.976562 "/>
<path style=" stroke:none;fill-rule:nonzero;fill:rgb(14.901961%,19.607843%,21.960784%);fill-opacity:1;" d="M 73.207031 285.367188 L 73.261719 285.367188 C 73.820312 285.199219 75.011719 284.355469 75.027344 283.800781 C 75.027344 283.621094 74.902344 283.460938 74.726562 283.421875 C 74.554688 283.359375 74.363281 283.375 74.207031 283.464844 C 73.550781 283.800781 73.136719 285.160156 73.121094 285.222656 C 73.113281 285.253906 73.117188 285.285156 73.132812 285.3125 C 73.148438 285.339844 73.175781 285.359375 73.207031 285.367188 Z M 74.605469 283.625 L 74.65625 283.625 C 74.800781 283.675781 74.800781 283.746094 74.800781 283.78125 C 74.800781 284.109375 74.003906 284.773438 73.402344 285.039062 C 73.550781 284.492188 73.863281 284.003906 74.296875 283.640625 C 74.394531 283.597656 74.5 283.589844 74.597656 283.625 Z M 74.605469 283.625 "/>
<path style=" stroke:none;fill-rule:nonzero;fill:rgb(14.901961%,19.607843%,21.960784%);fill-opacity:1;" d="M 110.753906 286.59375 C 111.390625 286.59375 112 286.503906 112.203125 286.222656 C 112.308594 286.070312 112.308594 285.867188 112.203125 285.710938 C 112.121094 285.574219 111.988281 285.476562 111.832031 285.4375 C 111.011719 285.214844 109.289062 286.195312 109.222656 286.238281 C 109.179688 286.261719 109.152344 286.308594 109.15625 286.355469 C 109.167969 286.40625 109.207031 286.445312 109.257812 286.453125 C 109.75 286.546875 110.25 286.59375 110.753906 286.59375 Z M 111.539062 285.636719 C 111.613281 285.628906 111.6875 285.628906 111.761719 285.636719 C 111.855469 285.65625 111.941406 285.714844 111.992188 285.796875 C 112.078125 285.941406 112.042969 286.011719 111.992188 286.054688 C 111.761719 286.378906 110.515625 286.382812 109.605469 286.25 C 110.203125 285.925781 110.859375 285.714844 111.539062 285.636719 Z M 111.539062 285.636719 "/>
<path style=" stroke:none;fill-rule:nonzero;fill:rgb(14.901961%,19.607843%,21.960784%);fill-opacity:1;" d="M 109.269531 286.453125 L 109.320312 286.453125 C 109.914062 286.1875 111.089844 285.125 111 284.5625 C 111 284.429688 110.886719 284.269531 110.566406 284.242188 C 110.332031 284.214844 110.09375 284.285156 109.914062 284.4375 C 109.46875 284.976562 109.203125 285.640625 109.152344 286.335938 C 109.148438 286.367188 109.160156 286.398438 109.183594 286.421875 C 109.207031 286.449219 109.238281 286.460938 109.269531 286.460938 Z M 110.46875 284.460938 L 110.535156 284.460938 C 110.746094 284.460938 110.761719 284.558594 110.769531 284.585938 C 110.824219 284.921875 110.019531 285.761719 109.417969 286.125 C 109.46875 285.5625 109.699219 285.03125 110.066406 284.605469 C 110.175781 284.507812 110.320312 284.457031 110.46875 284.460938 Z M 110.46875 284.460938 "/>
<path style=" stroke:none;fill-rule:nonzero;fill:rgb(100%,54.509804%,48.235294%);fill-opacity:1;" d="M 103.851562 286.34375 L 108.78125 286.34375 L 109.269531 274.9375 L 104.34375 274.9375 Z M 103.851562 286.34375 "/>
<path style=" stroke:none;fill-rule:nonzero;fill:rgb(100%,54.509804%,48.235294%);fill-opacity:1;" d="M 67.71875 284.058594 L 72.527344 285.101562 L 77.363281 274.484375 L 72.546875 273.441406 Z M 67.71875 284.058594 "/>
<path style=" stroke:none;fill-rule:nonzero;fill:rgb(14.901961%,19.607843%,21.960784%);fill-opacity:1;" d="M 72.988281 284.621094 L 67.585938 283.449219 C 67.386719 283.410156 67.1875 283.507812 67.101562 283.6875 L 65.226562 287.761719 C 65.125 287.964844 65.125 288.199219 65.226562 288.398438 C 65.332031 288.597656 65.523438 288.738281 65.742188 288.769531 C 67.640625 289.140625 68.585938 289.234375 70.960938 289.742188 C 72.421875 290.066406 75.726562 290.871094 77.742188 291.304688 C 79.757812 291.738281 80.457031 289.800781 79.675781 289.441406 C 76.175781 287.824219 74.660156 286.40625 73.710938 285.082031 C 73.535156 284.84375 73.277344 284.679688 72.988281 284.621094 Z M 72.988281 284.621094 "/>
<path style=" stroke:none;fill-rule:nonzero;fill:rgb(14.901961%,19.607843%,21.960784%);fill-opacity:1;" d="M 108.746094 285.769531 L 103.367188 285.769531 C 103.167969 285.765625 102.992188 285.90625 102.949219 286.105469 L 101.976562 290.5 C 101.917969 290.714844 101.964844 290.945312 102.101562 291.117188 C 102.242188 291.292969 102.453125 291.390625 102.675781 291.382812 C 104.613281 291.347656 107.421875 291.234375 109.859375 291.234375 C 112.707031 291.234375 115.171875 291.390625 118.515625 291.390625 C 120.53125 291.390625 121.101562 289.34375 120.253906 289.15625 C 116.394531 288.316406 113.253906 288.226562 109.929688 286.175781 C 109.578125 285.929688 109.167969 285.789062 108.746094 285.769531 Z M 108.746094 285.769531 "/>
<path style=" stroke:none;fill-rule:nonzero;fill:rgb(14.901961%,19.607843%,21.960784%);fill-opacity:1;" d="M 88.84375 118.300781 C 84.230469 119.355469 80.445312 131.136719 80.445312 131.136719 L 89.710938 138.199219 C 92.105469 135.644531 93.796875 132.507812 94.613281 129.101562 C 96.195312 122.914062 93.5625 117.207031 88.84375 118.300781 Z M 88.84375 118.300781 "/>
<use xlink:href="#surface53" mask="url(#mask16)"/>
<path style=" stroke:none;fill-rule:nonzero;fill:rgb(100%,54.509804%,48.235294%);fill-opacity:1;" d="M 116.515625 123.898438 L 124.292969 131.054688 C 125.585938 132.242188 126.882812 133.425781 128.183594 134.589844 C 129.484375 135.75 130.789062 136.914062 132.039062 137.921875 L 130.957031 137.339844 C 131.558594 137.5625 132.1875 137.78125 132.851562 137.957031 C 133.519531 138.132812 134.203125 138.277344 134.910156 138.417969 C 136.367188 138.679688 137.832031 138.871094 139.308594 138.984375 C 140.8125 139.109375 142.351562 139.195312 143.898438 139.238281 C 145.445312 139.277344 147.050781 139.3125 148.566406 139.320312 L 149.269531 142.945312 C 147.667969 143.527344 146.03125 143.996094 144.367188 144.347656 C 142.699219 144.707031 141.011719 144.964844 139.3125 145.117188 C 137.570312 145.277344 135.816406 145.300781 134.070312 145.195312 C 132.214844 145.085938 130.375 144.769531 128.589844 144.25 L 128.066406 144.09375 L 127.511719 143.667969 C 125.972656 142.484375 124.605469 141.328125 123.234375 140.167969 C 121.863281 139.007812 120.53125 137.800781 119.203125 136.605469 C 116.558594 134.195312 113.933594 131.804688 111.363281 129.316406 Z M 116.515625 123.898438 "/>
<use xlink:href="#surface56" mask="url(#mask17)"/>
<path style=" stroke:none;fill-rule:nonzero;fill:rgb(14.901961%,19.607843%,21.960784%);fill-opacity:1;" d="M 118.007812 123.199219 C 119.015625 128.519531 119.644531 139.445312 116.71875 161.078125 L 90.382812 161.078125 C 90.203125 157.039062 92.742188 137.3125 88.84375 118.265625 C 91.757812 117.707031 94.703125 117.332031 97.664062 117.152344 C 101.394531 116.9375 105.132812 116.9375 108.863281 117.152344 C 110.097656 117.265625 111.308594 117.445312 112.363281 117.636719 C 115.214844 118.144531 117.457031 120.355469 118.007812 123.199219 Z M 118.007812 123.199219 "/>
<use xlink:href="#surface59" mask="url(#mask18)"/>
<use xlink:href="#surface62" mask="url(#mask19)"/>
<use xlink:href="#surface65" mask="url(#mask20)"/>
<use xlink:href="#surface68" mask="url(#mask21)"/>
<path style=" stroke:none;fill-rule:nonzero;fill:rgb(100%,54.509804%,48.235294%);fill-opacity:1;" d="M 96.703125 100.910156 C 97.972656 105.628906 98.476562 108.457031 101.386719 110.417969 C 105.769531 113.371094 111.1875 109.984375 111.390625 104.980469 C 111.546875 100.476562 109.453125 93.511719 104.390625 92.5625 C 102.121094 92.125 99.785156 92.890625 98.21875 94.59375 C 96.652344 96.296875 96.082031 98.6875 96.703125 100.910156 Z M 96.703125 100.910156 "/>
<path style=" stroke:none;fill-rule:nonzero;fill:rgb(14.901961%,19.607843%,21.960784%);fill-opacity:1;" d="M 107.414062 101.269531 C 109.628906 100.953125 108.988281 98.398438 108.164062 97.144531 C 108.164062 97.144531 113.0625 91.230469 107.414062 88.84375 C 101.765625 86.457031 103.132812 90.179688 103.132812 90.179688 C 103.132812 90.179688 98.699219 86.855469 94.851562 89.542969 C 91 92.230469 94.324219 93.394531 94.324219 93.394531 C 94.324219 93.394531 87.324219 95.453125 90.125 98.992188 C 92.925781 102.535156 95.816406 102.179688 95.816406 102.179688 C 95.816406 102.179688 90.011719 104.46875 94.414062 107.035156 C 98.820312 109.605469 100.472656 109.71875 100.472656 109.71875 C 102.902344 110.019531 105.195312 108.527344 105.902344 106.183594 Z M 107.414062 101.269531 "/>
<path style=" stroke:none;fill-rule:nonzero;fill:rgb(100%,54.509804%,48.235294%);fill-opacity:1;" d="M 105.511719 101.28125 C 105.605469 102.496094 106.097656 103.644531 106.910156 104.550781 C 107.980469 105.734375 109.101562 104.992188 109.296875 103.558594 C 109.464844 102.257812 109.117188 100.058594 107.800781 99.429688 C 106.484375 98.796875 105.425781 99.820312 105.511719 101.28125 Z M 105.511719 101.28125 "/>
<path style=" stroke:none;fill-rule:nonzero;fill:rgb(14.901961%,19.607843%,21.960784%);fill-opacity:1;" d="M 107.378906 161.097656 C 107.378906 161.097656 101.78125 198.722656 98.722656 212.820312 C 95.359375 228.257812 77.351562 279.320312 77.351562 279.320312 L 68.535156 277.410156 C 68.535156 277.410156 81.136719 235.789062 83.9375 214.207031 C 86.105469 197.632812 90.371094 161.085938 90.371094 161.085938 Z M 107.378906 161.097656 "/>
<path style=" stroke:none;fill-rule:nonzero;fill:rgb(14.901961%,19.607843%,21.960784%);fill-opacity:1;" d="M 79.464844 276.386719 C 79.464844 276.386719 77.820312 279.578125 77.820312 279.578125 L 67.898438 277.429688 L 68.738281 274.449219 Z M 79.464844 276.386719 "/>
<use xlink:href="#surface71" mask="url(#mask22)"/>
<path style=" stroke:none;fill-rule:nonzero;fill:rgb(14.901961%,19.607843%,21.960784%);fill-opacity:1;" d="M 116.71875 161.097656 C 116.71875 161.097656 117.417969 197.910156 116.863281 212.898438 C 116.304688 228.515625 110.851562 279.648438 110.851562 279.648438 L 102.507812 279.648438 C 102.507812 279.648438 102.207031 229.425781 101.808594 214.089844 C 101.429688 197.398438 99.398438 161.097656 99.398438 161.097656 Z M 116.71875 161.097656 "/>
<path style=" stroke:none;fill-rule:nonzero;fill:rgb(14.901961%,19.607843%,21.960784%);fill-opacity:1;" d="M 112.453125 276.359375 C 112.496094 276.359375 111.984375 279.816406 111.984375 279.816406 L 101.835938 279.816406 L 101.5625 276.730469 Z M 112.453125 276.359375 "/>
<path style=" stroke:none;fill-rule:nonzero;fill:rgb(14.901961%,19.607843%,21.960784%);fill-opacity:1;" d="M 107.6875 124.839844 C 105.320312 131.199219 119.195312 138.699219 119.195312 138.699219 L 125.203125 130.996094 C 125.203125 130.996094 121.191406 123.023438 116.277344 119.425781 C 110.199219 114.96875 109.480469 119.992188 107.6875 124.839844 Z M 107.6875 124.839844 "/>
<use xlink:href="#surface74" mask="url(#mask23)"/>
<path style=" stroke:none;fill-rule:nonzero;fill:rgb(14.901961%,19.607843%,21.960784%);fill-opacity:1;" d="M 149.253906 140.070312 C 149.253906 139.355469 148.484375 138.773438 147.53125 138.773438 C 146.582031 138.773438 145.808594 139.355469 145.808594 140.070312 C 145.808594 140.785156 146.582031 141.363281 147.53125 141.363281 C 148.484375 141.363281 149.253906 140.785156 149.253906 140.070312 Z M 149.253906 140.070312 "/>
<path style=" stroke:none;fill-rule:nonzero;fill:rgb(14.901961%,19.607843%,21.960784%);fill-opacity:1;" d="M 146.867188 144.199219 C 146.761719 144.203125 146.660156 144.15625 146.59375 144.074219 C 146.472656 143.925781 146.492188 143.707031 146.636719 143.585938 C 146.679688 143.550781 147.574219 142.730469 147.1875 140.824219 C 147.171875 140.734375 147.1875 140.640625 147.242188 140.566406 C 147.292969 140.488281 147.371094 140.4375 147.460938 140.421875 C 147.652344 140.382812 147.835938 140.503906 147.875 140.691406 C 148.351562 143.023438 147.140625 144.074219 147.089844 144.117188 C 147.027344 144.167969 146.949219 144.199219 146.867188 144.199219 Z M 146.867188 144.199219 "/>
<use xlink:href="#surface77" mask="url(#mask24)"/>
<path style=" stroke:none;fill-rule:nonzero;fill:rgb(14.901961%,19.607843%,21.960784%);fill-opacity:1;" d="M 109.859375 117.230469 C 106.636719 119.53125 101.058594 128.429688 100.058594 133.6875 C 100.042969 133.757812 99.988281 133.8125 99.917969 133.824219 C 99.84375 133.835938 99.773438 133.804688 99.734375 133.742188 C 96.695312 128.816406 94.894531 123.230469 94.480469 117.460938 C 94.476562 117.414062 94.453125 117.371094 94.417969 117.339844 C 94.382812 117.308594 94.335938 117.296875 94.289062 117.300781 C 93.507812 117.351562 92.726562 117.445312 91.953125 117.585938 C 91.875 117.609375 91.820312 117.679688 91.820312 117.761719 C 92.199219 124.976562 94.769531 131.902344 99.183594 137.621094 C 99.199219 137.65625 99.199219 137.695312 99.183594 137.730469 C 98.757812 145.605469 99.324219 159.683594 99.394531 161.355469 C 99.398438 161.449219 99.472656 161.523438 99.566406 161.523438 L 101.667969 161.523438 C 101.714844 161.523438 101.761719 161.503906 101.792969 161.472656 C 101.828125 161.4375 101.84375 161.390625 101.84375 161.34375 C 101.746094 159.734375 101.085938 147.503906 101.84375 137.472656 C 103.027344 130.011719 110.101562 119.925781 112.589844 117.929688 C 112.640625 117.886719 112.667969 117.820312 112.648438 117.753906 C 112.632812 117.6875 112.578125 117.636719 112.511719 117.628906 C 111.460938 117.398438 110.257812 117.25 109.96875 117.222656 C 109.933594 117.210938 109.894531 117.214844 109.859375 117.230469 Z M 109.859375 117.230469 "/>
</g>
</svg>
