<svg id="_x33_0" enable-background="new 0 0 64 64" height="512" viewBox="0 0 64 64" width="512" xmlns="http://www.w3.org/2000/svg"><g><g><path d="m2 11h12v39h-12z" fill="#f0bc5e"/></g><g><path d="m39 17h-4v-2h4v-6h-6v2h4v2h-4v6h6z"/><path d="m51 9h-6v2h4v2h-4v2h4v2h-4v2h6z"/><path d="m25 9h2v10h-2z"/><path d="m61 39.556v-34.556h-46.685c-1.127-2.361-3.53-4-6.315-4-3.859 0-7 3.14-7 7v42.2l4.692 11.263c.391.933 1.296 1.537 2.308 1.537s1.917-.604 2.308-1.538l4.692-11.262v-3.2h10.196l-10.001 16h8.359l3.75-6h17.391l3.75 6h8.359l-10-16h12.196c2.206 0 4-1.794 4-4 0-1.474-.81-2.75-2-3.444zm-2-32.556v32h-44v-31c0-.34-.033-.672-.08-1zm-51-4c2.757 0 5 2.243 5 5v7h-10v-7c0-2.757 2.243-5 5-5zm.462 57.691c-.156.375-.768.374-.924.001l-1.538-3.692h4zm2.371-5.691h-5.666l-2.167-5.2v-32.8h4v33h2v-33h4v32.8zm11.612 6h-3.641l8.749-14h3.642zm16.001-14 2.5 4h-9.892l2.5-4zm-9.892 8 1.25-2h12.392l1.25 2zm24.641 6h-3.641l-8.751-14h3.642zm5.805-16h-44v-4h44c1.103 0 2 .897 2 2s-.897 2-2 2z"/><path d="m55 35h2v2h-2z"/><path d="m53 35h-2v-14.529l-16.866 7.379-8.134-6.1-7 5.25v-14h-2v24h36zm-4 0h-6v-8.846l6-2.625zm-22-10 6 4.5v5.5h-6zm8 4.654 6-2.625v7.971h-6zm-16-.154 6-4.5v10h-6z"/><path d="m17 9h2v2h-2z"/></g></g></svg>