<!DOCTYPE svg PUBLIC "-//W3C//DTD SVG 1.1//EN" "http://www.w3.org/Graphics/SVG/1.1/DTD/svg11.dtd">
<!-- Uploaded to: SVG Repo, www.svgrepo.com, Transformed by: SVG Repo Mixer Tools -->
<svg fill="#6576b8" version="1.1" id="Capa_1" xmlns="http://www.w3.org/2000/svg" xmlns:xlink="http://www.w3.org/1999/xlink" width="190px" height="190px" viewBox="0 0 31.31 31.31" xml:space="preserve" stroke="#6576b8" stroke-width="0.31314000000000003">
<g id="SVGRepo_bgCarrier" stroke-width="0"/>
<g id="SVGRepo_tracerCarrier" stroke-linecap="round" stroke-linejoin="round"/>
<g id="SVGRepo_iconCarrier"> <g> <g> <path d="M18.773,7.2c-0.09,0-0.094,0-0.103,0.128c-0.019,0.262-0.036,0.47-0.049,0.638h-0.354c-0.274,0-0.311,0.16-0.318,0.31 s-0.008,0.155-0.008,0.182c0,0.03,0.013,0.049,0.047,0.049h0.59c-0.018,0.195-0.021,0.256-0.021,0.345 c0,0.271,0.09,0.421,0.446,0.421c0.075,0,0.095-0.018,0.099-0.089l0.053-0.677h0.352c0.266,0,0.322-0.12,0.335-0.297l0.015-0.182 c0-0.039-0.035-0.062-0.07-0.062h-0.58c0.018-0.199,0.021-0.279,0.021-0.363C19.227,7.351,19.137,7.2,18.773,7.2z"/> <path d="M21.046,9.038c-0.014,0.022-0.03,0.071-0.03,0.103v0.265c0,0.235,0.11,0.323,0.406,0.323h1.452 c0.267,0,0.324-0.12,0.337-0.297l0.018-0.261c0-0.044-0.035-0.062-0.07-0.062h-1.124c0.274-0.218,1.292-0.886,1.292-1.74 c0-0.372-0.207-0.833-1.004-0.833c-0.551,0-1.139,0.234-1.139,0.845c0,0.31,0.158,0.474,0.49,0.474 c0.125,0,0.133-0.022,0.143-0.081c0.027-0.238,0.09-0.584,0.377-0.584c0.227,0,0.318,0.12,0.318,0.266 C22.512,8.006,21.215,8.728,21.046,9.038z"/> <path d="M24.634,9.025L24.62,9.264c0,0.031,0.014,0.049,0.049,0.049h1.427c0.266,0,0.321-0.12,0.336-0.297l0.019-0.239 c0-0.044-0.026-0.062-0.071-0.062h-1.426C24.68,8.715,24.643,8.874,24.634,9.025z"/> <path d="M26.59,7.865l0.02-0.24c0-0.044-0.027-0.062-0.07-0.062h-1.428c-0.273,0-0.31,0.16-0.316,0.31l-0.016,0.239 c0,0.031,0.015,0.049,0.05,0.049h1.424C26.52,8.161,26.577,8.042,26.59,7.865z"/> <rect x="23.695" y="15.25" width="5.053" height="1.878"/> <polygon points="2.932,0.463 2.932,3.416 4.222,3.018 4.222,1.753 30.023,1.753 30.023,18.201 9.491,18.201 9.424,19.49 31.314,19.49 31.314,0.463 "/> <circle cx="4.984" cy="7.526" r="3.821"/> <path d="M8.228,29.104v-6.802V21.66v-0.87h0.243l0.355-6.905l6.59-3.414l-0.358-0.692l0.65-0.449 c0.012,0.271,0.121,0.398,0.455,0.398h0.244c0.053,0,0.065-0.018,0.069-0.066c0.015-0.124,0.184-2.458,0.184-2.706 c0-0.217-0.133-0.373-0.457-0.373h-0.266c-0.01,0-0.15,0.094-0.247,0.151c-0.377,0.23-0.404,0.253-0.404,0.31 c0,0.155,0.12,0.416,0.346,0.416c0.071,0,0.15-0.026,0.214-0.097c-0.049,0.606-0.1,1.195-0.126,1.575l-0.096-0.139l-0.791,0.546 L14.55,8.801l-6.025,3.121h-2.15l-1.456,1.689L3.51,11.922l-3.095,0.495l-0.2,6.948h1.313l0.07,1.426h0.2v0.87v0.642v6.803H1.534 L0,29.438v1.414h1.307l1.523-0.25l0.014,0.25h1.688v-1.576v-0.17v-6.803h0.961v6.803v0.17v1.576h1.688l0.014-0.25l1.524,0.25 h1.306v-1.414L8.49,29.104H8.228z"/> </g> </g> </g>
</svg>