<?xml version="1.0" encoding="UTF-8"?>
<svg xmlns="http://www.w3.org/2000/svg" xmlns:xlink="http://www.w3.org/1999/xlink" width="316px" height="420px" viewBox="0 0 316 420" version="1.1">
<defs>
<filter id="alpha" filterUnits="objectBoundingBox" x="0%" y="0%" width="100%" height="100%">
  <feColorMatrix type="matrix" in="SourceGraphic" values="0 0 0 0 1 0 0 0 0 1 0 0 0 0 1 0 0 0 1 0"/>
</filter>
<mask id="mask0">
  <g filter="url(#alpha)">
<rect x="0" y="0" width="316" height="420" style="fill:rgb(0%,0%,0%);fill-opacity:0.101961;stroke:none;"/>
  </g>
</mask>
<clipPath id="clip1">
  <rect x="0" y="0" width="316" height="420"/>
</clipPath>
<g id="surface5" clip-path="url(#clip1)">
<path style=" stroke:none;fill-rule:nonzero;fill:rgb(0%,0%,0%);fill-opacity:1;" d="M 83.796875 139.871094 L 84.523438 122.132812 L 72.851562 114.683594 L 76.816406 136.640625 Z M 83.796875 139.871094 "/>
</g>
</defs>
<g id="surface1">
<path style=" stroke:none;fill-rule:nonzero;fill:rgb(90.196078%,90.196078%,90.196078%);fill-opacity:1;" d="M 166.476562 0 L 312.242188 0 L 312.242188 167.300781 L 166.476562 167.300781 Z M 166.476562 0 "/>
<path style=" stroke:none;fill-rule:nonzero;fill:rgb(100%,71.372549%,71.372549%);fill-opacity:1;" d="M 138.136719 151.691406 C 142.246094 147.507812 147.738281 146.238281 150.402344 148.851562 C 153.0625 151.46875 151.890625 156.984375 147.773438 161.167969 C 146.15625 162.863281 144.152344 164.144531 141.933594 164.90625 L 124.289062 182.414062 L 116.25 173.957031 L 134.5 157.597656 C 135.222656 155.367188 136.46875 153.339844 138.136719 151.691406 Z M 138.136719 151.691406 "/>
<path style=" stroke:none;fill-rule:nonzero;fill:rgb(90.196078%,90.196078%,90.196078%);fill-opacity:1;" d="M 81.703125 137.238281 L 100.203125 178.277344 L 129.746094 162.289062 L 140.320312 167.898438 C 140.320312 167.898438 116.167969 208.273438 99.632812 203.675781 C 83.097656 199.082031 53.734375 157.40625 59.023438 144.546875 C 64.3125 131.683594 81.703125 137.238281 81.703125 137.238281 Z M 81.703125 137.238281 "/>
<path style=" stroke:none;fill-rule:nonzero;fill:rgb(24.705882%,23.921569%,33.72549%);fill-opacity:1;" d="M 125.953125 200.582031 L 128.488281 200.582031 L 128.488281 208.1875 L 125.953125 208.1875 Z M 125.953125 200.582031 "/>
<path style=" stroke:none;fill-rule:nonzero;fill:rgb(24.705882%,23.921569%,33.72549%);fill-opacity:1;" d="M 128.488281 185.941406 L 125.953125 185.941406 L 125.953125 171.296875 L 128.488281 171.296875 Z M 128.488281 156.65625 L 125.953125 156.65625 L 125.953125 142.015625 L 128.488281 142.015625 Z M 128.488281 127.375 L 125.953125 127.375 L 125.953125 112.730469 L 128.488281 112.730469 Z M 128.488281 98.089844 L 125.953125 98.089844 L 125.953125 83.445312 L 128.488281 83.445312 Z M 128.488281 68.804688 L 125.953125 68.804688 L 125.953125 54.164062 L 128.488281 54.164062 Z M 128.488281 68.804688 "/>
<path style=" stroke:none;fill-rule:nonzero;fill:rgb(24.705882%,23.921569%,33.72549%);fill-opacity:1;" d="M 128.488281 39.519531 L 125.953125 39.519531 L 125.953125 30.648438 L 134.824219 30.648438 L 134.824219 33.183594 L 128.488281 33.183594 Z M 128.488281 39.519531 "/>
<path style=" stroke:none;fill-rule:nonzero;fill:rgb(24.705882%,23.921569%,33.72549%);fill-opacity:1;" d="M 246.375 33.183594 L 232.429688 33.183594 L 232.429688 30.648438 L 246.375 30.648438 Z M 218.488281 33.183594 L 204.542969 33.183594 L 204.542969 30.648438 L 218.488281 30.648438 Z M 190.597656 33.183594 L 176.65625 33.183594 L 176.65625 30.648438 L 190.597656 30.648438 Z M 162.710938 33.183594 L 148.769531 33.183594 L 148.769531 30.648438 L 162.710938 30.648438 Z M 162.710938 33.183594 "/>
<path style=" stroke:none;fill-rule:nonzero;fill:rgb(24.705882%,23.921569%,33.72549%);fill-opacity:1;" d="M 260.316406 30.648438 L 267.921875 30.648438 L 267.921875 33.183594 L 260.316406 33.183594 Z M 260.316406 30.648438 "/>
<path style=" stroke:none;fill-rule:nonzero;fill:rgb(94.901961%,94.901961%,94.901961%);fill-opacity:1;" d="M 222.382812 348.453125 C 221.722656 347.339844 218.867188 348.53125 218.339844 347.519531 C 217.816406 346.515625 220.472656 344.980469 221.988281 341.476562 C 222.261719 340.84375 223.984375 336.859375 222.710938 335.632812 C 220.292969 333.300781 209.226562 342.914062 205.351562 339.769531 C 204.503906 339.078125 203.910156 337.699219 201.335938 335.464844 C 200.3125 334.574219 199.695312 334.171875 199.09375 334.320312 C 198.246094 334.53125 198.179688 335.671875 197.265625 337.90625 C 195.902344 341.257812 195.09375 341.054688 194.296875 343.730469 C 193.707031 345.71875 193.839844 346.871094 193.144531 347.097656 C 192.160156 347.414062 191.253906 345.308594 190.007812 345.496094 C 188.734375 345.691406 187.964844 348.144531 187.722656 349.980469 C 187.265625 353.425781 188.53125 355.699219 189.234375 358.089844 C 189.996094 360.6875 190.449219 364.640625 188.6875 370.234375 L 171.261719 419.324219 C 175.109375 409.253906 186.25 381.640625 190.929688 371.378906 C 192.28125 368.414062 193.773438 365.410156 196.835938 364.226562 C 199.785156 363.082031 203.835938 363.765625 208.996094 362.519531 C 209.601562 362.375 211.273438 361.949219 211.484375 360.964844 C 211.660156 360.152344 210.675781 359.699219 210.824219 358.9375 C 211.027344 357.914062 212.964844 357.902344 215.34375 356.722656 C 216.6875 356.03125 217.910156 355.128906 218.964844 354.050781 C 219.234375 353.792969 223.261719 349.933594 222.382812 348.453125 Z M 222.382812 348.453125 "/>
<path style=" stroke:none;fill-rule:nonzero;fill:rgb(94.901961%,94.901961%,94.901961%);fill-opacity:1;" d="M 153.828125 374.296875 C 153.09375 374.300781 152.851562 376.046875 152.207031 376.011719 C 151.558594 375.976562 151.574219 374.230469 150.289062 372.476562 C 150.058594 372.160156 148.601562 370.164062 147.628906 370.4375 C 145.789062 370.953125 147.316406 379.15625 144.652344 380.148438 C 143.550781 380.328125 142.457031 380.574219 141.382812 380.878906 C 140.648438 381.121094 140.273438 381.3125 140.171875 381.648438 C 140.03125 382.125 140.570312 382.488281 141.40625 383.578125 C 142.65625 385.21875 142.324219 385.554688 143.40625 386.71875 C 144.210938 387.582031 144.816406 387.847656 144.726562 388.253906 C 144.601562 388.828125 143.304688 388.667969 143.039062 389.332031 C 142.765625 390.011719 143.746094 391.097656 144.578125 391.746094 C 146.136719 392.964844 147.617188 393 148.996094 393.347656 C 151.269531 393.984375 153.292969 395.300781 154.796875 397.117188 L 173.867188 419.832031 C 170.03125 415.039062 159.691406 401.605469 156.007812 396.347656 C 154.941406 394.832031 153.898438 393.230469 154.199219 391.386719 C 154.488281 389.609375 155.992188 387.816406 156.871094 384.925781 C 156.976562 384.585938 157.25 383.640625 156.828125 383.253906 C 156.476562 382.933594 155.96875 383.285156 155.640625 382.992188 C 155.195312 382.597656 155.75 381.644531 155.855469 380.136719 C 155.90625 379.277344 155.816406 378.417969 155.589844 377.589844 C 155.542969 377.382812 154.8125 374.292969 153.828125 374.296875 Z M 153.828125 374.296875 "/>
<path style=" stroke:none;fill-rule:nonzero;fill:rgb(94.901961%,94.901961%,94.901961%);fill-opacity:1;" d="M 168.535156 377.597656 L 168.089844 373.632812 L 168.292969 373.332031 C 169.15625 372.160156 169.652344 370.753906 169.714844 369.296875 C 169.71875 369.09375 169.707031 368.886719 169.699219 368.679688 C 169.589844 367.640625 169.742188 366.589844 170.148438 365.625 C 170.449219 364.957031 171.292969 363.414062 172.5625 363.605469 C 172.859375 363.644531 173.140625 363.78125 173.359375 363.992188 C 173.386719 363.945312 173.417969 363.898438 173.449219 363.851562 C 173.71875 363.425781 174.058594 363.050781 174.457031 362.742188 C 174.773438 362.488281 175.054688 362.203125 175.304688 361.886719 C 175.46875 361.679688 175.597656 361.5 175.703125 361.347656 C 176.003906 360.777344 176.574219 360.402344 177.21875 360.355469 C 177.882812 360.457031 178.453125 360.890625 178.730469 361.503906 C 179.078125 362.050781 179.375 362.632812 179.605469 363.238281 C 179.648438 363.355469 179.699219 363.46875 179.753906 363.578125 C 180.015625 363.960938 182.132812 363.605469 182.929688 363.472656 C 184.71875 363.175781 186.269531 362.917969 186.90625 364.046875 C 187.363281 364.851562 187.023438 365.921875 185.867188 367.304688 C 185.546875 367.683594 185.179688 368.023438 184.78125 368.320312 C 185.097656 368.496094 185.328125 368.800781 185.417969 369.152344 C 185.660156 370.113281 184.832031 371.074219 182.964844 372.015625 C 182.351562 372.355469 181.6875 372.589844 181 372.71875 C 180.636719 372.777344 180.265625 372.808594 179.898438 372.816406 C 179.890625 373.023438 179.835938 373.222656 179.738281 373.402344 C 179.289062 374.070312 178.480469 374.394531 177.695312 374.222656 C 176.71875 374.15625 175.753906 374.003906 174.804688 373.757812 C 174.210938 373.589844 173.597656 373.496094 172.980469 373.488281 C 172.078125 373.558594 171.386719 374.28125 170.570312 375.21875 Z M 168.535156 377.597656 "/>
<path style=" stroke:none;fill-rule:nonzero;fill:rgb(94.901961%,94.901961%,94.901961%);fill-opacity:1;" d="M 170.59375 353.996094 L 166.871094 355.429688 L 166.53125 355.3125 C 165.175781 354.773438 163.691406 354.648438 162.265625 354.957031 C 162.066406 355.007812 161.871094 355.070312 161.671875 355.132812 C 160.695312 355.5 159.640625 355.617188 158.605469 355.472656 C 157.882812 355.351562 156.171875 354.925781 156.035156 353.648438 C 156 353.347656 156.0625 353.046875 156.210938 352.78125 C 156.15625 352.765625 156.105469 352.746094 156.050781 352.730469 C 155.570312 352.578125 155.121094 352.339844 154.71875 352.035156 C 154.398438 351.792969 154.046875 351.59375 153.675781 351.433594 C 153.4375 351.328125 153.230469 351.246094 153.058594 351.179688 C 152.429688 351.039062 151.921875 350.578125 151.710938 349.96875 C 151.640625 349.300781 151.917969 348.640625 152.441406 348.21875 C 152.878906 347.738281 153.367188 347.308594 153.894531 346.929688 C 153.996094 346.859375 154.09375 346.78125 154.1875 346.699219 C 154.492188 346.347656 153.609375 344.394531 153.28125 343.65625 C 152.539062 342 151.894531 340.566406 152.824219 339.660156 C 153.488281 339.015625 154.609375 339.074219 156.242188 339.839844 C 156.691406 340.054688 157.113281 340.324219 157.5 340.632812 C 157.589844 340.28125 157.824219 339.980469 158.140625 339.804688 C 159.011719 339.328125 160.152344 339.882812 161.535156 341.453125 C 162.015625 341.960938 162.414062 342.542969 162.710938 343.175781 C 162.863281 343.511719 162.988281 343.859375 163.085938 344.214844 C 163.289062 344.171875 163.496094 344.171875 163.695312 344.222656 C 164.363281 344.386719 164.8125 344.976562 165.007812 345.988281 C 165.191406 346.949219 165.285156 347.925781 165.289062 348.902344 C 165.277344 349.519531 165.34375 350.136719 165.492188 350.734375 C 165.789062 351.589844 166.664062 352.078125 167.777344 352.628906 Z M 170.59375 353.996094 "/>
<path style=" stroke:none;fill-rule:nonzero;fill:rgb(94.901961%,94.901961%,94.901961%);fill-opacity:1;" d="M 168.535156 342.316406 L 168.089844 338.355469 L 168.292969 338.054688 C 169.15625 336.878906 169.652344 335.476562 169.714844 334.019531 C 169.71875 333.8125 169.707031 333.609375 169.699219 333.398438 C 169.589844 332.359375 169.742188 331.3125 170.148438 330.347656 C 170.449219 329.679688 171.292969 328.132812 172.5625 328.324219 C 172.859375 328.367188 173.140625 328.503906 173.359375 328.714844 C 173.386719 328.667969 173.417969 328.621094 173.449219 328.570312 C 173.71875 328.144531 174.058594 327.769531 174.457031 327.460938 C 174.773438 327.210938 175.054688 326.921875 175.304688 326.605469 C 175.46875 326.402344 175.597656 326.222656 175.703125 326.070312 C 176.003906 325.5 176.574219 325.125 177.21875 325.078125 C 177.882812 325.179688 178.453125 325.609375 178.730469 326.226562 C 179.078125 326.769531 179.375 327.351562 179.605469 327.957031 C 179.648438 328.074219 179.699219 328.1875 179.753906 328.300781 C 180.015625 328.683594 182.132812 328.324219 182.929688 328.195312 C 184.71875 327.894531 186.269531 327.636719 186.90625 328.765625 C 187.363281 329.574219 187.023438 330.640625 185.867188 332.027344 C 185.546875 332.40625 185.179688 332.746094 184.78125 333.039062 C 185.097656 333.21875 185.328125 333.519531 185.417969 333.875 C 185.660156 334.832031 184.832031 335.796875 182.964844 336.738281 C 182.351562 337.074219 181.6875 337.3125 181 337.4375 C 180.636719 337.496094 180.265625 337.53125 179.898438 337.535156 C 179.890625 337.742188 179.835938 337.945312 179.738281 338.125 C 179.289062 338.789062 178.480469 339.113281 177.695312 338.945312 C 176.71875 338.878906 175.753906 338.722656 174.804688 338.480469 C 174.210938 338.308594 173.597656 338.21875 172.980469 338.207031 C 172.078125 338.28125 171.386719 339.003906 170.570312 339.9375 Z M 168.535156 342.316406 "/>
<path style=" stroke:none;fill-rule:nonzero;fill:rgb(94.901961%,94.901961%,94.901961%);fill-opacity:1;" d="M 172.589844 419.261719 L 171.757812 418.742188 L 171.558594 417.78125 L 171.757812 418.742188 L 170.789062 418.851562 C 170.777344 418.761719 170.722656 418.554688 170.644531 418.230469 C 169.390625 413.070312 168.4375 407.839844 167.785156 402.570312 C 167.011719 396.558594 166.578125 390.507812 166.492188 384.449219 C 166.402344 378.34375 166.691406 373.722656 166.921875 370.007812 C 167.097656 367.203125 167.308594 364.535156 167.519531 361.9375 C 168.074219 354.992188 168.597656 348.433594 168.207031 341.171875 C 168.140625 338.175781 167.375 335.234375 165.96875 332.585938 C 164.789062 330.460938 163.195312 328.59375 161.285156 327.089844 L 162.507812 325.558594 C 164.621094 327.222656 166.382812 329.289062 167.6875 331.644531 C 169.238281 334.546875 170.085938 337.777344 170.164062 341.066406 C 170.5625 348.457031 170.03125 355.082031 169.472656 362.089844 C 169.265625 364.679688 169.050781 367.335938 168.878906 370.128906 C 168.648438 373.808594 168.363281 378.390625 168.449219 384.417969 C 168.535156 390.40625 168.964844 396.378906 169.726562 402.320312 C 170.371094 407.515625 171.3125 412.675781 172.546875 417.765625 C 172.777344 418.695312 172.824219 418.890625 172.589844 419.261719 Z M 172.589844 419.261719 "/>
<path style=" stroke:none;fill-rule:nonzero;fill:rgb(94.901961%,94.901961%,94.901961%);fill-opacity:1;" d="M 157.691406 330.207031 C 157.609375 330.207031 157.527344 330.203125 157.445312 330.199219 C 155.777344 330.109375 154.230469 329.109375 152.851562 327.230469 C 152.203125 326.34375 151.875 325.335938 151.214844 323.324219 C 150.796875 322.003906 150.496094 320.648438 150.308594 319.277344 C 150.113281 317.863281 150.136719 317.269531 150.417969 316.75 C 150.730469 316.191406 151.214844 315.75 151.796875 315.488281 C 151.773438 315.292969 151.796875 315.089844 151.875 314.910156 C 152.210938 314.089844 153.097656 314.199219 153.578125 314.25 C 153.867188 314.296875 154.160156 314.3125 154.453125 314.304688 C 154.882812 314.277344 155.300781 314.136719 155.664062 313.898438 C 156.171875 313.59375 156.722656 313.375 157.300781 313.25 C 158.332031 313.054688 159.398438 313.140625 160.386719 313.496094 C 162.503906 314.203125 163.550781 315.851562 164.761719 317.757812 C 165.460938 318.910156 166.003906 320.148438 166.375 321.445312 C 166.679688 322.222656 166.757812 323.070312 166.597656 323.890625 C 166.355469 324.828125 165.785156 325.363281 164.339844 326.546875 C 163.417969 327.359375 162.445312 328.105469 161.421875 328.78125 C 159.90625 329.65625 158.953125 330.207031 157.691406 330.207031 Z M 157.691406 330.207031 "/>
<path style=" stroke:none;fill-rule:nonzero;fill:rgb(24.705882%,23.921569%,33.72549%);fill-opacity:1;" d="M 0 418.4375 L 316 418.4375 L 316 420 L 0 420 Z M 0 418.4375 "/>
<path style=" stroke:none;fill-rule:nonzero;fill:rgb(100%,71.372549%,71.372549%);fill-opacity:1;" d="M 73.589844 410.757812 L 87.082031 410.753906 L 93.496094 358.722656 L 73.585938 358.726562 Z M 73.589844 410.757812 "/>
<path style=" stroke:none;fill-rule:nonzero;fill:rgb(18.431373%,18.039216%,25.490196%);fill-opacity:1;" d="M 119.808594 410.449219 C 120.230469 411.15625 120.449219 413.441406 120.449219 414.261719 C 120.449219 416.792969 118.402344 418.839844 115.871094 418.839844 L 74.09375 418.839844 C 72.371094 418.839844 70.972656 417.441406 70.972656 415.71875 L 70.972656 413.980469 C 70.972656 413.980469 68.90625 408.75 73.160156 402.308594 C 73.160156 402.308594 78.449219 407.355469 86.351562 399.453125 L 88.679688 395.230469 L 105.546875 407.566406 L 114.898438 408.71875 C 116.945312 408.96875 118.757812 408.679688 119.808594 410.449219 Z M 119.808594 410.449219 "/>
<path style=" stroke:none;fill-rule:nonzero;fill:rgb(100%,71.372549%,71.372549%);fill-opacity:1;" d="M 83.796875 139.871094 L 84.070312 121.679688 L 72.851562 114.683594 L 60.648438 129.609375 Z M 83.796875 139.871094 "/>
<use xlink:href="#surface5" mask="url(#mask0)"/>
<path style=" stroke:none;fill-rule:nonzero;fill:rgb(100%,71.372549%,71.372549%);fill-opacity:1;" d="M 103.789062 107.386719 C 103.789062 118.40625 94.855469 127.339844 83.832031 127.339844 C 72.8125 127.339844 63.878906 118.40625 63.878906 107.386719 C 63.878906 96.367188 72.8125 87.433594 83.832031 87.433594 C 94.855469 87.433594 103.789062 96.367188 103.789062 107.386719 Z M 103.789062 107.386719 "/>
<path style=" stroke:none;fill-rule:nonzero;fill:rgb(18.431373%,18.039216%,25.490196%);fill-opacity:1;" d="M 111.046875 260.179688 L 92.457031 386.664062 L 69.136719 386.664062 L 72.238281 314.464844 L 73.871094 276.5 L 69.136719 258.429688 C 67.632812 255.550781 66.304688 252.582031 65.160156 249.542969 C 63.109375 244.046875 61.492188 237.460938 63.894531 234.335938 C 64.78125 233.1875 67.078125 232.332031 70.203125 231.699219 C 72.359375 231.28125 74.539062 230.96875 76.730469 230.769531 C 90.523438 229.40625 110.140625 230.257812 110.140625 230.257812 L 110.640625 246.714844 L 110.917969 255.902344 Z M 111.046875 260.179688 "/>
<path style=" stroke:none;fill-rule:nonzero;fill:rgb(100%,71.372549%,71.372549%);fill-opacity:1;" d="M 49.828125 404.570312 L 63.171875 406.53125 L 77.089844 355.988281 L 57.394531 353.09375 Z M 49.828125 404.570312 "/>
<path style=" stroke:none;fill-rule:nonzero;fill:rgb(18.431373%,18.039216%,25.490196%);fill-opacity:1;" d="M 95.597656 410.988281 C 95.910156 411.75 95.796875 414.042969 95.679688 414.855469 C 95.3125 417.355469 92.984375 419.085938 90.484375 418.71875 L 49.148438 412.644531 C 47.441406 412.390625 46.261719 410.804688 46.515625 409.097656 L 46.765625 407.378906 C 46.765625 407.378906 45.484375 401.90625 50.628906 396.148438 C 50.628906 396.148438 55.128906 401.910156 64.09375 395.242188 L 67.015625 391.40625 L 81.910156 406.0625 L 90.992188 408.5625 C 92.980469 409.109375 94.816406 409.082031 95.597656 410.988281 Z M 95.597656 410.988281 "/>
<path style=" stroke:none;fill-rule:nonzero;fill:rgb(18.431373%,18.039216%,25.490196%);fill-opacity:1;" d="M 111.339844 239.085938 L 108.789062 261.039062 L 94.886719 307.308594 L 71.996094 383.480469 L 48.925781 380.089844 L 69.632812 271.785156 L 67.582031 253.210938 C 67.582031 253.210938 66.914062 251.367188 66.148438 248.664062 C 64.628906 243.316406 62.722656 234.609375 64.820312 230.167969 C 65.082031 229.589844 65.445312 229.066406 65.898438 228.617188 C 66.722656 227.816406 68.398438 227.332031 70.644531 227.074219 C 80.027344 226.015625 99.355469 229.046875 107.953125 230.535156 Z M 111.339844 239.085938 "/>
<path style=" stroke:none;fill-rule:nonzero;fill:rgb(90.196078%,90.196078%,90.196078%);fill-opacity:1;" d="M 63.214844 125.757812 L 85.882812 136.640625 C 85.882812 136.640625 109.914062 207.816406 109.914062 211.441406 C 109.914062 215.070312 116.714844 217.335938 112.632812 221.417969 C 108.554688 225.496094 120.230469 228.953125 113.9375 232.210938 C 107.648438 235.472656 68.402344 253.296875 64.039062 251.691406 C 52.003906 247.257812 64.546875 230.964844 64.546875 230.964844 C 64.546875 230.964844 55.507812 223.683594 56.867188 220.058594 C 58.226562 216.429688 48.707031 147.066406 48.707031 147.066406 Z M 63.214844 125.757812 "/>
<path style=" stroke:none;fill-rule:nonzero;fill:rgb(18.431373%,18.039216%,25.490196%);fill-opacity:1;" d="M 82.613281 112.164062 L 85.179688 117.296875 C 85.179688 117.296875 87.746094 108.058594 91.855469 106.007812 C 95.960938 103.953125 96.472656 100.875 96.472656 100.875 C 96.472656 100.875 101.609375 107.546875 105.199219 106.007812 C 108.792969 104.464844 110.335938 103.441406 106.226562 97.28125 C 102.121094 91.121094 103.148438 94.199219 103.148438 94.199219 C 103.148438 94.199219 99.554688 89.066406 100.066406 90.609375 C 100.582031 92.148438 96.988281 86.5 96.988281 88.042969 C 96.988281 89.582031 94.421875 84.960938 94.421875 86.5 C 94.421875 88.042969 83.640625 82.910156 85.179688 84.960938 C 86.722656 87.015625 75.941406 80.855469 70.808594 89.066406 C 65.675781 97.28125 58.558594 95.761719 61.089844 100.882812 C 63.621094 106.007812 62.59375 119.863281 62.59375 119.863281 L 69.675781 119.863281 C 69.675781 119.863281 76.96875 106.007812 82.613281 112.164062 Z M 82.613281 112.164062 "/>
<path style=" stroke:none;fill-rule:nonzero;fill:rgb(100%,100%,100%);fill-opacity:1;" d="M 271.046875 198.175781 L 270.828125 198.25 L 258.90625 201.933594 L 122.800781 244.027344 C 137.214844 233.640625 140.273438 171.992188 136.644531 143.96875 C 157.597656 182.042969 191.804688 158.914062 233.617188 92.582031 C 244.5625 75.21875 256.035156 54.886719 267.917969 31.914062 L 270.035156 144.625 Z M 271.046875 198.175781 "/>
<path style=" stroke:none;fill-rule:nonzero;fill:rgb(100%,71.372549%,71.372549%);fill-opacity:1;" d="M 132.292969 188.476562 C 137.917969 186.816406 143.335938 188.371094 144.394531 191.949219 C 145.449219 195.53125 141.746094 199.78125 136.117188 201.441406 C 133.878906 202.136719 131.503906 202.285156 129.199219 201.875 L 105.269531 208.617188 L 102.347656 197.320312 L 126.246094 191.875 C 127.960938 190.273438 130.035156 189.109375 132.292969 188.476562 Z M 132.292969 188.476562 "/>
<path style=" stroke:none;fill-rule:nonzero;fill:rgb(90.196078%,90.196078%,90.196078%);fill-opacity:1;" d="M 89.972656 148.449219 L 86.21875 193.308594 L 119.8125 193.671875 L 126.332031 203.707031 C 126.332031 203.707031 85.617188 227.28125 73.390625 215.234375 C 61.164062 203.191406 55.726562 152.503906 66.59375 143.828125 C 77.464844 135.152344 89.972656 148.449219 89.972656 148.449219 Z M 89.972656 148.449219 "/>
<path style=" stroke:none;fill-rule:nonzero;fill:rgb(24.705882%,23.921569%,33.72549%);fill-opacity:1;" d="M 168.523438 131.171875 L 160.457031 128.679688 C 164.179688 132.558594 167.820312 138.921875 170.019531 144.089844 C 171.71875 138.738281 174.738281 132.054688 178.070312 127.839844 L 170.386719 131.042969 C 171.832031 106.234375 187.835938 86.269531 209.019531 83.21875 L 209.195312 82.304688 C 187.070312 85.488281 169.933594 105.375 168.523438 131.171875 Z M 168.523438 131.171875 "/>
<path style=" stroke:none;fill-rule:nonzero;fill:rgb(24.705882%,23.921569%,33.72549%);fill-opacity:1;" d="M 178.683594 201.207031 L 182.984375 194.105469 C 178.398438 196.730469 171.453125 198.683594 165.996094 199.550781 C 170.699219 202.453125 176.355469 206.929688 179.582031 211.117188 L 178.359375 203.015625 C 201.695312 210.320312 216.933594 230.363281 214.785156 251.308594 L 215.617188 251.695312 C 217.859375 229.816406 202.972656 208.714844 178.683594 201.207031 Z M 178.683594 201.207031 "/>
<path style=" stroke:none;fill-rule:nonzero;fill:rgb(94.509804%,94.901961%,94.901961%);fill-opacity:1;" d="M 270.828125 198.25 L 258.90625 201.933594 C 249.019531 196.019531 238.664062 191.207031 228.371094 186.507812 C 224.835938 184.898438 220.824219 182.652344 219.875 178.023438 C 219.304688 175.261719 220.03125 172.328125 221.019531 169.761719 C 226.515625 155.402344 239.765625 147.238281 243.8125 132.105469 C 247.527344 118.183594 241.996094 103.195312 233.617188 92.582031 C 244.5625 75.21875 256.035156 54.886719 267.917969 31.914062 L 270.035156 144.625 C 270.351562 166.054688 270.640625 185.429688 270.828125 198.25 Z M 270.828125 198.25 "/>
</g>
</svg>
