<?xml version="1.0" encoding="UTF-8"?>
<svg xmlns="http://www.w3.org/2000/svg" xmlns:xlink="http://www.w3.org/1999/xlink" width="364px" height="380px" viewBox="0 0 364 379" version="1.1">
<defs>
<filter id="alpha" filterUnits="objectBoundingBox" x="0%" y="0%" width="100%" height="100%">
  <feColorMatrix type="matrix" in="SourceGraphic" values="0 0 0 0 1 0 0 0 0 1 0 0 0 0 1 0 0 0 1 0"/>
</filter>
<mask id="mask0">
  <g filter="url(#alpha)">
<rect x="0" y="0" width="364" height="379" style="fill:rgb(0%,0%,0%);fill-opacity:0.101961;stroke:none;"/>
  </g>
</mask>
<clipPath id="clip1">
  <rect x="0" y="0" width="364" height="379"/>
</clipPath>
<g id="surface5" clip-path="url(#clip1)">
<path style=" stroke:none;fill-rule:nonzero;fill:rgb(0%,0%,0%);fill-opacity:1;" d="M 216.507812 350.445312 C 216.507812 345.992188 186.855469 342.386719 150.273438 342.386719 C 113.695312 342.386719 84.042969 345.992188 84.042969 350.445312 C 84.042969 354.894531 113.695312 358.5 150.273438 358.5 C 186.855469 358.5 216.507812 354.894531 216.507812 350.445312 Z M 216.507812 350.445312 "/>
</g>
<mask id="mask1">
  <g filter="url(#alpha)">
<rect x="0" y="0" width="364" height="379" style="fill:rgb(0%,0%,0%);fill-opacity:0.101961;stroke:none;"/>
  </g>
</mask>
<clipPath id="clip2">
  <rect x="0" y="0" width="364" height="379"/>
</clipPath>
<g id="surface8" clip-path="url(#clip2)">
<path style=" stroke:none;fill-rule:nonzero;fill:rgb(0%,0%,0%);fill-opacity:1;" d="M 147.769531 108.148438 C 147.769531 108.148438 146.65625 120.933594 143.875 121.488281 C 141.089844 122.042969 149.996094 144.273438 149.996094 144.273438 L 163.355469 144.273438 L 173.929688 141.492188 L 168.921875 129.269531 C 168.921875 129.269531 162.242188 120.375 167.25 113.152344 C 172.261719 105.925781 147.769531 108.148438 147.769531 108.148438 Z M 147.769531 108.148438 "/>
</g>
<mask id="mask2">
  <g filter="url(#alpha)">
<rect x="0" y="0" width="364" height="379" style="fill:rgb(0%,0%,0%);fill-opacity:0.101961;stroke:none;"/>
  </g>
</mask>
<clipPath id="clip3">
  <rect x="0" y="0" width="364" height="379"/>
</clipPath>
<g id="surface11" clip-path="url(#clip3)">
<path style=" stroke:none;fill-rule:nonzero;fill:rgb(0%,0%,0%);fill-opacity:1;" d="M 120.777344 144.550781 L 120.21875 144.550781 C 120.21875 144.550781 111.59375 134.269531 109.921875 148.160156 C 108.253906 162.054688 102.6875 208.179688 117.160156 209.847656 C 131.628906 211.515625 141.925781 202.898438 141.925781 202.898438 C 141.925781 202.898438 152.5 186.785156 148.605469 186.785156 C 146.71875 186.785156 141.59375 185.9375 136.917969 186.230469 C 131.929688 186.539062 127.445312 187.941406 127.734375 186.507812 C 128.289062 183.726562 136.359375 148.441406 120.777344 144.550781 Z M 120.777344 144.550781 "/>
</g>
<mask id="mask3">
  <g filter="url(#alpha)">
<rect x="0" y="0" width="364" height="379" style="fill:rgb(0%,0%,0%);fill-opacity:0.101961;stroke:none;"/>
  </g>
</mask>
<clipPath id="clip4">
  <rect x="0" y="0" width="364" height="379"/>
</clipPath>
<g id="surface14" clip-path="url(#clip4)">
<path style=" stroke:none;fill-rule:nonzero;fill:rgb(0%,0%,0%);fill-opacity:1;" d="M 364.132812 93.488281 C 363.917969 100.140625 362.292969 105.472656 359.265625 109.484375 C 356.234375 113.496094 352.636719 115.5 348.464844 115.503906 C 345.070312 115.503906 342.09375 113.539062 339.539062 109.613281 C 336.980469 105.6875 335.699219 99.644531 335.703125 91.492188 C 335.703125 89.691406 335.746094 87.972656 335.832031 86.34375 C 335.914062 84.710938 336.023438 83.167969 336.152344 81.707031 L 338.410156 60.53125 L 323.515625 60.53125 C 320.9375 87.308594 318.820312 103.238281 317.167969 108.324219 C 315.511719 113.410156 312.707031 115.953125 308.753906 115.953125 C 306.96875 115.910156 305.265625 115.195312 303.984375 113.957031 C 302.476562 112.625 301.648438 110.6875 301.726562 108.679688 C 301.726562 106.707031 303.285156 103.949219 306.402344 100.40625 C 309.515625 96.867188 311.246094 93.636719 311.589844 90.71875 L 315.457031 60.53125 L 309.203125 60.53125 C 307.441406 60.542969 305.707031 60.972656 304.144531 61.785156 C 302.707031 62.445312 301.453125 63.453125 300.5 64.714844 L 297.730469 68.835938 L 295.472656 68.835938 C 297.578125 62.3125 300.167969 57.410156 303.242188 54.125 C 306.3125 50.84375 309.847656 49.203125 313.847656 49.203125 L 363.101562 49.203125 L 363.101562 60.53125 L 346.46875 60.53125 C 345.953125 65.679688 345.554688 70.832031 345.273438 75.980469 C 344.996094 81.128906 344.855469 86.300781 344.855469 91.492188 C 344.855469 95.011719 345.671875 97.867188 347.304688 100.054688 C 348.9375 102.242188 350.980469 103.335938 353.429688 103.335938 C 354.933594 103.335938 356.511719 102.726562 358.167969 101.5 C 359.757812 100.386719 360.78125 98.636719 360.972656 96.707031 C 361.101562 95.761719 361.199219 95.023438 361.261719 94.484375 C 361.328125 93.949219 361.359375 93.617188 361.359375 93.488281 Z M 364.132812 93.488281 "/>
</g>
</defs>
<g id="surface1">
<path style=" stroke:none;fill-rule:nonzero;fill:rgb(24.705882%,23.921569%,33.72549%);fill-opacity:1;" d="M 345.078125 353.222656 C 345.078125 367.492188 267.828125 379.0625 172.539062 379.0625 C 77.246094 379.0625 0 367.492188 0 353.222656 C 0 343.121094 38.722656 334.367188 95.152344 330.121094 C 118.421875 328.363281 144.714844 327.382812 172.539062 327.382812 C 183.976562 327.382812 195.152344 327.546875 205.960938 327.863281 C 285.253906 330.199219 345.078125 340.664062 345.078125 353.222656 Z M 345.078125 353.222656 "/>
<use xlink:href="#surface5" mask="url(#mask0)"/>
<path style=" stroke:none;fill-rule:nonzero;fill:rgb(24.705882%,23.921569%,33.72549%);fill-opacity:1;" d="M 212.613281 289.59375 C 212.613281 252.761719 184.578125 222.90625 149.996094 222.90625 C 115.414062 222.90625 87.382812 252.761719 87.382812 289.59375 C 87.382812 326.421875 115.414062 356.277344 149.996094 356.277344 C 184.578125 356.277344 212.613281 326.421875 212.613281 289.59375 Z M 212.613281 289.59375 "/>
<path style=" stroke:none;fill-rule:nonzero;fill:rgb(100%,100%,100%);fill-opacity:1;" d="M 130.796875 329.046875 L 169.753906 329.046875 L 169.753906 364.613281 L 130.796875 364.613281 Z M 130.796875 329.046875 "/>
<path style=" stroke:none;fill-rule:nonzero;fill:rgb(34.117647%,35.294118%,53.72549%);fill-opacity:1;" d="M 220.683594 337.664062 L 218.457031 349.886719 L 232.925781 352.109375 L 242.386719 346.554688 L 241.832031 337.664062 Z M 220.683594 337.664062 "/>
<path style=" stroke:none;fill-rule:nonzero;fill:rgb(62.745098%,38.039216%,41.568627%);fill-opacity:1;" d="M 147.769531 108.148438 C 147.769531 108.148438 146.65625 120.933594 143.875 121.488281 C 141.089844 122.042969 149.996094 144.273438 149.996094 144.273438 L 163.355469 144.273438 L 173.929688 141.492188 L 168.921875 129.269531 C 168.921875 129.269531 162.242188 120.375 167.25 113.152344 C 172.261719 105.925781 147.769531 108.148438 147.769531 108.148438 Z M 147.769531 108.148438 "/>
<use xlink:href="#surface8" mask="url(#mask1)"/>
<path style=" stroke:none;fill-rule:nonzero;fill:rgb(18.431373%,18.039216%,25.490196%);fill-opacity:1;" d="M 119.941406 205.957031 C 119.941406 205.957031 105.472656 233.742188 117.160156 239.300781 C 128.847656 244.855469 131.628906 244.300781 131.628906 245.96875 C 131.628906 247.636719 129.402344 247.078125 130.515625 249.859375 C 131.628906 252.636719 128.289062 263.75 131.628906 270.421875 C 134.96875 277.089844 133.855469 282.089844 133.855469 282.089844 C 133.855469 282.089844 133.855469 282.644531 134.96875 284.867188 C 136.082031 287.089844 136.640625 288.757812 136.082031 289.871094 C 135.527344 290.980469 132.1875 298.207031 135.527344 299.875 C 138.867188 301.539062 156.121094 302.652344 157.789062 299.875 C 159.457031 297.09375 156.121094 295.425781 157.789062 293.761719 C 159.457031 292.09375 160.570312 291.539062 159.457031 290.425781 C 158.34375 289.316406 157.230469 275.421875 157.230469 275.421875 C 157.230469 275.421875 160.015625 259.304688 158.902344 257.082031 C 157.789062 254.859375 156.121094 252.636719 157.230469 250.96875 C 158.34375 249.304688 159.457031 249.859375 160.015625 247.636719 C 160.570312 245.414062 161.683594 240.410156 161.683594 240.410156 L 167.808594 239.855469 L 182.277344 242.632812 C 182.277344 242.632812 198.417969 260.417969 216.230469 265.972656 C 216.230469 265.972656 221.238281 270.976562 222.910156 270.976562 C 224.578125 270.976562 224.578125 270.976562 224.019531 272.085938 C 223.464844 273.199219 221.796875 273.199219 222.910156 274.308594 C 224.019531 275.421875 225.691406 273.753906 224.578125 275.421875 C 223.464844 277.089844 222.351562 277.089844 223.464844 278.199219 C 224.578125 279.3125 222.910156 285.425781 222.910156 285.980469 C 222.910156 286.535156 217.898438 338.773438 219.570312 339.886719 C 221.238281 340.996094 244.613281 344.332031 246.285156 339.886719 C 247.953125 335.4375 245.171875 329.882812 245.171875 329.882812 C 245.171875 329.882812 253.519531 263.195312 251.292969 258.75 C 249.066406 254.304688 241.273438 234.296875 199.53125 221.515625 C 199.53125 221.515625 187.84375 219.292969 187.84375 217.625 C 187.84375 215.960938 186.730469 205.402344 184.503906 204.84375 C 182.277344 204.289062 169.476562 203.734375 169.476562 203.734375 L 153.335938 208.734375 L 131.074219 204.84375 Z M 119.941406 205.957031 "/>
<path style=" stroke:none;fill-rule:nonzero;fill:rgb(18.431373%,18.039216%,25.490196%);fill-opacity:1;" d="M 139.421875 299.316406 L 136.640625 309.320312 C 136.640625 309.320312 134.414062 325.4375 137.195312 329.328125 C 139.382812 332.382812 143.285156 336.125 150.523438 336.78125 C 154.703125 337.164062 158.585938 334.59375 159.859375 330.601562 C 159.945312 330.371094 159.996094 330.128906 160.015625 329.882812 C 160.015625 328.769531 158.34375 315.433594 158.34375 315.433594 L 155.5625 301.539062 L 155.007812 297.648438 Z M 139.421875 299.316406 "/>
<path style=" stroke:none;fill-rule:nonzero;fill:rgb(18.431373%,18.039216%,25.490196%);fill-opacity:1;" d="M 220.683594 347.109375 C 220.683594 347.109375 217.898438 344.332031 217.34375 347.109375 C 216.785156 349.886719 214.558594 361.558594 218.457031 362.113281 C 222.351562 362.667969 259.640625 368.226562 263.539062 366.003906 C 267.433594 363.78125 274.667969 360.445312 270.21875 358.78125 C 265.765625 357.113281 252.964844 352.109375 252.964844 352.109375 C 252.964844 352.109375 245.726562 342.664062 244.613281 342.109375 C 243.5 341.550781 237.378906 342.664062 234.597656 344.886719 C 231.8125 347.109375 220.683594 347.109375 220.683594 347.109375 Z M 220.683594 347.109375 "/>
<path style=" stroke:none;fill-rule:nonzero;fill:rgb(62.745098%,38.039216%,41.568627%);fill-opacity:1;" d="M 178.382812 102.59375 C 178.382812 112.109375 170.65625 119.820312 161.128906 119.820312 C 151.597656 119.820312 143.875 112.109375 143.875 102.59375 C 143.875 93.078125 151.597656 85.367188 161.128906 85.367188 C 170.65625 85.367188 178.382812 93.078125 178.382812 102.59375 Z M 178.382812 102.59375 "/>
<path style=" stroke:none;fill-rule:nonzero;fill:rgb(34.117647%,35.294118%,53.72549%);fill-opacity:1;" d="M 159.457031 141.492188 L 152.78125 134.269531 L 145.375 119.820312 C 145.375 119.820312 139.980469 118.152344 138.867188 120.933594 C 137.753906 123.710938 117.714844 132.601562 117.714844 132.601562 C 117.714844 132.601562 122.726562 179.28125 120.5 183.726562 C 118.273438 188.171875 114.375 205.957031 117.714844 207.625 C 121.054688 209.292969 136.640625 207.625 141.648438 209.847656 C 146.65625 212.070312 161.128906 212.070312 165.023438 209.292969 C 168.921875 206.511719 170.035156 204.289062 173.929688 205.957031 C 177.246094 207.375 185 158.855469 187.234375 144.394531 C 187.617188 141.917969 186.558594 139.4375 184.5 137.996094 C 179.507812 134.5 170.511719 128.472656 168.921875 129.269531 C 166.695312 130.378906 159.457031 141.492188 159.457031 141.492188 Z M 159.457031 141.492188 "/>
<path style=" stroke:none;fill-rule:nonzero;fill:rgb(34.117647%,35.294118%,53.72549%);fill-opacity:1;" d="M 183.390625 139.269531 C 186.066406 139.9375 188.046875 142.199219 188.351562 144.9375 L 192.851562 185.394531 C 192.851562 185.394531 181.722656 209.292969 176.15625 193.175781 C 170.589844 177.058594 183.390625 139.269531 183.390625 139.269531 Z M 183.390625 139.269531 "/>
<path style=" stroke:none;fill-rule:nonzero;fill:rgb(34.117647%,35.294118%,53.72549%);fill-opacity:1;" d="M 182.277344 189.285156 L 194.523438 185.949219 C 194.523438 185.949219 196.75 201.511719 198.976562 201.511719 C 201.203125 201.511719 191.183594 210.402344 186.175781 209.292969 C 181.164062 208.179688 173.929688 204.289062 173.375 201.511719 C 172.816406 198.734375 178.382812 187.0625 178.382812 187.0625 Z M 182.277344 189.285156 "/>
<path style=" stroke:none;fill-rule:nonzero;fill:rgb(18.431373%,18.039216%,25.490196%);fill-opacity:1;" d="M 148.105469 110.023438 C 149.277344 107.441406 149.074219 104.429688 150.042969 101.761719 C 151.097656 98.871094 153.441406 96.632812 156.386719 95.71875 C 159.332031 94.804688 162.535156 95.320312 165.042969 97.105469 C 166.292969 97.992188 167.542969 99.242188 169.066406 99.074219 C 170.707031 98.890625 172.167969 97.0625 173.675781 97.734375 C 175.347656 98.476562 174.898438 101.464844 176.589844 102.15625 C 177.480469 102.519531 178.535156 101.960938 179.046875 101.148438 C 179.496094 100.292969 179.742188 99.347656 179.765625 98.382812 C 179.996094 96.011719 180.207031 93.503906 179.179688 91.355469 C 178.746094 90.625 178.367188 89.867188 178.050781 89.082031 C 177.871094 88.347656 177.796875 87.59375 177.835938 86.839844 C 177.828125 84.054688 177.621094 81.148438 176.21875 78.742188 C 174.660156 76.070312 171.78125 74.359375 168.773438 73.617188 C 165.769531 72.871094 162.621094 72.984375 159.539062 73.246094 C 154.4375 73.675781 149.117188 74.601562 145.101562 77.765625 C 144.554688 78.164062 144.085938 78.65625 143.710938 79.222656 C 143.359375 79.890625 143.109375 80.613281 142.972656 81.355469 C 142.105469 84.890625 140.800781 88.300781 139.09375 91.511719 C 138.273438 92.875 137.605469 94.324219 137.09375 95.828125 C 136.667969 97.359375 136.695312 99.105469 137.589844 100.417969 C 138.316406 101.492188 139.476562 102.0625 140.386719 102.9375 C 141.292969 103.804688 141.714844 105.472656 142.714844 106.128906 C 143.589844 106.703125 144.636719 106.300781 145.527344 106.90625 C 146.671875 107.6875 146.753906 109.398438 148.105469 110.023438 Z M 148.105469 110.023438 "/>
<path style=" stroke:none;fill-rule:nonzero;fill:rgb(94.901961%,94.901961%,94.901961%);fill-opacity:1;" d="M 162.242188 149.828125 L 163.910156 146.496094 C 163.910156 146.496094 188.402344 153.71875 193.410156 160.386719 C 193.410156 160.386719 205.65625 152.609375 212.332031 153.71875 L 219.011719 154.832031 L 198.417969 173.167969 L 172.261719 170.945312 Z M 162.242188 149.828125 "/>
<path style=" stroke:none;fill-rule:nonzero;fill:rgb(100%,100%,100%);fill-opacity:1;" d="M 161.128906 146.496094 L 138.308594 178.171875 L 171.148438 194.285156 C 171.148438 194.285156 174.214844 195.953125 176.578125 194.285156 L 198.417969 184.285156 L 219.011719 154.832031 L 198.417969 165.390625 C 198.417969 165.390625 196.191406 160.945312 191.738281 163.167969 Z M 161.128906 146.496094 "/>
<path style=" stroke:none;fill-rule:nonzero;fill:rgb(62.745098%,38.039216%,41.568627%);fill-opacity:1;" d="M 196.191406 202.621094 L 200.644531 190.953125 C 200.644531 190.953125 210.664062 178.171875 205.097656 172.058594 C 199.53125 165.945312 193.410156 189.839844 193.410156 189.839844 Z M 196.191406 202.621094 "/>
<path style=" stroke:none;fill-rule:nonzero;fill:rgb(62.745098%,38.039216%,41.568627%);fill-opacity:1;" d="M 144.820312 200.761719 L 154.535156 192.894531 C 154.535156 192.894531 169.625 186.859375 167.882812 178.78125 C 166.136719 170.707031 148.835938 188.308594 148.835938 188.308594 Z M 144.820312 200.761719 "/>
<use xlink:href="#surface11" mask="url(#mask2)"/>
<path style=" stroke:none;fill-rule:nonzero;fill:rgb(34.117647%,35.294118%,53.72549%);fill-opacity:1;" d="M 119.941406 133.714844 L 117.714844 132.601562 C 117.714844 132.601562 108.808594 134.269531 107.140625 148.160156 C 105.472656 162.054688 99.90625 208.179688 114.375 209.847656 C 128.847656 211.515625 148.328125 207.625 148.328125 207.625 C 148.328125 207.625 152.222656 186.507812 148.328125 186.507812 C 144.429688 186.507812 124.394531 189.285156 124.949219 186.507812 C 125.507812 183.726562 135.527344 137.601562 119.941406 133.714844 Z M 119.941406 133.714844 "/>
<path style=" stroke:none;fill-rule:nonzero;fill:rgb(34.117647%,35.294118%,53.72549%);fill-opacity:1;" d="M 188.121094 196.230469 L 194.257812 186.839844 L 198.140625 202.34375 L 188.121094 206.789062 Z M 188.121094 196.230469 "/>
<path style=" stroke:none;fill-rule:nonzero;fill:rgb(94.901961%,94.901961%,94.901961%);fill-opacity:1;" d="M 77.070312 47.300781 C 77.070312 55.585938 70.34375 62.304688 62.042969 62.304688 C 53.742188 62.304688 47.015625 55.585938 47.015625 47.300781 C 47.015625 39.011719 53.742188 32.292969 62.042969 32.292969 C 70.34375 32.292969 77.070312 39.011719 77.070312 47.300781 Z M 77.070312 47.300781 "/>
<path style=" stroke:none;fill-rule:nonzero;fill:rgb(94.901961%,94.901961%,94.901961%);fill-opacity:1;" d="M 44.234375 159 L 79.855469 159 L 79.855469 194.566406 L 44.234375 194.566406 Z M 44.234375 159 "/>
<path style=" stroke:none;fill-rule:nonzero;fill:rgb(94.901961%,94.901961%,94.901961%);fill-opacity:1;" d="M 207.046875 0 L 216.0625 15.589844 L 225.078125 31.183594 L 189.015625 31.183594 L 198.03125 15.589844 Z M 207.046875 0 "/>
<path style=" stroke:none;fill-rule:nonzero;fill:rgb(100%,100%,100%);fill-opacity:1;" d="M 364.132812 93.488281 C 363.917969 100.140625 362.292969 105.472656 359.265625 109.484375 C 356.234375 113.496094 352.636719 115.5 348.464844 115.503906 C 345.070312 115.503906 342.09375 113.539062 339.539062 109.613281 C 336.980469 105.6875 335.699219 99.644531 335.703125 91.492188 C 335.703125 89.691406 335.746094 87.972656 335.832031 86.34375 C 335.914062 84.710938 336.023438 83.167969 336.152344 81.707031 L 338.410156 60.53125 L 323.515625 60.53125 C 320.9375 87.308594 318.820312 103.238281 317.167969 108.324219 C 315.511719 113.410156 312.707031 115.953125 308.753906 115.953125 C 306.96875 115.910156 305.265625 115.195312 303.984375 113.957031 C 302.476562 112.625 301.648438 110.6875 301.726562 108.679688 C 301.726562 106.707031 303.285156 103.949219 306.402344 100.40625 C 309.515625 96.867188 311.246094 93.636719 311.589844 90.71875 L 315.457031 60.53125 L 309.203125 60.53125 C 307.441406 60.542969 305.707031 60.972656 304.144531 61.785156 C 302.707031 62.445312 301.453125 63.453125 300.5 64.714844 L 297.730469 68.835938 L 295.472656 68.835938 C 297.578125 62.3125 300.167969 57.410156 303.242188 54.125 C 306.3125 50.84375 309.847656 49.203125 313.847656 49.203125 L 363.101562 49.203125 L 363.101562 60.53125 L 346.46875 60.53125 C 345.953125 65.679688 345.554688 70.832031 345.273438 75.980469 C 344.996094 81.128906 344.855469 86.300781 344.855469 91.492188 C 344.855469 95.011719 345.671875 97.867188 347.304688 100.054688 C 348.9375 102.242188 350.980469 103.335938 353.429688 103.335938 C 354.933594 103.335938 356.511719 102.726562 358.167969 101.5 C 359.757812 100.386719 360.78125 98.636719 360.972656 96.707031 C 361.101562 95.761719 361.199219 95.023438 361.261719 94.484375 C 361.328125 93.949219 361.359375 93.617188 361.359375 93.488281 Z M 364.132812 93.488281 "/>
<use xlink:href="#surface14" mask="url(#mask3)"/>
<path style=" stroke:none;fill-rule:nonzero;fill:rgb(100%,100%,100%);fill-opacity:1;" d="M 364.132812 91.476562 C 363.917969 98.128906 362.292969 103.460938 359.265625 107.472656 C 356.234375 111.484375 352.636719 113.492188 348.464844 113.492188 C 345.070312 113.492188 342.09375 111.527344 339.539062 107.601562 C 336.980469 103.675781 335.699219 97.632812 335.703125 89.480469 C 335.703125 87.679688 335.746094 85.960938 335.832031 84.332031 C 335.914062 82.703125 336.023438 81.15625 336.152344 79.699219 L 338.410156 58.519531 L 323.515625 58.519531 C 320.9375 85.296875 318.820312 101.230469 317.167969 106.3125 C 315.511719 111.398438 312.707031 113.941406 308.753906 113.941406 C 306.96875 113.898438 305.265625 113.183594 303.984375 111.945312 C 302.476562 110.613281 301.648438 108.675781 301.726562 106.667969 C 301.726562 104.695312 303.285156 101.9375 306.402344 98.398438 C 309.515625 94.855469 311.246094 91.628906 311.589844 88.710938 L 315.457031 58.519531 L 309.203125 58.519531 C 307.441406 58.53125 305.707031 58.960938 304.144531 59.773438 C 302.707031 60.433594 301.453125 61.441406 300.5 62.703125 L 297.730469 66.824219 L 295.472656 66.824219 C 297.578125 60.300781 300.167969 55.398438 303.242188 52.117188 C 306.3125 48.832031 309.847656 47.191406 313.847656 47.191406 L 363.101562 47.191406 L 363.101562 58.519531 L 346.46875 58.519531 C 345.953125 63.667969 345.554688 68.820312 345.273438 73.96875 C 344.996094 79.117188 344.855469 84.289062 344.855469 89.480469 C 344.855469 93 345.671875 95.855469 347.304688 98.042969 C 348.9375 100.230469 350.980469 101.324219 353.429688 101.324219 C 354.933594 101.324219 356.511719 100.714844 358.167969 99.492188 C 359.757812 98.375 360.78125 96.625 360.972656 94.695312 C 361.101562 93.75 361.199219 93.011719 361.261719 92.472656 C 361.328125 91.9375 361.359375 91.605469 361.359375 91.476562 Z M 364.132812 91.476562 "/>
</g>
</svg>
