<?xml version="1.0" encoding="UTF-8"?>
<svg xmlns="http://www.w3.org/2000/svg" xmlns:xlink="http://www.w3.org/1999/xlink" width="260px" height="220px" viewBox="0 0 260 220" version="1.1">
<defs>
<filter id="alpha" filterUnits="objectBoundingBox" x="0%" y="0%" width="100%" height="100%">
  <feColorMatrix type="matrix" in="SourceGraphic" values="0 0 0 0 1 0 0 0 0 1 0 0 0 0 1 0 0 0 1 0"/>
</filter>
<mask id="mask0">
  <g filter="url(#alpha)">
<rect x="0" y="0" width="260" height="220" style="fill:rgb(0%,0%,0%);fill-opacity:0.14902;stroke:none;"/>
  </g>
</mask>
<clipPath id="clip1">
  <rect x="0" y="0" width="260" height="220"/>
</clipPath>
<g id="surface5" clip-path="url(#clip1)">
<path style=" stroke:none;fill-rule:nonzero;fill:rgb(0%,0%,0%);fill-opacity:1;" d="M 30.242188 133.578125 C 30.699219 130.394531 28.925781 123.511719 25.621094 118.976562 C 22.3125 114.441406 16.605469 110.773438 12.058594 111.589844 C 7.820312 112.34375 7.613281 116.902344 12.109375 120.386719 C 16.609375 123.875 23.484375 128.40625 24.90625 133.796875 L 28.546875 140.605469 Z M 30.242188 133.578125 "/>
</g>
<mask id="mask1">
  <g filter="url(#alpha)">
<rect x="0" y="0" width="260" height="220" style="fill:rgb(0%,0%,0%);fill-opacity:0.14902;stroke:none;"/>
  </g>
</mask>
<clipPath id="clip2">
  <rect x="0" y="0" width="260" height="220"/>
</clipPath>
<g id="surface8" clip-path="url(#clip2)">
<path style=" stroke:none;fill-rule:nonzero;fill:rgb(0%,0%,0%);fill-opacity:1;" d="M 230.027344 134.109375 C 230.027344 134.109375 229.585938 128.335938 231.972656 123.4375 C 234.359375 118.539062 238.347656 115.109375 242.546875 114.171875 C 246.75 113.234375 250.898438 116.03125 246.824219 119.011719 C 242.746094 121.988281 235.144531 125.539062 233.226562 134.640625 Z M 230.027344 134.109375 "/>
</g>
<mask id="mask2">
  <g filter="url(#alpha)">
<rect x="0" y="0" width="260" height="220" style="fill:rgb(0%,0%,0%);fill-opacity:0.14902;stroke:none;"/>
  </g>
</mask>
<clipPath id="clip3">
  <rect x="0" y="0" width="260" height="220"/>
</clipPath>
<g id="surface11" clip-path="url(#clip3)">
<path style=" stroke:none;fill-rule:nonzero;fill:rgb(0%,0%,0%);fill-opacity:1;" d="M 130.066406 121.105469 L 130.066406 152.5625 L 191.417969 167.613281 L 191.417969 136.164062 Z M 130.066406 121.105469 "/>
</g>
<mask id="mask3">
  <g filter="url(#alpha)">
<rect x="0" y="0" width="260" height="220" style="fill:rgb(0%,0%,0%);fill-opacity:0.2;stroke:none;"/>
  </g>
</mask>
<clipPath id="clip4">
  <rect x="0" y="0" width="260" height="220"/>
</clipPath>
<g id="surface14" clip-path="url(#clip4)">
<path style=" stroke:none;fill-rule:nonzero;fill:rgb(0%,0%,0%);fill-opacity:1;" d="M 83.398438 98.308594 L 83.398438 129.761719 L 130.066406 152.5625 L 130.066406 121.105469 Z M 83.398438 98.308594 "/>
</g>
<mask id="mask4">
  <g filter="url(#alpha)">
<rect x="0" y="0" width="260" height="220" style="fill:rgb(0%,0%,0%);fill-opacity:0.301961;stroke:none;"/>
  </g>
</mask>
<clipPath id="clip5">
  <rect x="0" y="0" width="260" height="220"/>
</clipPath>
<g id="surface17" clip-path="url(#clip5)">
<path style=" stroke:none;fill-rule:nonzero;fill:rgb(0%,0%,0%);fill-opacity:1;" d="M 191.417969 167.613281 C 195.472656 163.425781 197.367188 158.917969 197.367188 154.414062 L 197.367188 122.960938 C 197.367188 127.46875 195.472656 131.972656 191.417969 136.164062 Z M 191.417969 167.613281 "/>
</g>
<mask id="mask5">
  <g filter="url(#alpha)">
<rect x="0" y="0" width="260" height="220" style="fill:rgb(0%,0%,0%);fill-opacity:0.301961;stroke:none;"/>
  </g>
</mask>
<clipPath id="clip6">
  <rect x="0" y="0" width="260" height="220"/>
</clipPath>
<g id="surface20" clip-path="url(#clip6)">
<path style=" stroke:none;fill-rule:nonzero;fill:rgb(0%,0%,0%);fill-opacity:1;" d="M 94.640625 165.039062 C 89.585938 163.636719 85.457031 161.582031 81.121094 159.503906 C 59.15625 148.945312 55.640625 127.300781 78.707031 114.8125 L 123.914062 136.792969 Z M 94.640625 165.039062 "/>
</g>
<mask id="mask6">
  <g filter="url(#alpha)">
<rect x="0" y="0" width="260" height="220" style="fill:rgb(0%,0%,0%);fill-opacity:0.501961;stroke:none;"/>
  </g>
</mask>
<clipPath id="clip7">
  <rect x="0" y="0" width="260" height="220"/>
</clipPath>
<g id="surface23" clip-path="url(#clip7)">
<path style=" stroke:none;fill-rule:nonzero;fill:rgb(0%,0%,0%);fill-opacity:1;" d="M 123.941406 136.792969 L 94.652344 165.039062 L 94.652344 182.476562 L 123.941406 154.230469 Z M 123.941406 136.792969 "/>
</g>
<mask id="mask7">
  <g filter="url(#alpha)">
<rect x="0" y="0" width="260" height="220" style="fill:rgb(0%,0%,0%);fill-opacity:0.4;stroke:none;"/>
  </g>
</mask>
<clipPath id="clip8">
  <rect x="0" y="0" width="260" height="220"/>
</clipPath>
<g id="surface26" clip-path="url(#clip8)">
<path style=" stroke:none;fill-rule:nonzero;fill:rgb(0%,0%,0%);fill-opacity:1;" d="M 94.640625 182.476562 C 89.585938 181.074219 85.457031 179.019531 81.121094 176.941406 C 69.421875 171.320312 62.953125 162.550781 62.953125 153.695312 L 62.953125 136.164062 C 62.953125 145.015625 69.421875 153.785156 81.121094 159.40625 C 85.441406 161.484375 89.570312 163.539062 94.640625 164.941406 Z M 94.640625 182.476562 "/>
</g>
<mask id="mask8">
  <g filter="url(#alpha)">
<rect x="0" y="0" width="260" height="220" style="fill:rgb(0%,0%,0%);fill-opacity:0.701961;stroke:none;"/>
  </g>
</mask>
<clipPath id="clip9">
  <rect x="0" y="0" width="260" height="220"/>
</clipPath>
<g id="surface29" clip-path="url(#clip9)">
<path style=" stroke:none;fill-rule:nonzero;fill:rgb(100%,100%,100%);fill-opacity:1;" d="M 156.488281 172.796875 C 139.089844 176.878906 117.835938 176.125 100.359375 172.039062 L 128.066406 145.515625 Z M 156.488281 172.796875 "/>
</g>
<mask id="mask9">
  <g filter="url(#alpha)">
<rect x="0" y="0" width="260" height="220" style="fill:rgb(0%,0%,0%);fill-opacity:0.501961;stroke:none;"/>
  </g>
</mask>
<clipPath id="clip10">
  <rect x="0" y="0" width="260" height="220"/>
</clipPath>
<g id="surface32" clip-path="url(#clip10)">
<path style=" stroke:none;fill-rule:nonzero;fill:rgb(100%,100%,100%);fill-opacity:1;" d="M 100.359375 184.066406 C 117.84375 188.144531 139.09375 188.90625 156.519531 184.816406 L 156.519531 172.796875 C 139.089844 176.878906 117.835938 176.125 100.359375 172.039062 Z M 100.359375 184.066406 "/>
</g>
<mask id="mask10">
  <g filter="url(#alpha)">
<rect x="0" y="0" width="260" height="220" style="fill:rgb(0%,0%,0%);fill-opacity:0.101961;stroke:none;"/>
  </g>
</mask>
<clipPath id="clip11">
  <rect x="0" y="0" width="260" height="220"/>
</clipPath>
<g id="surface35" clip-path="url(#clip11)">
<path style=" stroke:none;fill-rule:nonzero;fill:rgb(0%,0%,0%);fill-opacity:1;" d="M 194.847656 84.054688 L 210.292969 84.949219 L 213.210938 99.96875 L 198.566406 98.789062 Z M 194.847656 84.054688 "/>
</g>
<mask id="mask11">
  <g filter="url(#alpha)">
<rect x="0" y="0" width="260" height="220" style="fill:rgb(0%,0%,0%);fill-opacity:0.14902;stroke:none;"/>
  </g>
</mask>
<clipPath id="clip12">
  <rect x="0" y="0" width="260" height="220"/>
</clipPath>
<g id="surface38" clip-path="url(#clip12)">
<path style=" stroke:none;fill-rule:nonzero;fill:rgb(0%,0%,0%);fill-opacity:1;" d="M 206.828125 93.773438 C 206.738281 94.070312 206.96875 94.5 207.671875 95.003906 C 208.238281 95.414062 208.609375 96.125 209.574219 96.324219 C 211.542969 96.730469 212.535156 96.496094 212.535156 96.496094 L 212.140625 94.441406 Z M 206.828125 93.773438 "/>
</g>
<mask id="mask12">
  <g filter="url(#alpha)">
<rect x="0" y="0" width="260" height="220" style="fill:rgb(0%,0%,0%);fill-opacity:0.14902;stroke:none;"/>
  </g>
</mask>
<clipPath id="clip13">
  <rect x="0" y="0" width="260" height="220"/>
</clipPath>
<g id="surface41" clip-path="url(#clip13)">
<path style=" stroke:none;fill-rule:nonzero;fill:rgb(0%,0%,0%);fill-opacity:1;" d="M 199.226562 85.613281 C 199.226562 85.613281 199.191406 85.410156 199.148438 85.152344 C 199.109375 84.898438 200.039062 84.738281 201.230469 84.804688 L 203.507812 84.933594 C 204.699219 84.996094 205.695312 85.257812 205.738281 85.515625 L 205.8125 85.976562 Z M 199.226562 85.613281 "/>
</g>
</defs>
<g id="surface1">
<path style=" stroke:none;fill-rule:nonzero;fill:rgb(96.078431%,96.078431%,96.078431%);fill-opacity:1;" d="M 250.394531 151.332031 C 250.394531 119.710938 196.492188 94.078125 130 94.078125 C 63.507812 94.078125 9.605469 119.710938 9.605469 151.332031 C 9.605469 182.957031 63.507812 208.589844 130 208.589844 C 196.492188 208.589844 250.394531 182.957031 250.394531 151.332031 Z M 250.394531 151.332031 "/>
<path style=" stroke:none;fill-rule:nonzero;fill:rgb(87.843137%,87.843137%,87.843137%);fill-opacity:1;" d="M 66.179688 147.496094 C 66.179688 140.851562 55.15625 135.46875 41.554688 135.46875 C 27.953125 135.46875 16.925781 140.851562 16.925781 147.496094 C 16.925781 154.140625 27.953125 159.527344 41.554688 159.527344 C 55.15625 159.527344 66.179688 154.140625 66.179688 147.496094 Z M 66.179688 147.496094 "/>
<path style=" stroke:none;fill-rule:nonzero;fill:rgb(87.843137%,87.843137%,87.843137%);fill-opacity:1;" d="M 243.613281 147.496094 C 243.613281 140.851562 232.589844 135.46875 218.988281 135.46875 C 205.386719 135.46875 194.359375 140.851562 194.359375 147.496094 C 194.359375 154.140625 205.386719 159.527344 218.988281 159.527344 C 232.589844 159.527344 243.613281 154.140625 243.613281 147.496094 Z M 243.613281 147.496094 "/>
<path style=" stroke:none;fill-rule:nonzero;fill:rgb(87.843137%,87.843137%,87.843137%);fill-opacity:1;" d="M 205.269531 157.820312 C 205.269531 137.558594 171.648438 121.132812 130.171875 121.132812 C 88.695312 121.132812 55.074219 137.558594 55.074219 157.820312 C 55.074219 178.082031 88.695312 194.507812 130.171875 194.507812 C 171.648438 194.507812 205.269531 178.082031 205.269531 157.820312 Z M 205.269531 157.820312 "/>
<path style=" stroke:none;fill-rule:nonzero;fill:rgb(14.901961%,19.607843%,21.960784%);fill-opacity:1;" d="M 30.242188 133.578125 C 30.699219 130.394531 28.925781 123.511719 25.621094 118.976562 C 22.3125 114.441406 16.605469 110.773438 12.058594 111.589844 C 7.820312 112.34375 7.613281 116.902344 12.109375 120.386719 C 16.609375 123.875 23.484375 128.40625 24.90625 133.796875 L 28.546875 140.605469 Z M 30.242188 133.578125 "/>
<use xlink:href="#surface5" mask="url(#mask0)"/>
<path style=" stroke:none;fill-rule:nonzero;fill:rgb(100%,100%,100%);fill-opacity:1;" d="M 29.890625 137.964844 C 29.769531 137.945312 29.679688 137.859375 29.671875 137.753906 C 28.714844 126.617188 19.59375 116.707031 13.65625 114.113281 C 13.589844 114.085938 13.539062 114.035156 13.515625 113.976562 C 13.496094 113.917969 13.5 113.851562 13.535156 113.796875 C 13.570312 113.742188 13.628906 113.699219 13.699219 113.679688 C 13.769531 113.660156 13.84375 113.667969 13.910156 113.695312 C 19.960938 116.335938 29.253906 126.417969 30.222656 137.71875 C 30.230469 137.847656 30.117188 137.960938 29.96875 137.972656 Z M 29.890625 137.964844 "/>
<path style=" stroke:none;fill-rule:nonzero;fill:rgb(14.901961%,19.607843%,21.960784%);fill-opacity:1;" d="M 26.972656 144.730469 C 26.625 142.875 24.464844 139.65625 20.640625 136.78125 C 16.402344 133.605469 10.726562 131.757812 9.683594 129.519531 C 8.425781 126.824219 11.285156 124.699219 15.964844 125.691406 C 20.644531 126.679688 28.203125 133.023438 28.351562 141.421875 Z M 26.972656 144.730469 "/>
<path style=" stroke:none;fill-rule:nonzero;fill:rgb(100%,100%,100%);fill-opacity:1;" d="M 28.164062 142.941406 C 28.054688 142.925781 27.972656 142.855469 27.945312 142.765625 C 25.34375 133.042969 17.421875 128.90625 13.59375 128.078125 C 13.445312 128.046875 13.355469 127.917969 13.390625 127.792969 C 13.40625 127.734375 13.453125 127.679688 13.515625 127.648438 C 13.578125 127.617188 13.65625 127.605469 13.726562 127.621094 C 17.960938 128.542969 25.832031 132.738281 28.484375 142.660156 C 28.503906 142.722656 28.492188 142.785156 28.453125 142.839844 C 28.414062 142.894531 28.351562 142.929688 28.277344 142.941406 C 28.238281 142.953125 28.199219 142.953125 28.164062 142.941406 Z M 28.164062 142.941406 "/>
<path style=" stroke:none;fill-rule:nonzero;fill:rgb(14.901961%,19.607843%,21.960784%);fill-opacity:1;" d="M 230.027344 134.109375 C 230.027344 134.109375 229.585938 128.335938 231.972656 123.4375 C 234.359375 118.539062 238.347656 115.109375 242.546875 114.171875 C 246.75 113.234375 250.898438 116.03125 246.824219 119.011719 C 242.746094 121.988281 235.144531 125.539062 233.226562 134.640625 Z M 230.027344 134.109375 "/>
<use xlink:href="#surface8" mask="url(#mask1)"/>
<path style=" stroke:none;fill-rule:nonzero;fill:rgb(100%,100%,100%);fill-opacity:1;" d="M 230.964844 132.441406 L 230.917969 132.441406 C 230.792969 132.414062 230.714844 132.3125 230.738281 132.207031 C 233.242188 122.148438 240.96875 116.929688 244.707031 115.574219 C 244.785156 115.535156 244.882812 115.539062 244.957031 115.582031 C 245.035156 115.625 245.074219 115.699219 245.058594 115.777344 C 245.042969 115.851562 244.976562 115.914062 244.890625 115.9375 C 241.25 117.253906 233.652344 122.386719 231.191406 132.285156 C 231.164062 132.375 231.070312 132.4375 230.964844 132.441406 Z M 230.964844 132.441406 "/>
<path style=" stroke:none;fill-rule:nonzero;fill:rgb(14.901961%,19.607843%,21.960784%);fill-opacity:1;" d="M 251.644531 127.496094 C 251.4375 128.246094 250.605469 128.753906 249.855469 129.171875 C 249.105469 129.589844 248.253906 130.050781 247.953125 130.761719 C 247.34375 132.234375 249.25 133.84375 248.570312 135.304688 C 248.230469 135.898438 247.613281 136.347656 246.871094 136.550781 C 246.265625 136.722656 245.648438 136.871094 245.023438 136.988281 C 244.722656 137.035156 244.417969 137.0625 244.113281 137.078125 C 243.207031 137.050781 242.316406 137.28125 241.582031 137.730469 C 240.46875 138.519531 240.386719 139.929688 239.867188 141.058594 C 239.195312 142.4375 237.847656 143.496094 236.179688 143.960938 C 234.800781 144.34375 232.628906 144.398438 232.144531 143.960938 C 231.78125 143.597656 232.332031 142.257812 232.242188 141.789062 C 232.019531 140.589844 231.929688 139.378906 231.976562 138.164062 C 232.023438 137.613281 231.992188 137.054688 231.882812 136.511719 C 231.738281 135.902344 231.601562 135.292969 231.46875 134.679688 C 231.332031 134.066406 231.027344 133.53125 231.15625 132.824219 C 231.316406 132.148438 231.59375 131.5 231.980469 130.894531 C 232.335938 130.289062 232.691406 129.6875 233.054688 129.082031 C 233.453125 128.359375 233.953125 127.683594 234.550781 127.066406 C 235.648438 126.019531 237.210938 125.402344 238.867188 125.363281 C 240.21875 125.339844 241.640625 125.757812 242.980469 125.484375 C 244.320312 125.210938 245.503906 124.714844 246.863281 124.578125 C 248.3125 124.378906 249.785156 124.753906 250.863281 125.59375 C 251.480469 126.078125 251.773438 126.789062 251.644531 127.496094 Z M 251.644531 127.496094 "/>
<path style=" stroke:none;fill-rule:nonzero;fill:rgb(100%,100%,100%);fill-opacity:1;" d="M 232.636719 140.800781 C 232.582031 140.796875 232.535156 140.773438 232.5 140.742188 C 232.464844 140.707031 232.445312 140.660156 232.449219 140.613281 C 233.375 129.722656 245.96875 126.136719 249.011719 125.832031 C 249.125 125.824219 249.226562 125.890625 249.242188 125.984375 C 249.246094 126.03125 249.230469 126.078125 249.195312 126.113281 C 249.164062 126.148438 249.113281 126.171875 249.058594 126.175781 C 246.0625 126.472656 233.765625 129.980469 232.859375 140.640625 C 232.847656 140.734375 232.75 140.804688 232.636719 140.800781 Z M 232.636719 140.800781 "/>
<path style=" stroke:none;fill-rule:nonzero;fill:rgb(100%,100%,100%);fill-opacity:1;" d="M 245.792969 133.238281 C 245.753906 133.234375 245.714844 133.222656 245.679688 133.207031 C 242.867188 131.824219 239.46875 131.574219 236.417969 132.527344 C 236.367188 132.542969 236.3125 132.539062 236.261719 132.519531 C 236.214844 132.5 236.175781 132.464844 236.15625 132.421875 C 236.121094 132.332031 236.179688 132.234375 236.28125 132.203125 C 239.457031 131.210938 242.988281 131.476562 245.90625 132.917969 C 245.984375 132.960938 246.019531 133.039062 245.992188 133.113281 C 245.96875 133.1875 245.886719 133.238281 245.792969 133.238281 Z M 245.792969 133.238281 "/>
<path style=" stroke:none;fill-rule:nonzero;fill:rgb(14.901961%,19.607843%,21.960784%);fill-opacity:1;" d="M 130.066406 121.105469 L 83.398438 98.308594 C 103.15625 88.777344 134.175781 85.925781 159.757812 92.320312 C 191.363281 100.242188 206.660156 120.421875 191.417969 136.164062 Z M 130.066406 121.105469 "/>
<path style=" stroke:none;fill-rule:nonzero;fill:rgb(14.901961%,19.607843%,21.960784%);fill-opacity:1;" d="M 130.066406 121.105469 L 130.066406 152.5625 L 191.417969 167.613281 L 191.417969 136.164062 Z M 130.066406 121.105469 "/>
<use xlink:href="#surface11" mask="url(#mask2)"/>
<path style=" stroke:none;fill-rule:nonzero;fill:rgb(14.901961%,19.607843%,21.960784%);fill-opacity:1;" d="M 83.398438 98.308594 L 83.398438 129.761719 L 130.066406 152.5625 L 130.066406 121.105469 Z M 83.398438 98.308594 "/>
<use xlink:href="#surface14" mask="url(#mask3)"/>
<path style=" stroke:none;fill-rule:nonzero;fill:rgb(14.901961%,19.607843%,21.960784%);fill-opacity:1;" d="M 191.417969 167.613281 C 195.472656 163.425781 197.367188 158.917969 197.367188 154.414062 L 197.367188 122.960938 C 197.367188 127.46875 195.472656 131.972656 191.417969 136.164062 Z M 191.417969 167.613281 "/>
<use xlink:href="#surface17" mask="url(#mask4)"/>
<path style=" stroke:none;fill-rule:nonzero;fill:rgb(27.058824%,35.294118%,39.215686%);fill-opacity:1;" d="M 177.992188 150.277344 C 173.0625 152.660156 167.886719 154.648438 162.527344 156.226562 L 135.777344 130.5625 L 188.269531 143.617188 C 185.21875 146.222656 181.761719 148.464844 177.992188 150.277344 Z M 177.992188 150.277344 "/>
<path style=" stroke:none;fill-rule:nonzero;fill:rgb(14.901961%,19.607843%,21.960784%);fill-opacity:1;" d="M 135.777344 130.5625 L 135.777344 157.683594 L 162.527344 183.34375 L 162.527344 156.226562 Z M 135.777344 130.5625 "/>
<path style=" stroke:none;fill-rule:nonzero;fill:rgb(21.568627%,27.843137%,30.980392%);fill-opacity:1;" d="M 162.527344 183.34375 C 167.886719 181.769531 173.0625 179.777344 177.992188 177.394531 C 181.761719 175.578125 185.21875 173.332031 188.269531 170.71875 L 188.269531 143.617188 C 185.21875 146.222656 181.761719 148.464844 177.992188 150.277344 C 173.0625 152.660156 167.886719 154.648438 162.527344 156.226562 Z M 162.527344 183.34375 "/>
<path style=" stroke:none;fill-rule:nonzero;fill:rgb(14.901961%,19.607843%,21.960784%);fill-opacity:1;" d="M 94.640625 165.039062 C 89.585938 163.636719 85.457031 161.582031 81.121094 159.503906 C 59.15625 148.945312 55.640625 127.300781 78.707031 114.8125 L 123.914062 136.792969 Z M 94.640625 165.039062 "/>
<use xlink:href="#surface20" mask="url(#mask5)"/>
<path style=" stroke:none;fill-rule:nonzero;fill:rgb(14.901961%,19.607843%,21.960784%);fill-opacity:1;" d="M 123.941406 136.792969 L 94.652344 165.039062 L 94.652344 182.476562 L 123.941406 154.230469 Z M 123.941406 136.792969 "/>
<use xlink:href="#surface23" mask="url(#mask6)"/>
<path style=" stroke:none;fill-rule:nonzero;fill:rgb(14.901961%,19.607843%,21.960784%);fill-opacity:1;" d="M 94.640625 182.476562 C 89.585938 181.074219 85.457031 179.019531 81.121094 176.941406 C 69.421875 171.320312 62.953125 162.550781 62.953125 153.695312 L 62.953125 136.164062 C 62.953125 145.015625 69.421875 153.785156 81.121094 159.40625 C 85.441406 161.484375 89.570312 163.539062 94.640625 164.941406 Z M 94.640625 182.476562 "/>
<use xlink:href="#surface26" mask="url(#mask7)"/>
<path style=" stroke:none;fill-rule:nonzero;fill:rgb(14.901961%,19.607843%,21.960784%);fill-opacity:1;" d="M 156.488281 172.796875 C 139.089844 176.878906 117.835938 176.125 100.359375 172.039062 L 128.066406 145.515625 Z M 156.488281 172.796875 "/>
<use xlink:href="#surface29" mask="url(#mask8)"/>
<path style=" stroke:none;fill-rule:nonzero;fill:rgb(14.901961%,19.607843%,21.960784%);fill-opacity:1;" d="M 100.359375 184.066406 C 117.84375 188.144531 139.09375 188.90625 156.519531 184.816406 L 156.519531 172.796875 C 139.089844 176.878906 117.835938 176.125 100.359375 172.039062 Z M 100.359375 184.066406 "/>
<use xlink:href="#surface32" mask="url(#mask9)"/>
<path style=" stroke:none;fill-rule:nonzero;fill:rgb(14.901961%,19.607843%,21.960784%);fill-opacity:1;" d="M 92.425781 139.871094 C 92.425781 141.046875 91.296875 142 89.90625 142 C 88.519531 142 87.390625 141.046875 87.390625 139.871094 C 87.390625 138.695312 88.519531 137.742188 89.90625 137.742188 C 91.296875 137.742188 92.425781 138.695312 92.425781 139.871094 Z M 92.425781 139.871094 "/>
<path style=" stroke:none;fill-rule:nonzero;fill:rgb(14.901961%,19.607843%,21.960784%);fill-opacity:1;" d="M 89.90625 140.136719 C 89.847656 140.136719 89.792969 140.121094 89.742188 140.097656 L 62.3125 125.398438 L 55.03125 125.398438 C 54.859375 125.398438 54.71875 125.28125 54.71875 125.136719 C 54.71875 124.988281 54.859375 124.871094 55.03125 124.871094 L 62.398438 124.871094 C 62.460938 124.871094 62.515625 124.886719 62.566406 124.914062 L 90.074219 139.664062 C 90.144531 139.703125 90.191406 139.761719 90.210938 139.828125 C 90.226562 139.894531 90.210938 139.96875 90.167969 140.027344 C 90.109375 140.097656 90.011719 140.140625 89.90625 140.136719 Z M 89.90625 140.136719 "/>
<path style=" stroke:none;fill-rule:nonzero;fill:rgb(14.901961%,19.607843%,21.960784%);fill-opacity:1;" d="M 158.429688 142.046875 C 158.429688 143.222656 159.554688 144.175781 160.945312 144.175781 C 162.335938 144.175781 163.460938 143.222656 163.460938 142.046875 C 163.460938 140.867188 162.335938 139.914062 160.945312 139.914062 C 159.554688 139.914062 158.429688 140.867188 158.429688 142.046875 Z M 158.429688 142.046875 "/>
<path style=" stroke:none;fill-rule:nonzero;fill:rgb(14.901961%,19.607843%,21.960784%);fill-opacity:1;" d="M 160.945312 142.308594 C 160.832031 142.308594 160.730469 142.257812 160.675781 142.175781 C 160.632812 142.117188 160.621094 142.046875 160.644531 141.980469 C 160.664062 141.910156 160.71875 141.855469 160.789062 141.820312 L 190.984375 127.066406 C 191.03125 127.046875 191.082031 127.03125 191.136719 127.03125 L 202.949219 127.03125 C 203.125 127.03125 203.261719 127.152344 203.261719 127.296875 C 203.261719 127.367188 203.230469 127.433594 203.171875 127.480469 C 203.113281 127.53125 203.03125 127.558594 202.949219 127.554688 L 191.21875 127.554688 L 161.097656 142.273438 C 161.050781 142.296875 161 142.308594 160.945312 142.308594 Z M 160.945312 142.308594 "/>
<path style=" stroke:none;fill-rule:nonzero;fill:rgb(100%,74.117647%,65.490196%);fill-opacity:1;" d="M 179.742188 67.121094 C 179.988281 67.335938 180.261719 67.5625 180.496094 67.753906 C 180.839844 68.03125 181.539062 68.476562 181.890625 68.753906 C 181.996094 68.839844 182.410156 69.0625 182.441406 69.160156 C 182.238281 68.679688 182.101562 68.183594 182.035156 67.675781 C 181.960938 67.203125 182.328125 66.761719 182.878906 66.660156 C 183.113281 66.636719 183.128906 67.136719 183.617188 67.824219 C 184.242188 68.707031 185.046875 69.144531 185.421875 70.238281 C 185.640625 70.71875 186.074219 71.109375 186.628906 71.320312 L 196.332031 75.398438 C 196.332031 75.398438 203.425781 73.171875 207.101562 71.953125 C 211.371094 70.535156 216.257812 69.191406 217.078125 69.929688 L 208.921875 76.167969 C 208.921875 76.167969 202.710938 79.015625 197.875 80.644531 C 196.246094 81.191406 195.34375 80.996094 194.027344 80.246094 C 191.171875 78.835938 188.414062 77.292969 185.757812 75.621094 C 184.066406 74.574219 182.304688 73.613281 180.480469 72.738281 C 179.074219 72.066406 177.429688 71.171875 176.769531 69.859375 C 176.375 69.140625 176.363281 68.3125 176.738281 67.589844 C 176.953125 67.320312 177.109375 67.023438 177.207031 66.707031 C 177.210938 66.515625 177.199219 66.328125 177.175781 66.136719 C 177.148438 65.941406 177.238281 65.753906 177.414062 65.625 C 177.609375 65.523438 177.855469 65.523438 178.054688 65.625 C 178.242188 65.730469 178.410156 65.863281 178.542969 66.019531 C 178.925781 66.386719 179.328125 66.761719 179.742188 67.121094 Z M 179.742188 67.121094 "/>
<path style=" stroke:none;fill-rule:nonzero;fill:rgb(21.568627%,27.843137%,30.980392%);fill-opacity:1;" d="M 216.929688 69.59375 C 213.289062 69.15625 211.425781 70.09375 208.921875 70.972656 C 205.9375 72.015625 196.324219 75.167969 196.324219 75.167969 L 190.128906 72.695312 C 190.128906 72.695312 188.703125 75.421875 187.167969 76.527344 C 187.167969 76.527344 192.738281 79.867188 194.289062 80.683594 C 195.835938 81.496094 195.925781 81.453125 198.359375 80.78125 C 200.792969 80.105469 211.789062 77.730469 211.789062 77.730469 Z M 216.929688 69.59375 "/>
<path style=" stroke:none;fill-rule:nonzero;fill:rgb(14.901961%,19.607843%,21.960784%);fill-opacity:1;" d="M 190.128906 72.695312 L 186.855469 71.417969 C 186.855469 71.417969 185.457031 73.761719 184.257812 74.765625 L 187.167969 76.523438 C 187.90625 76.007812 188.527344 75.382812 189 74.675781 C 189.480469 74.0625 189.859375 73.398438 190.128906 72.695312 Z M 190.128906 72.695312 "/>
<path style=" stroke:none;fill-rule:nonzero;fill:rgb(100%,74.117647%,65.490196%);fill-opacity:1;" d="M 233.25 144.929688 C 231.988281 145.546875 230.5625 145.535156 229.011719 145.039062 L 227.972656 137.996094 L 233.007812 138.4375 Z M 233.25 144.929688 "/>
<path style=" stroke:none;fill-rule:nonzero;fill:rgb(100%,74.117647%,65.490196%);fill-opacity:1;" d="M 217.722656 141.105469 C 216.683594 143.113281 214.730469 142.613281 212.472656 141.398438 L 212.613281 134.300781 L 217.9375 134.164062 Z M 217.722656 141.105469 "/>
<path style=" stroke:none;fill-rule:nonzero;fill:rgb(14.901961%,19.607843%,21.960784%);fill-opacity:1;" d="M 224.121094 151.839844 C 224.007812 152.203125 224.039062 152.585938 224.214844 152.929688 C 224.390625 153.144531 225.375 153.8125 227.113281 153.875 C 228.777344 153.9375 230.234375 153.710938 231.210938 153.160156 C 232.058594 152.765625 232.613281 152.035156 232.683594 151.21875 C 232.746094 150.417969 232.617188 149.648438 233.042969 149.019531 C 233.46875 148.390625 234.082031 147.777344 234.21875 147.46875 C 234.371094 146.933594 234.355469 146.371094 234.171875 145.839844 Z M 224.121094 151.839844 "/>
<path style=" stroke:none;fill-rule:nonzero;fill:rgb(27.058824%,35.294118%,39.215686%);fill-opacity:1;" d="M 228.410156 144.761719 C 228.390625 145.058594 228.335938 145.351562 228.238281 145.640625 C 227.867188 146.585938 227.324219 147.476562 226.621094 148.28125 C 226.132812 148.792969 225.523438 149.226562 225.007812 149.726562 C 224.457031 150.203125 224.117188 150.824219 224.046875 151.488281 C 224.015625 152.59375 225.441406 152.929688 226.53125 153.066406 C 227.714844 153.210938 228.921875 153.128906 230.0625 152.828125 C 231.292969 152.527344 232.195312 151.644531 232.371094 150.574219 C 232.417969 150.265625 232.371094 149.953125 232.417969 149.644531 C 232.539062 148.9375 232.863281 148.265625 233.367188 147.691406 C 233.65625 147.355469 233.902344 147 234.105469 146.621094 C 234.421875 145.929688 234.105469 145.171875 233.878906 144.496094 C 233.671875 143.914062 233.433594 143.253906 233.195312 143.316406 C 233.210938 143.4375 233.195312 143.558594 233.148438 143.671875 C 233.070312 143.785156 233.011719 143.902344 232.96875 144.023438 C 232.925781 144.175781 232.863281 144.324219 232.789062 144.464844 C 232.671875 144.695312 232.476562 144.886719 232.226562 145.019531 L 232.132812 143.773438 C 232.144531 143.644531 232.097656 143.515625 232.007812 143.410156 C 231.890625 143.324219 231.742188 143.273438 231.585938 143.269531 C 230.667969 143.105469 229.726562 143.0625 228.792969 143.140625 C 228.652344 143.144531 228.519531 143.199219 228.425781 143.289062 C 228.375 143.378906 228.355469 143.476562 228.375 143.570312 C 228.398438 143.964844 228.429688 144.355469 228.410156 144.761719 Z M 228.410156 144.761719 "/>
<path style=" stroke:none;fill-rule:nonzero;fill:rgb(96.078431%,96.078431%,96.078431%);fill-opacity:1;" d="M 227.113281 147.65625 C 227.589844 147.339844 228.675781 147.308594 229.273438 147.34375 C 229.878906 147.375 230.464844 147.53125 230.980469 147.804688 C 231.136719 147.894531 231.34375 147.875 231.472656 147.757812 C 231.546875 147.691406 231.585938 147.601562 231.578125 147.511719 C 231.566406 147.421875 231.507812 147.339844 231.421875 147.289062 C 230.855469 146.960938 230.1875 146.769531 229.503906 146.746094 C 228.035156 146.691406 227.613281 146.914062 227.613281 146.914062 C 227.613281 146.914062 226.960938 147.292969 227.113281 147.65625 Z M 227.113281 147.65625 "/>
<path style=" stroke:none;fill-rule:nonzero;fill:rgb(96.078431%,96.078431%,96.078431%);fill-opacity:1;" d="M 226.039062 148.8125 C 226.636719 148.496094 227.839844 148.507812 228.429688 148.546875 C 229.027344 148.585938 229.597656 148.75 230.09375 149.03125 C 230.25 149.125 230.460938 149.105469 230.589844 148.988281 C 230.664062 148.925781 230.703125 148.835938 230.691406 148.746094 C 230.683594 148.65625 230.625 148.574219 230.535156 148.523438 C 229.960938 148.171875 229.277344 147.964844 228.570312 147.929688 C 227.105469 147.875 226.734375 148.140625 226.734375 148.140625 C 226.394531 148.261719 226.136719 148.507812 226.039062 148.8125 Z M 226.039062 148.8125 "/>
<path style=" stroke:none;fill-rule:nonzero;fill:rgb(96.078431%,96.078431%,96.078431%);fill-opacity:1;" d="M 230.039062 145.542969 C 229.417969 145.46875 228.789062 145.527344 228.207031 145.71875 C 227.953125 145.851562 227.796875 146.199219 227.960938 146.28125 C 228.472656 146.09375 229.03125 146.011719 229.585938 146.050781 C 230.136719 146.082031 230.675781 146.195312 231.179688 146.378906 C 231.304688 146.421875 231.457031 146.484375 231.59375 146.542969 C 231.675781 146.578125 231.773438 146.585938 231.863281 146.558594 C 231.953125 146.535156 232.027344 146.476562 232.066406 146.40625 C 232.136719 146.273438 232.074219 146.121094 231.925781 146.054688 C 231.347656 145.773438 230.703125 145.597656 230.039062 145.542969 Z M 230.039062 145.542969 "/>
<path style=" stroke:none;fill-rule:nonzero;fill:rgb(14.901961%,19.607843%,21.960784%);fill-opacity:1;" d="M 203.902344 145.988281 C 203.785156 146.3125 203.820312 146.664062 204 146.96875 C 204.171875 147.25 205.976562 148.050781 208.359375 147.847656 C 210.128906 147.699219 211.816406 147.152344 213.253906 146.265625 C 214.140625 145.730469 215.085938 145.609375 216.269531 145.527344 C 217.449219 145.441406 218.988281 144.894531 219.226562 144.425781 C 219.347656 144.003906 219.320312 143.558594 219.144531 143.148438 Z M 203.902344 145.988281 "/>
<path style=" stroke:none;fill-rule:nonzero;fill:rgb(27.058824%,35.294118%,39.215686%);fill-opacity:1;" d="M 213.289062 139.527344 L 212.660156 139.351562 C 212.546875 139.308594 212.421875 139.300781 212.304688 139.324219 C 212.15625 139.378906 212.097656 139.53125 212.0625 139.667969 C 212.015625 139.96875 211.941406 140.261719 211.832031 140.550781 C 211.664062 140.785156 211.441406 140.992188 211.183594 141.160156 C 210.605469 141.578125 209.976562 141.945312 209.308594 142.253906 C 208.539062 142.625 207.785156 142.921875 206.992188 143.246094 C 206.195312 143.570312 205.09375 143.800781 204.464844 144.183594 C 204.003906 144.46875 203.738281 144.925781 203.757812 145.40625 C 203.777344 145.890625 204.078125 146.332031 204.558594 146.589844 C 205.5 147.03125 207.9375 147.46875 210.460938 146.789062 C 211.832031 146.417969 213.328125 145.128906 215.140625 144.960938 C 216.292969 144.855469 218.472656 144.523438 219.191406 143.765625 C 219.457031 143.429688 219.050781 142.394531 218.71875 141.5 C 218.351562 140.523438 218.171875 138.988281 217.792969 139.085938 C 217.792969 139.414062 217.449219 139.613281 217.273438 139.890625 C 217.117188 140.144531 216.988281 140.410156 216.882812 140.679688 C 216.777344 140.957031 216.574219 141.195312 216.304688 141.371094 C 216.019531 141.542969 215.636719 141.535156 215.363281 141.351562 C 215.015625 141.058594 215.195312 140.53125 214.9375 140.179688 C 214.726562 139.957031 214.433594 139.804688 214.105469 139.738281 Z M 213.289062 139.527344 "/>
<path style=" stroke:none;fill-rule:nonzero;fill:rgb(96.078431%,96.078431%,96.078431%);fill-opacity:1;" d="M 210.371094 141.679688 C 210.53125 141.402344 210.84375 141.210938 211.207031 141.175781 C 211.957031 141.15625 212.6875 141.367188 213.261719 141.773438 C 213.378906 141.84375 213.441406 141.960938 213.433594 142.082031 C 213.425781 142.203125 213.34375 142.316406 213.222656 142.375 C 213.058594 142.464844 212.84375 142.453125 212.699219 142.339844 C 212.054688 141.875 211.21875 141.636719 210.371094 141.679688 Z M 210.371094 141.679688 "/>
<path style=" stroke:none;fill-rule:nonzero;fill:rgb(96.078431%,96.078431%,96.078431%);fill-opacity:1;" d="M 208.765625 142.511719 C 208.988281 142.230469 209.359375 142.054688 209.761719 142.046875 C 210.574219 142.054688 211.359375 142.28125 212.007812 142.691406 C 212.117188 142.761719 212.179688 142.875 212.171875 142.992188 C 212.164062 143.109375 212.089844 143.214844 211.972656 143.277344 C 211.824219 143.351562 211.632812 143.339844 211.5 143.242188 C 210.765625 142.660156 209.761719 142.390625 208.765625 142.511719 Z M 208.765625 142.511719 "/>
<path style=" stroke:none;fill-rule:nonzero;fill:rgb(96.078431%,96.078431%,96.078431%);fill-opacity:1;" d="M 206.992188 143.25 C 207.246094 142.980469 207.625 142.820312 208.03125 142.8125 C 208.8125 142.832031 209.570312 143.0625 210.1875 143.464844 C 210.296875 143.539062 210.359375 143.648438 210.351562 143.765625 C 210.34375 143.882812 210.269531 143.988281 210.152344 144.050781 C 210 144.125 209.808594 144.113281 209.675781 144.015625 C 208.972656 143.417969 207.976562 143.136719 206.992188 143.25 Z M 206.992188 143.25 "/>
<path style=" stroke:none;fill-rule:nonzero;fill:rgb(21.568627%,27.843137%,30.980392%);fill-opacity:1;" d="M 231.289062 93.472656 C 231.863281 101.183594 232.789062 118.1875 232.789062 118.1875 C 232.917969 119.148438 233.339844 121.449219 233.542969 124.90625 C 233.84375 129.917969 233.375 140.980469 233.375 140.980469 C 231.816406 141.679688 229.984375 141.800781 228.316406 141.320312 C 228.316406 141.320312 224.945312 125.539062 223.871094 120.640625 C 222.925781 116.3125 221.078125 108.167969 221.078125 108.167969 L 220.214844 118.707031 C 220.378906 120.832031 220.3125 122.960938 220.011719 125.074219 C 219.675781 127.359375 218.046875 137.285156 218.046875 137.285156 C 216.179688 137.734375 214.203125 137.746094 212.328125 137.320312 C 212.328125 137.320312 211.804688 121.125 211.679688 119.019531 C 211.542969 116.617188 210.949219 91.941406 210.949219 91.941406 Z M 231.289062 93.472656 "/>
<path style=" stroke:none;fill-rule:nonzero;fill:rgb(14.901961%,19.607843%,21.960784%);fill-opacity:1;" d="M 221.078125 108.152344 L 219.519531 101.859375 C 219.519531 101.859375 215.769531 101.679688 213.640625 99.96875 C 213.640625 99.96875 214.070312 101.6875 218.804688 102.609375 L 220.367188 108.96875 L 220.523438 114.886719 Z M 221.078125 108.152344 "/>
<path style=" stroke:none;fill-rule:nonzero;fill:rgb(14.901961%,19.607843%,21.960784%);fill-opacity:1;" d="M 229.574219 70.527344 C 231.363281 70.796875 231.484375 71.546875 231.875 73.046875 C 232.242188 74.253906 232.398438 75.5 232.332031 76.746094 L 230.996094 85.628906 L 231.453125 95.863281 C 228.570312 98.503906 217.046875 99.382812 210.75 95.480469 C 210.75 95.480469 210.824219 78.667969 211.109375 75.96875 C 211.628906 71.253906 214.144531 69.582031 217.871094 69.589844 L 224.207031 70.03125 Z M 229.574219 70.527344 "/>
<path style=" stroke:none;fill-rule:nonzero;fill:rgb(14.901961%,19.607843%,21.960784%);fill-opacity:1;" d="M 222.871094 58.613281 C 222.863281 61.246094 220.332031 63.371094 217.222656 63.363281 C 214.113281 63.355469 211.597656 61.214844 211.609375 58.582031 C 211.621094 55.949219 214.148438 53.824219 217.261719 53.835938 C 220.371094 53.839844 222.882812 55.980469 222.871094 58.613281 Z M 222.871094 58.613281 "/>
<path style=" stroke:none;fill-rule:nonzero;fill:rgb(14.901961%,19.607843%,21.960784%);fill-opacity:1;" d="M 224.640625 59.546875 L 225.839844 56.8125 C 226.488281 56.746094 227.136719 56.941406 227.589844 57.339844 C 228.335938 57.992188 227.90625 60.019531 226.964844 62.007812 C 226.964844 62.007812 226.039062 65.636719 225.667969 66.230469 C 225.425781 66.59375 225.023438 66.867188 224.546875 66.988281 Z M 224.640625 59.546875 "/>
<path style=" stroke:none;fill-rule:nonzero;fill:rgb(100%,74.117647%,65.490196%);fill-opacity:1;" d="M 224.722656 62.171875 C 225.070312 62.347656 225.558594 61.789062 225.988281 61.414062 C 226.414062 61.042969 227.808594 60.535156 228.492188 61.765625 C 229.179688 63 227.871094 64.679688 226.777344 64.964844 C 224.894531 65.464844 224.613281 64.441406 224.613281 64.441406 L 224.449219 70.164062 C 223.597656 71.722656 221.875 72.820312 219.867188 73.078125 C 216.527344 73.453125 217.226562 71.128906 218.304688 70 L 218.304688 68.238281 C 217.46875 68.351562 216.617188 68.386719 215.769531 68.339844 C 214.386719 68.15625 213.515625 67.230469 213.105469 65.960938 C 212.441406 63.921875 212.191406 62.277344 212.777344 58.277344 C 213.421875 53.878906 219.457031 53.878906 222.707031 55.605469 C 225.957031 57.335938 224.722656 62.171875 224.722656 62.171875 Z M 224.722656 62.171875 "/>
<path style=" stroke:none;fill-rule:nonzero;fill:rgb(14.901961%,19.607843%,21.960784%);fill-opacity:1;" d="M 224.691406 62.558594 C 225.210938 62.425781 225.632812 61.679688 225.988281 61.414062 C 226.585938 60.976562 225.835938 56.8125 225.835938 56.8125 C 226.160156 56.082031 225.9375 55.257812 225.269531 54.71875 C 224.457031 53.957031 223.101562 53.871094 220.777344 53.550781 C 219.632812 53.398438 218.28125 53.320312 217.136719 53.144531 C 215.960938 52.988281 214.824219 52.679688 213.761719 52.226562 C 213.570312 52.121094 213.34375 52.074219 213.117188 52.085938 C 212.9375 52.125 212.789062 52.230469 212.710938 52.375 C 212.640625 52.511719 212.605469 52.664062 212.617188 52.8125 C 212.621094 52.976562 212.652344 53.136719 212.710938 53.292969 C 212.746094 53.386719 212.972656 53.664062 212.925781 53.734375 C 212.804688 53.929688 211.914062 53.597656 211.734375 53.546875 C 211.691406 53.535156 211.644531 53.535156 211.605469 53.546875 C 211.574219 53.566406 211.546875 53.589844 211.53125 53.617188 C 211.277344 54.136719 211.316406 54.722656 211.636719 55.210938 C 212.363281 56.261719 213.488281 57.074219 214.832031 57.511719 C 216.210938 57.992188 217.710938 58.167969 219.191406 58.027344 C 219.824219 57.964844 220.445312 57.84375 221.046875 57.660156 C 221.164062 57.851562 221.300781 58.03125 221.453125 58.199219 C 221.628906 58.367188 221.832031 58.515625 222.054688 58.640625 C 222.277344 58.765625 222.519531 58.863281 222.777344 58.925781 C 223.042969 58.988281 223.296875 58.957031 223.445312 59.199219 C 223.523438 59.355469 223.5625 59.53125 223.554688 59.703125 C 223.554688 60.214844 223.589844 60.71875 223.605469 61.226562 C 223.601562 61.484375 223.640625 61.742188 223.726562 61.992188 C 223.816406 62.242188 224.042969 62.441406 224.332031 62.527344 C 224.445312 62.570312 224.570312 62.578125 224.691406 62.558594 Z M 224.691406 62.558594 "/>
<path style=" stroke:none;fill-rule:nonzero;fill:rgb(94.117647%,60%,47.843137%);fill-opacity:1;" d="M 218.335938 68.265625 C 218.335938 68.265625 221.429688 67.746094 222.496094 67.265625 C 223.128906 66.984375 223.652344 66.550781 223.996094 66.023438 C 223.828125 66.554688 223.535156 67.054688 223.136719 67.492188 C 222.347656 68.34375 218.320312 68.960938 218.320312 68.960938 Z M 218.335938 68.265625 "/>
<path style=" stroke:none;fill-rule:nonzero;fill:rgb(14.901961%,19.607843%,21.960784%);fill-opacity:1;" d="M 218.796875 61.378906 C 218.804688 61.667969 219.089844 61.890625 219.425781 61.886719 C 219.765625 61.878906 220.035156 61.644531 220.03125 61.355469 C 220.027344 61.070312 219.753906 60.839844 219.414062 60.839844 C 219.066406 60.84375 218.789062 61.085938 218.796875 61.378906 Z M 218.796875 61.378906 "/>
<path style=" stroke:none;fill-rule:nonzero;fill:rgb(14.901961%,19.607843%,21.960784%);fill-opacity:1;" d="M 219.535156 59.769531 L 220.90625 60.523438 C 221.144531 60.191406 221.035156 59.757812 220.652344 59.539062 C 220.46875 59.441406 220.246094 59.410156 220.035156 59.453125 C 219.824219 59.496094 219.644531 59.609375 219.535156 59.769531 Z M 219.535156 59.769531 "/>
<path style=" stroke:none;fill-rule:nonzero;fill:rgb(94.117647%,60%,47.843137%);fill-opacity:1;" d="M 219.824219 64.566406 L 217.644531 65.351562 C 217.773438 65.605469 218.011719 65.804688 218.3125 65.90625 C 218.613281 66.007812 218.953125 66 219.246094 65.890625 C 219.539062 65.785156 219.765625 65.585938 219.875 65.332031 C 219.984375 65.082031 219.964844 64.804688 219.824219 64.566406 Z M 219.824219 64.566406 "/>
<path style=" stroke:none;fill-rule:nonzero;fill:rgb(14.901961%,19.607843%,21.960784%);fill-opacity:1;" d="M 213.117188 60.335938 L 214.421875 59.667969 C 214.328125 59.515625 214.160156 59.402344 213.960938 59.359375 C 213.765625 59.316406 213.554688 59.34375 213.382812 59.433594 C 213.027344 59.628906 212.910156 60.023438 213.117188 60.335938 Z M 213.117188 60.335938 "/>
<path style=" stroke:none;fill-rule:nonzero;fill:rgb(14.901961%,19.607843%,21.960784%);fill-opacity:1;" d="M 213.632812 61.21875 C 213.625 61.359375 213.6875 61.496094 213.804688 61.597656 C 213.917969 61.703125 214.078125 61.761719 214.246094 61.761719 C 214.59375 61.753906 214.871094 61.511719 214.871094 61.21875 C 214.871094 60.929688 214.59375 60.695312 214.25 60.695312 C 213.910156 60.695312 213.632812 60.929688 213.632812 61.21875 Z M 213.632812 61.21875 "/>
<path style=" stroke:none;fill-rule:nonzero;fill:rgb(94.117647%,60%,47.843137%);fill-opacity:1;" d="M 217.078125 60.9375 L 216.546875 64.28125 L 214.535156 63.542969 Z M 217.078125 60.9375 "/>
<path style=" stroke:none;fill-rule:nonzero;fill:rgb(14.901961%,19.607843%,21.960784%);fill-opacity:1;" d="M 221.519531 97.070312 L 221.609375 98.550781 C 221.625 98.816406 221.863281 99.03125 222.175781 99.0625 C 224.226562 99.246094 226.300781 99.023438 228.234375 98.40625 C 231.875 97.257812 231.941406 96.273438 231.941406 96.273438 L 231.941406 94.265625 Z M 221.519531 97.070312 "/>
<path style=" stroke:none;fill-rule:nonzero;fill:rgb(14.901961%,19.607843%,21.960784%);fill-opacity:1;" d="M 213.230469 95.574219 L 213.230469 96.714844 C 213.230469 96.828125 213.167969 96.933594 213.058594 97.003906 C 212.953125 97.070312 212.8125 97.089844 212.683594 97.054688 C 212.167969 96.925781 211.664062 96.753906 211.1875 96.535156 C 210.761719 96.351562 210.390625 96.097656 210.089844 95.785156 L 210.023438 94.050781 Z M 213.230469 95.574219 "/>
<path style=" stroke:none;fill-rule:nonzero;fill:rgb(27.058824%,35.294118%,39.215686%);fill-opacity:1;" d="M 210.023438 94.050781 C 210.78125 95.089844 213.230469 95.574219 213.230469 95.574219 C 213.230469 95.574219 213.175781 94.824219 213.230469 90.730469 C 213.289062 86.640625 213.464844 79.019531 214.527344 75.613281 C 215.125 73.738281 216.078125 71.957031 217.34375 70.335938 C 217.578125 70.035156 217.960938 69.84375 218.382812 69.808594 L 218.382812 69.613281 C 214.746094 69.5625 213.890625 69.875 212.347656 71.523438 C 210.804688 73.167969 210.492188 76.269531 210.308594 79.777344 C 210.132812 83.160156 208.972656 91.484375 210.023438 94.050781 Z M 221.5625 85.089844 C 221.269531 94.511719 221.394531 96.296875 221.53125 97.070312 C 221.53125 97.070312 229.332031 97.707031 231.929688 94.265625 C 232.8125 92.710938 231.8125 89.121094 231.597656 85.761719 L 232.796875 74.269531 C 232.960938 72.703125 231.945312 71.222656 230.261719 70.5625 L 224.511719 69.929688 C 224.027344 70.878906 222.949219 72.128906 222.429688 73.980469 C 221.773438 76.367188 221.726562 79.792969 221.5625 85.089844 Z M 221.5625 85.089844 "/>
<path style=" stroke:none;fill-rule:nonzero;fill:rgb(14.901961%,19.607843%,21.960784%);fill-opacity:1;" d="M 194.847656 84.054688 L 210.292969 84.949219 L 213.210938 99.96875 L 198.566406 98.789062 Z M 194.847656 84.054688 "/>
<use xlink:href="#surface35" mask="url(#mask10)"/>
<use xlink:href="#surface38" mask="url(#mask11)"/>
<use xlink:href="#surface41" mask="url(#mask12)"/>
<path style=" stroke:none;fill-rule:nonzero;fill:rgb(14.901961%,19.607843%,21.960784%);fill-opacity:1;" d="M 198.332031 83.960938 C 198.308594 83.800781 198.6875 83.695312 199.1875 83.730469 L 200.085938 83.792969 C 200.085938 83.792969 199.925781 82.789062 201.929688 82.839844 C 203.9375 82.886719 204.257812 84.007812 204.257812 84.007812 L 205.210938 84.078125 C 205.734375 84.121094 206.210938 84.28125 206.253906 84.4375 L 206.335938 84.71875 L 198.378906 84.277344 C 198.378906 84.277344 198.359375 84.121094 198.332031 83.960938 Z M 198.332031 83.960938 "/>
<path style=" stroke:none;fill-rule:nonzero;fill:rgb(14.901961%,19.607843%,21.960784%);fill-opacity:1;" d="M 199.398438 84.308594 C 200.128906 84.339844 200.4375 84.371094 200.496094 84.75 C 200.554688 85.125 200.585938 85.535156 200.585938 85.535156 L 204.105469 85.742188 C 204.105469 85.742188 203.996094 85.175781 203.964844 84.949219 C 203.933594 84.726562 204.074219 84.566406 204.636719 84.601562 L 204.703125 84.410156 L 199.160156 84.144531 Z M 199.398438 84.308594 "/>
<path style=" stroke:none;fill-rule:nonzero;fill:rgb(21.568627%,27.843137%,30.980392%);fill-opacity:1;" d="M 199.125 85.675781 C 199.125 85.675781 199.085938 85.46875 199.046875 85.214844 C 199.003906 84.960938 199.933594 84.800781 201.125 84.867188 L 203.402344 84.992188 C 204.59375 85.054688 205.59375 85.316406 205.632812 85.574219 L 205.710938 86.015625 Z M 199.125 85.675781 "/>
<path style=" stroke:none;fill-rule:nonzero;fill:rgb(100%,74.117647%,65.490196%);fill-opacity:1;" d="M 211.277344 90.011719 C 212.375 90.058594 214.058594 90.378906 215 90.507812 C 215.488281 90.597656 215.988281 90.621094 216.488281 90.574219 C 216.886719 90.539062 217.28125 90.472656 217.667969 90.378906 C 219.019531 89.855469 229.792969 86.125 229.792969 86.125 L 227.960938 77.152344 C 227.960938 77.152344 227.53125 71.390625 230.503906 70.78125 C 232.792969 71.664062 233.523438 73.371094 234.570312 77.164062 C 235.777344 81.5 236.699219 86.570312 236.226562 87.945312 C 235.902344 88.890625 235.839844 89.90625 233.339844 90.722656 C 230.699219 91.605469 227.746094 92.175781 219.042969 94.289062 C 217.410156 94.773438 215.738281 95.175781 214.046875 95.496094 C 209.605469 96.082031 207.839844 95.402344 206.953125 93.949219 C 206.699219 93.507812 206.660156 93.070312 206.433594 92.628906 C 206.277344 92.40625 206.152344 92.164062 206.070312 91.910156 C 205.992188 91.648438 206.148438 91.378906 206.441406 91.269531 C 206.578125 91.242188 206.722656 91.242188 206.859375 91.269531 C 207.570312 91.382812 208.269531 91.496094 208.972656 91.582031 C 209.78125 91.667969 210.597656 91.691406 211.410156 91.652344 C 211.453125 91.660156 211.496094 91.660156 211.535156 91.652344 C 211.65625 91.609375 211.625 91.570312 211.535156 91.53125 "/>
<path style=" stroke:none;fill-rule:nonzero;fill:rgb(21.568627%,27.843137%,30.980392%);fill-opacity:1;" d="M 230.273438 70.5625 C 232.351562 70.78125 233.691406 72.246094 234.128906 73.972656 C 234.8125 76.679688 235.132812 78.230469 235.925781 81.667969 C 236.648438 84.785156 236.921875 88.339844 236.445312 89.3125 C 235.964844 90.285156 233.628906 90.925781 232.152344 91.296875 C 229.949219 91.851562 223.386719 93.230469 223.386719 93.230469 C 223.433594 91.910156 222.554688 89.710938 221.207031 88.917969 L 229.507812 85.800781 L 227.386719 77.84375 C 227.386719 77.84375 226.460938 72.058594 230.273438 70.5625 Z M 230.273438 70.5625 "/>
<path style=" stroke:none;fill-rule:nonzero;fill:rgb(14.901961%,19.607843%,21.960784%);fill-opacity:1;" d="M 221.230469 88.917969 C 221.230469 88.917969 222.351562 89.277344 223.089844 90.914062 C 223.828125 92.550781 223.40625 93.230469 223.40625 93.230469 L 219.441406 94.1875 C 219.441406 94.1875 219.664062 91.546875 217.9375 90.1875 Z M 221.230469 88.917969 "/>
<path style=" stroke:none;fill-rule:nonzero;fill:rgb(100%,65.882353%,65.490196%);fill-opacity:1;" d="M 27.882812 138.277344 C 27.882812 138.277344 26.84375 125.582031 27.644531 120.804688 C 28.308594 116.707031 29.089844 115.007812 29.230469 114.074219 C 29.230469 114.074219 30.425781 104.441406 30.523438 96.257812 C 30.570312 92.296875 31.003906 89.511719 33.550781 84.820312 L 49.585938 87.898438 C 49.921875 89.980469 51.417969 104.054688 51.667969 116.359375 C 51.902344 127.128906 51.542969 136.558594 51.542969 136.558594 L 51.542969 137.121094 C 51.542969 137.75 51.707031 138.191406 52.1875 139.203125 C 52.785156 140.503906 53.644531 141.703125 54.726562 142.757812 C 55.0625 143.070312 57.402344 144.800781 57.714844 145.167969 C 58.71875 146.164062 56.632812 146.722656 55.113281 146.546875 C 53.480469 146.363281 50.953125 145.839844 50.230469 144.996094 C 49.753906 144.4375 49.394531 142.476562 48.902344 141.917969 C 47.242188 140 46.5625 139.175781 46.546875 138.566406 C 46.546875 137.460938 46.976562 137.023438 47.132812 136.398438 C 47.003906 135.078125 43.675781 124.367188 43.617188 120.558594 C 43.585938 118.75 43.730469 116.257812 43.730469 116.257812 L 41.132812 103.722656 C 40.140625 106.847656 38.328125 112.6875 37.738281 115.671875 C 37.019531 119.320312 34.570312 129.933594 33.03125 134.757812 C 32.566406 136.003906 32.21875 137.273438 31.992188 138.566406 C 31.992188 138.566406 31.945312 139.003906 31.945312 139.003906 C 31.90625 139.546875 31.632812 145.304688 31.375 146.523438 C 30.855469 149.0625 28.183594 148.722656 27.738281 146.6875 C 27.371094 144.925781 27.832031 139.53125 27.839844 138.867188 Z M 27.882812 138.277344 "/>
<path style=" stroke:none;fill-rule:nonzero;fill:rgb(21.568627%,27.843137%,30.980392%);fill-opacity:1;" d="M 27.882812 138.277344 C 27.128906 138.277344 27.621094 140.75 27.429688 142.339844 C 27.222656 144.039062 26.5625 145.277344 26.390625 146.667969 C 26.132812 147.886719 26.355469 149.136719 27.019531 150.238281 C 27.539062 151.253906 30.179688 152.648438 31.179688 151.191406 C 32.09375 149.753906 32.476562 148.117188 32.28125 146.492188 C 32.160156 144.851562 32.046875 143.65625 32.007812 142.410156 C 31.976562 141.308594 32.972656 138.730469 32.007812 138.574219 L 31.960938 139.011719 C 31.609375 139.609375 28.273438 140.015625 27.878906 138.878906 Z M 27.882812 138.277344 "/>
<path style=" stroke:none;fill-rule:nonzero;fill:rgb(14.901961%,19.607843%,21.960784%);fill-opacity:1;" d="M 46.359375 139.921875 C 46.128906 140.714844 46.359375 142.890625 46.359375 142.890625 C 46.777344 143.480469 47.433594 143.925781 48.210938 144.144531 L 48.878906 141.105469 Z M 46.359375 139.921875 "/>
<path style=" stroke:none;fill-rule:nonzero;fill:rgb(0%,0%,0%);fill-opacity:1;" d="M 48.21875 144.128906 L 51.414062 143.242188 L 52.183594 140.847656 L 48.59375 142.382812 Z M 48.21875 144.128906 "/>
<path style=" stroke:none;fill-rule:nonzero;fill:rgb(21.568627%,27.843137%,30.980392%);fill-opacity:1;" d="M 51.539062 137.136719 L 51.539062 136.570312 C 51.96875 136.746094 52.921875 139.703125 54.210938 141.726562 C 55.390625 143.582031 57.726562 144.609375 58.484375 145.414062 C 59.5 146.492188 57.527344 147.878906 54.359375 147.308594 C 52.800781 147.027344 50.414062 146.171875 49.769531 145.277344 C 49.125 144.386719 48.910156 142.734375 48.378906 142.074219 C 47.851562 141.414062 46.601562 140.660156 46.335938 139.90625 C 46.125 139.230469 46.125 138.515625 46.335938 137.839844 C 46.585938 137.15625 46.800781 136.328125 47.074219 136.40625 L 47.074219 136.921875 C 47.289062 137.289062 48.054688 137.710938 49.648438 137.804688 C 50.441406 137.820312 51.1875 137.71875 51.539062 137.136719 Z M 51.539062 137.136719 "/>
<path style=" stroke:none;fill-rule:nonzero;fill:rgb(27.058824%,35.294118%,39.215686%);fill-opacity:1;" d="M 49.398438 86.238281 C 49.398438 86.238281 51.359375 98.1875 51.707031 107.210938 C 52.058594 116.234375 51.75 127.867188 51.75 127.867188 C 51.75 127.867188 50.648438 128.53125 48.226562 128.625 C 45.800781 128.71875 44.964844 128.03125 44.964844 128.03125 C 44.964844 128.03125 43.480469 123.945312 43.253906 121.070312 C 43.105469 119.511719 43.105469 117.945312 43.253906 116.390625 L 41.078125 104.332031 C 41.078125 104.332031 38.234375 115.59375 37.921875 117.039062 C 37.613281 118.488281 34.625 129.011719 34.625 129.011719 C 33.46875 129.675781 32.066406 129.953125 30.679688 129.800781 C 28.359375 129.539062 27.402344 128.597656 27.402344 128.597656 C 27.402344 128.597656 26.925781 123.183594 27.371094 120.28125 C 27.820312 117.382812 28.742188 115.15625 28.902344 113.242188 C 29.0625 111.328125 28.742188 101.074219 28.902344 96.960938 C 29.0625 92.851562 29.609375 89.667969 33.25 84.136719 Z M 49.398438 86.238281 "/>
<path style=" stroke:none;fill-rule:nonzero;fill:rgb(21.568627%,27.843137%,30.980392%);fill-opacity:1;" d="M 41.078125 104.332031 L 42.882812 96.800781 C 42.882812 96.800781 46.003906 96.105469 47.488281 94.484375 C 47.488281 94.484375 47.082031 96.28125 43.847656 97.433594 L 41.9375 104.941406 L 42.589844 112.703125 Z M 41.078125 104.332031 "/>
<path style=" stroke:none;fill-rule:nonzero;fill:rgb(100%,65.882353%,65.490196%);fill-opacity:1;" d="M 52.378906 69.328125 C 56.195312 70.917969 60.425781 73.132812 62.503906 73.445312 C 65.515625 72.941406 72.078125 71.433594 74.339844 70.386719 C 74.738281 70.203125 75.042969 69.902344 75.195312 69.542969 C 75.625 68.589844 76.191406 68.128906 76.828125 67.34375 C 77.351562 66.734375 77.5 66.097656 77.714844 66.125 C 78.222656 66.273438 78.527344 66.714844 78.429688 67.160156 C 78.332031 67.730469 78.160156 68.289062 77.910156 68.824219 C 78.925781 68.300781 79.84375 67.652344 80.625 66.898438 C 82.070312 65.398438 83.542969 65.605469 83.746094 67.992188 C 83.820312 68.851562 83.78125 70.675781 80.105469 72.550781 C 79.066406 73.09375 76.695312 74.074219 75.257812 74.613281 C 71.433594 76.058594 67.136719 77.363281 64.375 78.1875 C 63.292969 78.425781 62.160156 78.449219 61.0625 78.253906 C 54.089844 76.933594 49.414062 74.820312 45.691406 73.472656 L 45.816406 68.078125 C 48.121094 68.164062 49.09375 67.953125 52.378906 69.328125 Z M 52.378906 69.328125 "/>
<path style=" stroke:none;fill-rule:nonzero;fill:rgb(27.058824%,35.294118%,39.215686%);fill-opacity:1;" d="M 45.71875 68.085938 C 48.421875 67.738281 50.976562 68.570312 52.277344 69.121094 C 56.375 70.851562 62.09375 73.359375 62.203125 73.386719 C 62.3125 73.414062 65.65625 72.828125 65.65625 72.828125 C 65.65625 72.828125 65.953125 75.558594 67.808594 77.164062 C 67.808594 77.164062 64.957031 78.21875 63.828125 78.484375 C 62.703125 78.746094 62.222656 78.734375 60.710938 78.433594 C 59.195312 78.136719 50.308594 75.621094 50.308594 75.621094 Z M 45.71875 68.085938 "/>
<path style=" stroke:none;fill-rule:nonzero;fill:rgb(14.901961%,19.607843%,21.960784%);fill-opacity:1;" d="M 38.390625 68.027344 L 33.800781 68.582031 C 34.632812 72.765625 32.292969 76.449219 32.292969 76.449219 L 33.753906 82.816406 C 33.691406 83.574219 32.113281 85.015625 30.667969 87.890625 C 33.378906 90.96875 45.800781 92.457031 50.136719 89.765625 C 49.71875 86.246094 49.519531 84.507812 49.382812 83.40625 L 49.382812 79.445312 C 54.820312 75.671875 48.261719 69.929688 45.847656 68.101562 L 43.582031 68.101562 Z M 38.390625 68.027344 "/>
<path style=" stroke:none;fill-rule:nonzero;fill:rgb(100%,65.882353%,65.490196%);fill-opacity:1;" d="M 21.742188 84.074219 C 22.71875 80.851562 26.003906 75.273438 27.179688 72.707031 C 28.527344 69.746094 30.820312 68.695312 33.347656 68.667969 C 34.261719 69.675781 34.652344 74.714844 31.8125 77.601562 C 30.605469 79.753906 27.851562 84.261719 27.851562 84.261719 C 27.945312 84.839844 29.800781 90.8125 30.878906 92.78125 C 31.074219 93.128906 31.410156 93.40625 31.828125 93.558594 C 32.945312 93.964844 34.257812 95 35.148438 95.585938 C 35.84375 96.027344 36.378906 96.113281 36.332031 96.292969 C 36.15625 96.710938 35.632812 96.949219 35.125 96.835938 C 34.367188 96.628906 33.628906 96.375 32.914062 96.078125 C 33.582031 96.972656 34.320312 97.828125 35.125 98.640625 C 36.628906 100.109375 36.578125 101.363281 33.65625 101.402344 C 31.4375 101.429688 30.273438 100.378906 28.308594 97.167969 C 27.746094 96.246094 26.929688 95.019531 26.253906 93.828125 C 24.550781 90.824219 24.214844 90.554688 23.28125 88.636719 C 21.808594 85.605469 21.363281 85.320312 21.742188 84.074219 Z M 21.742188 84.074219 "/>
<path style=" stroke:none;fill-rule:nonzero;fill:rgb(27.058824%,35.294118%,39.215686%);fill-opacity:1;" d="M 34.554688 68.496094 C 31.558594 68.707031 29.644531 68.78125 28.046875 70.765625 C 26.453125 72.75 22.359375 81.667969 21.839844 83.019531 C 21.320312 84.371094 21.214844 85.082031 23.226562 88.636719 C 25.191406 88.484375 27.082031 87.921875 28.730469 87 L 28.171875 84.285156 L 32.140625 77.878906 C 34.1875 75.078125 35.039062 71.765625 34.554688 68.496094 Z M 34.554688 68.496094 "/>
<path style=" stroke:none;fill-rule:nonzero;fill:rgb(14.901961%,19.607843%,21.960784%);fill-opacity:1;" d="M 38.445312 66.671875 C 38.445312 65.996094 35.78125 64.378906 34.449219 62.667969 C 33.210938 61.085938 31.480469 56.726562 35.578125 55.335938 C 35.449219 54.871094 35.449219 54.386719 35.578125 53.921875 C 35.761719 53.367188 36.148438 52.878906 36.679688 52.523438 C 37.589844 51.917969 38.660156 51.507812 39.800781 51.335938 C 41.476562 51.003906 43.203125 50.890625 44.917969 50.996094 C 46.039062 51.035156 47.140625 51.246094 48.171875 51.613281 C 49.210938 51.988281 50.066406 52.648438 50.601562 53.492188 C 51.023438 54.191406 51.097656 55.003906 50.808594 55.753906 C 50.621094 56.191406 50.601562 56.148438 50.914062 56.511719 C 51.160156 56.789062 51.269531 57.132812 51.21875 57.476562 C 51.101562 58.222656 50.261719 58.40625 50.179688 58.796875 C 50.136719 58.957031 50.226562 59.121094 50.398438 59.199219 C 50.570312 59.273438 50.785156 59.242188 50.914062 59.117188 C 50.871094 59.316406 50.734375 59.488281 50.539062 59.601562 C 50.34375 59.710938 50.105469 59.753906 49.875 59.710938 C 48.925781 59.667969 48.085938 58.582031 48.085938 58.582031 Z M 38.445312 66.671875 "/>
<path style=" stroke:none;fill-rule:nonzero;fill:rgb(14.901961%,19.607843%,21.960784%);fill-opacity:1;" d="M 35.496094 54.507812 C 33.910156 53.726562 31.515625 53.375 29.613281 54.945312 C 27.101562 57.019531 27.871094 62.046875 26.492188 63.890625 C 25.230469 65.585938 23.753906 64.964844 22.574219 66.316406 C 21.925781 67.175781 22.203125 68.3125 23.203125 68.882812 C 24.425781 69.609375 27.046875 69.914062 29.324219 68.585938 C 33.15625 66.351562 32.332031 63.191406 31.714844 60.914062 C 31.097656 58.632812 31.714844 54.714844 35.496094 56.03125 C 35.496094 56.03125 36.988281 55.234375 35.496094 54.507812 Z M 35.496094 54.507812 "/>
<path style=" stroke:none;fill-rule:nonzero;fill:rgb(100%,65.882353%,65.490196%);fill-opacity:1;" d="M 47.050781 55.113281 C 48.261719 55.554688 49.410156 57.125 49.394531 61.511719 C 49.394531 65.234375 48.03125 66.175781 47.351562 66.449219 C 46.671875 66.722656 45.34375 66.585938 44.050781 66.417969 L 44.050781 68.554688 C 44.050781 68.554688 47.167969 71.453125 45.089844 72.675781 C 39.664062 71.875 38.480469 68.4375 38.480469 68.4375 L 38.386719 63.773438 C 38.386719 63.773438 37.644531 64.433594 36.304688 63.464844 C 35.230469 62.664062 34.839844 61.292969 35.652344 60.539062 C 36.460938 59.789062 37.503906 59.726562 38.445312 60.566406 C 38.445312 60.566406 40.410156 60.792969 43.003906 59.417969 C 45.597656 58.039062 46.800781 56.539062 47.050781 55.113281 Z M 47.050781 55.113281 "/>
<path style=" stroke:none;fill-rule:nonzero;fill:rgb(14.901961%,19.607843%,21.960784%);fill-opacity:1;" d="M 47.164062 60.25 C 47.164062 60.519531 47.421875 60.738281 47.738281 60.742188 C 48.058594 60.746094 48.320312 60.53125 48.328125 60.261719 C 48.335938 59.992188 48.085938 59.765625 47.765625 59.757812 C 47.609375 59.753906 47.457031 59.804688 47.34375 59.894531 C 47.230469 59.988281 47.164062 60.117188 47.164062 60.25 Z M 47.164062 60.25 "/>
<path style=" stroke:none;fill-rule:nonzero;fill:rgb(14.901961%,19.607843%,21.960784%);fill-opacity:1;" d="M 42.511719 60.46875 C 42.480469 60.667969 42.589844 60.863281 42.785156 60.976562 C 42.984375 61.085938 43.238281 61.09375 43.445312 60.996094 C 43.652344 60.898438 43.773438 60.710938 43.761719 60.507812 C 43.792969 60.308594 43.683594 60.113281 43.488281 60.003906 C 43.289062 59.890625 43.035156 59.882812 42.828125 59.980469 C 42.621094 60.078125 42.5 60.269531 42.511719 60.46875 Z M 42.511719 60.46875 "/>
<path style=" stroke:none;fill-rule:nonzero;fill:rgb(94.901961%,56.078431%,56.078431%);fill-opacity:1;" d="M 43.425781 63.585938 L 45.199219 64.050781 C 45.144531 64.257812 44.996094 64.4375 44.777344 64.546875 C 44.5625 64.65625 44.304688 64.683594 44.066406 64.621094 C 43.570312 64.464844 43.296875 64.019531 43.425781 63.585938 Z M 43.425781 63.585938 "/>
<path style=" stroke:none;fill-rule:nonzero;fill:rgb(14.901961%,19.607843%,21.960784%);fill-opacity:1;" d="M 48.707031 59.335938 L 47.207031 58.828125 C 47.273438 58.65625 47.425781 58.515625 47.625 58.441406 C 47.820312 58.367188 48.046875 58.363281 48.246094 58.4375 C 48.65625 58.585938 48.859375 58.976562 48.707031 59.335938 Z M 48.707031 59.335938 "/>
<path style=" stroke:none;fill-rule:nonzero;fill:rgb(14.901961%,19.607843%,21.960784%);fill-opacity:1;" d="M 38.480469 59.964844 L 38.480469 62.039062 C 38.792969 62.046875 39.097656 61.941406 39.320312 61.753906 C 39.542969 61.566406 39.664062 61.308594 39.65625 61.042969 C 39.664062 60.476562 39.148438 60.003906 38.480469 59.964844 Z M 38.480469 59.964844 "/>
<path style=" stroke:none;fill-rule:nonzero;fill:rgb(94.901961%,56.078431%,56.078431%);fill-opacity:1;" d="M 45.199219 59.96875 L 45.671875 62.992188 L 47.261719 62.335938 Z M 45.199219 59.96875 "/>
<path style=" stroke:none;fill-rule:nonzero;fill:rgb(94.901961%,56.078431%,56.078431%);fill-opacity:1;" d="M 44.050781 66.441406 C 42.6875 66.308594 39.890625 65.644531 39.425781 64.679688 C 39.609375 65.164062 39.957031 65.589844 40.429688 65.902344 C 41.277344 66.519531 44.070312 67.160156 44.070312 67.160156 Z M 44.050781 66.441406 "/>
<path style=" stroke:none;fill-rule:nonzero;fill:rgb(21.568627%,27.843137%,30.980392%);fill-opacity:1;" d="M 197.148438 37.769531 L 176.304688 27.589844 C 175.839844 27.296875 175.226562 27.25 174.703125 27.460938 L 168.386719 30.539062 C 167.910156 30.816406 167.652344 31.292969 167.714844 31.777344 L 167.714844 50.078125 C 167.800781 51.417969 168.640625 52.644531 169.972656 53.375 L 190.839844 63.574219 C 191.300781 63.863281 191.914062 63.914062 192.429688 63.707031 C 192.835938 63.507812 198.355469 60.804688 198.757812 60.628906 C 199.234375 60.351562 199.492188 59.875 199.425781 59.390625 L 199.425781 41.070312 C 199.332031 39.726562 198.488281 38.5 197.148438 37.769531 Z M 197.148438 37.769531 "/>
<path style=" stroke:none;fill-rule:nonzero;fill:rgb(14.901961%,19.607843%,21.960784%);fill-opacity:1;" d="M 199.40625 41.070312 L 199.40625 59.375 C 199.46875 59.859375 199.214844 60.332031 198.738281 60.609375 L 192.453125 63.691406 C 192.882812 63.402344 193.113281 62.945312 193.058594 62.480469 L 193.058594 44.175781 C 193.035156 43.511719 192.808594 42.863281 192.398438 42.296875 L 198.742188 39.21875 C 199.144531 39.777344 199.371094 40.414062 199.40625 41.070312 Z M 199.40625 41.070312 "/>
<path style=" stroke:none;fill-rule:nonzero;fill:rgb(27.058824%,35.294118%,39.215686%);fill-opacity:1;" d="M 169.972656 53.390625 L 190.839844 63.574219 C 192.082031 64.183594 193.089844 63.691406 193.089844 62.476562 L 193.089844 44.171875 C 193.003906 42.832031 192.167969 41.605469 190.839844 40.871094 L 169.96875 30.691406 C 168.722656 30.082031 167.714844 30.574219 167.714844 31.789062 L 167.714844 50.089844 C 167.800781 51.429688 168.640625 52.65625 169.972656 53.390625 Z M 169.972656 53.390625 "/>
<path style=" stroke:none;fill-rule:nonzero;fill:rgb(98.039216%,98.039216%,98.039216%);fill-opacity:1;" d="M 183.449219 41.464844 C 183.511719 41.386719 183.597656 41.324219 183.695312 41.28125 C 183.820312 41.257812 183.949219 41.28125 184.046875 41.347656 L 185.207031 41.902344 C 185.332031 41.964844 185.433594 42.058594 185.5 42.164062 C 185.570312 42.277344 185.609375 42.402344 185.609375 42.53125 C 185.613281 42.5625 185.613281 42.597656 185.609375 42.632812 C 185.597656 42.667969 185.582031 42.703125 185.5625 42.738281 L 177.320312 52.800781 C 177.257812 52.878906 177.175781 52.941406 177.082031 52.984375 C 176.957031 53.007812 176.824219 52.984375 176.722656 52.917969 L 175.574219 52.359375 C 175.449219 52.300781 175.347656 52.210938 175.285156 52.101562 C 175.214844 51.988281 175.175781 51.863281 175.175781 51.734375 C 175.171875 51.703125 175.171875 51.667969 175.175781 51.632812 C 175.1875 51.597656 175.203125 51.558594 175.230469 51.527344 Z M 183.449219 41.464844 "/>
<path style=" stroke:none;fill-rule:nonzero;fill:rgb(98.039216%,98.039216%,98.039216%);fill-opacity:1;" d="M 187.308594 53.285156 C 187.277344 52.425781 187.015625 51.585938 186.542969 50.824219 C 186.109375 50.109375 185.4375 49.515625 184.617188 49.113281 C 183.792969 48.710938 183.15625 48.671875 182.6875 48.9375 C 182.21875 49.199219 181.96875 49.816406 181.921875 50.652344 C 181.902344 51.046875 181.890625 51.402344 181.890625 51.707031 C 181.890625 52.019531 181.890625 52.367188 181.921875 52.757812 C 181.96875 53.617188 182.246094 54.457031 182.726562 55.214844 C 183.160156 55.917969 183.8125 56.5 184.617188 56.90625 C 185.390625 57.285156 186.019531 57.34375 186.503906 57.058594 C 186.988281 56.773438 187.253906 56.222656 187.308594 55.386719 C 187.308594 55.023438 187.339844 54.683594 187.339844 54.375 C 187.339844 54.066406 187.328125 53.703125 187.308594 53.285156 Z M 185.332031 54.707031 C 185.332031 54.953125 185.265625 55.195312 185.144531 55.417969 C 185.042969 55.578125 184.863281 55.59375 184.625 55.476562 C 184.375 55.34375 184.1875 55.140625 184.105469 54.898438 C 183.996094 54.613281 183.933594 54.316406 183.917969 54.019531 C 183.867188 52.921875 183.867188 52.332031 183.917969 51.378906 C 183.921875 51.132812 183.984375 50.890625 184.105469 50.671875 C 184.210938 50.507812 184.386719 50.488281 184.625 50.609375 C 184.878906 50.742188 185.0625 50.945312 185.144531 51.183594 C 185.253906 51.46875 185.316406 51.765625 185.332031 52.066406 C 185.390625 52.945312 185.390625 53.824219 185.332031 54.707031 Z M 185.332031 54.707031 "/>
<path style=" stroke:none;fill-rule:nonzero;fill:rgb(98.039216%,98.039216%,98.039216%);fill-opacity:1;" d="M 178.878906 41.554688 C 178.847656 40.695312 178.585938 39.851562 178.117188 39.089844 C 177.671875 38.378906 176.992188 37.792969 176.164062 37.398438 C 175.34375 37 174.703125 36.960938 174.238281 37.226562 C 173.769531 37.496094 173.519531 38.109375 173.472656 38.945312 C 173.453125 39.335938 173.441406 39.6875 173.441406 40 C 173.441406 40.308594 173.441406 40.660156 173.472656 41.042969 C 173.519531 41.90625 173.796875 42.746094 174.277344 43.507812 C 174.707031 44.207031 175.363281 44.792969 176.164062 45.195312 C 176.941406 45.574219 177.570312 45.636719 178.054688 45.351562 C 178.535156 45.066406 178.800781 44.515625 178.859375 43.675781 C 178.859375 43.308594 178.890625 42.976562 178.890625 42.664062 C 178.890625 42.351562 178.878906 41.96875 178.878906 41.554688 Z M 176.902344 42.976562 C 176.902344 43.21875 176.839844 43.460938 176.71875 43.683594 C 176.613281 43.847656 176.4375 43.863281 176.195312 43.746094 C 175.949219 43.609375 175.765625 43.40625 175.675781 43.167969 C 175.566406 42.882812 175.507812 42.585938 175.496094 42.289062 C 175.4375 41.410156 175.4375 40.527344 175.496094 39.648438 C 175.492188 39.402344 175.554688 39.160156 175.675781 38.9375 C 175.785156 38.777344 175.960938 38.753906 176.195312 38.878906 C 176.449219 39.007812 176.636719 39.214844 176.71875 39.453125 C 176.824219 39.738281 176.886719 40.035156 176.902344 40.335938 C 176.953125 41.214844 176.945312 42.097656 176.882812 42.976562 Z M 176.902344 42.976562 "/>
<path style=" stroke:none;fill-rule:nonzero;fill:rgb(21.568627%,27.843137%,30.980392%);fill-opacity:1;" d="M 62.851562 37.769531 L 83.71875 27.589844 C 84.183594 27.296875 84.800781 27.25 85.320312 27.460938 L 91.640625 30.539062 C 92.117188 30.816406 92.375 31.292969 92.308594 31.777344 L 92.308594 50.078125 C 92.222656 51.417969 91.386719 52.644531 90.054688 53.375 L 69.210938 63.5625 C 68.75 63.851562 68.140625 63.902344 67.621094 63.695312 C 67.214844 63.496094 61.699219 60.789062 61.292969 60.613281 C 60.816406 60.339844 60.5625 59.863281 60.625 59.378906 L 60.625 41.070312 C 60.707031 39.734375 61.535156 38.507812 62.851562 37.769531 Z M 62.851562 37.769531 "/>
<path style=" stroke:none;fill-rule:nonzero;fill:rgb(14.901961%,19.607843%,21.960784%);fill-opacity:1;" d="M 60.59375 41.070312 L 60.59375 59.375 C 60.53125 59.859375 60.785156 60.332031 61.261719 60.609375 L 67.546875 63.691406 C 67.117188 63.402344 66.886719 62.945312 66.941406 62.480469 L 66.941406 44.175781 C 66.964844 43.511719 67.191406 42.863281 67.601562 42.296875 L 61.257812 39.21875 C 60.855469 39.777344 60.628906 40.414062 60.59375 41.070312 Z M 60.59375 41.070312 "/>
<path style=" stroke:none;fill-rule:nonzero;fill:rgb(27.058824%,35.294118%,39.215686%);fill-opacity:1;" d="M 90.027344 53.390625 L 69.1875 63.574219 C 67.941406 64.183594 66.933594 63.691406 66.933594 62.476562 L 66.933594 44.171875 C 67.019531 42.832031 67.855469 41.605469 69.1875 40.871094 L 90.03125 30.691406 C 91.277344 30.082031 92.285156 30.574219 92.285156 31.789062 L 92.285156 50.089844 C 92.199219 51.429688 91.359375 52.65625 90.027344 53.390625 Z M 90.027344 53.390625 "/>
<path style=" stroke:none;fill-rule:nonzero;fill:rgb(98.039216%,98.039216%,98.039216%);fill-opacity:1;" d="M 82.679688 38.472656 C 82.742188 38.320312 82.824219 38.175781 82.917969 38.035156 C 83.007812 37.914062 83.132812 37.816406 83.277344 37.753906 L 84.433594 37.175781 C 84.558594 37.117188 84.652344 37.109375 84.722656 37.175781 C 84.808594 37.242188 84.847656 37.339844 84.832031 37.433594 C 84.835938 37.476562 84.835938 37.515625 84.832031 37.554688 C 84.820312 37.605469 84.800781 37.65625 84.78125 37.707031 L 76.570312 55.792969 C 76.507812 55.945312 76.425781 56.089844 76.332031 56.230469 C 76.242188 56.347656 76.117188 56.445312 75.972656 56.511719 L 74.816406 57.085938 C 74.691406 57.148438 74.597656 57.15625 74.527344 57.113281 C 74.441406 57.042969 74.402344 56.945312 74.417969 56.847656 C 74.414062 56.808594 74.414062 56.773438 74.417969 56.734375 C 74.429688 56.679688 74.449219 56.628906 74.46875 56.578125 Z M 82.679688 38.472656 "/>
<path style=" stroke:none;fill-rule:nonzero;fill:rgb(98.039216%,98.039216%,98.039216%);fill-opacity:1;" d="M 86.917969 46.324219 C 86.871094 45.464844 86.613281 44.890625 86.152344 44.605469 C 85.691406 44.324219 85.050781 44.382812 84.222656 44.78125 C 83.402344 45.183594 82.730469 45.777344 82.296875 46.492188 C 81.820312 47.25 81.558594 48.09375 81.53125 48.953125 C 81.53125 49.367188 81.5 49.734375 81.5 50.042969 C 81.5 50.347656 81.5 50.691406 81.53125 51.054688 C 81.589844 51.894531 81.851562 52.453125 82.335938 52.730469 C 82.820312 53.007812 83.449219 52.953125 84.222656 52.574219 C 85.027344 52.171875 85.679688 51.585938 86.113281 50.886719 C 86.59375 50.125 86.871094 49.285156 86.917969 48.421875 C 86.9375 48.039062 86.949219 47.691406 86.949219 47.378906 C 86.949219 47.066406 86.9375 46.714844 86.917969 46.324219 Z M 84.9375 49.675781 C 84.925781 49.976562 84.863281 50.269531 84.753906 50.554688 C 84.667969 50.792969 84.484375 51 84.234375 51.132812 C 83.984375 51.25 83.808594 51.234375 83.714844 51.070312 C 83.59375 50.847656 83.527344 50.605469 83.527344 50.363281 C 83.472656 49.484375 83.472656 48.601562 83.527344 47.722656 C 83.542969 47.421875 83.605469 47.128906 83.714844 46.84375 C 83.796875 46.601562 83.984375 46.398438 84.234375 46.265625 C 84.480469 46.144531 84.65625 46.164062 84.753906 46.324219 C 84.875 46.546875 84.9375 46.789062 84.9375 47.035156 C 84.992188 47.914062 84.992188 48.796875 84.9375 49.675781 Z M 84.9375 49.675781 "/>
<path style=" stroke:none;fill-rule:nonzero;fill:rgb(98.039216%,98.039216%,98.039216%);fill-opacity:1;" d="M 77.554688 43.238281 C 77.511719 42.382812 77.257812 41.808594 76.789062 41.523438 C 76.320312 41.234375 75.675781 41.292969 74.859375 41.695312 C 74.039062 42.097656 73.371094 42.691406 72.933594 43.40625 C 72.460938 44.167969 72.199219 45.011719 72.171875 45.871094 C 72.171875 46.285156 72.132812 46.644531 72.132812 46.957031 C 72.132812 47.269531 72.132812 47.605469 72.171875 47.96875 C 72.222656 48.808594 72.492188 49.363281 72.976562 49.640625 C 73.460938 49.917969 74.085938 49.871094 74.859375 49.492188 C 75.664062 49.085938 76.316406 48.5 76.746094 47.796875 C 77.234375 47.039062 77.507812 46.199219 77.554688 45.335938 C 77.554688 44.949219 77.589844 44.601562 77.589844 44.292969 C 77.589844 43.988281 77.574219 43.628906 77.554688 43.238281 Z M 75.578125 46.585938 C 75.5625 46.886719 75.5 47.183594 75.390625 47.46875 C 75.308594 47.707031 75.125 47.914062 74.871094 48.042969 C 74.625 48.167969 74.449219 48.144531 74.347656 47.988281 C 74.222656 47.765625 74.15625 47.519531 74.164062 47.273438 C 74.105469 46.394531 74.105469 45.511719 74.164062 44.632812 C 74.171875 44.335938 74.234375 44.039062 74.347656 43.753906 C 74.429688 43.511719 74.617188 43.308594 74.871094 43.175781 C 75.121094 43.054688 75.296875 43.074219 75.390625 43.234375 C 75.511719 43.457031 75.574219 43.699219 75.578125 43.941406 C 75.632812 44.824219 75.632812 45.707031 75.578125 46.585938 Z M 75.578125 46.585938 "/>
</g>
</svg>
