<?xml version="1.0" encoding="UTF-8"?>
<svg xmlns="http://www.w3.org/2000/svg" xmlns:xlink="http://www.w3.org/1999/xlink" width="350px" height="350px" viewBox="0 0 350 350" version="1.1">
<defs>
<filter id="alpha" filterUnits="objectBoundingBox" x="0%" y="0%" width="100%" height="100%">
  <feColorMatrix type="matrix" in="SourceGraphic" values="0 0 0 0 1 0 0 0 0 1 0 0 0 0 1 0 0 0 1 0"/>
</filter>
<mask id="mask0">
  <g filter="url(#alpha)">
<rect x="0" y="0" width="350" height="350" style="fill:rgb(0%,0%,0%);fill-opacity:0.101961;stroke:none;"/>
  </g>
</mask>
<clipPath id="clip1">
  <rect x="0" y="0" width="350" height="350"/>
</clipPath>
<g id="surface5" clip-path="url(#clip1)">
<path style=" stroke:none;fill-rule:nonzero;fill:rgb(0%,0%,0%);fill-opacity:1;" d="M 213.550781 216.683594 L 198.5625 243.011719 C 198.5625 243.011719 180.734375 219.4375 173.152344 193.429688 C 172.339844 190.632812 172.261719 188.089844 172.886719 186.171875 Z M 213.550781 216.683594 "/>
</g>
</defs>
<g id="surface1">
<path style=" stroke:none;fill-rule:nonzero;fill:rgb(92.156863%,92.156863%,92.156863%);fill-opacity:1;" d="M 254.394531 311.949219 C 254.394531 305.726562 218.847656 300.683594 175 300.683594 C 131.152344 300.683594 95.605469 305.726562 95.605469 311.949219 C 95.605469 318.167969 131.152344 323.210938 175 323.210938 C 218.847656 323.210938 254.394531 318.167969 254.394531 311.949219 Z M 254.394531 311.949219 "/>
<path style=" stroke:none;fill-rule:nonzero;fill:rgb(100%,100%,100%);fill-opacity:1;" d="M 111.34375 116.375 C 111.339844 120.546875 114.71875 123.933594 118.890625 123.933594 C 123.0625 123.9375 126.445312 120.558594 126.449219 116.382812 C 126.449219 112.210938 123.066406 108.828125 118.894531 108.828125 C 114.726562 108.828125 111.347656 112.207031 111.34375 116.375 Z M 111.34375 116.375 "/>
<path style=" stroke:none;fill-rule:nonzero;fill:rgb(14.901961%,19.607843%,21.960784%);fill-opacity:1;" d="M 111.34375 116.375 C 111.363281 118.371094 112.167969 120.277344 113.589844 121.679688 C 115.007812 123.058594 116.917969 123.816406 118.894531 123.78125 C 120.832031 123.738281 122.675781 122.929688 124.019531 121.535156 C 126.789062 118.675781 126.789062 114.136719 124.019531 111.277344 C 121.1875 108.351562 116.519531 108.273438 113.589844 111.105469 C 112.175781 112.496094 111.367188 114.390625 111.34375 116.375 Z M 111.34375 116.375 C 111.332031 114.367188 112.113281 112.433594 113.519531 111 C 116.492188 107.941406 121.378906 107.863281 124.445312 110.824219 C 125.945312 112.28125 126.792969 114.285156 126.792969 116.375 C 126.792969 118.464844 125.945312 120.46875 124.445312 121.925781 C 122.976562 123.359375 120.996094 124.144531 118.945312 124.113281 C 116.894531 124.082031 114.941406 123.230469 113.519531 121.75 C 112.113281 120.316406 111.332031 118.382812 111.34375 116.375 Z M 111.34375 116.375 "/>
<path style=" stroke:none;fill-rule:nonzero;fill:rgb(100%,100%,100%);fill-opacity:1;" d="M 54.222656 75.71875 C 54.222656 95.566406 70.3125 111.65625 90.160156 111.65625 C 110.007812 111.65625 126.097656 95.566406 126.097656 75.71875 C 126.097656 55.871094 110.007812 39.78125 90.160156 39.78125 C 70.3125 39.78125 54.222656 55.871094 54.222656 75.71875 Z M 54.222656 75.71875 "/>
<path style=" stroke:none;fill-rule:nonzero;fill:rgb(14.901961%,19.607843%,21.960784%);fill-opacity:1;" d="M 54.222656 75.71875 C 54.238281 85.242188 58.039062 94.371094 64.785156 101.09375 C 78.78125 114.875 101.273438 114.789062 115.164062 100.898438 C 129.054688 87.007812 129.140625 64.515625 115.359375 50.519531 C 105.144531 40.253906 89.753906 37.160156 76.363281 42.675781 C 62.976562 48.195312 54.234375 61.238281 54.222656 75.71875 Z M 54.222656 75.71875 C 54.242188 57.191406 68.316406 41.707031 86.753906 39.914062 C 105.191406 38.121094 121.984375 50.613281 125.570312 68.785156 C 129.15625 86.960938 118.371094 104.894531 100.632812 110.242188 C 82.898438 115.589844 63.996094 106.609375 56.9375 89.480469 C 55.140625 85.113281 54.21875 80.441406 54.222656 75.71875 Z M 54.222656 75.71875 "/>
<path style=" stroke:none;fill-rule:nonzero;fill:rgb(100%,100%,100%);fill-opacity:1;" d="M 128.800781 128.800781 C 128.800781 131.121094 130.679688 133 133 133 C 135.320312 133 137.199219 131.121094 137.199219 128.800781 C 137.199219 126.480469 135.320312 124.601562 133 124.601562 C 130.679688 124.601562 128.800781 126.480469 128.800781 128.800781 Z M 128.800781 128.800781 "/>
<path style=" stroke:none;fill-rule:nonzero;fill:rgb(14.901961%,19.607843%,21.960784%);fill-opacity:1;" d="M 128.800781 128.800781 C 128.800781 129.898438 129.246094 130.949219 130.039062 131.710938 C 130.832031 132.472656 131.902344 132.878906 133 132.832031 C 135.160156 132.742188 136.863281 130.964844 136.863281 128.804688 C 136.863281 126.640625 135.160156 124.863281 133 124.773438 C 131.902344 124.730469 130.835938 125.132812 130.042969 125.890625 C 129.25 126.652344 128.800781 127.703125 128.800781 128.800781 Z M 128.800781 128.800781 C 128.800781 127.683594 129.230469 126.609375 129.996094 125.796875 C 130.773438 124.949219 131.855469 124.441406 133.007812 124.398438 C 135.421875 124.398438 137.382812 126.355469 137.382812 128.773438 C 137.382812 131.1875 135.421875 133.148438 133.007812 133.148438 C 131.863281 133.105469 130.78125 132.617188 129.996094 131.78125 C 129.234375 130.976562 128.808594 129.910156 128.800781 128.800781 Z M 128.800781 128.800781 "/>
<path style=" stroke:none;fill-rule:nonzero;fill:rgb(14.901961%,19.607843%,21.960784%);fill-opacity:1;" d="M 73.785156 68.066406 L 77.546875 75.410156 L 81.367188 68.066406 L 84.566406 68.066406 L 79.03125 77.988281 L 79.03125 83.300781 L 76.082031 83.300781 L 76.082031 77.929688 L 70.566406 68.0625 Z M 73.785156 68.066406 "/>
<path style=" stroke:none;fill-rule:nonzero;fill:rgb(14.901961%,19.607843%,21.960784%);fill-opacity:1;" d="M 96.824219 80.710938 L 96.824219 83.300781 L 86.238281 83.300781 L 86.238281 68.066406 L 96.601562 68.066406 L 96.601562 70.699219 L 89.199219 70.699219 L 89.199219 74.367188 L 95.621094 74.367188 L 95.621094 76.777344 L 89.199219 76.777344 L 89.199219 80.746094 Z M 96.824219 80.710938 "/>
<path style=" stroke:none;fill-rule:nonzero;fill:rgb(14.901961%,19.607843%,21.960784%);fill-opacity:1;" d="M 107.898438 72.058594 C 107.730469 71.90625 107.546875 71.769531 107.351562 71.652344 C 107.046875 71.457031 106.722656 71.285156 106.386719 71.148438 C 105.988281 70.972656 105.574219 70.832031 105.152344 70.726562 C 104.710938 70.613281 104.257812 70.554688 103.804688 70.554688 C 103.160156 70.507812 102.519531 70.664062 101.976562 71.007812 C 101.578125 71.304688 101.351562 71.777344 101.375 72.273438 C 101.363281 72.554688 101.441406 72.828125 101.597656 73.058594 C 101.777344 73.285156 102 73.46875 102.257812 73.605469 C 102.601562 73.785156 102.964844 73.929688 103.339844 74.03125 C 103.773438 74.164062 104.277344 74.296875 104.851562 74.445312 C 105.539062 74.625 106.21875 74.839844 106.882812 75.089844 C 107.441406 75.289062 107.964844 75.574219 108.429688 75.941406 C 108.84375 76.277344 109.175781 76.703125 109.402344 77.183594 C 109.648438 77.738281 109.765625 78.34375 109.746094 78.953125 C 109.765625 79.679688 109.609375 80.402344 109.285156 81.054688 C 108.988281 81.613281 108.558594 82.09375 108.039062 82.453125 C 107.492188 82.820312 106.882812 83.085938 106.238281 83.230469 C 105.539062 83.398438 104.824219 83.484375 104.105469 83.480469 C 102.953125 83.480469 101.808594 83.304688 100.710938 82.964844 C 99.636719 82.644531 98.621094 82.152344 97.707031 81.507812 L 99.015625 78.953125 C 99.230469 79.144531 99.464844 79.3125 99.714844 79.457031 C 100.101562 79.6875 100.5 79.894531 100.910156 80.078125 C 101.402344 80.292969 101.910156 80.46875 102.429688 80.605469 C 102.996094 80.746094 103.574219 80.816406 104.152344 80.816406 C 105.785156 80.816406 106.597656 80.296875 106.597656 79.253906 C 106.605469 78.949219 106.507812 78.652344 106.316406 78.414062 C 106.097656 78.160156 105.828125 77.953125 105.523438 77.8125 C 105.125 77.621094 104.707031 77.460938 104.277344 77.34375 L 102.648438 76.867188 C 102 76.695312 101.367188 76.480469 100.75 76.214844 C 100.261719 76.007812 99.808594 75.726562 99.40625 75.375 C 99.058594 75.070312 98.78125 74.683594 98.601562 74.257812 C 98.410156 73.777344 98.320312 73.261719 98.335938 72.742188 C 98.320312 72.035156 98.46875 71.332031 98.761719 70.6875 C 99.035156 70.097656 99.445312 69.582031 99.953125 69.179688 C 100.484375 68.773438 101.082031 68.464844 101.722656 68.269531 C 102.425781 68.054688 103.160156 67.949219 103.894531 67.957031 C 104.902344 67.945312 105.90625 68.117188 106.855469 68.460938 C 107.679688 68.765625 108.46875 69.167969 109.199219 69.65625 Z M 107.898438 72.058594 "/>
<path style=" stroke:none;fill-rule:nonzero;fill:rgb(100%,100%,100%);fill-opacity:1;" d="M 232.828125 116.375 C 232.832031 120.546875 229.449219 123.933594 225.277344 123.933594 C 221.101562 123.9375 217.71875 120.554688 217.722656 116.378906 C 217.722656 112.207031 221.109375 108.824219 225.28125 108.828125 C 229.445312 108.832031 232.824219 112.210938 232.828125 116.375 Z M 232.828125 116.375 "/>
<path style=" stroke:none;fill-rule:nonzero;fill:rgb(14.901961%,19.607843%,21.960784%);fill-opacity:1;" d="M 232.828125 116.375 C 232.84375 118.386719 232.0625 120.320312 230.648438 121.75 C 229.226562 123.226562 227.277344 124.078125 225.226562 124.109375 C 223.175781 124.140625 221.199219 123.355469 219.730469 121.925781 C 218.21875 120.472656 217.367188 118.46875 217.367188 116.375 C 217.367188 114.28125 218.21875 112.277344 219.730469 110.824219 C 221.199219 109.394531 223.175781 108.609375 225.226562 108.640625 C 227.277344 108.671875 229.226562 109.523438 230.648438 111 C 232.0625 112.429688 232.84375 114.363281 232.828125 116.375 Z M 232.828125 116.375 C 232.8125 114.378906 232.003906 112.472656 230.578125 111.074219 C 227.652344 108.246094 222.980469 108.324219 220.148438 111.25 C 217.386719 114.109375 217.386719 118.644531 220.148438 121.507812 C 222.980469 124.433594 227.652344 124.511719 230.578125 121.679688 C 232.003906 120.28125 232.808594 118.371094 232.828125 116.375 Z M 232.828125 116.375 "/>
<path style=" stroke:none;fill-rule:nonzero;fill:rgb(100%,100%,100%);fill-opacity:1;" d="M 289.953125 75.71875 C 289.953125 95.566406 273.863281 111.65625 254.015625 111.65625 C 234.167969 111.65625 218.078125 95.566406 218.078125 75.71875 C 218.078125 55.871094 234.167969 39.78125 254.015625 39.78125 C 273.863281 39.785156 289.949219 55.871094 289.953125 75.71875 Z M 289.953125 75.71875 "/>
<path style=" stroke:none;fill-rule:nonzero;fill:rgb(14.901961%,19.607843%,21.960784%);fill-opacity:1;" d="M 289.953125 75.71875 C 289.992188 92.957031 277.832031 107.816406 260.929688 111.195312 C 244.027344 114.574219 227.09375 105.527344 220.5 89.601562 C 214.875 76.054688 217.984375 60.457031 228.375 50.105469 C 238.714844 39.792969 254.25 36.726562 267.734375 42.335938 C 281.21875 47.945312 289.996094 61.121094 289.976562 75.726562 Z M 289.953125 75.71875 C 289.945312 61.269531 281.238281 48.242188 267.886719 42.710938 C 254.539062 37.175781 239.171875 40.21875 228.9375 50.421875 C 218.707031 60.625 215.621094 75.984375 221.117188 89.347656 C 226.617188 102.734375 239.644531 111.480469 254.113281 111.503906 C 268.585938 111.53125 281.644531 102.824219 287.1875 89.460938 C 289 85.105469 289.9375 80.4375 289.953125 75.71875 Z M 289.953125 75.71875 "/>
<path style=" stroke:none;fill-rule:nonzero;fill:rgb(100%,100%,100%);fill-opacity:1;" d="M 215.339844 128.800781 C 215.339844 131.121094 213.460938 133 211.140625 133 C 208.820312 133 206.941406 131.121094 206.941406 128.800781 C 206.941406 126.480469 208.820312 124.601562 211.140625 124.601562 C 213.460938 124.601562 215.339844 126.480469 215.339844 128.800781 Z M 215.339844 128.800781 "/>
<path style=" stroke:none;fill-rule:nonzero;fill:rgb(14.901961%,19.607843%,21.960784%);fill-opacity:1;" d="M 215.339844 128.800781 C 215.34375 131.148438 213.488281 133.082031 211.140625 133.175781 C 209.519531 133.265625 207.980469 132.453125 207.140625 131.0625 C 206.300781 129.671875 206.300781 127.929688 207.140625 126.539062 C 207.980469 125.144531 209.519531 124.332031 211.140625 124.425781 C 213.484375 124.527344 215.335938 126.453125 215.339844 128.800781 Z M 215.339844 128.800781 C 215.34375 127.699219 214.898438 126.648438 214.101562 125.886719 C 213.308594 125.128906 212.238281 124.726562 211.140625 124.773438 C 208.980469 124.863281 207.277344 126.640625 207.277344 128.804688 C 207.277344 130.964844 208.980469 132.742188 211.140625 132.832031 C 212.242188 132.882812 213.3125 132.480469 214.105469 131.714844 C 214.898438 130.953125 215.347656 129.898438 215.339844 128.800781 Z M 215.339844 128.800781 "/>
<path style=" stroke:none;fill-rule:nonzero;fill:rgb(14.901961%,19.607843%,21.960784%);fill-opacity:1;" d="M 241.808594 73.570312 L 241.808594 83.371094 L 238.847656 83.371094 L 238.847656 68.097656 L 241.144531 68.097656 L 249.089844 78.097656 L 249.089844 68.117188 L 252.050781 68.117188 L 252.050781 83.34375 L 249.648438 83.34375 Z M 241.808594 73.570312 "/>
<path style=" stroke:none;fill-rule:nonzero;fill:rgb(14.901961%,19.607843%,21.960784%);fill-opacity:1;" d="M 261.730469 83.445312 C 260.679688 83.460938 259.644531 83.238281 258.691406 82.796875 C 257.808594 82.371094 257.015625 81.777344 256.355469 81.054688 C 255.042969 79.582031 254.316406 77.6875 254.304688 75.71875 C 254.300781 74.71875 254.492188 73.726562 254.871094 72.800781 C 255.242188 71.890625 255.773438 71.050781 256.4375 70.328125 C 257.109375 69.605469 257.914062 69.019531 258.8125 68.601562 C 259.75 68.175781 260.769531 67.960938 261.800781 67.96875 C 262.847656 67.964844 263.878906 68.203125 264.816406 68.671875 C 265.699219 69.101562 266.492188 69.703125 267.140625 70.441406 C 267.789062 71.171875 268.296875 72.011719 268.644531 72.925781 C 268.996094 73.820312 269.175781 74.769531 269.183594 75.726562 C 269.1875 76.722656 268.996094 77.710938 268.625 78.636719 C 268.265625 79.542969 267.742188 80.371094 267.078125 81.082031 C 266.410156 81.796875 265.609375 82.375 264.71875 82.78125 C 263.78125 83.21875 262.761719 83.445312 261.730469 83.445312 Z M 257.3125 75.746094 C 257.308594 76.394531 257.410156 77.042969 257.613281 77.65625 C 257.800781 78.25 258.09375 78.804688 258.480469 79.289062 C 258.863281 79.765625 259.339844 80.15625 259.882812 80.429688 C 261.074219 81.007812 262.46875 81.007812 263.660156 80.429688 C 264.207031 80.144531 264.683594 79.746094 265.0625 79.261719 C 265.441406 78.765625 265.734375 78.210938 265.921875 77.617188 C 266.113281 77.015625 266.207031 76.390625 266.210938 75.761719 C 266.210938 75.113281 266.105469 74.464844 265.902344 73.851562 C 265.707031 73.257812 265.40625 72.707031 265.019531 72.21875 C 264.636719 71.75 264.160156 71.363281 263.621094 71.09375 C 263.042969 70.804688 262.402344 70.660156 261.757812 70.671875 C 261.097656 70.660156 260.441406 70.8125 259.855469 71.113281 C 259.308594 71.394531 258.832031 71.789062 258.453125 72.273438 C 258.078125 72.765625 257.789062 73.316406 257.605469 73.90625 C 257.417969 74.492188 257.316406 75.101562 257.3125 75.71875 Z M 257.3125 75.746094 "/>
<path style=" stroke:none;fill-rule:nonzero;fill:rgb(14.901961%,19.607843%,21.960784%);fill-opacity:1;" d="M 81.289062 215.601562 C 71.449219 228.898438 61.179688 244.398438 58.679688 261.101562 C 58.679688 261.351562 59.058594 261.4375 59.113281 261.183594 C 60.25 256.625 61.707031 252.152344 63.46875 247.800781 C 69.945312 246.023438 76.292969 244.558594 79.6875 238.132812 C 83.1875 231.53125 82.71875 222.921875 82.0625 215.734375 C 82.011719 215.335938 81.488281 215.3125 81.289062 215.601562 Z M 81.289062 215.601562 "/>
<path style=" stroke:none;fill-rule:nonzero;fill:rgb(14.901961%,19.607843%,21.960784%);fill-opacity:1;" d="M 63.566406 247.660156 C 67.992188 237.742188 73.667969 227.773438 80.878906 219.617188 C 80.925781 219.5625 81.003906 219.617188 80.960938 219.695312 C 76.238281 225.503906 72.644531 231.832031 69.140625 238.273438 C 72.402344 234.96875 75.972656 231.972656 79.058594 228.472656 C 79.121094 228.402344 79.210938 228.472656 79.15625 228.570312 C 76.089844 232.253906 72.742188 236.269531 68.753906 238.972656 C 67.675781 240.945312 66.59375 242.925781 65.507812 244.910156 C 65.773438 244.761719 66.050781 244.628906 66.324219 244.488281 C 66.375 244.488281 66.414062 244.539062 66.367188 244.566406 C 66.066406 244.71875 65.765625 244.882812 65.449219 245.015625 C 64.933594 245.953125 64.414062 246.890625 63.882812 247.8125 C 63.761719 248.050781 63.476562 247.871094 63.566406 247.660156 Z M 63.566406 247.660156 "/>
<path style=" stroke:none;fill-rule:nonzero;fill:rgb(14.901961%,19.607843%,21.960784%);fill-opacity:1;" d="M 66.855469 244.203125 C 69.503906 242.71875 72.027344 241.03125 74.410156 239.15625 C 74.480469 239.105469 74.570312 239.195312 74.507812 239.246094 C 72.199219 241.242188 69.667969 242.964844 66.960938 244.382812 C 66.910156 244.414062 66.847656 244.394531 66.820312 244.34375 C 66.789062 244.296875 66.808594 244.230469 66.855469 244.203125 Z M 66.855469 244.203125 "/>
<path style=" stroke:none;fill-rule:nonzero;fill:rgb(14.901961%,19.607843%,21.960784%);fill-opacity:1;" d="M 57.546875 258.601562 C 57.546875 258.804688 57.910156 258.804688 57.902344 258.601562 C 57.953125 253.09375 57.902344 247.5625 57.996094 242.03125 C 59.394531 239.191406 62.433594 237.613281 64.53125 235.332031 C 66.050781 233.667969 67.367188 231.835938 68.460938 229.867188 C 70.996094 225.164062 72.546875 219.996094 73.015625 214.675781 C 73.597656 208.789062 71.363281 189.355469 68.878906 190.035156 C 67.59375 190.386719 63.425781 200.011719 62.320312 203.1875 C 60.535156 208.4375 59.222656 213.839844 58.402344 219.324219 C 56.390625 232.261719 56.558594 245.566406 57.546875 258.601562 Z M 57.546875 258.601562 "/>
<path style=" stroke:none;fill-rule:nonzero;fill:rgb(14.901961%,19.607843%,21.960784%);fill-opacity:1;" d="M 57.503906 234.855469 C 57.804688 227.855469 59.375 220.855469 60.84375 214.09375 C 62.425781 206.820312 64.273438 199.96875 68.019531 193.472656 C 68.089844 193.355469 68.269531 193.472656 68.207031 193.585938 C 65.707031 198.632812 63.773438 203.941406 62.441406 209.410156 C 62.691406 209.019531 62.992188 208.648438 63.257812 208.277344 C 63.355469 208.132812 63.601562 208.277344 63.496094 208.417969 C 63.164062 209.007812 62.773438 209.5625 62.328125 210.070312 C 62.3125 210.074219 62.292969 210.074219 62.277344 210.070312 C 60.992188 215.277344 60.066406 220.570312 59.269531 225.902344 C 59.332031 225.835938 59.386719 225.765625 59.449219 225.699219 C 59.515625 225.636719 59.554688 225.699219 59.527344 225.765625 C 59.429688 225.941406 59.324219 226.117188 59.214844 226.289062 C 58.8125 228.984375 58.441406 231.671875 58.070312 234.339844 C 62.867188 230.238281 66.96875 225.398438 69.273438 219.449219 C 69.273438 219.449219 69.328125 219.449219 69.3125 219.449219 C 67.054688 225.625 63.484375 231.113281 57.988281 234.851562 C 57.890625 235.550781 57.792969 236.25 57.6875 237 C 57.6875 237.144531 57.429688 237.109375 57.429688 236.964844 C 57.429688 236.328125 57.429688 235.695312 57.492188 235.058594 C 57.457031 235.023438 57.398438 234.921875 57.503906 234.855469 Z M 57.503906 234.855469 "/>
<path style=" stroke:none;fill-rule:nonzero;fill:rgb(14.901961%,19.607843%,21.960784%);fill-opacity:1;" d="M 59.765625 224.761719 C 63.433594 219.289062 66.855469 213.976562 69.566406 207.964844 C 69.566406 207.898438 69.714844 207.964844 69.683594 208.011719 C 67.425781 214.023438 64.261719 220.113281 59.976562 224.9375 C 59.863281 225 59.6875 224.875 59.765625 224.761719 Z M 59.765625 224.761719 "/>
<path style=" stroke:none;fill-rule:nonzero;fill:rgb(14.901961%,19.607843%,21.960784%);fill-opacity:1;" d="M 64.636719 206.578125 C 66.15625 203.890625 67.761719 201.277344 69.1875 198.535156 C 69.1875 198.457031 69.335938 198.535156 69.300781 198.605469 C 68.128906 201.464844 66.640625 204.183594 64.867188 206.71875 C 64.769531 206.851562 64.546875 206.730469 64.636719 206.578125 Z M 64.636719 206.578125 "/>
<path style=" stroke:none;fill-rule:nonzero;fill:rgb(14.901961%,19.607843%,21.960784%);fill-opacity:1;" d="M 64.042969 207.746094 C 64.042969 207.746094 64.042969 207.796875 64.042969 207.796875 C 64.042969 207.796875 64.015625 207.746094 64.042969 207.746094 Z M 64.042969 207.746094 "/>
<path style=" stroke:none;fill-rule:nonzero;fill:rgb(14.901961%,19.607843%,21.960784%);fill-opacity:1;" d="M 53.816406 242.683594 C 53.746094 246.332031 53.316406 249.960938 52.535156 253.527344 C 52.589844 253.917969 52.648438 254.308594 52.703125 254.714844 C 53.824219 250.777344 54.476562 246.71875 54.640625 242.628906 C 54.710938 242.511719 54.710938 242.367188 54.640625 242.25 C 54.800781 236.761719 54.394531 231.273438 53.429688 225.867188 C 51.722656 215.746094 48 206.039062 40.941406 198.457031 C 40.824219 198.355469 40.667969 198.316406 40.515625 198.347656 C 40.363281 198.378906 40.234375 198.480469 40.164062 198.617188 C 37.316406 205.855469 38.3125 214.492188 40.734375 221.71875 C 42.054688 225.628906 43.941406 229.324219 46.332031 232.6875 C 48.769531 236.089844 51.847656 238.964844 53.816406 242.683594 Z M 53.816406 242.683594 "/>
<path style=" stroke:none;fill-rule:nonzero;fill:rgb(14.901961%,19.607843%,21.960784%);fill-opacity:1;" d="M 41.789062 201.839844 C 48.480469 212.6875 53.128906 225.5625 53.691406 238.378906 C 53.691406 238.601562 53.320312 238.664062 53.285156 238.433594 C 53.121094 237.277344 52.949219 236.136719 52.765625 235.003906 C 50 232.359375 47.164062 229.558594 45.179688 226.246094 C 45.167969 226.222656 45.179688 226.191406 45.199219 226.175781 C 45.222656 226.160156 45.253906 226.160156 45.277344 226.175781 C 47.683594 228.929688 49.929688 231.742188 52.648438 234.199219 C 52.164062 231.363281 51.597656 228.597656 50.925781 225.800781 L 50.398438 225.175781 C 50.28125 225.035156 50.476562 224.839844 50.597656 224.972656 L 50.757812 225.15625 C 49.8125 221.386719 48.644531 217.679688 47.257812 214.054688 C 45.550781 212.023438 43.644531 210.265625 42.40625 207.824219 C 42.398438 207.800781 42.410156 207.773438 42.429688 207.761719 C 42.453125 207.75 42.480469 207.75 42.496094 207.765625 C 43.492188 209.167969 44.457031 210.566406 45.589844 211.875 C 46.039062 212.394531 46.535156 212.878906 46.992188 213.382812 C 45.449219 209.449219 43.617188 205.636719 41.515625 201.972656 C 41.480469 201.894531 41.511719 201.804688 41.585938 201.769531 C 41.664062 201.730469 41.753906 201.761719 41.789062 201.839844 Z M 41.789062 201.839844 "/>
<path style=" stroke:none;fill-rule:nonzero;fill:rgb(14.901961%,19.607843%,21.960784%);fill-opacity:1;" d="M 43.148438 215.222656 C 45.304688 218.132812 47.769531 220.914062 49.777344 223.914062 C 49.832031 224 49.714844 224.089844 49.636719 224.019531 C 47.054688 221.597656 44.871094 218.296875 43 215.3125 C 42.9375 215.214844 43.085938 215.136719 43.148438 215.222656 Z M 43.148438 215.222656 "/>
<path style=" stroke:none;fill-rule:nonzero;fill:rgb(14.901961%,19.607843%,21.960784%);fill-opacity:1;" d="M 50.078125 224.589844 L 50.175781 224.679688 C 50.191406 224.710938 50.1875 224.746094 50.164062 224.773438 C 50.140625 224.796875 50.101562 224.800781 50.070312 224.785156 L 49.980469 224.699219 C 49.949219 224.671875 49.945312 224.625 49.972656 224.59375 C 50 224.5625 50.046875 224.5625 50.078125 224.589844 Z M 50.078125 224.589844 "/>
<path style=" stroke:none;fill-rule:nonzero;fill:rgb(14.901961%,19.607843%,21.960784%);fill-opacity:1;" d="M 31.316406 222.699219 C 31.851562 228.296875 34.816406 234.953125 38.375 239.261719 C 39.953125 241.125 41.902344 242.644531 44.101562 243.71875 C 46.578125 244.949219 49.175781 246.359375 51.738281 247.367188 C 52.953125 250.46875 53.859375 253.6875 54.445312 256.96875 C 54.523438 256.691406 54.605469 256.402344 54.691406 256.121094 C 53.039062 241.984375 43.890625 229.902344 32.199219 222.144531 C 32.015625 222.015625 31.769531 222.011719 31.578125 222.132812 C 31.386719 222.25 31.285156 222.472656 31.316406 222.699219 Z M 31.316406 222.699219 "/>
<path style=" stroke:none;fill-rule:nonzero;fill:rgb(14.901961%,19.607843%,21.960784%);fill-opacity:1;" d="M 35.355469 226.878906 C 35.273438 226.808594 35.355469 226.660156 35.476562 226.722656 C 41.910156 231.5 47.042969 237.820312 50.398438 245.097656 C 50.484375 245.292969 50.21875 245.460938 50.113281 245.265625 C 49.566406 244.3125 49.015625 243.390625 48.445312 242.464844 C 45.78125 241.960938 43.246094 240.078125 41.265625 238.300781 C 41.210938 238.253906 41.265625 238.167969 41.34375 238.21875 C 42.363281 239.148438 43.5 239.945312 44.722656 240.589844 C 45.816406 241.144531 46.984375 241.492188 48.117188 241.933594 C 47.125 240.367188 46.09375 238.859375 45.015625 237.398438 C 42.132812 236.300781 39.429688 234.777344 36.996094 232.882812 C 36.917969 232.828125 36.996094 232.707031 37.066406 232.757812 C 39.480469 234.214844 41.972656 235.546875 44.527344 236.746094 C 42.898438 234.59375 41.140625 232.542969 39.261719 230.601562 C 38.351562 230.125 37.429688 229.640625 36.554688 229.132812 C 36.484375 229.089844 36.554688 228.964844 36.609375 228.992188 C 37.347656 229.25 38.050781 229.589844 38.710938 230.011719 C 37.609375 228.964844 36.527344 227.90625 35.355469 226.878906 Z M 35.355469 226.878906 "/>
<path style=" stroke:none;fill-rule:nonzero;fill:rgb(14.901961%,19.607843%,21.960784%);fill-opacity:1;" d="M 35.609375 231.757812 C 35.765625 231.851562 35.917969 231.960938 36.058594 232.078125 C 36.097656 232.121094 36.058594 232.175781 36 232.15625 C 35.839844 232.078125 35.683594 231.988281 35.53125 231.890625 C 35.5 231.867188 35.488281 231.820312 35.507812 231.785156 C 35.527344 231.75 35.574219 231.738281 35.609375 231.757812 Z M 35.609375 231.757812 "/>
<path style=" stroke:none;fill-rule:nonzero;fill:rgb(27.058824%,35.294118%,39.215686%);fill-opacity:1;" d="M 72.945312 287.589844 L 40.878906 287.589844 L 43.46875 258.382812 L 44.035156 251.945312 L 69.789062 251.945312 L 70.355469 258.382812 Z M 72.945312 287.589844 "/>
<path style=" stroke:none;fill-rule:nonzero;fill:rgb(14.901961%,19.607843%,21.960784%);fill-opacity:1;" d="M 70.355469 258.382812 L 43.46875 258.382812 L 44.035156 251.945312 L 69.789062 251.945312 Z M 70.355469 258.382812 "/>
<path style=" stroke:none;fill-rule:nonzero;fill:rgb(27.058824%,35.294118%,39.215686%);fill-opacity:1;" d="M 42.503906 247.441406 L 71.324219 247.441406 L 71.324219 253.8125 L 42.503906 253.8125 Z M 42.503906 247.441406 "/>
<path style=" stroke:none;fill-rule:nonzero;fill:rgb(14.901961%,19.607843%,21.960784%);fill-opacity:1;" d="M 25.695312 287.59375 L 63.019531 287.425781 L 100.34375 287.363281 L 175 287.246094 L 249.648438 287.363281 L 286.980469 287.425781 L 324.304688 287.59375 L 286.980469 287.769531 L 249.648438 287.832031 L 175 287.945312 L 100.34375 287.824219 L 63.019531 287.769531 Z M 25.695312 287.59375 "/>
<path style=" stroke:none;fill-rule:nonzero;fill:rgb(14.901961%,19.607843%,21.960784%);fill-opacity:1;" d="M 210.757812 226.6875 L 204.53125 226.035156 C 204.460938 224.367188 204.144531 222.714844 203.59375 221.136719 C 201.417969 215.011719 196.664062 209.9375 193.023438 204.902344 C 193.023438 204.902344 192.984375 204.902344 193.023438 204.9375 C 196.652344 210.117188 199.40625 215.855469 201.171875 221.929688 C 201.496094 223.15625 201.675781 224.421875 201.703125 225.695312 L 197.828125 225.296875 C 197.847656 221.574219 196.980469 217.898438 195.300781 214.578125 C 195.25 214.480469 195.089844 214.578125 195.132812 214.703125 C 196.53125 218.0625 196.707031 221.59375 196.425781 225.203125 L 162.777344 221.65625 C 162.402344 218.566406 162.277344 215.453125 162.40625 212.34375 C 162.421875 212.246094 162.378906 212.148438 162.296875 212.09375 C 162.210938 212.039062 162.105469 212.039062 162.019531 212.09375 C 161.9375 212.148438 161.894531 212.246094 161.910156 212.34375 C 161.730469 215.414062 161.730469 218.488281 161.910156 221.558594 L 159.109375 221.25 C 158.957031 215.921875 159.488281 210.597656 160.691406 205.40625 C 160.714844 205.359375 160.707031 205.300781 160.671875 205.261719 C 160.636719 205.222656 160.582031 205.207031 160.53125 205.222656 C 160.480469 205.238281 160.445312 205.285156 160.441406 205.339844 C 158.945312 210.476562 158.003906 215.757812 157.640625 221.09375 L 134.34375 218.652344 C 135.9375 215.375 137.261719 211.972656 138.300781 208.480469 C 138.398438 208.195312 137.96875 208.074219 137.871094 208.367188 C 136.625 211.921875 134.984375 215.320312 132.972656 218.503906 L 129.515625 218.148438 C 132.566406 212.4375 134.953125 206.414062 135.8125 200.03125 C 135.8125 199.773438 135.441406 199.722656 135.394531 199.984375 C 134.085938 206.84375 130.320312 212.34375 126.574219 217.832031 L 117.804688 216.914062 C 121.203125 211.785156 126.820312 207.277344 127.972656 201.03125 C 129.246094 194.03125 122.988281 190.238281 121.421875 184.171875 C 118.789062 174.007812 124.304688 166.949219 131.066406 160.539062 C 137.285156 154.617188 137.136719 147.371094 139.070312 139.441406 C 140.46875 133.601562 142.570312 127.167969 146.027344 122.226562 C 156.625 106.96875 173.628906 110.328125 173.628906 110.523438 C 177.601562 110.84375 181.40625 112.257812 184.625 114.605469 C 184.640625 114.601562 184.65625 114.601562 184.675781 114.605469 C 184.898438 114.757812 185.109375 114.929688 185.3125 115.113281 C 188.964844 118.125 191.808594 122 193.585938 126.386719 L 193.585938 126.441406 C 194.199219 127.851562 194.738281 129.296875 195.195312 130.765625 C 196.019531 133.433594 196 137.066406 196.59375 141.265625 C 196.582031 141.347656 196.582031 141.429688 196.59375 141.511719 C 197.503906 149.097656 201.246094 156.058594 207.074219 161 C 215.964844 168.855469 212.710938 180.375 204.441406 191.605469 C 200.941406 196.363281 200.648438 199.5625 201.746094 202.390625 C 201.746094 202.390625 201.746094 202.390625 201.746094 202.433594 C 201.914062 202.816406 202.070312 203.132812 202.257812 203.519531 C 203.902344 206.652344 207.054688 209.503906 209.074219 213.773438 C 210.972656 217.699219 211.195312 222.214844 210.757812 226.6875 Z M 210.757812 226.6875 "/>
<path style=" stroke:none;fill-rule:nonzero;fill:rgb(14.901961%,19.607843%,21.960784%);fill-opacity:1;" d="M 158.695312 111.816406 C 151.417969 115.140625 145.757812 121.214844 142.953125 128.710938 C 140.652344 134.695312 140.054688 141.308594 137.136719 147.0625 C 134.378906 152.488281 129.863281 156.441406 126.152344 161.0625 C 121.253906 167.160156 117.90625 174.789062 121.253906 182.285156 C 123.355469 186.933594 128.253906 191.722656 127.625 197.449219 C 126.925781 204.132812 120.734375 210.265625 117.292969 215.648438 C 117.125 215.90625 117.496094 216.222656 117.683594 215.972656 C 122.289062 209.957031 130.199219 202.152344 128.183594 193.789062 C 127.246094 189.960938 124.90625 186.941406 123.109375 183.617188 C 119.609375 177.164062 120.800781 170.539062 124.957031 164.375 C 130.59375 156.023438 137.695312 150.855469 140.574219 140.574219 C 142.210938 134.695312 143.121094 128.609375 146.433594 123.394531 C 149.457031 118.585938 153.773438 114.726562 158.886719 112.253906 C 159.054688 112.117188 158.898438 111.71875 158.695312 111.816406 Z M 158.695312 111.816406 "/>
<path style=" stroke:none;fill-rule:nonzero;fill:rgb(14.901961%,19.607843%,21.960784%);fill-opacity:1;" d="M 206.4375 211.972656 C 204.070312 208.292969 201.0625 205.507812 202.71875 200.242188 C 203.875 196.59375 206.617188 193.570312 208.558594 190.386719 C 213.410156 182.441406 216.46875 172.261719 212.570312 163.554688 C 210.371094 158.65625 206.269531 157.253906 202.914062 153.539062 C 198.863281 149.050781 197.625 142.457031 196.554688 136.382812 C 194.949219 127.28125 192.863281 116.871094 183.636719 114.253906 C 183.5625 114.253906 183.527344 114.367188 183.636719 114.394531 C 195.34375 118.503906 194.503906 133.679688 197.378906 144.394531 C 198.359375 148.035156 199.835938 151.570312 202.277344 154.265625 C 206.144531 158.535156 211.023438 160.179688 212.777344 166.550781 C 214.453125 172.523438 213.269531 178.960938 210.777344 184.695312 C 208.621094 189.664062 204.882812 193.703125 202.816406 198.695312 C 201.578125 201.664062 201.160156 204.785156 202.523438 207.632812 C 203.59375 209.867188 205.535156 211.433594 206.722656 213.605469 C 208.230469 216.582031 208.839844 219.933594 208.488281 223.25 C 208.488281 223.59375 208.941406 223.574219 208.976562 223.25 C 209.453125 219.3125 208.554688 215.328125 206.4375 211.972656 Z M 206.4375 211.972656 "/>
<path style=" stroke:none;fill-rule:nonzero;fill:rgb(82.745098%,46.27451%,41.568627%);fill-opacity:1;" d="M 177.15625 203.761719 C 194.132812 233.785156 238.054688 276.085938 251.082031 269.339844 C 267.058594 261.058594 270.089844 219.8125 268.890625 210.488281 C 268.191406 204.890625 224.40625 205.941406 225.492188 211.890625 C 226.140625 215.390625 227.480469 219.085938 226.652344 218.632812 C 224.070312 217.230469 217.453125 210.929688 193.144531 192.816406 C 179.628906 182.699219 165.898438 183.890625 177.15625 203.761719 Z M 177.15625 203.761719 "/>
<path style=" stroke:none;fill-rule:nonzero;fill:rgb(14.901961%,19.607843%,21.960784%);fill-opacity:1;" d="M 229.601562 244.035156 C 228.046875 240.007812 224.574219 228.726562 226.941406 218.21875 C 226.941406 218.097656 227.101562 218.113281 227.09375 218.21875 C 226.15625 226.980469 228.492188 239.882812 229.734375 243.949219 C 229.746094 244.070312 229.601562 244.140625 229.601562 244.035156 Z M 229.601562 244.035156 "/>
<path style=" stroke:none;fill-rule:nonzero;fill:rgb(82.745098%,46.27451%,41.568627%);fill-opacity:1;" d="M 263.394531 182 C 267.597656 189.964844 269.816406 209.609375 268.527344 214.550781 C 267.238281 219.492188 233.96875 224.351562 230.1875 220.746094 C 226.40625 217.140625 214.347656 189.203125 216.082031 180.179688 C 217.820312 171.15625 259.042969 173.71875 263.394531 182 Z M 263.394531 182 "/>
<path style=" stroke:none;fill-rule:nonzero;fill:rgb(82.745098%,46.27451%,41.568627%);fill-opacity:1;" d="M 219.640625 159.703125 C 217.441406 156.15625 208.320312 146.574219 205.246094 148.503906 C 202.175781 150.4375 206.886719 158.535156 208.902344 161.761719 C 213.066406 168.398438 215.125 179.03125 216.027344 184.199219 C 216.929688 189.363281 227.925781 181.875 227.925781 181.875 C 227.925781 181.875 225.34375 168.910156 219.640625 159.703125 Z M 219.640625 159.703125 "/>
<path style=" stroke:none;fill-rule:nonzero;fill:rgb(82.745098%,46.27451%,41.568627%);fill-opacity:1;" d="M 220.851562 190.792969 C 220.851562 190.792969 222.207031 199.941406 227.402344 200.851562 C 232.40625 201.710938 232.820312 194.164062 232.855469 193.628906 C 232.933594 194.109375 234.394531 202.488281 239.707031 202.859375 C 245.230469 203.246094 244.34375 195.601562 244.277344 195.105469 C 244.496094 195.539062 247.4375 201.230469 251.539062 200.597656 C 258.585938 199.5 251.46875 184.742188 253.597656 179.375 C 253.597656 179.375 263.101562 181.949219 263.394531 181.964844 C 263.394531 181.964844 256.90625 167.78125 249.515625 165.3125 C 247.304688 164.542969 244.851562 165.414062 243.628906 167.410156 C 243.628906 167.410156 242.046875 162.609375 237.867188 162.183594 C 235.726562 161.972656 233.476562 165.207031 233.476562 165.207031 C 233.476562 165.207031 232.078125 161.414062 228.3125 161.265625 C 225.328125 161.140625 223.140625 164.4375 222.710938 165.789062 C 219.175781 176.191406 220.851562 190.792969 220.851562 190.792969 Z M 220.851562 190.792969 "/>
<path style=" stroke:none;fill-rule:nonzero;fill:rgb(14.901961%,19.607843%,21.960784%);fill-opacity:1;" d="M 223.179688 164.863281 C 223.179688 164.78125 223.082031 164.738281 223.054688 164.820312 C 219.800781 172.851562 218.695312 182.699219 220.785156 191.101562 C 220.851562 191.371094 221.332031 191.378906 221.320312 191.066406 C 220.828125 181.957031 221.121094 173.816406 223.179688 164.863281 Z M 223.179688 164.863281 "/>
<path style=" stroke:none;fill-rule:nonzero;fill:rgb(14.901961%,19.607843%,21.960784%);fill-opacity:1;" d="M 233.441406 165.054688 C 233.441406 164.953125 233.308594 164.921875 233.269531 165.054688 C 229.964844 173.347656 229.019531 184.4375 232.566406 193.898438 C 232.695312 194.230469 233.128906 194.398438 233.015625 194.011719 C 231.132812 187.503906 231.554688 173.101562 233.441406 165.054688 Z M 233.441406 165.054688 "/>
<path style=" stroke:none;fill-rule:nonzero;fill:rgb(14.901961%,19.607843%,21.960784%);fill-opacity:1;" d="M 244.753906 195.679688 C 241.695312 186.472656 241.898438 177.210938 243.46875 167.726562 C 243.46875 167.601562 243.3125 167.585938 243.269531 167.683594 C 241.234375 172.117188 240.863281 178.261719 240.976562 183.085938 C 241 187.554688 242.191406 191.9375 244.433594 195.804688 C 244.523438 195.945312 244.824219 195.882812 244.753906 195.679688 Z M 244.753906 195.679688 "/>
<path style=" stroke:none;fill-rule:nonzero;fill:rgb(14.901961%,19.607843%,21.960784%);fill-opacity:1;" d="M 220.851562 190.792969 C 221.269531 192.523438 221.847656 194.207031 222.578125 195.832031 C 223.226562 197.4375 224.285156 198.84375 225.652344 199.90625 C 226.300781 200.359375 227.097656 200.554688 227.886719 200.453125 C 228.679688 200.339844 229.429688 200.027344 230.070312 199.542969 C 231.273438 198.460938 231.960938 196.917969 231.960938 195.300781 L 232.121094 191.386719 L 233.324219 195.117188 C 233.847656 196.777344 234.640625 198.339844 235.660156 199.746094 C 236.675781 201.101562 238.054688 202.179688 239.589844 202.285156 C 241.117188 202.511719 242.59375 201.636719 243.125 200.1875 C 243.667969 198.597656 243.808594 196.898438 243.523438 195.242188 L 242.878906 190.660156 L 244.980469 194.761719 C 245.5625 195.90625 246.289062 196.972656 247.140625 197.933594 C 247.910156 198.875 248.945312 199.566406 250.109375 199.921875 C 251.191406 200.203125 252.339844 199.847656 253.070312 199.003906 C 253.742188 197.957031 254.097656 196.742188 254.09375 195.503906 C 254.132812 192.820312 253.960938 190.140625 253.582031 187.488281 C 253.441406 186.136719 253.296875 184.785156 253.210938 183.421875 C 253.054688 182.058594 253.183594 180.683594 253.597656 179.375 C 253.335938 180.699219 253.335938 182.0625 253.597656 183.386719 C 253.785156 184.722656 254.03125 186.054688 254.296875 187.390625 C 254.871094 190.074219 255.1875 192.808594 255.246094 195.550781 C 255.304688 197.039062 254.925781 198.511719 254.15625 199.785156 C 253.144531 201.105469 251.453125 201.703125 249.835938 201.3125 C 248.378906 200.914062 247.070312 200.089844 246.085938 198.941406 C 245.117188 197.886719 244.289062 196.707031 243.621094 195.441406 L 245.078125 194.957031 C 245.453125 196.90625 245.3125 198.921875 244.671875 200.800781 C 244.277344 201.835938 243.535156 202.699219 242.570312 203.246094 C 241.617188 203.753906 240.535156 203.964844 239.464844 203.847656 C 237.285156 203.636719 235.597656 202.152344 234.484375 200.621094 C 233.378906 199.058594 232.539062 197.324219 232 195.488281 L 233.367188 195.3125 C 233.296875 197.320312 232.339844 199.195312 230.753906 200.429688 C 229.9375 200.996094 228.988281 201.335938 227.996094 201.425781 C 226.996094 201.5 226 201.207031 225.195312 200.605469 C 223.628906 199.414062 222.839844 197.671875 222.179688 196.007812 C 221.542969 194.324219 221.09375 192.574219 220.851562 190.792969 Z M 220.851562 190.792969 "/>
<path style=" stroke:none;fill-rule:nonzero;fill:rgb(82.745098%,46.27451%,41.568627%);fill-opacity:1;" d="M 227.296875 216.300781 C 227.296875 216.300781 197.625 192.261719 212.703125 185.269531 C 217.183594 183.167969 238.070312 179.996094 238.789062 184.183594 C 239.722656 189.582031 231.253906 192.542969 225.636719 193.550781 C 225.636719 193.550781 236.886719 200.3125 234.515625 209.546875 C 233.03125 215.347656 227.296875 216.300781 227.296875 216.300781 Z M 227.296875 216.300781 "/>
<path style=" stroke:none;fill-rule:nonzero;fill:rgb(14.901961%,19.607843%,21.960784%);fill-opacity:1;" d="M 211.484375 185.941406 C 213.144531 184.917969 214.945312 184.144531 216.832031 183.644531 C 218.703125 183.09375 220.609375 182.667969 222.535156 182.371094 C 226.394531 181.71875 230.300781 181.40625 234.214844 181.433594 C 235.253906 181.445312 236.289062 181.605469 237.285156 181.902344 C 237.859375 182.078125 238.382812 182.378906 238.824219 182.785156 C 239.074219 183.003906 239.277344 183.261719 239.433594 183.554688 C 239.585938 183.839844 239.691406 184.152344 239.742188 184.472656 C 239.917969 185.632812 239.667969 186.816406 239.042969 187.808594 C 238.460938 188.710938 237.730469 189.503906 236.878906 190.15625 C 235.246094 191.351562 233.421875 192.261719 231.484375 192.84375 C 229.605469 193.449219 227.6875 193.917969 225.742188 194.242188 L 225.960938 192.996094 C 227.214844 193.816406 228.386719 194.753906 229.460938 195.796875 C 230.535156 196.820312 231.507812 197.953125 232.359375 199.171875 C 233.195312 200.398438 233.847656 201.742188 234.289062 203.160156 C 234.742188 204.5625 234.914062 206.039062 234.800781 207.507812 C 234.722656 206.0625 234.402344 204.644531 233.847656 203.308594 C 233.289062 202 232.554688 200.773438 231.664062 199.660156 C 230.789062 198.542969 229.800781 197.519531 228.71875 196.601562 C 227.648438 195.6875 226.496094 194.871094 225.273438 194.164062 L 223.761719 193.3125 L 225.492188 192.914062 C 227.347656 192.535156 229.179688 192.03125 230.972656 191.40625 C 232.726562 190.835938 234.382812 189.988281 235.871094 188.894531 C 237.273438 187.816406 238.390625 186.242188 238.117188 184.777344 C 237.992188 183.464844 235.90625 183.085938 234.09375 182.980469 C 232.195312 182.882812 230.289062 182.882812 228.390625 182.980469 C 226.464844 183.058594 224.546875 183.160156 222.640625 183.363281 C 218.882812 183.847656 215.003906 184.308594 211.484375 185.941406 Z M 211.484375 185.941406 "/>
<path style=" stroke:none;fill-rule:nonzero;fill:rgb(14.901961%,19.607843%,21.960784%);fill-opacity:1;" d="M 198.5625 243.011719 L 217.945312 208.964844 C 217.945312 208.964844 195.390625 190.765625 181.726562 183.945312 C 174.070312 180.101562 170.980469 185.996094 173.152344 193.429688 C 180.734375 219.4375 198.5625 243.011719 198.5625 243.011719 Z M 198.5625 243.011719 "/>
<path style=" stroke:none;fill-rule:nonzero;fill:rgb(14.901961%,19.607843%,21.960784%);fill-opacity:1;" d="M 198.5625 243.011719 L 217.945312 208.964844 C 217.945312 208.964844 195.390625 190.765625 181.726562 183.945312 C 174.070312 180.101562 170.980469 185.996094 173.152344 193.429688 C 180.734375 219.4375 198.5625 243.011719 198.5625 243.011719 Z M 198.5625 243.011719 "/>
<path style=" stroke:none;fill-rule:nonzero;fill:rgb(100%,100%,100%);fill-opacity:1;" d="M 172.527344 187.9375 C 172.503906 188.152344 172.488281 188.371094 172.488281 188.585938 C 172.578125 188.808594 172.621094 189.046875 172.621094 189.285156 C 172.621094 189.496094 172.585938 189.703125 172.507812 189.894531 C 172.507812 190.113281 172.507812 190.34375 172.5625 190.597656 C 172.84375 190.226562 172.992188 189.777344 172.992188 189.316406 C 173 188.816406 172.835938 188.328125 172.527344 187.9375 Z M 187.320312 196.117188 C 186.449219 196.117188 185.664062 196.640625 185.328125 197.445312 C 184.996094 198.25 185.179688 199.175781 185.796875 199.789062 C 186.414062 200.40625 187.339844 200.585938 188.144531 200.25 C 188.945312 199.914062 189.46875 199.125 189.460938 198.253906 C 189.449219 197.078125 188.496094 196.125 187.320312 196.117188 Z M 187.320312 200.046875 C 186.597656 200.054688 185.941406 199.625 185.65625 198.960938 C 185.375 198.296875 185.519531 197.523438 186.027344 197.007812 C 186.535156 196.492188 187.300781 196.335938 187.972656 196.609375 C 188.640625 196.878906 189.082031 197.53125 189.085938 198.253906 C 189.089844 199.234375 188.300781 200.035156 187.320312 200.046875 Z M 198.667969 227.183594 C 197.484375 227.183594 196.523438 228.144531 196.523438 229.328125 C 196.523438 230.511719 197.484375 231.46875 198.667969 231.46875 C 199.851562 231.46875 200.808594 230.511719 200.808594 229.328125 C 200.808594 228.144531 199.851562 227.183594 198.667969 227.183594 Z M 198.667969 231.089844 C 198.199219 231.09375 197.746094 230.90625 197.414062 230.578125 C 197.082031 230.246094 196.894531 229.796875 196.894531 229.328125 C 196.894531 228.347656 197.6875 227.554688 198.667969 227.554688 C 199.644531 227.554688 200.4375 228.347656 200.4375 229.328125 C 200.4375 229.796875 200.25 230.246094 199.917969 230.578125 C 199.585938 230.90625 199.136719 231.09375 198.667969 231.089844 Z M 185.757812 213.253906 C 184.574219 213.253906 183.617188 214.214844 183.617188 215.398438 C 183.617188 216.578125 184.574219 217.539062 185.757812 217.539062 C 186.941406 217.539062 187.902344 216.578125 187.902344 215.398438 C 187.902344 214.214844 186.941406 213.253906 185.757812 213.253906 Z M 185.757812 217.160156 C 184.78125 217.160156 183.988281 216.367188 183.988281 215.390625 C 183.988281 214.410156 184.78125 213.617188 185.757812 213.617188 C 186.738281 213.617188 187.53125 214.410156 187.53125 215.390625 C 187.53125 216.367188 186.738281 217.160156 185.757812 217.160156 Z M 205.519531 206.660156 C 204.332031 206.660156 203.371094 207.625 203.371094 208.808594 C 203.371094 209.996094 204.332031 210.960938 205.519531 210.960938 C 206.707031 210.960938 207.667969 209.996094 207.667969 208.808594 C 207.667969 207.625 206.707031 206.660156 205.519531 206.660156 Z M 205.519531 210.589844 C 204.796875 210.59375 204.144531 210.164062 203.867188 209.496094 C 203.585938 208.832031 203.738281 208.0625 204.25 207.554688 C 204.757812 207.042969 205.527344 206.890625 206.191406 207.171875 C 206.859375 207.449219 207.289062 208.101562 207.285156 208.824219 C 207.277344 209.792969 206.488281 210.578125 205.519531 210.582031 Z M 205.519531 210.589844 "/>
<use xlink:href="#surface5" mask="url(#mask0)"/>
<path style=" stroke:none;fill-rule:nonzero;fill:rgb(14.901961%,19.607843%,21.960784%);fill-opacity:1;" d="M 211.910156 207.101562 C 208.496094 212.09375 199.617188 225.898438 195.027344 235.628906 C 195.027344 235.683594 195.210938 235.816406 195.242188 235.761719 C 200.285156 228.25 209.242188 212.570312 212.226562 207.296875 C 212.28125 207.199219 211.972656 207.011719 211.910156 207.101562 Z M 211.910156 207.101562 "/>
<path style=" stroke:none;fill-rule:nonzero;fill:rgb(14.901961%,19.607843%,21.960784%);fill-opacity:1;" d="M 99.925781 287.210938 L 205.351562 287 L 199.5 250.710938 C 199.5 250.710938 207.835938 240.597656 206.261719 229.621094 C 204.53125 217.59375 182.847656 187.117188 181.027344 185.394531 C 173.683594 178.507812 165.914062 177.273438 158.453125 179.761719 C 123.984375 201.425781 99.925781 287.210938 99.925781 287.210938 Z M 99.925781 287.210938 "/>
<path style=" stroke:none;fill-rule:nonzero;fill:rgb(100%,100%,100%);fill-opacity:1;" d="M 203.125 273.140625 C 202.792969 273.546875 202.292969 273.78125 201.769531 273.785156 C 201.105469 273.824219 200.472656 273.496094 200.128906 272.925781 C 199.785156 272.359375 199.785156 271.644531 200.128906 271.078125 C 200.472656 270.507812 201.105469 270.179688 201.769531 270.222656 C 202.101562 270.21875 202.425781 270.316406 202.707031 270.492188 L 202.628906 270.039062 C 202.359375 269.917969 202.066406 269.855469 201.769531 269.855469 C 200.808594 269.855469 199.964844 270.488281 199.699219 271.410156 C 199.433594 272.332031 199.8125 273.320312 200.625 273.828125 C 201.4375 274.335938 202.492188 274.246094 203.203125 273.601562 Z M 181.847656 262.066406 C 180.976562 262.0625 180.191406 262.585938 179.855469 263.386719 C 179.519531 264.191406 179.703125 265.117188 180.316406 265.730469 C 180.929688 266.347656 181.855469 266.535156 182.660156 266.199219 C 183.464844 265.867188 183.988281 265.085938 183.988281 264.214844 C 183.988281 263.03125 183.03125 262.070312 181.847656 262.066406 Z M 181.847656 265.992188 C 180.863281 265.992188 180.066406 265.195312 180.066406 264.214844 C 180.066406 263.234375 180.863281 262.4375 181.847656 262.4375 C 182.828125 262.4375 183.625 263.234375 183.625 264.214844 C 183.625 264.6875 183.4375 265.140625 183.105469 265.476562 C 182.773438 265.8125 182.320312 266 181.847656 266 Z M 198.644531 227.183594 C 197.777344 227.183594 196.992188 227.710938 196.660156 228.511719 C 196.328125 229.316406 196.511719 230.242188 197.128906 230.855469 C 197.746094 231.46875 198.671875 231.652344 199.472656 231.316406 C 200.277344 230.984375 200.796875 230.195312 200.796875 229.328125 C 200.792969 228.148438 199.839844 227.191406 198.660156 227.183594 Z M 198.644531 231.113281 C 197.921875 231.113281 197.269531 230.683594 196.992188 230.015625 C 196.714844 229.347656 196.863281 228.578125 197.375 228.066406 C 197.882812 227.554688 198.652344 227.402344 199.320312 227.675781 C 199.988281 227.953125 200.425781 228.605469 200.425781 229.328125 C 200.429688 230.304688 199.640625 231.105469 198.660156 231.113281 Z M 121.378906 281.457031 C 120.191406 281.457031 119.230469 282.417969 119.230469 283.605469 C 119.230469 284.792969 120.191406 285.753906 121.378906 285.753906 C 122.566406 285.753906 123.527344 284.792969 123.527344 283.605469 C 123.527344 282.417969 122.566406 281.457031 121.378906 281.457031 Z M 121.378906 285.382812 C 120.660156 285.386719 120.003906 284.957031 119.726562 284.292969 C 119.449219 283.625 119.597656 282.859375 120.109375 282.347656 C 120.617188 281.835938 121.386719 281.6875 122.054688 281.964844 C 122.71875 282.242188 123.148438 282.898438 123.144531 283.617188 C 123.140625 284.589844 122.351562 285.378906 121.378906 285.382812 Z M 143.226562 274.398438 C 142.355469 274.378906 141.554688 274.890625 141.207031 275.691406 C 140.859375 276.492188 141.03125 277.425781 141.640625 278.050781 C 142.25 278.675781 143.179688 278.867188 143.988281 278.539062 C 144.796875 278.210938 145.328125 277.421875 145.328125 276.550781 C 145.328125 275.382812 144.394531 274.425781 143.226562 274.398438 Z M 143.226562 278.3125 C 142.503906 278.320312 141.851562 277.886719 141.574219 277.222656 C 141.292969 276.554688 141.445312 275.789062 141.957031 275.277344 C 142.464844 274.765625 143.234375 274.617188 143.898438 274.894531 C 144.566406 275.175781 144.996094 275.828125 144.992188 276.550781 C 144.988281 277.523438 144.199219 278.3125 143.226562 278.320312 Z M 126.699219 220.128906 C 126.601562 220.117188 126.5 220.117188 126.398438 220.128906 C 126.320312 220.269531 126.246094 220.410156 126.175781 220.550781 C 126.347656 220.507812 126.523438 220.492188 126.699219 220.5 C 127.609375 220.492188 128.375 221.175781 128.472656 222.078125 C 128.574219 222.984375 127.96875 223.816406 127.082031 224.003906 C 126.191406 224.191406 125.304688 223.675781 125.027344 222.808594 C 124.941406 222.964844 124.871094 223.105469 124.804688 223.25 C 125.285156 224.1875 126.375 224.636719 127.378906 224.304688 C 128.378906 223.976562 128.992188 222.96875 128.820312 221.929688 C 128.652344 220.886719 127.753906 220.125 126.699219 220.128906 Z M 132.742188 236.558594 C 131.875 236.554688 131.089844 237.074219 130.757812 237.878906 C 130.421875 238.679688 130.605469 239.601562 131.21875 240.214844 C 131.832031 240.828125 132.757812 241.011719 133.558594 240.675781 C 134.359375 240.34375 134.878906 239.5625 134.875 238.691406 C 134.871094 237.519531 133.921875 236.566406 132.746094 236.558594 Z M 132.742188 240.464844 C 132.023438 240.46875 131.375 240.039062 131.101562 239.375 C 130.824219 238.714844 130.972656 237.949219 131.480469 237.441406 C 131.984375 236.933594 132.746094 236.78125 133.410156 237.054688 C 134.074219 237.328125 134.503906 237.976562 134.503906 238.691406 C 134.496094 239.664062 133.71875 240.449219 132.746094 240.464844 Z M 150.386719 191.925781 C 149.199219 191.925781 148.238281 192.886719 148.238281 194.074219 C 148.238281 195.261719 149.199219 196.222656 150.386719 196.222656 C 151.574219 196.222656 152.535156 195.261719 152.535156 194.074219 C 152.535156 192.886719 151.574219 191.925781 150.386719 191.925781 Z M 150.386719 195.851562 C 149.410156 195.84375 148.621094 195.046875 148.625 194.066406 C 148.628906 193.089844 149.421875 192.296875 150.402344 192.296875 C 151.382812 192.296875 152.175781 193.089844 152.179688 194.066406 C 152.183594 194.542969 151.996094 194.996094 151.660156 195.332031 C 151.324219 195.667969 150.867188 195.855469 150.394531 195.851562 Z M 152.542969 229.144531 C 151.675781 229.144531 150.890625 229.667969 150.558594 230.472656 C 150.226562 231.277344 150.410156 232.203125 151.027344 232.816406 C 151.644531 233.429688 152.570312 233.613281 153.371094 233.277344 C 154.175781 232.941406 154.695312 232.15625 154.691406 231.285156 C 154.691406 230.105469 153.734375 229.144531 152.550781 229.144531 Z M 152.542969 233.070312 C 151.5625 233.070312 150.765625 232.277344 150.765625 231.296875 C 150.765625 230.316406 151.558594 229.519531 152.539062 229.515625 C 153.519531 229.511719 154.316406 230.304688 154.320312 231.285156 C 154.332031 231.761719 154.148438 232.222656 153.816406 232.5625 C 153.484375 232.90625 153.027344 233.097656 152.550781 233.101562 Z M 170.847656 187.117188 C 169.976562 187.097656 169.179688 187.605469 168.828125 188.40625 C 168.480469 189.207031 168.652344 190.140625 169.261719 190.765625 C 169.871094 191.390625 170.796875 191.585938 171.605469 191.257812 C 172.414062 190.929688 172.945312 190.144531 172.949219 189.273438 C 172.949219 188.105469 172.023438 187.152344 170.855469 187.117188 Z M 170.847656 191.035156 C 170.128906 191.042969 169.472656 190.613281 169.195312 189.945312 C 168.917969 189.28125 169.066406 188.511719 169.578125 188 C 170.089844 187.492188 170.855469 187.339844 171.523438 187.617188 C 172.1875 187.898438 172.617188 188.550781 172.613281 189.273438 C 172.609375 190.242188 171.824219 191.03125 170.855469 191.035156 Z M 187.3125 196.117188 C 186.441406 196.117188 185.65625 196.640625 185.320312 197.445312 C 184.988281 198.25 185.171875 199.175781 185.789062 199.789062 C 186.40625 200.40625 187.332031 200.585938 188.136719 200.25 C 188.941406 199.914062 189.460938 199.125 189.453125 198.253906 C 189.445312 197.078125 188.496094 196.128906 187.320312 196.117188 Z M 187.3125 200.046875 C 186.589844 200.054688 185.933594 199.625 185.648438 198.960938 C 185.367188 198.296875 185.511719 197.523438 186.019531 197.007812 C 186.527344 196.492188 187.296875 196.335938 187.964844 196.609375 C 188.636719 196.878906 189.074219 197.53125 189.078125 198.253906 C 189.082031 199.230469 188.296875 200.03125 187.320312 200.046875 Z M 180.082031 279.300781 C 179.210938 279.296875 178.425781 279.820312 178.089844 280.625 C 177.757812 281.425781 177.941406 282.351562 178.554688 282.96875 C 179.171875 283.585938 180.097656 283.765625 180.902344 283.433594 C 181.703125 283.097656 182.226562 282.3125 182.222656 281.441406 C 182.222656 280.257812 181.265625 279.300781 180.082031 279.300781 Z M 180.082031 283.226562 C 179.363281 283.234375 178.710938 282.804688 178.429688 282.140625 C 178.148438 281.476562 178.296875 280.710938 178.804688 280.199219 C 179.308594 279.6875 180.074219 279.53125 180.742188 279.804688 C 181.40625 280.074219 181.84375 280.722656 181.847656 281.441406 C 181.851562 281.914062 181.667969 282.371094 181.335938 282.707031 C 181.007812 283.046875 180.554688 283.238281 180.082031 283.242188 Z M 160.480469 265.3125 C 159.609375 265.3125 158.824219 265.835938 158.496094 266.640625 C 158.164062 267.445312 158.351562 268.371094 158.972656 268.984375 C 159.59375 269.59375 160.523438 269.769531 161.324219 269.421875 C 162.121094 269.078125 162.632812 268.285156 162.617188 267.414062 C 162.601562 266.242188 161.648438 265.300781 160.476562 265.300781 Z M 160.480469 269.226562 C 159.503906 269.226562 158.710938 268.433594 158.710938 267.457031 C 158.710938 266.476562 159.503906 265.683594 160.480469 265.683594 C 161.460938 265.683594 162.253906 266.476562 162.253906 267.457031 C 162.253906 268.433594 161.460938 269.226562 160.480469 269.226562 Z M 183.632812 239.511719 C 182.757812 239.507812 181.96875 240.027344 181.632812 240.832031 C 181.296875 241.636719 181.480469 242.5625 182.097656 243.179688 C 182.714844 243.796875 183.640625 243.980469 184.445312 243.644531 C 185.25 243.308594 185.773438 242.519531 185.765625 241.648438 C 185.753906 240.472656 184.800781 239.527344 183.625 239.527344 Z M 183.632812 243.425781 C 182.910156 243.429688 182.257812 243 181.976562 242.335938 C 181.699219 241.671875 181.847656 240.90625 182.355469 240.394531 C 182.863281 239.882812 183.628906 239.730469 184.292969 240.003906 C 184.960938 240.277344 185.394531 240.925781 185.394531 241.648438 C 185.398438 242.121094 185.214844 242.574219 184.882812 242.910156 C 184.550781 243.246094 184.097656 243.4375 183.625 243.4375 Z M 185.765625 213.242188 C 184.582031 213.242188 183.625 214.199219 183.625 215.382812 C 183.625 216.566406 184.582031 217.523438 185.765625 217.523438 C 186.949219 217.523438 187.90625 216.566406 187.90625 215.382812 C 187.898438 214.203125 186.9375 213.25 185.757812 213.253906 Z M 185.765625 217.148438 C 184.789062 217.148438 183.996094 216.355469 183.996094 215.375 C 183.996094 214.398438 184.789062 213.605469 185.765625 213.605469 C 186.742188 213.605469 187.535156 214.398438 187.535156 215.375 C 187.535156 216.355469 186.742188 217.148438 185.765625 217.148438 Z M 200.628906 248.15625 C 199.617188 248.160156 198.746094 248.871094 198.539062 249.863281 C 198.332031 250.851562 198.847656 251.851562 199.773438 252.257812 L 199.703125 251.796875 C 199.019531 251.386719 198.699219 250.570312 198.914062 249.804688 C 199.128906 249.039062 199.832031 248.515625 200.628906 248.519531 C 200.769531 248.515625 200.914062 248.535156 201.054688 248.578125 C 201.117188 248.472656 201.195312 248.367188 201.265625 248.246094 C 201.054688 248.1875 200.835938 248.164062 200.621094 248.171875 Z M 172.628906 225.210938 C 171.757812 225.207031 170.972656 225.730469 170.636719 226.53125 C 170.300781 227.335938 170.484375 228.261719 171.097656 228.878906 C 171.710938 229.492188 172.636719 229.679688 173.441406 229.347656 C 174.246094 229.015625 174.769531 228.230469 174.769531 227.359375 C 174.757812 226.1875 173.808594 225.238281 172.632812 225.226562 Z M 172.628906 229.132812 C 171.90625 229.132812 171.253906 228.703125 170.980469 228.035156 C 170.703125 227.371094 170.851562 226.605469 171.363281 226.097656 C 171.871094 225.585938 172.636719 225.433594 173.304688 225.710938 C 173.96875 225.988281 174.402344 226.640625 174.398438 227.359375 C 174.402344 227.832031 174.21875 228.285156 173.886719 228.617188 C 173.554688 228.953125 173.105469 229.144531 172.632812 229.144531 Z M 117.601562 248.171875 C 116.734375 248.171875 115.953125 248.695312 115.621094 249.496094 C 115.289062 250.296875 115.472656 251.21875 116.085938 251.832031 C 116.703125 252.441406 117.625 252.625 118.425781 252.289062 C 119.226562 251.957031 119.746094 251.171875 119.742188 250.304688 C 119.734375 249.128906 118.777344 248.175781 117.601562 248.171875 Z M 117.601562 252.078125 C 116.882812 252.078125 116.234375 251.648438 115.957031 250.988281 C 115.683594 250.328125 115.832031 249.5625 116.339844 249.054688 C 116.84375 248.546875 117.605469 248.394531 118.269531 248.667969 C 118.933594 248.941406 119.363281 249.589844 119.363281 250.304688 C 119.363281 251.28125 118.574219 252.074219 117.601562 252.078125 Z M 160.511719 285.027344 C 159.363281 285.023438 158.421875 285.925781 158.367188 287.070312 L 158.738281 287.070312 C 158.792969 286.128906 159.570312 285.394531 160.511719 285.390625 C 161.445312 285.390625 162.21875 286.128906 162.265625 287.0625 L 162.644531 287.0625 C 162.589844 285.910156 161.628906 285.007812 160.476562 285.027344 Z M 143.949219 251.503906 C 143.078125 251.503906 142.292969 252.03125 141.964844 252.835938 C 141.636719 253.640625 141.828125 254.566406 142.449219 255.175781 C 143.070312 255.785156 144 255.957031 144.796875 255.613281 C 145.597656 255.265625 146.105469 254.472656 146.089844 253.601562 C 146.066406 252.421875 145.09375 251.484375 143.914062 251.503906 Z M 143.949219 255.414062 C 143.226562 255.417969 142.578125 254.988281 142.300781 254.324219 C 142.023438 253.660156 142.171875 252.894531 142.679688 252.382812 C 143.1875 251.875 143.953125 251.71875 144.621094 251.996094 C 145.285156 252.269531 145.71875 252.917969 145.71875 253.636719 C 145.71875 254.113281 145.527344 254.570312 145.1875 254.90625 C 144.847656 255.238281 144.390625 255.421875 143.914062 255.414062 Z M 145.011719 212.164062 C 143.832031 212.171875 142.878906 213.132812 142.882812 214.3125 C 142.886719 215.492188 143.847656 216.445312 145.027344 216.445312 C 146.207031 216.445312 147.164062 215.492188 147.167969 214.3125 C 147.167969 213.734375 146.9375 213.179688 146.523438 212.777344 C 146.113281 212.375 145.554688 212.152344 144.976562 212.164062 Z M 145.011719 216.074219 C 144.035156 216.074219 143.242188 215.28125 143.242188 214.304688 C 143.242188 213.328125 144.035156 212.535156 145.011719 212.535156 C 145.988281 212.535156 146.78125 213.328125 146.78125 214.304688 C 146.78125 215.28125 145.988281 216.074219 145.011719 216.074219 Z M 106.933594 266.699219 C 106.796875 266.699219 106.660156 266.710938 106.527344 266.734375 C 106.476562 266.882812 106.429688 267.015625 106.386719 267.15625 C 107.039062 266.992188 107.726562 267.214844 108.164062 267.726562 C 108.601562 268.238281 108.710938 268.949219 108.453125 269.570312 C 108.191406 270.191406 107.601562 270.609375 106.933594 270.65625 C 106.332031 270.65625 105.777344 270.347656 105.453125 269.84375 L 105.308594 270.261719 C 105.710938 270.746094 106.304688 271.023438 106.933594 271.019531 C 107.726562 271.066406 108.484375 270.664062 108.894531 269.984375 C 109.304688 269.300781 109.304688 268.445312 108.894531 267.765625 C 108.484375 267.082031 107.726562 266.683594 106.933594 266.726562 Z M 130.261719 263.199219 C 129.390625 263.199219 128.609375 263.726562 128.277344 264.53125 C 127.945312 265.335938 128.132812 266.261719 128.75 266.875 C 129.367188 267.488281 130.292969 267.667969 131.09375 267.332031 C 131.898438 266.992188 132.417969 266.207031 132.410156 265.335938 C 132.40625 264.152344 131.445312 263.195312 130.261719 263.199219 Z M 130.261719 267.113281 C 129.28125 267.113281 128.484375 266.316406 128.484375 265.335938 C 128.484375 264.351562 129.28125 263.558594 130.261719 263.558594 C 131.246094 263.558594 132.039062 264.351562 132.039062 265.335938 C 132.023438 266.304688 131.230469 267.078125 130.261719 267.078125 Z M 164.386719 246.398438 C 163.519531 246.382812 162.722656 246.894531 162.378906 247.691406 C 162.035156 248.492188 162.207031 249.417969 162.816406 250.042969 C 163.425781 250.664062 164.351562 250.855469 165.15625 250.523438 C 165.960938 250.195312 166.488281 249.414062 166.488281 248.542969 C 166.480469 247.378906 165.550781 246.429688 164.386719 246.398438 Z M 164.386719 250.3125 C 163.410156 250.3125 162.617188 249.519531 162.617188 248.542969 C 162.617188 247.5625 163.410156 246.769531 164.386719 246.769531 C 165.367188 246.769531 166.160156 247.5625 166.160156 248.542969 C 166.152344 249.515625 165.363281 250.300781 164.386719 250.304688 Z M 158.828125 179.640625 C 158.527344 180.050781 158.058594 180.308594 157.550781 180.339844 L 157.058594 180.683594 C 157.179688 180.707031 157.300781 180.71875 157.421875 180.71875 C 158.261719 180.71875 159.023438 180.226562 159.375 179.464844 Z M 165.453125 203.476562 C 164.265625 203.484375 163.308594 204.453125 163.316406 205.640625 C 163.324219 206.824219 164.292969 207.78125 165.480469 207.773438 C 166.667969 207.765625 167.621094 206.796875 167.613281 205.609375 C 167.613281 205.039062 167.382812 204.496094 166.976562 204.09375 C 166.570312 203.691406 166.023438 203.46875 165.453125 203.476562 Z M 165.453125 207.402344 C 164.46875 207.398438 163.671875 206.601562 163.675781 205.617188 C 163.675781 204.632812 164.472656 203.835938 165.457031 203.832031 C 166.441406 203.832031 167.238281 204.628906 167.242188 205.609375 C 167.246094 206.085938 167.058594 206.542969 166.722656 206.878906 C 166.382812 207.214844 165.929688 207.40625 165.453125 207.402344 Z M 165.453125 207.402344 "/>
<path style=" stroke:none;fill-rule:nonzero;fill:rgb(14.901961%,19.607843%,21.960784%);fill-opacity:1;" d="M 182.839844 247.941406 C 178.527344 248.320312 174.246094 249.023438 170.035156 250.039062 C 167.9375 250.570312 165.90625 251.203125 163.863281 251.875 C 162.839844 252.210938 161.820312 252.511719 160.789062 252.804688 C 159.71875 253.144531 158.613281 253.351562 157.492188 253.429688 C 157.449219 253.429688 157.414062 253.460938 157.414062 253.503906 C 157.414062 253.546875 157.449219 253.582031 157.492188 253.582031 C 158.550781 253.632812 159.613281 253.613281 160.671875 253.527344 C 161.691406 253.402344 162.699219 253.210938 163.695312 252.953125 C 165.796875 252.425781 167.894531 251.8125 169.996094 251.265625 C 174.265625 250.171875 178.527344 249.074219 182.859375 248.289062 C 183.09375 248.261719 183.042969 247.917969 182.839844 247.941406 Z M 182.839844 247.941406 "/>
<path style=" stroke:none;fill-rule:nonzero;fill:rgb(14.901961%,19.607843%,21.960784%);fill-opacity:1;" d="M 193.492188 251.761719 C 189.941406 251.386719 186.371094 251.214844 182.796875 251.242188 C 181.011719 251.242188 179.242188 251.390625 177.457031 251.566406 C 176.609375 251.648438 175.761719 251.746094 174.914062 251.851562 C 174.070312 251.957031 173.066406 252.21875 172.117188 252.320312 C 172.019531 252.320312 172.019531 252.484375 172.117188 252.476562 C 172.996094 252.398438 173.902344 252.476562 174.78125 252.476562 L 177.449219 252.40625 C 179.234375 252.363281 181.011719 252.335938 182.796875 252.28125 C 186.359375 252.152344 189.910156 252.070312 193.480469 252.078125 C 193.691406 252.054688 193.675781 251.777344 193.492188 251.761719 Z M 193.492188 251.761719 "/>
<path style=" stroke:none;fill-rule:nonzero;fill:rgb(82.745098%,46.27451%,41.568627%);fill-opacity:1;" d="M 145.816406 189.253906 C 118.964844 217.398438 85.574219 276.214844 92.183594 287.953125 C 99.53125 300.980469 137.949219 261.148438 136.738281 259.253906 C 135.703125 257.601562 149.386719 221.898438 159.101562 196 C 168.820312 170.101562 152.453125 182.292969 145.816406 189.253906 Z M 145.816406 189.253906 "/>
<path style=" stroke:none;fill-rule:nonzero;fill:rgb(14.901961%,19.607843%,21.960784%);fill-opacity:1;" d="M 112.917969 223 L 151.472656 229.9375 C 151.472656 229.9375 161.097656 202.636719 163.003906 187.453125 C 164.074219 178.953125 159.082031 178.605469 152.796875 183.121094 C 130.796875 198.933594 112.917969 223 112.917969 223 Z M 112.917969 223 "/>
<path style=" stroke:none;fill-rule:nonzero;fill:rgb(100%,100%,100%);fill-opacity:1;" d="M 126.699219 220.128906 C 125.832031 220.132812 125.050781 220.660156 124.722656 221.464844 C 124.394531 222.273438 124.589844 223.195312 125.210938 223.804688 C 125.832031 224.410156 126.761719 224.582031 127.558594 224.238281 C 128.355469 223.890625 128.867188 223.097656 128.847656 222.230469 C 128.824219 221.058594 127.871094 220.125 126.699219 220.128906 Z M 126.699219 224.042969 C 125.722656 224.042969 124.929688 223.25 124.929688 222.273438 C 124.925781 221.296875 125.71875 220.503906 126.695312 220.5 C 127.671875 220.496094 128.46875 221.285156 128.472656 222.265625 C 128.472656 222.734375 128.285156 223.1875 127.953125 223.519531 C 127.621094 223.855469 127.171875 224.042969 126.699219 224.042969 Z M 150.386719 191.925781 C 149.199219 191.925781 148.238281 192.886719 148.238281 194.074219 C 148.238281 195.261719 149.199219 196.222656 150.386719 196.222656 C 151.574219 196.222656 152.535156 195.261719 152.535156 194.074219 C 152.535156 192.886719 151.574219 191.925781 150.386719 191.925781 Z M 150.386719 195.851562 C 149.410156 195.84375 148.621094 195.046875 148.625 194.066406 C 148.628906 193.089844 149.421875 192.296875 150.402344 192.296875 C 151.382812 192.296875 152.175781 193.089844 152.179688 194.066406 C 152.183594 194.542969 151.996094 194.996094 151.660156 195.332031 C 151.324219 195.667969 150.867188 195.855469 150.394531 195.851562 Z M 133.539062 200.347656 C 133.214844 200.347656 132.898438 200.421875 132.609375 200.5625 L 131.601562 201.601562 C 131.457031 201.882812 131.386719 202.199219 131.390625 202.515625 C 131.386719 203.386719 131.910156 204.171875 132.714844 204.507812 C 133.515625 204.84375 134.441406 204.660156 135.058594 204.042969 C 135.675781 203.429688 135.859375 202.503906 135.523438 201.699219 C 135.1875 200.894531 134.402344 200.371094 133.53125 200.375 Z M 133.539062 204.273438 C 132.558594 204.269531 131.765625 203.472656 131.769531 202.492188 C 131.769531 201.511719 132.5625 200.71875 133.542969 200.71875 C 134.523438 200.714844 135.320312 201.507812 135.324219 202.488281 C 135.324219 202.960938 135.140625 203.414062 134.804688 203.75 C 134.472656 204.085938 134.019531 204.273438 133.546875 204.273438 Z M 150.953125 229.851562 L 151.402344 229.9375 C 151.425781 229.910156 151.453125 229.886719 151.488281 229.871094 C 151.515625 229.785156 151.578125 229.601562 151.675781 229.328125 C 151.402344 229.445312 151.15625 229.625 150.960938 229.851562 Z M 144.96875 212.164062 C 143.789062 212.171875 142.839844 213.132812 142.84375 214.3125 C 142.847656 215.492188 143.804688 216.445312 144.984375 216.445312 C 146.164062 216.445312 147.121094 215.492188 147.125 214.3125 C 147.125 213.125 146.164062 212.164062 144.976562 212.164062 Z M 144.96875 216.074219 C 143.992188 216.074219 143.199219 215.28125 143.199219 214.304688 C 143.199219 213.328125 143.992188 212.535156 144.96875 212.535156 C 145.949219 212.535156 146.742188 213.328125 146.742188 214.304688 C 146.742188 215.28125 145.949219 216.074219 144.96875 216.074219 Z M 157.15625 180.703125 C 157.234375 180.703125 157.316406 180.703125 157.402344 180.703125 C 157.847656 180.703125 158.28125 180.5625 158.640625 180.300781 C 158.136719 180.386719 157.640625 180.523438 157.164062 180.703125 Z M 157.15625 180.703125 "/>
<path style=" stroke:none;fill-rule:nonzero;fill:rgb(14.901961%,19.607843%,21.960784%);fill-opacity:1;" d="M 151.199219 223.628906 C 145.363281 222.066406 129.386719 218.296875 118.691406 217.203125 C 118.621094 217.203125 118.574219 217.441406 118.636719 217.453125 C 127.398438 219.710938 145.164062 222.9375 151.121094 223.984375 C 151.25 224 151.324219 223.65625 151.199219 223.628906 Z M 151.199219 223.628906 "/>
<path style=" stroke:none;fill-rule:nonzero;fill:rgb(14.901961%,19.607843%,21.960784%);fill-opacity:1;" d="M 146.769531 229.097656 C 148.359375 229.25 149.945312 229.433594 151.523438 229.648438 L 151.191406 229.84375 C 152.339844 225.644531 153.613281 221.488281 154.980469 217.355469 C 156.34375 213.226562 157.78125 209.132812 159.472656 205.09375 C 158.464844 209.335938 157.246094 213.492188 155.972656 217.691406 C 154.699219 221.894531 153.285156 225.972656 151.773438 230.054688 L 151.675781 230.300781 L 151.4375 230.25 C 149.878906 229.886719 148.324219 229.503906 146.769531 229.097656 Z M 146.769531 229.097656 "/>
<path style=" stroke:none;fill-rule:nonzero;fill:rgb(14.901961%,19.607843%,21.960784%);fill-opacity:1;" d="M 156.917969 213.402344 C 157.261719 212.542969 157.703125 211.730469 158.234375 210.972656 C 158.757812 210.207031 159.339844 209.484375 159.976562 208.808594 C 159.886719 209.269531 159.734375 209.714844 159.523438 210.132812 C 159.320312 210.550781 159.085938 210.953125 158.824219 211.335938 C 158.300781 212.121094 157.65625 212.816406 156.917969 213.402344 Z M 156.917969 213.402344 "/>
<path style=" stroke:none;fill-rule:nonzero;fill:rgb(82.745098%,46.27451%,41.568627%);fill-opacity:1;" d="M 93.050781 289.101562 C 100.332031 296.980469 117.144531 296.371094 159.613281 298.824219 C 165.492188 299.160156 179.039062 258.328125 172.78125 257.640625 C 164.898438 256.78125 134.128906 255.144531 131.859375 255.3125 C 112.75 256.710938 88.109375 283.765625 93.050781 289.101562 Z M 93.050781 289.101562 "/>
<path style=" stroke:none;fill-rule:nonzero;fill:rgb(82.745098%,46.27451%,41.568627%);fill-opacity:1;" d="M 164.246094 256.898438 C 164.246094 256.898438 182.132812 257.152344 191.492188 260.195312 C 204.023438 264.269531 213.15625 272.945312 216.769531 276.808594 C 224.308594 284.878906 236.949219 309.601562 230.46875 314.488281 C 224.59375 318.90625 212.96875 292.984375 212.96875 292.984375 C 212.96875 292.984375 229.207031 317.484375 221.15625 321.480469 C 213.109375 325.480469 201.300781 294.636719 201.300781 294.636719 C 201.300781 294.636719 217.398438 320.160156 208.46875 322.992188 C 201.699219 325.136719 189.425781 297.792969 189.425781 297.792969 C 189.425781 297.792969 203.132812 319.824219 196.265625 322.292969 C 188.679688 325.09375 175.769531 300.523438 175.769531 300.523438 C 157.246094 303.945312 147.027344 298.003906 140.257812 292.914062 C 138.601562 291.703125 164.246094 256.898438 164.246094 256.898438 Z M 164.246094 256.898438 "/>
<path style=" stroke:none;fill-rule:nonzero;fill:rgb(14.901961%,19.607843%,21.960784%);fill-opacity:1;" d="M 207.898438 284.15625 C 209.914062 286.957031 211.96875 289.792969 213.722656 292.769531 C 215.480469 295.742188 217.132812 298.78125 218.625 301.902344 C 222.230469 309.566406 223.285156 314.929688 223.1875 314.609375 C 220.785156 306.941406 214.667969 296.191406 212.910156 293.214844 C 211.15625 290.242188 209.558594 287.1875 207.808594 284.222656 C 207.710938 284.144531 207.824219 284.089844 207.898438 284.15625 Z M 207.898438 284.15625 "/>
<path style=" stroke:none;fill-rule:nonzero;fill:rgb(14.901961%,19.607843%,21.960784%);fill-opacity:1;" d="M 197.015625 290.296875 C 199.429688 293.992188 201.957031 297.570312 204.210938 301.371094 C 206.464844 305.171875 208.242188 308.945312 210.21875 312.871094 C 210.371094 313.171875 210.160156 313.152344 209.992188 312.871094 C 207.894531 309.023438 205.597656 305.632812 203.425781 301.8125 C 201.257812 297.988281 199.226562 294.113281 196.925781 290.367188 C 196.90625 290.34375 196.910156 290.304688 196.933594 290.285156 C 196.960938 290.265625 196.996094 290.273438 197.015625 290.296875 Z M 197.015625 290.296875 "/>
<path style=" stroke:none;fill-rule:nonzero;fill:rgb(14.901961%,19.607843%,21.960784%);fill-opacity:1;" d="M 186.753906 293.894531 C 190.730469 299.355469 193.691406 305.535156 196.453125 311.667969 C 196.59375 311.976562 196.320312 311.921875 196.160156 311.617188 C 193.046875 305.648438 190.644531 300.945312 186.558594 294.035156 C 186.492188 293.921875 186.667969 293.78125 186.753906 293.894531 Z M 186.753906 293.894531 "/>
<path style=" stroke:none;fill-rule:nonzero;fill:rgb(14.901961%,19.607843%,21.960784%);fill-opacity:1;" d="M 114.898438 261.800781 C 118.238281 259.664062 127.742188 254.570312 137.382812 255.359375 C 137.425781 255.359375 137.460938 255.394531 137.460938 255.4375 C 137.460938 255.480469 137.425781 255.515625 137.382812 255.515625 C 129.492188 255.878906 118.40625 260.09375 114.980469 261.917969 C 114.890625 261.960938 114.800781 261.84375 114.898438 261.800781 Z M 114.898438 261.800781 "/>
<path style=" stroke:none;fill-rule:nonzero;fill:rgb(82.745098%,46.27451%,41.568627%);fill-opacity:1;" d="M 163.394531 185.835938 C 163.910156 187.621094 173.195312 198.898438 181.398438 198.070312 C 184.078125 197.804688 183.246094 183.09375 183.246094 183.09375 L 183.433594 181.992188 L 186.039062 166.59375 L 167.550781 156.09375 L 164.890625 154.691406 C 164.890625 154.691406 164.457031 158.957031 163.96875 164.261719 C 163.96875 164.515625 163.917969 164.757812 163.898438 165.019531 C 163.878906 165.277344 163.828125 165.605469 163.808594 165.886719 C 163.722656 166.675781 163.640625 167.488281 163.574219 168.292969 C 163.527344 168.910156 163.472656 169.503906 163.441406 170.15625 C 163.414062 170.808594 163.359375 171.4375 163.316406 172.082031 C 162.988281 178.5 163.183594 185.074219 163.394531 185.835938 Z M 163.394531 185.835938 "/>
<path style=" stroke:none;fill-rule:nonzero;fill:rgb(14.901961%,19.607843%,21.960784%);fill-opacity:1;" d="M 163.96875 164.242188 C 167.535156 172.730469 174.652344 179.226562 183.433594 182 L 186.039062 166.601562 L 167.550781 156.101562 L 164.890625 154.699219 C 164.890625 154.699219 164.457031 158.933594 163.96875 164.242188 Z M 163.96875 164.242188 "/>
<path style=" stroke:none;fill-rule:nonzero;fill:rgb(82.745098%,46.27451%,41.568627%);fill-opacity:1;" d="M 203.699219 136.816406 C 211.5625 163.078125 196.699219 170.75 191.050781 172.4375 C 185.914062 173.972656 168.203125 178.542969 157.675781 153.230469 C 147.148438 127.917969 156.863281 115.960938 168.441406 111.832031 C 180.019531 107.703125 195.824219 110.550781 203.699219 136.816406 Z M 203.699219 136.816406 "/>
<path style=" stroke:none;fill-rule:nonzero;fill:rgb(14.901961%,19.607843%,21.960784%);fill-opacity:1;" d="M 196.785156 131.367188 C 196.195312 131.597656 195.59375 131.796875 194.984375 131.964844 C 194.382812 132.261719 193.699219 132.355469 193.039062 132.222656 C 192.628906 132.054688 192.382812 131.632812 192.4375 131.195312 C 192.679688 130.351562 193.359375 129.703125 194.214844 129.507812 C 195.039062 129.183594 195.953125 129.183594 196.777344 129.507812 C 197.132812 129.679688 197.359375 130.039062 197.363281 130.4375 C 197.363281 130.832031 197.140625 131.195312 196.785156 131.367188 Z M 196.785156 131.367188 "/>
<path style=" stroke:none;fill-rule:nonzero;fill:rgb(14.901961%,19.607843%,21.960784%);fill-opacity:1;" d="M 180.851562 142.738281 C 181.386719 142.40625 181.90625 142.046875 182.40625 141.660156 C 182.992188 141.238281 183.511719 140.960938 183.804688 140.257812 C 183.921875 139.832031 183.730469 139.378906 183.34375 139.167969 C 182.527344 138.847656 181.597656 139.003906 180.929688 139.574219 C 180.171875 140.03125 179.613281 140.75 179.359375 141.597656 C 179.28125 141.988281 179.429688 142.390625 179.75 142.632812 C 180.066406 142.875 180.496094 142.917969 180.851562 142.738281 Z M 180.851562 142.738281 "/>
<path style=" stroke:none;fill-rule:nonzero;fill:rgb(14.901961%,19.607843%,21.960784%);fill-opacity:1;" d="M 185.21875 143.738281 C 185.183594 143.675781 185.109375 143.863281 185.136719 143.933594 C 185.792969 145.683594 186.25 147.796875 184.847656 148.925781 C 184.808594 148.960938 184.847656 149.050781 184.898438 149.023438 C 186.753906 148.085938 186.121094 145.285156 185.21875 143.738281 Z M 185.21875 143.738281 "/>
<path style=" stroke:none;fill-rule:nonzero;fill:rgb(14.901961%,19.607843%,21.960784%);fill-opacity:1;" d="M 183.015625 142.421875 C 180.097656 143.171875 181.8125 148.953125 184.511719 148.261719 C 187.214844 147.566406 185.457031 141.800781 183.015625 142.421875 Z M 183.015625 142.421875 "/>
<path style=" stroke:none;fill-rule:nonzero;fill:rgb(14.901961%,19.607843%,21.960784%);fill-opacity:1;" d="M 182 143.066406 C 181.585938 143.542969 181.300781 144.261719 180.675781 144.507812 C 180.054688 144.753906 179.277344 144.339844 178.648438 143.890625 C 178.585938 143.84375 178.550781 143.890625 178.570312 143.988281 C 178.886719 145.101562 179.648438 146.089844 180.878906 145.921875 C 182.113281 145.753906 182.496094 144.523438 182.441406 143.347656 C 182.40625 143.128906 182.132812 142.878906 182 143.066406 Z M 182 143.066406 "/>
<path style=" stroke:none;fill-rule:nonzero;fill:rgb(14.901961%,19.607843%,21.960784%);fill-opacity:1;" d="M 195.117188 139.949219 C 195.117188 139.882812 195.285156 140 195.300781 140.070312 C 195.761719 141.882812 196.59375 143.878906 198.386719 144.003906 C 198.441406 144.003906 198.464844 144.101562 198.386719 144.109375 C 196.34375 144.402344 195.300781 141.742188 195.117188 139.949219 Z M 195.117188 139.949219 "/>
<path style=" stroke:none;fill-rule:nonzero;fill:rgb(14.901961%,19.607843%,21.960784%);fill-opacity:1;" d="M 196.183594 137.621094 C 198.980469 136.570312 200.894531 142.289062 198.28125 143.261719 C 195.671875 144.234375 193.816406 138.503906 196.183594 137.621094 Z M 196.183594 137.621094 "/>
<path style=" stroke:none;fill-rule:nonzero;fill:rgb(14.901961%,19.607843%,21.960784%);fill-opacity:1;" d="M 197.496094 137.597656 C 198.050781 137.753906 198.679688 138.160156 199.234375 138.011719 C 199.785156 137.863281 200.128906 137.074219 200.332031 136.351562 C 200.332031 136.277344 200.417969 136.3125 200.445312 136.351562 C 200.835938 137.4375 200.851562 138.699219 199.871094 139.257812 C 198.890625 139.816406 197.960938 139.054688 197.335938 138.054688 C 197.226562 137.898438 197.273438 137.535156 197.496094 137.597656 Z M 197.496094 137.597656 "/>
<path style=" stroke:none;fill-rule:nonzero;fill:rgb(14.901961%,19.607843%,21.960784%);fill-opacity:1;" d="M 190.183594 158.976562 C 190.722656 159.300781 191.304688 159.773438 191.976562 159.675781 C 192.648438 159.5 193.273438 159.179688 193.808594 158.738281 C 193.832031 158.71875 193.867188 158.714844 193.890625 158.734375 C 193.914062 158.753906 193.921875 158.789062 193.90625 158.816406 C 193.5625 159.675781 192.769531 160.273438 191.847656 160.371094 C 191.046875 160.355469 190.328125 159.863281 190.027344 159.117188 C 189.972656 159.003906 190.105469 158.933594 190.183594 158.976562 Z M 190.183594 158.976562 "/>
<path style=" stroke:none;fill-rule:nonzero;fill:rgb(14.901961%,19.607843%,21.960784%);fill-opacity:1;" d="M 195.644531 150.226562 C 195.644531 150.226562 196.839844 152.773438 197.226562 154.035156 C 197.261719 154.152344 196.972656 154.300781 196.558594 154.453125 C 196.558594 154.453125 196.558594 154.453125 196.511719 154.453125 C 194.433594 155.527344 191.933594 155.359375 190.015625 154.019531 C 189.96875 153.976562 189.957031 153.90625 189.988281 153.847656 C 190.019531 153.792969 190.085938 153.765625 190.148438 153.78125 C 192.089844 154.386719 194.175781 154.34375 196.089844 153.664062 C 196.089844 153.285156 193.898438 149.367188 194.097656 149.289062 C 195.097656 149.070312 196.125 148.992188 197.148438 149.050781 C 194.816406 143.667969 191.644531 138.703125 189.40625 133.308594 C 189.375 133.226562 189.410156 133.132812 189.484375 133.089844 C 189.558594 133.042969 189.65625 133.058594 189.714844 133.125 C 193.402344 138.097656 196.21875 144.226562 198.765625 149.722656 C 199.09375 150.429688 196.21875 150.28125 195.644531 150.226562 Z M 195.644531 150.226562 "/>
<path style=" stroke:none;fill-rule:nonzero;fill:rgb(14.901961%,19.607843%,21.960784%);fill-opacity:1;" d="M 160.425781 112.511719 C 160.179688 114.84375 148.820312 119.917969 141.15625 113.566406 C 133.488281 107.21875 137.367188 95.542969 148.15625 97.230469 C 155.023438 98.300781 160.949219 107.574219 160.425781 112.511719 Z M 160.425781 112.511719 "/>
<path style=" stroke:none;fill-rule:nonzero;fill:rgb(14.901961%,19.607843%,21.960784%);fill-opacity:1;" d="M 137.640625 102.828125 C 138.972656 100.019531 141.21875 97.75 144.011719 96.382812 C 146.640625 95.035156 149.789062 95.183594 152.277344 96.78125 C 154.804688 98.316406 156.660156 100.855469 158.074219 103.566406 C 158.765625 104.949219 159.332031 106.394531 159.769531 107.882812 C 160.273438 109.371094 160.496094 110.941406 160.425781 112.511719 C 160.832031 110.941406 160.894531 109.300781 160.609375 107.703125 C 160.363281 106.089844 159.925781 104.515625 159.3125 103.003906 C 158.128906 99.863281 155.992188 97.171875 153.203125 95.304688 C 151.730469 94.378906 150.039062 93.867188 148.300781 93.828125 C 146.578125 93.839844 144.886719 94.308594 143.402344 95.1875 C 140.515625 96.835938 138.429688 99.597656 137.640625 102.828125 Z M 137.640625 102.828125 "/>
<path style=" stroke:none;fill-rule:nonzero;fill:rgb(14.901961%,19.607843%,21.960784%);fill-opacity:1;" d="M 161.21875 155.308594 C 166.65625 153.371094 162.617188 140.785156 162.617188 140.785156 C 162.617188 140.785156 171.261719 135.882812 172.929688 128.324219 C 172.929688 128.324219 172.226562 134.625 169.386719 138.125 C 168.910156 138.710938 187.003906 130.425781 183.855469 115.421875 C 183.855469 115.421875 191.472656 128.652344 201.019531 128.625 C 201.472656 128.625 195.34375 116.144531 191.546875 114.058594 C 189.363281 112.828125 187.027344 111.886719 184.597656 111.257812 C 177.519531 108.984375 169.828125 109.578125 163.183594 112.910156 C 152.25 118.511719 148.855469 133.210938 149.6875 138.472656 C 151.3125 148.820312 158.632812 156.226562 161.21875 155.308594 Z M 161.21875 155.308594 "/>
<path style=" stroke:none;fill-rule:nonzero;fill:rgb(14.901961%,19.607843%,21.960784%);fill-opacity:1;" d="M 170.101562 138.199219 C 180.164062 134.253906 186.066406 124.902344 183.335938 114.203125 C 183.316406 114.085938 183.382812 113.972656 183.496094 113.933594 C 183.609375 113.894531 183.734375 113.941406 183.792969 114.042969 C 188.8125 124.164062 180.011719 135.855469 170.066406 138.417969 C 169.820312 138.480469 169.855469 138.300781 170.101562 138.199219 Z M 170.101562 138.199219 "/>
<path style=" stroke:none;fill-rule:nonzero;fill:rgb(14.901961%,19.607843%,21.960784%);fill-opacity:1;" d="M 161.042969 154.699219 C 165.605469 149.953125 164.578125 144.089844 163.058594 138.292969 C 163.015625 138.125 163.296875 138.019531 163.359375 138.195312 C 165.347656 143.703125 166.664062 150.84375 161.40625 155.097656 C 161.292969 155.175781 161.144531 155.15625 161.050781 155.054688 C 160.960938 154.957031 160.957031 154.804688 161.042969 154.699219 Z M 161.042969 154.699219 "/>
<path style=" stroke:none;fill-rule:nonzero;fill:rgb(14.901961%,19.607843%,21.960784%);fill-opacity:1;" d="M 183.203125 113.203125 C 183.199219 113.175781 183.214844 113.148438 183.242188 113.140625 C 183.269531 113.132812 183.296875 113.144531 183.308594 113.167969 C 186.5625 118.601562 190.203125 128.386719 198.210938 127.300781 C 198.300781 127.285156 198.386719 127.34375 198.40625 127.429688 C 198.421875 127.519531 198.363281 127.605469 198.273438 127.625 C 190.679688 129.351562 184.492188 119.53125 183.203125 113.203125 Z M 183.203125 113.203125 "/>
<path style=" stroke:none;fill-rule:nonzero;fill:rgb(14.901961%,19.607843%,21.960784%);fill-opacity:1;" d="M 150.660156 137.835938 L 149.421875 140.484375 L 158.199219 146.65625 L 160.859375 140.699219 Z M 157.535156 143.953125 L 151.480469 140.195312 L 151.753906 139.574219 L 158.515625 141.867188 Z M 157.535156 143.953125 "/>
<path style=" stroke:none;fill-rule:nonzero;fill:rgb(14.901961%,19.607843%,21.960784%);fill-opacity:1;" d="M 150.941406 133.1875 L 150.785156 136.109375 L 161.230469 138.523438 L 161.460938 132 Z M 159.613281 136.269531 L 152.601562 135.101562 L 152.601562 134.398438 L 159.726562 133.980469 Z M 159.613281 136.269531 "/>
<path style=" stroke:none;fill-rule:nonzero;fill:rgb(82.745098%,46.27451%,41.568627%);fill-opacity:1;" d="M 162.433594 154 C 162.433594 154 154.839844 146.832031 151.472656 149.710938 C 148.105469 152.585938 155.023438 163.820312 159.832031 164.554688 C 161.066406 164.839844 162.367188 164.601562 163.421875 163.902344 C 164.480469 163.203125 165.207031 162.101562 165.429688 160.851562 Z M 162.433594 154 "/>
<path style=" stroke:none;fill-rule:nonzero;fill:rgb(14.901961%,19.607843%,21.960784%);fill-opacity:1;" d="M 153.539062 152.878906 C 153.503906 152.878906 153.476562 152.910156 153.476562 152.941406 C 153.476562 152.976562 153.503906 153.007812 153.539062 153.007812 C 156.925781 153.621094 159.179688 156.183594 160.957031 158.957031 C 159.78125 157.988281 158.390625 157.617188 157.066406 159.046875 C 156.996094 159.125 157.101562 159.230469 157.183594 159.195312 C 158.238281 158.601562 159.550781 158.738281 160.460938 159.535156 C 161.199219 160.1875 161.863281 160.917969 162.441406 161.714844 C 162.652344 161.964844 163.140625 161.714844 162.953125 161.40625 L 162.910156 161.34375 C 162.160156 157.332031 157.90625 152.398438 153.539062 152.878906 Z M 153.539062 152.878906 "/>
<path style=" stroke:none;fill-rule:nonzero;fill:rgb(14.901961%,19.607843%,21.960784%);fill-opacity:1;" d="M 205.933594 148.316406 C 206.179688 149.511719 206.269531 150.734375 206.199219 151.957031 C 206.15625 153.183594 205.917969 154.398438 205.5 155.554688 C 205.5 154.328125 205.597656 153.140625 205.644531 151.933594 C 205.695312 150.730469 205.800781 149.535156 205.933594 148.316406 Z M 205.933594 148.316406 "/>
<path style=" stroke:none;fill-rule:nonzero;fill:rgb(14.901961%,19.607843%,21.960784%);fill-opacity:1;" d="M 192.535156 105.523438 C 192.511719 103.964844 192.792969 102.417969 193.367188 100.96875 C 194.089844 99.453125 195.292969 98.222656 196.789062 97.46875 C 197.308594 97.152344 197.945312 96.804688 198.710938 96.402344 C 199.488281 96 200.238281 95.53125 200.941406 95.003906 C 201.65625 94.460938 202.28125 93.804688 202.78125 93.058594 C 203.285156 92.300781 203.546875 91.40625 203.53125 90.496094 C 203.546875 89.832031 203.402344 89.175781 203.113281 88.578125 C 202.851562 88.042969 202.480469 87.5625 202.027344 87.179688 C 201.5625 86.789062 201.023438 86.496094 200.445312 86.316406 C 199.847656 86.128906 199.226562 86.035156 198.605469 86.035156 C 197.886719 86.023438 197.171875 86.152344 196.503906 86.421875 C 195.898438 86.667969 195.328125 87.003906 194.816406 87.410156 C 194.316406 87.804688 193.863281 88.257812 193.464844 88.761719 C 193.101562 89.207031 192.765625 89.675781 192.457031 90.160156 L 187.941406 87.050781 C 188.378906 86.007812 188.984375 85.042969 189.734375 84.195312 C 190.472656 83.375 191.328125 82.664062 192.277344 82.097656 C 193.238281 81.523438 194.277344 81.085938 195.363281 80.800781 C 196.480469 80.507812 197.628906 80.359375 198.785156 80.359375 C 200.101562 80.363281 201.410156 80.554688 202.671875 80.933594 C 203.929688 81.304688 205.101562 81.917969 206.121094 82.746094 C 207.175781 83.613281 208.023438 84.703125 208.605469 85.9375 C 209.28125 87.390625 209.609375 88.980469 209.566406 90.578125 C 209.582031 91.570312 209.453125 92.554688 209.179688 93.507812 C 208.933594 94.328125 208.558594 95.109375 208.066406 95.816406 C 207.582031 96.507812 207.003906 97.136719 206.351562 97.679688 C 205.652344 98.269531 204.90625 98.804688 204.128906 99.289062 C 203.425781 99.699219 202.726562 100.101562 202.027344 100.476562 C 201.355469 100.84375 200.722656 101.269531 200.128906 101.753906 C 199.574219 102.203125 199.101562 102.742188 198.730469 103.355469 C 198.347656 104.027344 198.160156 104.789062 198.183594 105.558594 Z M 192.640625 117.601562 L 192.640625 110.453125 L 198.402344 110.453125 L 198.402344 117.601562 Z M 192.640625 117.601562 "/>
<path style=" stroke:none;fill-rule:nonzero;fill:rgb(27.058824%,35.294118%,39.215686%);fill-opacity:1;" d="M 180.914062 83.1875 C 180.933594 84.34375 180.726562 85.492188 180.300781 86.570312 C 179.769531 87.699219 178.878906 88.621094 177.765625 89.1875 C 177.378906 89.417969 176.902344 89.675781 176.363281 89.976562 C 175.78125 90.28125 175.226562 90.632812 174.707031 91.035156 C 174.164062 91.4375 173.691406 91.921875 173.304688 92.476562 C 172.929688 93.039062 172.738281 93.703125 172.753906 94.382812 C 172.734375 95.328125 173.140625 96.230469 173.867188 96.839844 C 174.210938 97.125 174.613281 97.34375 175.042969 97.476562 C 175.484375 97.613281 175.945312 97.683594 176.40625 97.683594 C 176.933594 97.691406 177.453125 97.59375 177.941406 97.398438 C 178.386719 97.222656 178.808594 96.984375 179.191406 96.699219 C 179.5625 96.40625 179.898438 96.074219 180.195312 95.703125 C 180.464844 95.363281 180.714844 95.007812 180.941406 94.640625 L 184.289062 96.949219 C 183.964844 97.71875 183.515625 98.429688 182.960938 99.050781 C 182.414062 99.664062 181.777344 100.1875 181.074219 100.609375 C 180.363281 101.035156 179.589844 101.359375 178.785156 101.570312 C 177.007812 102.039062 175.132812 102.003906 173.367188 101.472656 C 172.429688 101.191406 171.554688 100.726562 170.800781 100.101562 C 170.023438 99.453125 169.394531 98.648438 168.960938 97.734375 C 168.464844 96.65625 168.226562 95.480469 168.257812 94.296875 C 168.25 93.5625 168.34375 92.828125 168.546875 92.121094 C 168.730469 91.511719 169.007812 90.933594 169.371094 90.410156 C 169.730469 89.890625 170.160156 89.417969 170.644531 89.011719 C 171.167969 88.574219 171.71875 88.175781 172.296875 87.820312 C 172.808594 87.515625 173.320312 87.214844 173.832031 86.933594 C 174.324219 86.664062 174.792969 86.351562 175.230469 85.996094 C 175.644531 85.65625 175.996094 85.253906 176.273438 84.796875 C 176.550781 84.300781 176.691406 83.738281 176.671875 83.167969 Z M 180.839844 74.226562 L 180.839844 79.535156 L 176.574219 79.535156 L 176.574219 74.199219 Z M 180.839844 74.226562 "/>
<path style=" stroke:none;fill-rule:nonzero;fill:rgb(27.058824%,35.294118%,39.215686%);fill-opacity:1;" d="M 234.179688 139.609375 C 234.195312 140.765625 233.988281 141.914062 233.5625 142.988281 C 233.023438 144.121094 232.121094 145.039062 231 145.601562 C 230.613281 145.832031 230.140625 146.089844 229.601562 146.390625 C 229.019531 146.695312 228.46875 147.050781 227.949219 147.449219 C 227.414062 147.847656 226.953125 148.335938 226.582031 148.890625 C 226.207031 149.449219 226.011719 150.113281 226.023438 150.785156 C 226.015625 151.273438 226.125 151.75 226.339844 152.1875 C 226.53125 152.585938 226.804688 152.9375 227.144531 153.222656 C 227.484375 153.511719 227.882812 153.730469 228.3125 153.859375 C 228.753906 153.996094 229.214844 154.070312 229.675781 154.070312 C 230.203125 154.074219 230.726562 153.980469 231.21875 153.78125 C 231.664062 153.59375 232.085938 153.347656 232.46875 153.046875 C 232.839844 152.753906 233.175781 152.421875 233.472656 152.054688 C 233.738281 151.710938 233.988281 151.355469 234.21875 150.988281 L 237.566406 153.300781 C 237.242188 154.070312 236.792969 154.777344 236.234375 155.398438 C 235.691406 156.011719 235.054688 156.539062 234.351562 156.960938 C 233.636719 157.386719 232.867188 157.707031 232.0625 157.921875 C 231.234375 158.140625 230.378906 158.25 229.523438 158.25 C 228.546875 158.246094 227.574219 158.101562 226.640625 157.820312 C 225.707031 157.550781 224.835938 157.09375 224.085938 156.476562 C 223.304688 155.832031 222.671875 155.023438 222.234375 154.113281 C 221.742188 153.035156 221.503906 151.859375 221.535156 150.675781 C 221.523438 149.9375 221.617188 149.207031 221.824219 148.496094 C 222.007812 147.890625 222.285156 147.3125 222.648438 146.789062 C 223.007812 146.269531 223.433594 145.796875 223.914062 145.390625 C 224.441406 144.953125 224.996094 144.558594 225.574219 144.199219 C 226.085938 143.890625 226.597656 143.589844 227.109375 143.3125 C 227.601562 143.042969 228.070312 142.726562 228.507812 142.371094 C 228.917969 142.035156 229.269531 141.632812 229.542969 141.175781 C 229.828125 140.679688 229.96875 140.117188 229.949219 139.546875 Z M 234.101562 130.648438 L 234.101562 135.953125 L 229.832031 135.953125 L 229.832031 130.648438 Z M 234.101562 130.648438 "/>
<path style=" stroke:none;fill-rule:nonzero;fill:rgb(14.901961%,19.607843%,21.960784%);fill-opacity:1;" d="M 115.820312 160.25 C 115.800781 159.09375 116.011719 157.941406 116.4375 156.863281 C 116.96875 155.734375 117.859375 154.816406 118.972656 154.253906 C 119.355469 154.019531 119.832031 153.753906 120.371094 153.460938 C 120.949219 153.152344 121.503906 152.800781 122.023438 152.402344 C 122.554688 152 123.015625 151.515625 123.390625 150.960938 C 123.765625 150.398438 123.960938 149.734375 123.949219 149.058594 C 123.957031 148.574219 123.847656 148.09375 123.632812 147.65625 C 123.441406 147.257812 123.167969 146.902344 122.828125 146.613281 C 122.484375 146.328125 122.089844 146.113281 121.660156 145.984375 C 121.207031 145.839844 120.734375 145.769531 120.261719 145.769531 C 119.730469 145.761719 119.207031 145.859375 118.71875 146.0625 C 118.273438 146.234375 117.851562 146.472656 117.46875 146.761719 C 117.097656 147.058594 116.761719 147.394531 116.464844 147.761719 C 116.195312 148.101562 115.945312 148.453125 115.71875 148.820312 L 112.371094 146.511719 C 112.695312 145.742188 113.144531 145.03125 113.699219 144.410156 C 114.246094 143.800781 114.878906 143.273438 115.585938 142.855469 C 116.296875 142.429688 117.070312 142.105469 117.871094 141.890625 C 118.703125 141.671875 119.554688 141.566406 120.414062 141.566406 C 121.390625 141.570312 122.363281 141.710938 123.296875 141.988281 C 124.230469 142.265625 125.097656 142.71875 125.851562 143.332031 C 126.632812 143.976562 127.261719 144.785156 127.699219 145.699219 C 128.191406 146.777344 128.433594 147.957031 128.402344 149.140625 C 128.414062 149.875 128.320312 150.605469 128.113281 151.3125 C 127.929688 151.921875 127.648438 152.5 127.289062 153.027344 C 126.929688 153.546875 126.503906 154.019531 126.019531 154.425781 C 125.496094 154.863281 124.941406 155.265625 124.363281 155.625 C 123.851562 155.933594 123.34375 156.226562 122.828125 156.507812 C 122.335938 156.777344 121.867188 157.09375 121.429688 157.449219 C 121.015625 157.785156 120.664062 158.1875 120.394531 158.640625 C 120.109375 159.140625 119.96875 159.707031 119.988281 160.277344 Z M 115.898438 169.210938 L 115.898438 163.898438 L 120.167969 163.898438 L 120.167969 169.210938 Z M 115.898438 169.210938 "/>
</g>
</svg>
