<?xml version="1.0" encoding="UTF-8"?>
<svg xmlns="http://www.w3.org/2000/svg" xmlns:xlink="http://www.w3.org/1999/xlink" width="670px" height="480px" viewBox="0 0 669 480" version="1.1">
<g id="surface1">
<path style=" stroke:none;fill-rule:nonzero;fill:rgb(24.705882%,23.921569%,34.509804%);fill-opacity:1;" d="M 17.703125 479.3125 C 17.703125 479.902344 18.175781 480.375 18.761719 480.375 L 667.558594 480.375 C 668.144531 480.375 668.617188 479.902344 668.617188 479.3125 C 668.617188 478.726562 668.144531 478.253906 667.558594 478.253906 L 18.761719 478.253906 C 18.175781 478.253906 17.703125 478.726562 17.703125 479.3125 Z M 17.703125 479.3125 "/>
<path style=" stroke:none;fill-rule:nonzero;fill:rgb(88.627451%,89.019608%,89.411765%);fill-opacity:1;" d="M 225.457031 84.734375 L 17.375 84.734375 C 9.4375 84.734375 2.980469 78.269531 2.980469 70.324219 C 2.980469 62.382812 9.4375 55.917969 17.375 55.917969 L 225.457031 55.917969 C 233.394531 55.917969 239.851562 62.382812 239.851562 70.324219 C 239.851562 78.269531 233.394531 84.734375 225.457031 84.734375 Z M 17.375 57.699219 C 10.417969 57.699219 4.757812 63.363281 4.757812 70.324219 C 4.757812 77.289062 10.417969 82.953125 17.375 82.953125 L 225.457031 82.953125 C 232.414062 82.953125 238.074219 77.289062 238.074219 70.324219 C 238.074219 63.363281 232.414062 57.699219 225.457031 57.699219 Z M 17.375 57.699219 "/>
<path style=" stroke:none;fill-rule:nonzero;fill:rgb(96.078431%,0%,34.117647%);fill-opacity:1;" d="M 225.457031 253.359375 L 17.375 253.359375 C 9.679688 253.359375 3.425781 247.097656 3.425781 239.394531 C 3.425781 231.691406 9.679688 225.429688 17.375 225.429688 L 225.457031 225.429688 C 233.152344 225.429688 239.40625 231.691406 239.40625 239.394531 C 239.40625 247.097656 233.152344 253.359375 225.457031 253.359375 Z M 225.457031 253.359375 "/>
<path style=" stroke:none;fill-rule:nonzero;fill:rgb(88.627451%,89.019608%,89.411765%);fill-opacity:1;" d="M 157.269531 27.925781 L 13.949219 27.925781 C 6.253906 27.925781 0 21.667969 0 13.964844 C 0 6.261719 6.253906 0 13.949219 0 L 157.269531 0 C 164.964844 0 171.21875 6.261719 171.21875 13.964844 C 171.21875 21.667969 164.964844 27.925781 157.269531 27.925781 Z M 157.269531 27.925781 "/>
<path style=" stroke:none;fill-rule:nonzero;fill:rgb(88.627451%,89.019608%,89.411765%);fill-opacity:1;" d="M 225.457031 141.089844 L 17.375 141.089844 C 9.4375 141.089844 2.980469 134.621094 2.980469 126.679688 C 2.980469 118.734375 9.4375 112.269531 17.375 112.269531 L 225.457031 112.269531 C 233.394531 112.269531 239.851562 118.734375 239.851562 126.679688 C 239.851562 134.621094 233.394531 141.089844 225.457031 141.089844 Z M 17.375 114.050781 C 10.417969 114.050781 4.757812 119.714844 4.757812 126.679688 C 4.757812 133.644531 10.417969 139.308594 17.375 139.308594 L 225.457031 139.308594 C 232.414062 139.308594 238.074219 133.644531 238.074219 126.679688 C 238.074219 119.714844 232.414062 114.050781 225.457031 114.050781 Z M 17.375 114.050781 "/>
<path style=" stroke:none;fill-rule:nonzero;fill:rgb(88.627451%,89.019608%,89.411765%);fill-opacity:1;" d="M 225.457031 197.449219 L 17.375 197.449219 C 9.4375 197.449219 2.980469 190.984375 2.980469 183.042969 C 2.980469 175.097656 9.4375 168.632812 17.375 168.632812 L 225.457031 168.632812 C 233.394531 168.632812 239.851562 175.097656 239.851562 183.042969 C 239.851562 190.984375 233.394531 197.449219 225.457031 197.449219 Z M 17.375 170.414062 C 10.417969 170.414062 4.757812 176.078125 4.757812 183.042969 C 4.757812 190.003906 10.417969 195.667969 17.375 195.667969 L 225.457031 195.667969 C 232.414062 195.667969 238.074219 190.003906 238.074219 183.042969 C 238.074219 176.078125 232.414062 170.414062 225.457031 170.414062 Z M 17.375 170.414062 "/>
<path style=" stroke:none;fill-rule:nonzero;fill:rgb(88.627451%,89.019608%,89.411765%);fill-opacity:1;" d="M 10.222656 45.570312 L 64.757812 45.570312 C 66.054688 45.570312 67.113281 46.621094 67.113281 47.929688 C 67.113281 49.230469 66.054688 50.289062 64.757812 50.289062 L 10.222656 50.289062 C 8.921875 50.289062 7.863281 49.238281 7.863281 47.929688 C 7.863281 46.628906 8.921875 45.570312 10.222656 45.570312 Z M 10.222656 45.570312 "/>
<path style=" stroke:none;fill-rule:nonzero;fill:rgb(88.627451%,89.019608%,89.411765%);fill-opacity:1;" d="M 10.222656 103.257812 L 64.757812 103.257812 C 66.054688 103.257812 67.113281 104.308594 67.113281 105.609375 C 67.113281 106.910156 66.054688 107.96875 64.757812 107.96875 L 10.222656 107.96875 C 8.921875 107.96875 7.863281 106.917969 7.863281 105.617188 C 7.863281 104.316406 8.921875 103.257812 10.222656 103.257812 Z M 10.222656 103.257812 "/>
<path style=" stroke:none;fill-rule:nonzero;fill:rgb(88.627451%,89.019608%,89.411765%);fill-opacity:1;" d="M 10.222656 160.957031 L 64.757812 160.957031 C 66.054688 160.957031 67.113281 162.007812 67.113281 163.316406 C 67.113281 164.617188 66.054688 165.667969 64.757812 165.667969 L 10.222656 165.667969 C 8.921875 165.667969 7.863281 164.617188 7.863281 163.308594 C 7.863281 162.007812 8.921875 160.957031 10.222656 160.957031 Z M 10.222656 160.957031 "/>
<path style=" stroke:none;fill-rule:nonzero;fill:rgb(62.352941%,38.039216%,41.568627%);fill-opacity:1;" d="M 397.734375 117.78125 L 377.84375 124.335938 L 377.84375 95.671875 L 395.894531 95.671875 Z M 397.734375 117.78125 "/>
<path style=" stroke:none;fill-rule:nonzero;fill:rgb(62.352941%,38.039216%,41.568627%);fill-opacity:1;" d="M 400.128906 83.765625 C 400.128906 94.722656 391.253906 103.605469 380.308594 103.605469 C 369.359375 103.605469 360.484375 94.722656 360.484375 83.765625 C 360.484375 72.804688 369.359375 63.921875 380.308594 63.921875 C 391.253906 63.921875 400.128906 72.804688 400.128906 83.765625 Z M 400.128906 83.765625 "/>
<path style=" stroke:none;fill-rule:nonzero;fill:rgb(18.431373%,18.039216%,26.27451%);fill-opacity:1;" d="M 385.75 81.796875 C 382.433594 81.699219 380.253906 78.339844 378.964844 75.277344 C 377.671875 72.214844 376.347656 68.695312 373.269531 67.429688 C 370.753906 66.398438 366.3125 73.390625 364.328125 71.527344 C 362.257812 69.585938 364.277344 59.621094 366.472656 57.832031 C 368.671875 56.042969 371.675781 55.695312 374.507812 55.5625 C 381.410156 55.238281 388.359375 55.800781 395.128906 57.21875 C 399.316406 58.089844 403.625 59.40625 406.648438 62.4375 C 410.472656 66.28125 411.453125 72.082031 411.730469 77.503906 C 412.011719 83.050781 411.691406 88.859375 408.996094 93.710938 C 406.300781 98.566406 400.660156 102.144531 395.253906 100.90625 C 394.710938 97.96875 395.261719 94.949219 395.476562 91.957031 C 395.679688 88.972656 395.464844 85.75 393.640625 83.371094 C 391.828125 80.996094 387.929688 80.050781 385.8125 82.160156 "/>
<path style=" stroke:none;fill-rule:nonzero;fill:rgb(18.431373%,18.039216%,26.27451%);fill-opacity:1;" d="M 410.136719 88.671875 C 412.121094 87.21875 414.496094 86 416.933594 86.300781 C 419.566406 86.621094 421.800781 88.796875 422.476562 91.371094 C 423.152344 93.941406 422.394531 96.773438 420.757812 98.875 C 419.128906 100.976562 416.703125 102.367188 414.140625 103.0625 C 412.652344 103.460938 411.027344 103.632812 409.609375 103.027344 C 407.53125 102.125 406.398438 99.464844 407.21875 97.34375 "/>
<path style=" stroke:none;fill-rule:nonzero;fill:rgb(62.352941%,38.039216%,41.568627%);fill-opacity:1;" d="M 334.285156 275.355469 C 332.960938 281.875 335.390625 287.832031 339.695312 288.660156 C 344 289.488281 348.566406 284.867188 349.882812 278.347656 C 350.441406 275.746094 350.351562 273.058594 349.625 270.492188 L 366.019531 168.304688 L 345.511719 164.4375 L 337.597656 268.183594 C 335.914062 270.289062 334.785156 272.746094 334.285156 275.363281 Z M 334.285156 275.355469 "/>
<path style=" stroke:none;fill-rule:nonzero;fill:rgb(88.627451%,89.019608%,89.411765%);fill-opacity:1;" d="M 377.628906 111.183594 L 363.636719 111.183594 C 353.742188 112.6875 351.054688 117.96875 348.804688 127.730469 C 345.371094 142.621094 340.984375 162.441406 341.855469 162.738281 C 343.253906 163.199219 367.078125 174.421875 379.222656 171.855469 Z M 377.628906 111.183594 "/>
<path style=" stroke:none;fill-rule:nonzero;fill:rgb(62.352941%,38.039216%,41.568627%);fill-opacity:1;" d="M 372.53125 436.683594 L 391.160156 436.683594 L 391.160156 463.140625 L 372.53125 463.140625 Z M 372.53125 436.683594 "/>
<path style=" stroke:none;fill-rule:nonzero;fill:rgb(18.431373%,18.039216%,26.27451%);fill-opacity:1;" d="M 354.390625 479.152344 C 352.433594 479.152344 350.691406 479.109375 349.375 478.984375 C 344.429688 478.53125 339.703125 474.871094 337.328125 472.734375 C 336.261719 471.769531 335.921875 470.238281 336.476562 468.921875 C 336.875 467.976562 337.667969 467.265625 338.65625 466.988281 L 351.730469 463.25 L 372.90625 448.945312 L 373.144531 449.375 C 373.234375 449.535156 375.316406 453.285156 376.011719 455.8125 C 376.277344 456.773438 376.207031 457.578125 375.804688 458.199219 C 375.53125 458.628906 375.136719 458.875 374.828125 459.019531 C 375.210938 459.417969 376.410156 460.238281 380.109375 460.828125 C 385.511719 461.679688 386.648438 456.082031 386.695312 455.847656 L 386.730469 455.660156 L 386.890625 455.554688 C 389.460938 453.898438 391.042969 453.140625 391.585938 453.300781 C 391.925781 453.398438 392.496094 453.578125 394.035156 468.832031 C 394.183594 469.3125 395.261719 472.820312 394.53125 476.179688 C 393.742188 479.832031 377.796875 478.574219 374.605469 478.289062 C 374.515625 478.300781 362.578125 479.152344 354.402344 479.152344 Z M 354.390625 479.152344 "/>
<path style=" stroke:none;fill-rule:nonzero;fill:rgb(62.352941%,38.039216%,41.568627%);fill-opacity:1;" d="M 428.398438 425.765625 L 444.207031 415.898438 L 458.191406 438.347656 L 442.386719 448.214844 Z M 428.398438 425.765625 "/>
<path style=" stroke:none;fill-rule:nonzero;fill:rgb(18.431373%,18.039216%,26.27451%);fill-opacity:1;" d="M 423.214844 475.53125 C 421.023438 475.53125 419.015625 475.261719 417.582031 475.011719 C 416.175781 474.761719 415.074219 473.640625 414.84375 472.234375 C 414.683594 471.21875 414.976562 470.195312 415.667969 469.4375 L 424.789062 459.339844 L 435.195312 435.988281 L 435.625 436.222656 C 435.785156 436.308594 439.53125 438.386719 441.460938 440.167969 C 442.199219 440.84375 442.5625 441.5625 442.546875 442.304688 C 442.535156 442.820312 442.339844 443.230469 442.144531 443.523438 C 442.679688 443.667969 444.128906 443.71875 447.582031 442.257812 C 452.617188 440.128906 450.625 434.769531 450.535156 434.546875 L 450.464844 434.367188 L 450.542969 434.199219 C 451.851562 431.429688 452.785156 429.953125 453.335938 429.800781 C 453.683594 429.703125 454.253906 429.550781 463.621094 441.6875 C 464.003906 442.007812 466.769531 444.421875 467.925781 447.65625 C 469.179688 451.171875 454.992188 458.554688 452.136719 460 C 452.046875 460.070312 437.199219 470.871094 431.097656 473.945312 C 428.675781 475.164062 425.8125 475.539062 423.203125 475.539062 Z M 423.214844 475.53125 "/>
<path style=" stroke:none;fill-rule:nonzero;fill:rgb(18.431373%,18.039216%,26.27451%);fill-opacity:1;" d="M 404.878906 215.429688 L 352.71875 215.429688 L 347.988281 264 L 368.699219 443.460938 L 395.324219 443.460938 L 384.675781 339.8125 L 427.867188 433.390625 L 451.53125 416.808594 L 417.804688 329.445312 C 417.804688 329.445312 429.851562 253.339844 420.382812 234.378906 C 410.917969 215.429688 404.878906 215.429688 404.878906 215.429688 Z M 404.878906 215.429688 "/>
<path style=" stroke:none;fill-rule:nonzero;fill:rgb(88.627451%,89.019608%,89.411765%);fill-opacity:1;" d="M 430.828125 218.386719 L 347.988281 218.386719 L 372.84375 111.183594 L 408.933594 111.183594 Z M 430.828125 218.386719 "/>
<path style=" stroke:none;fill-rule:nonzero;fill:rgb(62.352941%,38.039216%,41.568627%);fill-opacity:1;" d="M 438.285156 275.355469 C 439.609375 281.875 437.179688 287.832031 432.875 288.660156 C 428.570312 289.488281 424.003906 284.867188 422.6875 278.347656 C 422.128906 275.746094 422.21875 273.058594 422.945312 270.492188 L 406.550781 168.304688 L 427.058594 164.4375 L 434.972656 268.183594 C 436.65625 270.289062 437.785156 272.746094 438.285156 275.363281 Z M 438.285156 275.355469 "/>
<path style=" stroke:none;fill-rule:nonzero;fill:rgb(88.627451%,89.019608%,89.411765%);fill-opacity:1;" d="M 394.941406 111.183594 L 408.933594 111.183594 C 418.828125 112.6875 421.515625 117.96875 423.765625 127.730469 C 427.199219 142.621094 431.585938 162.441406 430.714844 162.738281 C 429.316406 163.199219 405.492188 174.421875 393.347656 171.855469 Z M 394.941406 111.183594 "/>
</g>
</svg>
