<?xml version="1.0" encoding="UTF-8"?>
<svg xmlns="http://www.w3.org/2000/svg" xmlns:xlink="http://www.w3.org/1999/xlink" width="676px" height="400px" viewBox="0 0 676 400" version="1.1">
<g id="surface1">
<path style=" stroke:none;fill-rule:nonzero;fill:rgb(90.196078%,90.196078%,90.196078%);fill-opacity:1;" d="M 178.679688 216.988281 L 177.960938 216.824219 C 197.964844 128.347656 285.898438 72.839844 374.367188 92.84375 C 435.976562 106.777344 484.136719 154.808594 498.238281 216.386719 L 497.515625 216.550781 C 480.484375 141.769531 414.953125 89.539062 338.148438 89.539062 C 262.351562 89.542969 195.285156 143.140625 178.679688 216.988281 Z M 178.679688 216.988281 "/>
<path style=" stroke:none;fill-rule:nonzero;fill:rgb(24.705882%,23.921569%,33.72549%);fill-opacity:1;" d="M 676 384.351562 L 0 384.351562 L 0 0 L 676 0 Z M 1.25 383.097656 L 674.75 383.097656 L 674.75 1.253906 L 1.25 1.253906 Z M 1.25 383.097656 "/>
<path style=" stroke:none;fill-rule:nonzero;fill:rgb(96.078431%,0%,34.117647%);fill-opacity:1;" d="M 51.953125 39.4375 C 51.953125 42.546875 49.429688 45.070312 46.320312 45.070312 C 43.207031 45.070312 40.683594 42.546875 40.683594 39.4375 C 40.683594 36.324219 43.207031 33.804688 46.320312 33.804688 C 49.429688 33.804688 51.953125 36.324219 51.953125 39.4375 Z M 51.953125 39.4375 "/>
<path style=" stroke:none;fill-rule:nonzero;fill:rgb(94.901961%,94.901961%,94.901961%);fill-opacity:1;" d="M 68.851562 39.4375 C 68.851562 42.546875 66.328125 45.070312 63.21875 45.070312 C 60.105469 45.070312 57.585938 42.546875 57.585938 39.4375 C 57.585938 36.324219 60.105469 33.804688 63.21875 33.804688 C 66.328125 33.804688 68.851562 36.324219 68.851562 39.4375 Z M 68.851562 39.4375 "/>
<path style=" stroke:none;fill-rule:nonzero;fill:rgb(94.901961%,94.901961%,94.901961%);fill-opacity:1;" d="M 85.75 39.4375 C 85.75 42.546875 83.230469 45.070312 80.117188 45.070312 C 77.007812 45.070312 74.484375 42.546875 74.484375 39.4375 C 74.484375 36.324219 77.007812 33.804688 80.117188 33.804688 C 83.230469 33.804688 85.75 36.324219 85.75 39.4375 Z M 85.75 39.4375 "/>
<path style=" stroke:none;fill-rule:nonzero;fill:rgb(90.196078%,90.196078%,90.196078%);fill-opacity:1;" d="M 649.085938 320.636719 L 649.085938 362.441406 L 604.570312 362.441406 C 609.425781 340.691406 627.074219 324.113281 649.085938 320.636719 Z M 649.085938 320.636719 "/>
<path style=" stroke:none;fill-rule:nonzero;fill:rgb(90.196078%,90.196078%,90.196078%);fill-opacity:1;" d="M 570.730469 114.617188 L 570.332031 114.132812 L 420.492188 238.410156 L 420.007812 238.8125 L 523.832031 364.007812 L 525.457031 364.007812 L 421.773438 238.972656 L 570.167969 115.898438 L 649.085938 211.066406 L 649.085938 209.101562 Z M 570.730469 114.617188 "/>
<path style=" stroke:none;fill-rule:nonzero;fill:rgb(62.745098%,38.039216%,41.568627%);fill-opacity:1;" d="M 479.601562 139.476562 C 479.601562 160.804688 462.3125 178.09375 440.984375 178.09375 C 419.660156 178.09375 402.371094 160.804688 402.371094 139.476562 C 402.371094 118.148438 419.660156 100.859375 440.984375 100.859375 C 462.3125 100.859375 479.601562 118.148438 479.601562 139.476562 Z M 479.601562 139.476562 "/>
<path style=" stroke:none;fill-rule:nonzero;fill:rgb(96.078431%,0%,34.117647%);fill-opacity:1;" d="M 505.175781 220.957031 L 483.6875 283.261719 L 483.6875 283.269531 L 473.332031 313.308594 C 473.332031 313.308594 472.273438 361.074219 471.210938 361.074219 C 470.992188 361.074219 470.679688 361.761719 470.324219 362.847656 L 367.425781 362.847656 L 375.683594 275.09375 L 375.179688 271.003906 L 368.71875 218.589844 C 367.207031 206.339844 374.429688 194.691406 386.074219 190.597656 L 396.871094 186.800781 C 411.03125 181.820312 426.25 180.660156 441.003906 183.433594 C 454.113281 185.902344 466.460938 191.398438 477.0625 199.492188 Z M 505.175781 220.957031 "/>
<path style=" stroke:none;fill-rule:nonzero;fill:rgb(18.431373%,18.039216%,25.490196%);fill-opacity:1;" d="M 474.472656 108.363281 C 474.472656 108.363281 462.210938 81.800781 438.710938 87.929688 C 415.210938 94.058594 401.929688 103.253906 400.910156 112.453125 C 399.886719 121.648438 401.421875 135.441406 401.421875 135.441406 C 401.421875 135.441406 403.976562 116.535156 420.324219 120.625 C 436.671875 124.714844 462.210938 121.648438 462.210938 121.648438 L 466.296875 158.429688 C 466.296875 158.429688 470.894531 151.789062 476.003906 155.875 C 481.113281 159.960938 490.820312 116.539062 474.472656 108.363281 Z M 474.472656 108.363281 "/>
<path style=" stroke:none;fill-rule:nonzero;fill:rgb(96.078431%,0%,34.117647%);fill-opacity:1;" d="M 525.34375 317.554688 C 525.34375 317.554688 525.34375 341.808594 516.429688 362.847656 L 485.800781 362.847656 L 486.070312 362.136719 L 494.5625 324.980469 L 491.378906 312.246094 L 483.6875 283.269531 L 483.6875 283.261719 C 479.691406 268.199219 479.925781 252.328125 484.367188 237.390625 L 484.714844 236.21875 C 487.410156 227.164062 495.730469 220.957031 505.175781 220.957031 C 505.175781 220.957031 518.972656 232.632812 517.910156 254.921875 Z M 525.34375 317.554688 "/>
<path style=" stroke:none;fill-rule:nonzero;fill:rgb(80%,80%,80%);fill-opacity:1;" d="M 613.648438 76.394531 C 602.113281 76.394531 592.757812 67.039062 592.757812 55.5 C 592.757812 43.960938 602.113281 34.609375 613.648438 34.609375 C 625.1875 34.609375 634.539062 43.960938 634.539062 55.5 C 634.539062 67.039062 625.1875 76.394531 613.648438 76.394531 Z M 613.648438 35.578125 C 602.648438 35.578125 593.730469 44.5 593.730469 55.5 C 593.730469 66.503906 602.648438 75.421875 613.648438 75.421875 C 624.652344 75.421875 633.570312 66.503906 633.570312 55.5 C 633.570312 44.5 624.652344 35.578125 613.648438 35.578125 Z M 613.648438 35.578125 "/>
<path style=" stroke:none;fill-rule:nonzero;fill:rgb(80%,80%,80%);fill-opacity:1;" d="M 649.085938 364.007812 L 26.914062 364.007812 L 26.914062 20.34375 L 649.085938 20.34375 Z M 28.066406 362.886719 L 647.933594 362.886719 L 647.933594 21.464844 L 28.066406 21.464844 Z M 28.066406 362.886719 "/>
<path style=" stroke:none;fill-rule:nonzero;fill:rgb(24.705882%,23.921569%,33.72549%);fill-opacity:1;" d="M 622.449219 47.554688 L 621.996094 47.097656 L 613.511719 55.585938 L 605.027344 47.097656 L 604.570312 47.554688 L 613.054688 56.039062 L 605.699219 63.394531 L 606.15625 63.851562 L 613.511719 56.496094 L 620.863281 63.851562 L 621.320312 63.394531 L 613.964844 56.039062 Z M 622.449219 47.554688 "/>
<path style=" stroke:none;fill-rule:nonzero;fill:rgb(24.705882%,23.921569%,33.72549%);fill-opacity:1;" d="M 260.277344 217.492188 L 48.167969 217.492188 C 44.035156 217.5 40.691406 220.84375 40.683594 224.976562 L 40.683594 306.832031 C 40.6875 310.964844 44.035156 314.3125 48.167969 314.316406 L 260.277344 314.316406 C 264.40625 314.3125 267.75 310.964844 267.757812 306.835938 L 267.757812 224.976562 C 267.75 220.84375 264.40625 217.5 260.277344 217.492188 Z M 266.878906 306.832031 C 266.871094 310.476562 263.921875 313.429688 260.277344 313.433594 L 48.167969 313.433594 C 44.523438 313.429688 41.570312 310.476562 41.566406 306.832031 L 41.566406 224.976562 C 41.570312 221.332031 44.523438 218.378906 48.167969 218.375 L 260.277344 218.375 C 263.921875 218.378906 266.871094 221.332031 266.878906 224.976562 Z M 266.878906 306.832031 "/>
<path style=" stroke:none;fill-rule:nonzero;fill:rgb(96.078431%,0%,34.117647%);fill-opacity:1;" d="M 247.867188 241.28125 L 136.753906 241.28125 C 133.527344 241.28125 130.875 243.410156 130.75 246.089844 C 130.742188 246.15625 130.738281 246.222656 130.742188 246.289062 C 130.746094 249.050781 133.433594 251.292969 136.753906 251.296875 L 247.867188 251.296875 C 251.1875 251.296875 253.882812 249.054688 253.882812 246.289062 C 253.882812 243.523438 251.191406 241.28125 247.867188 241.28125 Z M 247.867188 241.28125 "/>
<path style=" stroke:none;fill-rule:nonzero;fill:rgb(96.078431%,0%,34.117647%);fill-opacity:1;" d="M 247.867188 261.3125 L 136.753906 261.3125 C 133.527344 261.3125 130.875 263.441406 130.75 266.125 C 130.742188 266.1875 130.738281 266.253906 130.742188 266.320312 C 130.746094 269.085938 133.433594 271.324219 136.753906 271.328125 L 247.867188 271.328125 C 251.1875 271.328125 253.882812 269.085938 253.882812 266.320312 C 253.882812 263.554688 251.1875 261.3125 247.867188 261.3125 Z M 247.867188 261.3125 "/>
<path style=" stroke:none;fill-rule:nonzero;fill:rgb(96.078431%,0%,34.117647%);fill-opacity:1;" d="M 247.867188 281.34375 L 136.753906 281.34375 C 133.527344 281.34375 130.875 283.472656 130.75 286.15625 C 130.742188 286.21875 130.738281 286.285156 130.742188 286.351562 C 130.746094 289.117188 133.433594 291.355469 136.753906 291.359375 L 247.867188 291.359375 C 251.1875 291.359375 253.882812 289.117188 253.882812 286.351562 C 253.882812 283.585938 251.191406 281.34375 247.867188 281.34375 Z M 247.867188 281.34375 "/>
<path style=" stroke:none;fill-rule:nonzero;fill:rgb(24.705882%,23.921569%,33.72549%);fill-opacity:1;" d="M 84.492188 292.609375 C 69.851562 292.609375 57.984375 280.742188 57.984375 266.097656 C 57.984375 251.457031 69.851562 239.585938 84.492188 239.585938 C 99.132812 239.585938 111.003906 251.457031 111.003906 266.097656 C 111.003906 280.742188 99.132812 292.609375 84.492188 292.609375 Z M 84.492188 240.5 C 70.355469 240.5 58.898438 251.960938 58.898438 266.097656 C 58.898438 280.234375 70.355469 291.695312 84.492188 291.695312 C 98.628906 291.695312 110.085938 280.234375 110.085938 266.097656 C 110.085938 251.960938 98.628906 240.5 84.492188 240.5 Z M 84.492188 240.5 "/>
<path style=" stroke:none;fill-rule:nonzero;fill:rgb(100%,39.607843%,51.764706%);fill-opacity:1;" d="M 185.273438 352.425781 L 162.742188 352.425781 L 162.742188 329.890625 L 185.273438 329.890625 Z M 163.992188 351.171875 L 184.023438 351.171875 L 184.023438 331.140625 L 163.992188 331.140625 Z M 163.992188 351.171875 "/>
<path style=" stroke:none;fill-rule:nonzero;fill:rgb(24.705882%,23.921569%,33.72549%);fill-opacity:1;" d="M 135.941406 345.242188 L 127.890625 337.863281 L 128.738281 336.941406 L 135.710938 343.332031 L 151.578125 319.527344 L 152.621094 320.222656 Z M 135.941406 345.242188 "/>
<path style=" stroke:none;fill-rule:nonzero;fill:rgb(89.803922%,89.803922%,89.803922%);fill-opacity:1;" d="M 143.964844 335.523438 L 143.964844 351.171875 L 123.933594 351.171875 L 123.933594 331.140625 L 139.582031 331.140625 L 139.582031 329.890625 L 122.679688 329.890625 L 122.679688 352.425781 L 145.214844 352.425781 L 145.214844 335.523438 Z M 143.964844 335.523438 "/>
<path style=" stroke:none;fill-rule:nonzero;fill:rgb(96.078431%,0%,34.117647%);fill-opacity:1;" d="M 89.507812 274.492188 C 89.507812 282.617188 82.921875 289.203125 74.796875 289.203125 C 66.675781 289.203125 60.089844 282.617188 60.089844 274.492188 C 60.089844 266.367188 66.675781 259.78125 74.796875 259.78125 C 82.921875 259.78125 89.507812 266.367188 89.507812 274.492188 Z M 89.507812 274.492188 "/>
<path style=" stroke:none;fill-rule:nonzero;fill:rgb(62.745098%,38.039216%,41.568627%);fill-opacity:1;" d="M 267.207031 387.535156 C 267.386719 384.074219 269.09375 380.867188 271.863281 378.78125 C 274.636719 376.695312 278.1875 375.941406 281.566406 376.726562 L 303.773438 341.492188 L 312.707031 361.207031 L 290.246094 391.644531 C 288.515625 397.359375 282.78125 400.875 276.902344 399.824219 C 271.027344 398.777344 266.859375 393.496094 267.207031 387.535156 Z M 267.207031 387.535156 "/>
<path style=" stroke:none;fill-rule:nonzero;fill:rgb(96.078431%,0%,34.117647%);fill-opacity:1;" d="M 383.175781 194.597656 L 381.953125 194.8125 C 368.183594 197.246094 356.507812 206.648438 351.6875 219.773438 C 351.542969 220.167969 351.40625 220.5625 351.273438 220.960938 L 342.78125 259.171875 L 284.402344 370.628906 L 302.449219 381.242188 C 302.449219 381.242188 352.335938 322.859375 358.703125 302.691406 L 384.347656 253.375 C 385.625 250.914062 386.242188 248.160156 386.136719 245.386719 L 384.214844 195.433594 C 384.203125 195.179688 384.085938 194.941406 383.886719 194.78125 C 383.6875 194.617188 383.429688 194.550781 383.175781 194.597656 Z M 383.175781 194.597656 "/>
</g>
</svg>
