<?xml version="1.0" encoding="UTF-8"?>
<svg xmlns="http://www.w3.org/2000/svg" xmlns:xlink="http://www.w3.org/1999/xlink" width="419px" height="420px" viewBox="0 0 419 420" version="1.1">
<g id="surface1">
<path style=" stroke:none;fill-rule:nonzero;fill:rgb(94.901961%,94.901961%,94.901961%);fill-opacity:1;" d="M 40.285156 353.851562 L 36.597656 339.304688 C 30.054688 336.53125 23.363281 334.132812 16.550781 332.113281 L 16.082031 338.875 L 14.195312 331.425781 C 5.746094 329.011719 0 327.949219 0 327.949219 C 0 327.949219 7.761719 357.460938 24.046875 380.023438 L 43.019531 383.355469 L 28.277344 385.480469 C 30.328125 387.945312 32.527344 390.277344 34.871094 392.464844 C 58.554688 414.441406 84.9375 424.527344 93.796875 414.988281 C 102.652344 405.449219 90.632812 379.894531 66.945312 357.917969 C 59.601562 351.105469 50.378906 345.636719 41.144531 341.332031 Z M 40.285156 353.851562 "/>
<path style=" stroke:none;fill-rule:nonzero;fill:rgb(94.901961%,94.901961%,94.901961%);fill-opacity:1;" d="M 75.371094 338.050781 L 79.734375 323.691406 C 75.570312 317.9375 71.082031 312.425781 66.292969 307.175781 L 62.398438 312.722656 L 64.632812 305.371094 C 58.648438 298.941406 54.277344 295.0625 54.277344 295.0625 C 54.277344 295.0625 45.664062 324.335938 47.9375 352.066406 L 62.457031 364.722656 L 48.738281 358.925781 C 49.21875 362.09375 49.894531 365.226562 50.769531 368.308594 C 59.683594 399.367188 77.050781 421.632812 89.566406 418.042969 C 102.082031 414.453125 105.003906 386.367188 96.089844 355.3125 C 93.328125 345.683594 88.257812 336.238281 82.582031 327.78125 Z M 75.371094 338.050781 "/>
<path style=" stroke:none;fill-rule:nonzero;fill:rgb(90.196078%,90.196078%,90.196078%);fill-opacity:1;" d="M 292.316406 99.507812 L 290.015625 99.507812 L 290.015625 36.480469 C 290.015625 16.332031 273.675781 0 253.523438 0 L 119.945312 0 C 99.792969 0 83.453125 16.332031 83.453125 36.480469 L 83.453125 382.261719 C 83.453125 402.410156 99.792969 418.742188 119.945312 418.742188 L 253.523438 418.742188 C 273.675781 418.742188 290.015625 402.410156 290.015625 382.261719 L 290.015625 144.375 L 292.316406 144.375 Z M 292.316406 99.507812 "/>
<path style=" stroke:none;fill-rule:nonzero;fill:rgb(100%,100%,100%);fill-opacity:1;" d="M 254.996094 9.488281 L 237.5625 9.488281 C 239.191406 13.480469 238.722656 18.019531 236.320312 21.59375 C 233.914062 25.171875 229.882812 27.320312 225.574219 27.320312 L 149.046875 27.320312 C 144.734375 27.316406 140.707031 25.171875 138.300781 21.59375 C 135.898438 18.019531 135.433594 13.476562 137.058594 9.488281 L 120.773438 9.488281 C 105.722656 9.488281 93.523438 21.683594 93.523438 36.730469 L 93.523438 382.011719 C 93.523438 397.058594 105.722656 409.253906 120.773438 409.253906 L 254.996094 409.253906 C 270.046875 409.253906 282.246094 397.058594 282.246094 382.011719 L 282.246094 36.730469 C 282.246094 21.683594 270.046875 9.488281 254.996094 9.488281 Z M 254.996094 9.488281 "/>
<path style=" stroke:none;fill-rule:nonzero;fill:rgb(80%,80%,80%);fill-opacity:1;" d="M 170.78125 147.03125 C 170.78125 142.117188 173.402344 137.578125 177.660156 135.125 C 171.882812 131.789062 164.539062 133.082031 160.25 138.191406 C 155.960938 143.304688 155.960938 150.753906 160.25 155.867188 C 164.539062 160.976562 171.882812 162.269531 177.660156 158.933594 C 173.402344 156.480469 170.78125 151.941406 170.78125 147.03125 Z M 170.78125 147.03125 "/>
<path style=" stroke:none;fill-rule:nonzero;fill:rgb(80%,80%,80%);fill-opacity:1;" d="M 188.070312 147.03125 C 188.066406 142.117188 190.691406 137.578125 194.949219 135.125 C 189.167969 131.789062 181.828125 133.082031 177.535156 138.191406 C 173.246094 143.304688 173.246094 150.753906 177.535156 155.867188 C 181.828125 160.976562 189.167969 162.269531 194.949219 158.933594 C 190.691406 156.480469 188.070312 151.941406 188.070312 147.03125 Z M 188.070312 147.03125 "/>
<path style=" stroke:none;fill-rule:nonzero;fill:rgb(96.078431%,0%,34.117647%);fill-opacity:1;" d="M 218.714844 147.027344 C 218.714844 154.621094 212.558594 160.777344 204.964844 160.777344 C 197.367188 160.777344 191.210938 154.621094 191.210938 147.027344 C 191.210938 139.4375 197.367188 133.28125 204.964844 133.28125 C 212.558594 133.28125 218.714844 139.4375 218.714844 147.027344 Z M 218.714844 147.027344 "/>
<path style=" stroke:none;fill-rule:nonzero;fill:rgb(80%,80%,80%);fill-opacity:1;" d="M 227.945312 189.964844 L 147.800781 189.964844 C 146.210938 189.964844 144.925781 188.675781 144.921875 187.089844 L 144.921875 106.96875 C 144.925781 105.378906 146.210938 104.09375 147.800781 104.09375 L 227.945312 104.09375 C 229.535156 104.09375 230.820312 105.378906 230.824219 106.96875 L 230.824219 187.089844 C 230.820312 188.675781 229.535156 189.964844 227.945312 189.964844 Z M 147.800781 105.242188 C 146.847656 105.246094 146.074219 106.015625 146.074219 106.96875 L 146.074219 187.089844 C 146.074219 188.042969 146.847656 188.816406 147.800781 188.816406 L 227.945312 188.816406 C 228.898438 188.816406 229.671875 188.042969 229.671875 187.089844 L 229.671875 106.96875 C 229.671875 106.015625 228.898438 105.246094 227.945312 105.242188 Z M 147.800781 105.242188 "/>
<path style=" stroke:none;fill-rule:nonzero;fill:rgb(80%,80%,80%);fill-opacity:1;" d="M 122.921875 251.382812 L 245.839844 251.382812 L 245.839844 252.535156 L 122.921875 252.535156 Z M 122.921875 251.382812 "/>
<path style=" stroke:none;fill-rule:nonzero;fill:rgb(96.078431%,0%,34.117647%);fill-opacity:1;" d="M 130.6875 240.316406 C 130.6875 242.460938 128.949219 244.195312 126.804688 244.195312 C 124.660156 244.195312 122.921875 242.460938 122.921875 240.316406 C 122.921875 238.171875 124.660156 236.4375 126.804688 236.4375 C 128.949219 236.4375 130.6875 238.171875 130.6875 240.316406 Z M 130.6875 240.316406 "/>
<path style=" stroke:none;fill-rule:nonzero;fill:rgb(80%,80%,80%);fill-opacity:1;" d="M 122.921875 290.1875 L 245.839844 290.1875 L 245.839844 291.335938 L 122.921875 291.335938 Z M 122.921875 290.1875 "/>
<path style=" stroke:none;fill-rule:nonzero;fill:rgb(96.078431%,0%,34.117647%);fill-opacity:1;" d="M 130.6875 279.121094 C 130.6875 281.265625 128.949219 283 126.804688 283 C 124.660156 283 122.921875 281.265625 122.921875 279.121094 C 122.921875 276.976562 124.660156 275.242188 126.804688 275.242188 C 128.949219 275.242188 130.6875 276.976562 130.6875 279.121094 Z M 130.6875 279.121094 "/>
<path style=" stroke:none;fill-rule:nonzero;fill:rgb(96.078431%,0%,34.117647%);fill-opacity:1;" d="M 243.589844 334.375 L 204.746094 334.375 C 203.347656 334.375 202.214844 333.242188 202.214844 331.84375 L 202.214844 318.234375 C 202.214844 316.835938 203.347656 315.707031 204.746094 315.703125 L 243.589844 315.703125 C 244.988281 315.707031 246.121094 316.835938 246.121094 318.234375 L 246.121094 331.84375 C 246.121094 333.242188 244.988281 334.375 243.589844 334.375 Z M 243.589844 334.375 "/>
<path style=" stroke:none;fill-rule:nonzero;fill:rgb(96.078431%,0%,34.117647%);fill-opacity:1;" d="M 143.347656 240.316406 C 143.347656 242.460938 141.609375 244.195312 139.46875 244.195312 C 137.324219 244.195312 135.585938 242.460938 135.585938 240.316406 C 135.585938 238.171875 137.324219 236.4375 139.46875 236.4375 C 141.609375 236.4375 143.347656 238.171875 143.347656 240.316406 Z M 143.347656 240.316406 "/>
<path style=" stroke:none;fill-rule:nonzero;fill:rgb(96.078431%,0%,34.117647%);fill-opacity:1;" d="M 156.011719 240.316406 C 156.011719 242.460938 154.273438 244.195312 152.128906 244.195312 C 149.984375 244.195312 148.246094 242.460938 148.246094 240.316406 C 148.246094 238.171875 149.984375 236.4375 152.128906 236.4375 C 154.273438 236.4375 156.011719 238.171875 156.011719 240.316406 Z M 156.011719 240.316406 "/>
<path style=" stroke:none;fill-rule:nonzero;fill:rgb(96.078431%,0%,34.117647%);fill-opacity:1;" d="M 143.347656 279.121094 C 143.347656 281.265625 141.609375 283 139.46875 283 C 137.324219 283 135.585938 281.265625 135.585938 279.121094 C 135.585938 276.976562 137.324219 275.242188 139.46875 275.242188 C 141.609375 275.242188 143.347656 276.976562 143.347656 279.121094 Z M 143.347656 279.121094 "/>
<path style=" stroke:none;fill-rule:nonzero;fill:rgb(96.078431%,0%,34.117647%);fill-opacity:1;" d="M 156.011719 279.121094 C 156.011719 281.265625 154.273438 283 152.128906 283 C 149.984375 283 148.246094 281.265625 148.246094 279.121094 C 148.246094 276.976562 149.984375 275.242188 152.128906 275.242188 C 154.273438 275.242188 156.011719 276.976562 156.011719 279.121094 Z M 156.011719 279.121094 "/>
<path style=" stroke:none;fill-rule:nonzero;fill:rgb(24.705882%,23.921569%,33.72549%);fill-opacity:1;" d="M 417.351562 420.042969 L 13.542969 420.042969 C 12.679688 420.042969 11.976562 419.734375 11.976562 419.359375 C 11.976562 418.980469 12.679688 418.671875 13.542969 418.671875 L 417.351562 418.671875 C 418.214844 418.671875 418.914062 418.980469 418.914062 419.359375 C 418.914062 419.738281 418.214844 420.042969 417.351562 420.042969 Z M 417.351562 420.042969 "/>
<path style=" stroke:none;fill-rule:nonzero;fill:rgb(100%,72.156863%,72.156863%);fill-opacity:1;" d="M 317.582031 275.199219 C 317.859375 275.324219 318.125 275.472656 318.375 275.640625 L 343.601562 264.878906 L 344.503906 258.234375 L 354.582031 258.175781 L 353.988281 273.410156 L 320.691406 282.210938 C 320.621094 282.445312 320.539062 282.671875 320.441406 282.890625 C 319.097656 285.757812 315.6875 287 312.8125 285.675781 C 309.941406 284.347656 308.675781 280.945312 309.988281 278.066406 C 311.300781 275.183594 314.695312 273.902344 317.582031 275.199219 Z M 317.582031 275.199219 "/>
<path style=" stroke:none;fill-rule:nonzero;fill:rgb(100%,72.156863%,72.156863%);fill-opacity:1;" d="M 358.246094 413.265625 L 351.351562 413.265625 L 348.074219 386.675781 L 358.25 386.679688 Z M 358.246094 413.265625 "/>
<path style=" stroke:none;fill-rule:nonzero;fill:rgb(18.431373%,18.039216%,25.490196%);fill-opacity:1;" d="M 346.425781 411.296875 L 359.726562 411.296875 L 359.726562 419.664062 L 338.054688 419.664062 C 338.054688 415.042969 341.804688 411.296875 346.425781 411.296875 Z M 346.425781 411.296875 "/>
<path style=" stroke:none;fill-rule:nonzero;fill:rgb(100%,72.156863%,72.156863%);fill-opacity:1;" d="M 385.0625 411.316406 L 378.203125 411.992188 L 372.328125 385.855469 L 382.457031 384.859375 Z M 385.0625 411.316406 "/>
<path style=" stroke:none;fill-rule:nonzero;fill:rgb(18.431373%,18.039216%,25.490196%);fill-opacity:1;" d="M 373.109375 410.515625 L 386.339844 409.210938 L 387.160156 417.542969 L 365.597656 419.664062 C 365.144531 415.066406 368.503906 410.96875 373.109375 410.515625 Z M 373.109375 410.515625 "/>
<path style=" stroke:none;fill-rule:nonzero;fill:rgb(100%,72.156863%,72.156863%);fill-opacity:1;" d="M 373.980469 216.226562 C 373.980469 223.851562 367.796875 230.035156 360.167969 230.035156 C 352.539062 230.035156 346.355469 223.851562 346.355469 216.226562 C 346.355469 208.597656 352.539062 202.417969 360.167969 202.417969 C 367.796875 202.417969 373.980469 208.597656 373.980469 216.226562 Z M 373.980469 216.226562 "/>
<path style=" stroke:none;fill-rule:nonzero;fill:rgb(18.431373%,18.039216%,25.490196%);fill-opacity:1;" d="M 349.8125 407.886719 C 348.589844 407.890625 347.539062 407.015625 347.328125 405.808594 C 343.761719 386.003906 332.09375 321.242188 331.816406 319.449219 C 331.808594 319.410156 331.804688 319.367188 331.804688 319.324219 L 331.804688 314.496094 C 331.804688 314.320312 331.859375 314.148438 331.964844 314.007812 L 333.503906 311.847656 C 333.652344 311.636719 333.890625 311.507812 334.148438 311.496094 C 342.933594 311.085938 371.707031 309.878906 373.097656 311.613281 C 374.496094 313.359375 374 318.648438 373.886719 319.6875 L 373.894531 319.796875 L 386.820312 402.445312 C 387.03125 403.816406 386.101562 405.101562 384.730469 405.332031 L 376.65625 406.664062 C 375.414062 406.863281 374.210938 406.121094 373.832031 404.921875 C 371.332031 396.945312 362.960938 370.109375 360.058594 359.726562 C 360.019531 359.589844 359.886719 359.503906 359.746094 359.523438 C 359.609375 359.542969 359.503906 359.664062 359.507812 359.804688 C 359.652344 369.703125 360 394.957031 360.121094 403.679688 L 360.136719 404.621094 C 360.148438 405.9375 359.148438 407.046875 357.832031 407.171875 L 350.046875 407.878906 C 349.96875 407.882812 349.890625 407.886719 349.8125 407.886719 Z M 349.8125 407.886719 "/>
<path style=" stroke:none;fill-rule:nonzero;fill:rgb(96.078431%,0%,34.117647%);fill-opacity:1;" d="M 351.398438 235.464844 C 348.988281 236.898438 347.546875 239.53125 346.71875 242.210938 C 345.1875 247.167969 344.265625 252.296875 343.972656 257.480469 L 343.097656 273 L 332.269531 314.136719 C 341.652344 322.078125 347.070312 320.273438 359.703125 313.777344 C 372.335938 307.285156 373.78125 315.945312 373.78125 315.945312 L 376.308594 280.941406 L 379.917969 242.6875 C 379.109375 241.714844 378.191406 240.832031 377.183594 240.058594 C 370.421875 234.804688 361.625 232.941406 353.3125 235.003906 Z M 351.398438 235.464844 "/>
<path style=" stroke:none;fill-rule:nonzero;fill:rgb(100%,72.156863%,72.156863%);fill-opacity:1;" d="M 347.882812 283.507812 C 348.175781 283.617188 348.457031 283.75 348.726562 283.902344 L 373.667969 271.421875 L 374.082031 264.660156 L 384.371094 263.953125 L 384.921875 279.367188 L 351.589844 290.386719 C 351.035156 292.773438 349.054688 294.570312 346.621094 294.894531 C 344.191406 295.21875 341.808594 294.003906 340.644531 291.84375 C 339.480469 289.6875 339.773438 287.03125 341.382812 285.175781 C 342.992188 283.324219 345.578125 282.660156 347.882812 283.507812 Z M 347.882812 283.507812 "/>
<path style=" stroke:none;fill-rule:nonzero;fill:rgb(96.078431%,0%,34.117647%);fill-opacity:1;" d="M 379.738281 242.863281 C 385.875 245.027344 386.957031 268.488281 386.957031 268.488281 C 379.734375 264.515625 371.070312 271.011719 371.070312 271.011719 C 371.070312 271.011719 369.265625 264.878906 367.101562 256.9375 C 365.773438 252.398438 366.863281 247.496094 369.988281 243.949219 C 369.988281 243.949219 373.601562 240.695312 379.738281 242.863281 Z M 379.738281 242.863281 "/>
<path style=" stroke:none;fill-rule:nonzero;fill:rgb(18.431373%,18.039216%,25.490196%);fill-opacity:1;" d="M 372.554688 219.878906 C 370.832031 218.5 368.484375 221.003906 368.484375 221.003906 L 367.105469 208.617188 C 367.105469 208.617188 358.5 209.644531 352.992188 208.269531 C 347.484375 206.898438 346.625 213.261719 346.625 213.261719 C 346.34375 210.691406 346.285156 208.101562 346.453125 205.519531 C 346.796875 202.421875 351.273438 199.324219 359.191406 197.257812 C 367.105469 195.195312 371.238281 204.140625 371.238281 204.140625 C 376.746094 206.894531 374.273438 221.253906 372.554688 219.878906 Z M 372.554688 219.878906 "/>
</g>
</svg>
