<?xml version="1.0" encoding="UTF-8"?>
<svg xmlns="http://www.w3.org/2000/svg" xmlns:xlink="http://www.w3.org/1999/xlink" width="350px" height="350px" viewBox="0 0 350 350" version="1.1">
<defs>
<filter id="alpha" filterUnits="objectBoundingBox" x="0%" y="0%" width="100%" height="100%">
  <feColorMatrix type="matrix" in="SourceGraphic" values="0 0 0 0 1 0 0 0 0 1 0 0 0 0 1 0 0 0 1 0"/>
</filter>
<mask id="mask0">
  <g filter="url(#alpha)">
<rect x="0" y="0" width="350" height="350" style="fill:rgb(0%,0%,0%);fill-opacity:0.8;stroke:none;"/>
  </g>
</mask>
<clipPath id="clip1">
  <rect x="0" y="0" width="350" height="350"/>
</clipPath>
<g id="surface5" clip-path="url(#clip1)">
<path style=" stroke:none;fill-rule:nonzero;fill:rgb(100%,100%,100%);fill-opacity:1;" d="M 292.472656 162.902344 C 293.273438 151.9375 292.738281 140.914062 290.878906 130.074219 C 289.113281 120.34375 286.050781 110.894531 281.777344 101.976562 C 260.316406 57.132812 209.410156 28.390625 159.976562 38.359375 C 132.679688 43.855469 99.273438 62.964844 90.621094 91.160156 C 84.503906 111.089844 87.121094 132.914062 77.371094 151.851562 C 67.359375 171.359375 57.230469 188.636719 59.871094 211.625 C 62.671875 236.25 79.378906 257.761719 100.15625 271.269531 C 125.949219 288.070312 159.964844 297.339844 190.671875 295.183594 C 251.007812 290.953125 288.566406 222.179688 292.472656 162.902344 Z M 292.472656 162.902344 "/>
</g>
<mask id="mask1">
  <g filter="url(#alpha)">
<rect x="0" y="0" width="350" height="350" style="fill:rgb(0%,0%,0%);fill-opacity:0.2;stroke:none;"/>
  </g>
</mask>
<clipPath id="clip2">
  <rect x="0" y="0" width="350" height="350"/>
</clipPath>
<g id="surface8" clip-path="url(#clip2)">
<path style=" stroke:none;fill-rule:nonzero;fill:rgb(14.901961%,19.607843%,21.960784%);fill-opacity:1;" d="M 264.859375 134.714844 L 291.347656 134.714844 C 292.984375 134.714844 294.316406 136.042969 294.316406 137.683594 L 294.316406 151.472656 C 294.316406 153.113281 292.984375 154.441406 291.347656 154.441406 L 264.859375 154.441406 C 263.21875 154.441406 261.890625 153.113281 261.890625 151.472656 L 261.890625 137.683594 C 261.890625 136.042969 263.21875 134.714844 264.859375 134.714844 Z M 264.859375 134.714844 "/>
</g>
<mask id="mask2">
  <g filter="url(#alpha)">
<rect x="0" y="0" width="350" height="350" style="fill:rgb(0%,0%,0%);fill-opacity:0.2;stroke:none;"/>
  </g>
</mask>
<clipPath id="clip3">
  <rect x="0" y="0" width="350" height="350"/>
</clipPath>
<g id="surface11" clip-path="url(#clip3)">
<path style=" stroke:none;fill-rule:nonzero;fill:rgb(14.901961%,19.607843%,21.960784%);fill-opacity:1;" d="M 88.367188 133.328125 C 88.152344 133.050781 87.824219 132.886719 87.472656 132.886719 L 58.535156 132.886719 L 57.398438 129.535156 C 57.238281 129.09375 56.820312 128.800781 56.351562 128.800781 L 49 128.800781 C 48.414062 128.847656 47.960938 129.335938 47.960938 129.921875 C 47.960938 130.511719 48.414062 131 49 131.046875 L 55.515625 131.046875 L 62.578125 152.25 C 62.730469 152.710938 63.160156 153.019531 63.644531 153.019531 L 64.058594 153.019531 C 63.011719 154.640625 63.316406 156.78125 64.769531 158.042969 C 66.226562 159.308594 68.390625 159.308594 69.847656 158.042969 C 71.300781 156.78125 71.605469 154.640625 70.558594 153.019531 L 75.957031 153.019531 C 74.910156 154.640625 75.214844 156.78125 76.671875 158.042969 C 78.125 159.308594 80.289062 159.308594 81.746094 158.042969 C 83.203125 156.78125 83.507812 154.640625 82.460938 153.019531 L 83.328125 153.019531 C 83.914062 152.972656 84.367188 152.484375 84.367188 151.898438 C 84.367188 151.308594 83.914062 150.820312 83.328125 150.773438 L 64.429688 150.773438 L 63.195312 147.070312 L 84.195312 147.070312 C 84.703125 147.070312 85.148438 146.726562 85.28125 146.238281 L 88.480469 134.335938 C 88.605469 134.003906 88.5625 133.628906 88.367188 133.328125 Z M 67.367188 156.6875 C 66.472656 156.6875 65.742188 155.960938 65.742188 155.0625 C 65.742188 154.167969 66.472656 153.441406 67.367188 153.441406 C 68.265625 153.441406 68.992188 154.167969 68.992188 155.0625 C 68.992188 155.5 68.816406 155.917969 68.503906 156.226562 C 68.191406 156.53125 67.769531 156.699219 67.332031 156.6875 Z M 79.269531 156.6875 C 78.371094 156.6875 77.644531 155.960938 77.644531 155.0625 C 77.644531 154.167969 78.371094 153.441406 79.269531 153.441406 C 80.164062 153.441406 80.890625 154.167969 80.890625 155.0625 C 80.890625 155.5 80.714844 155.917969 80.402344 156.226562 C 80.09375 156.53125 79.667969 156.699219 79.234375 156.6875 Z M 82.265625 144.789062 L 78.105469 144.789062 L 78.105469 135.136719 L 82.265625 135.136719 Z M 71.699219 135.136719 L 75.859375 135.136719 L 75.859375 144.789062 L 71.699219 144.789062 Z M 69.453125 144.789062 L 65.253906 144.789062 L 65.253906 135.136719 L 69.453125 135.136719 Z M 59.28125 135.136719 L 63 135.136719 L 63 144.789062 L 62.496094 144.789062 Z M 84.484375 140.820312 L 84.484375 135.136719 L 86.015625 135.136719 Z M 84.484375 140.820312 "/>
</g>
<mask id="mask3">
  <g filter="url(#alpha)">
<rect x="0" y="0" width="350" height="350" style="fill:rgb(0%,0%,0%);fill-opacity:0.2;stroke:none;"/>
  </g>
</mask>
<clipPath id="clip4">
  <rect x="0" y="0" width="350" height="350"/>
</clipPath>
<g id="surface14" clip-path="url(#clip4)">
<path style=" stroke:none;fill-rule:nonzero;fill:rgb(14.901961%,19.607843%,21.960784%);fill-opacity:1;" d="M 266 79.800781 L 268.597656 78.617188 L 268.042969 75.503906 L 265.179688 75.277344 C 264.816406 74.316406 264.335938 73.402344 263.746094 72.5625 L 265.222656 70.070312 L 262.988281 67.828125 L 260.476562 69.328125 C 259.03125 68.34375 257.394531 67.675781 255.675781 67.367188 L 254.976562 64.496094 L 251.8125 64.496094 L 251.109375 67.382812 C 250.128906 67.570312 249.171875 67.875 248.261719 68.292969 L 246 66.332031 L 243.410156 68.144531 L 244.476562 70.945312 C 243.78125 71.660156 243.171875 72.449219 242.660156 73.304688 L 239.679688 72.996094 L 238.59375 75.972656 L 241.066406 77.644531 C 240.945312 78.335938 240.882812 79.039062 240.882812 79.742188 C 240.882812 80.046875 240.882812 80.339844 240.917969 80.632812 L 238.328125 82.082031 L 239.148438 85.140625 L 242.082031 85.140625 C 242.515625 86.058594 243.058594 86.917969 243.699219 87.703125 L 242.402344 90.300781 L 244.824219 92.328125 L 247.175781 90.648438 C 248.058594 91.160156 249 91.5625 249.976562 91.847656 L 250.445312 94.648438 L 253.601562 94.925781 L 254.546875 92.238281 C 255.582031 92.148438 256.605469 91.929688 257.585938 91.589844 L 259.574219 93.605469 L 262.316406 92.023438 L 261.5625 89.300781 C 262.355469 88.625 263.058594 87.851562 263.660156 87.003906 L 266.460938 87.515625 L 267.820312 84.699219 L 265.636719 82.894531 C 265.882812 81.882812 266.003906 80.84375 266 79.800781 Z M 261.316406 79.742188 C 261.316406 84.109375 257.777344 87.648438 253.414062 87.648438 C 249.050781 87.648438 245.511719 84.109375 245.511719 79.742188 C 245.511719 75.378906 249.050781 71.839844 253.414062 71.839844 C 255.523438 71.832031 257.550781 72.667969 259.042969 74.164062 C 260.53125 75.660156 261.363281 77.6875 261.34375 79.800781 Z M 261.316406 79.742188 "/>
</g>
<mask id="mask4">
  <g filter="url(#alpha)">
<rect x="0" y="0" width="350" height="350" style="fill:rgb(0%,0%,0%);fill-opacity:0.2;stroke:none;"/>
  </g>
</mask>
<clipPath id="clip5">
  <rect x="0" y="0" width="350" height="350"/>
</clipPath>
<g id="surface17" clip-path="url(#clip5)">
<path style=" stroke:none;fill-rule:nonzero;fill:rgb(14.901961%,19.607843%,21.960784%);fill-opacity:1;" d="M 256.136719 218.554688 C 255.8125 219.160156 256.023438 219.914062 256.613281 220.261719 C 257.328125 220.695312 258.257812 220.480469 258.714844 219.777344 L 262.402344 214.089844 L 262.472656 213.960938 L 267.21875 213.457031 L 266.734375 214.402344 C 266.582031 214.6875 266.664062 215.042969 266.925781 215.234375 C 267.070312 215.335938 267.25 215.371094 267.421875 215.332031 C 267.59375 215.292969 267.742188 215.179688 267.828125 215.027344 L 268.785156 213.296875 L 272.355469 212.917969 L 271.65625 214.234375 C 271.503906 214.527344 271.605469 214.890625 271.886719 215.0625 C 271.921875 215.214844 272.046875 215.328125 272.203125 215.351562 C 272.359375 215.375 272.511719 215.296875 272.585938 215.160156 L 273.925781 212.75 L 276.289062 212.5 C 277.171875 212.410156 277.964844 211.929688 278.453125 211.191406 L 278.84375 210.601562 L 271.601562 209.847656 C 271.601562 209.847656 266.902344 209.417969 266.167969 207.109375 L 269.785156 200.347656 L 269.820312 200.257812 L 274.839844 199.710938 L 275.941406 198.253906 L 271.132812 197.070312 L 271.460938 196.28125 C 271.476562 196.246094 271.460938 196.207031 271.433594 196.1875 C 271.402344 196.164062 271.359375 196.167969 271.335938 196.195312 L 270.632812 196.894531 L 267.300781 193.054688 L 266.351562 194.824219 L 268.359375 199.171875 L 268.234375 199.296875 L 264.320312 205.101562 C 263.585938 205.714844 262.21875 206.5 261.085938 205.210938 C 259.363281 203.34375 254.835938 196.054688 254.835938 196.054688 L 254.386719 197.167969 C 254.101562 197.898438 254.101562 198.707031 254.386719 199.4375 L 255.183594 201.535156 L 254.101562 203.558594 C 253.945312 203.847656 254.027344 204.203125 254.289062 204.394531 C 254.4375 204.492188 254.617188 204.523438 254.792969 204.484375 C 254.964844 204.441406 255.113281 204.332031 255.199219 204.175781 L 255.757812 203.167969 L 256.933594 206.242188 L 255.898438 208.257812 C 255.742188 208.546875 255.828125 208.90625 256.09375 209.097656 C 256.242188 209.195312 256.421875 209.226562 256.59375 209.1875 C 256.765625 209.144531 256.914062 209.035156 256.996094 208.878906 L 257.601562 207.898438 L 259.390625 212.570312 Z M 256.136719 218.554688 "/>
</g>
<mask id="mask5">
  <g filter="url(#alpha)">
<rect x="0" y="0" width="350" height="350" style="fill:rgb(0%,0%,0%);fill-opacity:0.2;stroke:none;"/>
  </g>
</mask>
<clipPath id="clip6">
  <rect x="0" y="0" width="350" height="350"/>
</clipPath>
<g id="surface20" clip-path="url(#clip6)">
<path style=" stroke:none;fill-rule:nonzero;fill:rgb(14.901961%,19.607843%,21.960784%);fill-opacity:1;" d="M 92.15625 62.109375 L 125.347656 62.109375 L 125.347656 82.074219 L 92.15625 82.074219 Z M 92.15625 62.109375 "/>
</g>
<mask id="mask6">
  <g filter="url(#alpha)">
<rect x="0" y="0" width="350" height="350" style="fill:rgb(0%,0%,0%);fill-opacity:0.2;stroke:none;"/>
  </g>
</mask>
<clipPath id="clip7">
  <rect x="0" y="0" width="350" height="350"/>
</clipPath>
<g id="surface23" clip-path="url(#clip7)">
<path style=" stroke:none;fill-rule:nonzero;fill:rgb(14.901961%,19.607843%,21.960784%);fill-opacity:1;" d="M 112.53125 71.765625 L 106.042969 68.019531 L 106.042969 75.507812 Z M 112.53125 71.765625 "/>
</g>
<mask id="mask7">
  <g filter="url(#alpha)">
<rect x="0" y="0" width="350" height="350" style="fill:rgb(0%,0%,0%);fill-opacity:0.2;stroke:none;"/>
  </g>
</mask>
<clipPath id="clip8">
  <rect x="0" y="0" width="350" height="350"/>
</clipPath>
<g id="surface26" clip-path="url(#clip8)">
<path style=" stroke:none;fill-rule:nonzero;fill:rgb(14.901961%,19.607843%,21.960784%);fill-opacity:1;" d="M 85.132812 195.746094 L 85.132812 211.398438 C 84.488281 211.058594 83.765625 210.882812 83.035156 210.890625 C 81.003906 210.890625 79.367188 212.15625 79.367188 213.6875 C 79.367188 215.222656 81.003906 216.523438 83.035156 216.523438 C 86.449219 216.523438 86.703125 214.1875 86.703125 214.1875 L 86.703125 200.4375 L 96.445312 199.039062 L 96.445312 209.539062 C 95.796875 209.203125 95.078125 209.027344 94.347656 209.035156 C 92.316406 209.035156 90.679688 210.300781 90.679688 211.867188 C 90.679688 213.4375 92.316406 214.667969 94.347656 214.667969 C 96.144531 214.667969 97.644531 213.652344 97.945312 212.332031 L 98 198.800781 L 98 193.898438 Z M 85.132812 195.746094 "/>
</g>
<mask id="mask8">
  <g filter="url(#alpha)">
<rect x="0" y="0" width="350" height="350" style="fill:rgb(0%,0%,0%);fill-opacity:0.2;stroke:none;"/>
  </g>
</mask>
<clipPath id="clip9">
  <rect x="0" y="0" width="350" height="350"/>
</clipPath>
<g id="surface29" clip-path="url(#clip9)">
<path style=" stroke:none;fill-rule:nonzero;fill:rgb(14.901961%,19.607843%,21.960784%);fill-opacity:1;" d="M 191.136719 53.199219 L 191.136719 51.386719 C 191.136719 50.765625 190.628906 50.261719 190.007812 50.261719 L 188.097656 50.261719 C 187.472656 50.261719 186.96875 50.765625 186.96875 51.386719 L 186.96875 57.945312 L 168.070312 57.945312 L 168.070312 51.386719 C 168.070312 50.765625 167.566406 50.261719 166.941406 50.261719 L 164.90625 50.261719 C 164.292969 50.269531 163.800781 50.773438 163.800781 51.386719 L 163.800781 53.199219 L 160.796875 53.199219 C 160.089844 53.199219 159.515625 53.773438 159.515625 54.480469 L 159.515625 63 C 159.515625 63.707031 160.089844 64.285156 160.796875 64.289062 L 163.800781 64.289062 L 163.800781 66.078125 C 163.804688 66.6875 164.289062 67.183594 164.898438 67.199219 L 166.9375 67.199219 C 167.558594 67.199219 168.0625 66.695312 168.0625 66.074219 L 168.0625 60.898438 L 186.964844 60.898438 L 186.964844 66.039062 C 186.953125 66.34375 187.070312 66.640625 187.28125 66.859375 C 187.496094 67.078125 187.789062 67.203125 188.097656 67.199219 L 190.007812 67.199219 C 190.628906 67.199219 191.136719 66.695312 191.136719 66.074219 L 191.136719 64.261719 L 194.019531 64.261719 C 194.71875 64.257812 195.285156 63.699219 195.300781 63 L 195.300781 54.46875 C 195.292969 53.765625 194.722656 53.199219 194.019531 53.199219 Z M 191.136719 53.199219 "/>
</g>
<mask id="mask9">
  <g filter="url(#alpha)">
<rect x="0" y="0" width="350" height="350" style="fill:rgb(0%,0%,0%);fill-opacity:0.2;stroke:none;"/>
  </g>
</mask>
<clipPath id="clip10">
  <rect x="0" y="0" width="350" height="350"/>
</clipPath>
<g id="surface32" clip-path="url(#clip10)">
<path style=" stroke:none;fill-rule:nonzero;fill:rgb(14.901961%,19.607843%,21.960784%);fill-opacity:1;" d="M 255.296875 152.160156 C 255.296875 195.117188 220.472656 229.941406 177.511719 229.941406 C 134.554688 229.941406 99.730469 195.117188 99.730469 152.160156 C 99.730469 109.199219 134.554688 74.375 177.511719 74.375 C 220.472656 74.375 255.296875 109.199219 255.296875 152.160156 Z M 255.296875 152.160156 "/>
</g>
<mask id="mask10">
  <g filter="url(#alpha)">
<rect x="0" y="0" width="350" height="350" style="fill:rgb(0%,0%,0%);fill-opacity:0.2;stroke:none;"/>
  </g>
</mask>
<clipPath id="clip11">
  <rect x="0" y="0" width="350" height="350"/>
</clipPath>
<g id="surface35" clip-path="url(#clip11)">
<path style=" stroke:none;fill-rule:nonzero;fill:rgb(14.901961%,19.607843%,21.960784%);fill-opacity:1;" d="M 177.511719 154.503906 C 176.882812 154.507812 176.273438 154.253906 175.832031 153.804688 L 130.746094 107.5 C 129.890625 106.5625 129.933594 105.117188 130.839844 104.234375 C 131.75 103.351562 133.195312 103.347656 134.105469 104.230469 L 179.199219 150.5 C 179.859375 151.175781 180.050781 152.179688 179.683594 153.050781 C 179.316406 153.917969 178.464844 154.484375 177.519531 154.484375 Z M 177.511719 154.503906 "/>
</g>
<mask id="mask11">
  <g filter="url(#alpha)">
<rect x="0" y="0" width="350" height="350" style="fill:rgb(0%,0%,0%);fill-opacity:0.2;stroke:none;"/>
  </g>
</mask>
<clipPath id="clip12">
  <rect x="0" y="0" width="350" height="350"/>
</clipPath>
<g id="surface38" clip-path="url(#clip12)">
<path style=" stroke:none;fill-rule:nonzero;fill:rgb(14.901961%,19.607843%,21.960784%);fill-opacity:1;" d="M 157.289062 168.035156 C 156.253906 168.039062 155.335938 167.363281 155.035156 166.375 C 154.734375 165.382812 155.117188 164.308594 155.980469 163.738281 L 176.210938 150.207031 C 177.285156 149.523438 178.707031 149.828125 179.414062 150.886719 C 180.121094 151.941406 179.855469 153.371094 178.816406 154.105469 L 158.59375 167.636719 C 158.207031 167.894531 157.753906 168.035156 157.289062 168.035156 Z M 157.289062 168.035156 "/>
</g>
<mask id="mask12">
  <g filter="url(#alpha)">
<rect x="0" y="0" width="350" height="350" style="fill:rgb(0%,0%,0%);fill-opacity:0.501961;stroke:none;"/>
  </g>
</mask>
<clipPath id="clip13">
  <rect x="0" y="0" width="350" height="350"/>
</clipPath>
<g id="surface41" clip-path="url(#clip13)">
<path style=" stroke:none;fill-rule:nonzero;fill:rgb(100%,100%,100%);fill-opacity:1;" d="M 231.839844 310.457031 C 231.839844 306.816406 206.859375 303.863281 176.042969 303.863281 C 145.226562 303.863281 120.246094 306.816406 120.246094 310.457031 C 120.246094 314.097656 145.226562 317.050781 176.042969 317.050781 C 206.859375 317.050781 231.839844 314.097656 231.839844 310.457031 Z M 231.839844 310.457031 "/>
</g>
<clipPath id="clip14">
  <path d="M 104 225 L 169 225 L 169 265 L 104 265 Z M 104 225 "/>
</clipPath>
<clipPath id="clip15">
  <path d="M 167.648438 225.398438 C 167.648438 225.398438 160.097656 225.8125 157.414062 227.316406 C 154.734375 228.824219 154.230469 237.707031 154.230469 237.707031 L 146.195312 254.953125 C 146.195312 254.953125 124.585938 239.882812 122.746094 238.378906 C 120.902344 236.871094 120.398438 235.695312 118.546875 234.519531 C 116.691406 233.34375 116.03125 233.351562 113.6875 233.351562 C 111.34375 233.351562 111.007812 233.6875 111.175781 234.351562 C 111.34375 235.019531 112.183594 235.191406 112.847656 235.191406 C 113.582031 235.25 114.3125 235.363281 115.03125 235.527344 L 108.324219 238.210938 C 106.652344 238.875 106.988281 236.195312 105.484375 236.195312 C 103.976562 236.195312 104.140625 240.050781 106.652344 241.890625 C 109.164062 243.734375 110.851562 243.230469 112.847656 243.0625 C 114.84375 242.894531 119.554688 242.226562 119.554688 242.226562 C 119.554688 242.226562 132.445312 253.617188 137.136719 257.804688 C 141.828125 261.988281 148.191406 266.007812 150.535156 264.335938 C 152.878906 262.660156 161.734375 246.246094 161.734375 246.246094 L 167.425781 231.175781 C 167.425781 231.175781 169.015625 228.011719 167.648438 225.398438 Z M 167.648438 225.398438 "/>
</clipPath>
<mask id="mask13">
  <g filter="url(#alpha)">
<rect x="0" y="0" width="350" height="350" style="fill:rgb(0%,0%,0%);fill-opacity:0.101961;stroke:none;"/>
  </g>
</mask>
<clipPath id="clip16">
  <rect x="0" y="0" width="350" height="350"/>
</clipPath>
<g id="surface44" clip-path="url(#clip16)">
<path style=" stroke:none;fill-rule:nonzero;fill:rgb(0%,0%,0%);fill-opacity:1;" d="M 167.648438 225.398438 C 167.648438 225.398438 160.097656 225.8125 157.414062 227.316406 C 154.734375 228.824219 154.230469 237.707031 154.230469 237.707031 L 146.195312 254.953125 C 146.195312 254.953125 124.585938 239.882812 122.746094 238.378906 C 120.902344 236.871094 120.398438 235.695312 118.546875 234.519531 C 116.691406 233.34375 116.03125 233.351562 113.6875 233.351562 C 111.34375 233.351562 111.007812 233.6875 111.175781 234.351562 C 111.34375 235.019531 112.183594 235.191406 112.847656 235.191406 C 113.582031 235.25 114.3125 235.363281 115.03125 235.527344 L 108.324219 238.210938 C 106.652344 238.875 106.988281 236.195312 105.484375 236.195312 C 103.976562 236.195312 104.140625 240.050781 106.652344 241.890625 C 109.164062 243.734375 110.851562 243.230469 112.847656 243.0625 C 114.84375 242.894531 119.554688 242.226562 119.554688 242.226562 C 119.554688 242.226562 132.445312 253.617188 137.136719 257.804688 C 141.828125 261.988281 148.191406 266.007812 150.535156 264.335938 C 152.878906 262.660156 161.734375 246.246094 161.734375 246.246094 L 167.425781 231.175781 C 167.425781 231.175781 169.015625 228.011719 167.648438 225.398438 Z M 167.648438 225.398438 "/>
</g>
<clipPath id="clip17">
  <path d="M 105 236 L 109 236 L 109 243 L 105 243 Z M 105 236 "/>
</clipPath>
<clipPath id="clip18">
  <path d="M 107.136719 242.261719 C 107.136719 242.261719 103.871094 239.617188 105.628906 237.027344 C 106.0625 236.382812 107.03125 237.355469 107.308594 239.128906 C 107.589844 240.898438 108.472656 241.585938 108.925781 241.710938 "/>
</clipPath>
<mask id="mask14">
  <g filter="url(#alpha)">
<rect x="0" y="0" width="350" height="350" style="fill:rgb(0%,0%,0%);fill-opacity:0.101961;stroke:none;"/>
  </g>
</mask>
<clipPath id="clip19">
  <rect x="0" y="0" width="350" height="350"/>
</clipPath>
<g id="surface47" clip-path="url(#clip19)">
<path style=" stroke:none;fill-rule:nonzero;fill:rgb(0%,0%,0%);fill-opacity:1;" d="M 107.136719 242.261719 C 107.136719 242.261719 103.871094 239.617188 105.628906 237.027344 C 106.0625 236.382812 107.03125 237.355469 107.308594 239.128906 C 107.589844 240.898438 108.472656 241.585938 108.925781 241.710938 "/>
</g>
<clipPath id="clip20">
  <path d="M 106 238 L 111 238 L 111 243 L 106 243 Z M 106 238 "/>
</clipPath>
<clipPath id="clip21">
  <path d="M 109.570312 241.683594 C 108.792969 241.683594 108.835938 239.582031 107.371094 238.582031 C 106.210938 237.761719 106.359375 239.371094 106.632812 240.679688 C 106.851562 241.78125 107.71875 242.632812 108.820312 242.828125 C 109.324219 242.957031 109.84375 242.976562 110.355469 242.894531 "/>
</clipPath>
<mask id="mask15">
  <g filter="url(#alpha)">
<rect x="0" y="0" width="350" height="350" style="fill:rgb(0%,0%,0%);fill-opacity:0.101961;stroke:none;"/>
  </g>
</mask>
<clipPath id="clip22">
  <rect x="0" y="0" width="350" height="350"/>
</clipPath>
<g id="surface50" clip-path="url(#clip22)">
<path style=" stroke:none;fill-rule:nonzero;fill:rgb(0%,0%,0%);fill-opacity:1;" d="M 109.570312 241.683594 C 108.792969 241.683594 108.835938 239.582031 107.371094 238.582031 C 106.210938 237.761719 106.359375 239.371094 106.632812 240.679688 C 106.851562 241.78125 107.71875 242.632812 108.820312 242.828125 C 109.324219 242.957031 109.84375 242.976562 110.355469 242.894531 "/>
</g>
<clipPath id="clip23">
  <path d="M 108 237 L 120 237 L 120 244 L 108 244 Z M 108 237 "/>
</clipPath>
<clipPath id="clip24">
  <path d="M 119.398438 238.257812 C 119.398438 238.257812 118.300781 237.480469 116.164062 238.195312 C 114.03125 238.910156 111.511719 242.011719 110.929688 241.753906 C 110.386719 241.441406 109.972656 240.945312 109.765625 240.351562 C 109.4375 239.707031 108.800781 238.777344 108.367188 239.527344 C 107.402344 241.164062 110.03125 243.027344 110.03125 243.027344 C 110.03125 243.027344 110.398438 243.335938 112.433594 243.089844 C 114.472656 242.84375 119.070312 242.199219 119.070312 242.199219 "/>
</clipPath>
<mask id="mask16">
  <g filter="url(#alpha)">
<rect x="0" y="0" width="350" height="350" style="fill:rgb(0%,0%,0%);fill-opacity:0.101961;stroke:none;"/>
  </g>
</mask>
<clipPath id="clip25">
  <rect x="0" y="0" width="350" height="350"/>
</clipPath>
<g id="surface53" clip-path="url(#clip25)">
<path style=" stroke:none;fill-rule:nonzero;fill:rgb(0%,0%,0%);fill-opacity:1;" d="M 119.398438 238.257812 C 119.398438 238.257812 118.300781 237.480469 116.164062 238.195312 C 114.03125 238.910156 111.511719 242.011719 110.929688 241.753906 C 110.386719 241.441406 109.972656 240.945312 109.765625 240.351562 C 109.4375 239.707031 108.800781 238.777344 108.367188 239.527344 C 107.402344 241.164062 110.03125 243.027344 110.03125 243.027344 C 110.03125 243.027344 110.398438 243.335938 112.433594 243.089844 C 114.472656 242.84375 119.070312 242.199219 119.070312 242.199219 "/>
</g>
<clipPath id="clip26">
  <path d="M 186 225 L 251 225 L 251 265 L 186 265 Z M 186 225 "/>
</clipPath>
<clipPath id="clip27">
  <path d="M 187.257812 225.246094 C 187.257812 225.246094 195.214844 225.8125 197.898438 227.347656 C 200.578125 228.878906 201.082031 237.734375 201.082031 237.734375 L 209.117188 254.980469 C 209.117188 254.980469 230.726562 239.910156 232.566406 238.40625 C 234.410156 236.902344 234.914062 235.726562 236.769531 234.550781 C 238.621094 233.371094 239.28125 233.378906 241.625 233.378906 C 243.972656 233.378906 244.308594 233.714844 244.140625 234.382812 C 243.972656 235.046875 243.132812 235.222656 242.460938 235.222656 C 241.726562 235.28125 241 235.390625 240.28125 235.558594 L 246.980469 238.238281 C 248.660156 238.902344 248.324219 236.222656 249.828125 236.222656 C 251.335938 236.222656 251.175781 240.078125 248.660156 241.921875 C 246.148438 243.761719 244.460938 243.257812 242.460938 243.089844 C 240.457031 242.921875 235.761719 242.257812 235.761719 242.257812 C 235.761719 242.257812 222.867188 253.644531 218.175781 257.832031 C 213.484375 262.015625 207.121094 266.035156 204.777344 264.363281 C 202.433594 262.6875 193.578125 246.273438 193.578125 246.273438 L 187.886719 231.203125 C 187.886719 231.203125 185.898438 227.855469 187.257812 225.246094 Z M 187.257812 225.246094 "/>
</clipPath>
<mask id="mask17">
  <g filter="url(#alpha)">
<rect x="0" y="0" width="350" height="350" style="fill:rgb(0%,0%,0%);fill-opacity:0.101961;stroke:none;"/>
  </g>
</mask>
<clipPath id="clip28">
  <rect x="0" y="0" width="350" height="350"/>
</clipPath>
<g id="surface56" clip-path="url(#clip28)">
<path style=" stroke:none;fill-rule:nonzero;fill:rgb(0%,0%,0%);fill-opacity:1;" d="M 187.257812 225.246094 C 187.257812 225.246094 195.214844 225.8125 197.898438 227.347656 C 200.578125 228.878906 201.082031 237.734375 201.082031 237.734375 L 209.117188 254.980469 C 209.117188 254.980469 230.726562 239.910156 232.566406 238.40625 C 234.410156 236.902344 234.914062 235.726562 236.769531 234.550781 C 238.621094 233.371094 239.28125 233.378906 241.625 233.378906 C 243.972656 233.378906 244.308594 233.714844 244.140625 234.382812 C 243.972656 235.046875 243.132812 235.222656 242.460938 235.222656 C 241.726562 235.28125 241 235.390625 240.28125 235.558594 L 246.980469 238.238281 C 248.660156 238.902344 248.324219 236.222656 249.828125 236.222656 C 251.335938 236.222656 251.175781 240.078125 248.660156 241.921875 C 246.148438 243.761719 244.460938 243.257812 242.460938 243.089844 C 240.457031 242.921875 235.761719 242.257812 235.761719 242.257812 C 235.761719 242.257812 222.867188 253.644531 218.175781 257.832031 C 213.484375 262.015625 207.121094 266.035156 204.777344 264.363281 C 202.433594 262.6875 193.578125 246.273438 193.578125 246.273438 L 187.886719 231.203125 C 187.886719 231.203125 185.898438 227.855469 187.257812 225.246094 Z M 187.257812 225.246094 "/>
</g>
<clipPath id="clip29">
  <path d="M 246 236 L 250 236 L 250 242 L 246 242 Z M 246 236 "/>
</clipPath>
<clipPath id="clip30">
  <path d="M 248.984375 241.3125 C 248.984375 241.3125 250.382812 237.355469 249.683594 237.027344 C 248.984375 236.699219 248.28125 237.355469 248.003906 239.128906 C 247.722656 240.898438 246.839844 241.585938 246.386719 241.710938 "/>
</clipPath>
<mask id="mask18">
  <g filter="url(#alpha)">
<rect x="0" y="0" width="350" height="350" style="fill:rgb(0%,0%,0%);fill-opacity:0.101961;stroke:none;"/>
  </g>
</mask>
<clipPath id="clip31">
  <rect x="0" y="0" width="350" height="350"/>
</clipPath>
<g id="surface59" clip-path="url(#clip31)">
<path style=" stroke:none;fill-rule:nonzero;fill:rgb(0%,0%,0%);fill-opacity:1;" d="M 249.941406 240.457031 C 249.941406 240.457031 250.398438 237.355469 249.683594 237.027344 C 248.96875 236.699219 248.28125 237.355469 248.003906 239.128906 C 247.722656 240.898438 246.839844 241.585938 246.386719 241.710938 "/>
</g>
<clipPath id="clip32">
  <path d="M 245 238 L 249 238 L 249 243 L 245 243 Z M 245 238 "/>
</clipPath>
<clipPath id="clip33">
  <path d="M 247.917969 242.019531 C 247.917969 242.019531 249.683594 237.027344 247.640625 238.351562 C 246.132812 239.324219 246.519531 241.683594 245.742188 241.683594 "/>
</clipPath>
<mask id="mask19">
  <g filter="url(#alpha)">
<rect x="0" y="0" width="350" height="350" style="fill:rgb(0%,0%,0%);fill-opacity:0.101961;stroke:none;"/>
  </g>
</mask>
<clipPath id="clip34">
  <rect x="0" y="0" width="350" height="350"/>
</clipPath>
<g id="surface62" clip-path="url(#clip34)">
<path style=" stroke:none;fill-rule:nonzero;fill:rgb(0%,0%,0%);fill-opacity:1;" d="M 248.324219 242.074219 C 248.324219 242.074219 249.683594 237.027344 247.625 238.351562 C 246.121094 239.324219 246.503906 241.683594 245.726562 241.683594 "/>
</g>
<clipPath id="clip35">
  <path d="M 235 237 L 247 237 L 247 244 L 235 244 Z M 235 237 "/>
</clipPath>
<clipPath id="clip36">
  <path d="M 235.898438 238.257812 C 235.898438 238.257812 237 237.480469 239.132812 238.195312 C 241.269531 238.910156 243.789062 242.011719 244.371094 241.753906 C 244.914062 241.441406 245.324219 240.945312 245.53125 240.351562 C 245.855469 239.707031 246.441406 239.324219 246.828125 240.09375 C 247.210938 240.863281 246.050781 243.136719 246.050781 243.136719 C 246.050781 243.136719 245.351562 243.636719 243.636719 243.234375 C 241.699219 242.769531 239.730469 242.445312 237.746094 242.261719 "/>
</clipPath>
<mask id="mask20">
  <g filter="url(#alpha)">
<rect x="0" y="0" width="350" height="350" style="fill:rgb(0%,0%,0%);fill-opacity:0.101961;stroke:none;"/>
  </g>
</mask>
<clipPath id="clip37">
  <rect x="0" y="0" width="350" height="350"/>
</clipPath>
<g id="surface65" clip-path="url(#clip37)">
<path style=" stroke:none;fill-rule:nonzero;fill:rgb(0%,0%,0%);fill-opacity:1;" d="M 235.898438 238.257812 C 235.898438 238.257812 237 237.480469 239.132812 238.195312 C 241.269531 238.910156 243.789062 242.011719 244.371094 241.753906 C 244.914062 241.441406 245.324219 240.945312 245.53125 240.351562 C 245.855469 239.707031 246.441406 239.324219 246.828125 240.09375 C 247.210938 240.863281 246.050781 243.136719 246.050781 243.136719 C 246.050781 243.136719 245.351562 243.636719 243.636719 243.234375 C 241.921875 242.835938 237.285156 241.605469 236.230469 241.605469 "/>
</g>
<clipPath id="clip38">
  <path d="M 155 215 L 201 215 L 201 295 L 155 295 Z M 155 215 "/>
</clipPath>
<clipPath id="clip39">
  <path d="M 174.523438 215.207031 C 174.523438 215.207031 174.179688 219.105469 172.578125 221.738281 C 170.976562 224.371094 167.679688 225.398438 167.679688 225.398438 L 161.152344 245.449219 L 164.5625 259 C 164.5625 259 158.488281 268.238281 156.101562 273.855469 C 153.714844 279.46875 156.582031 285.816406 159.101562 288.449219 C 161.621094 291.082031 164.96875 294.652344 173.507812 294.316406 C 185.410156 293.847656 193.808594 294.929688 197.625 290.464844 C 201.4375 286 201.824219 277.5625 197.289062 271.199219 C 194.542969 267.328125 190.800781 258.964844 190.800781 258.964844 L 194.507812 245 L 188.824219 225.398438 C 188.824219 225.398438 185.402344 225.203125 183.34375 222.683594 C 181.285156 220.164062 181.742188 215.578125 181.742188 215.578125 Z M 174.523438 215.207031 "/>
</clipPath>
<mask id="mask21">
  <g filter="url(#alpha)">
<rect x="0" y="0" width="350" height="350" style="fill:rgb(0%,0%,0%);fill-opacity:0.101961;stroke:none;"/>
  </g>
</mask>
<clipPath id="clip40">
  <rect x="0" y="0" width="350" height="350"/>
</clipPath>
<g id="surface68" clip-path="url(#clip40)">
<path style=" stroke:none;fill-rule:nonzero;fill:rgb(0%,0%,0%);fill-opacity:1;" d="M 174.523438 215.207031 C 174.523438 215.207031 174.179688 219.105469 172.578125 221.738281 C 170.976562 224.371094 167.679688 225.398438 167.679688 225.398438 L 161.152344 245.449219 L 164.5625 259 C 164.5625 259 158.488281 268.238281 156.101562 273.855469 C 153.714844 279.46875 156.582031 285.816406 159.101562 288.449219 C 161.621094 291.082031 164.96875 294.652344 173.507812 294.316406 C 185.410156 293.847656 193.808594 294.929688 197.625 290.464844 C 201.4375 286 201.824219 277.5625 197.289062 271.199219 C 194.542969 267.328125 190.800781 258.964844 190.800781 258.964844 L 194.507812 245 L 188.824219 225.398438 C 188.824219 225.398438 185.402344 225.203125 183.34375 222.683594 C 181.285156 220.164062 181.742188 215.578125 181.742188 215.578125 Z M 174.523438 215.207031 "/>
</g>
<clipPath id="clip41">
  <path d="M 166 204 L 170 204 L 170 210 L 166 210 Z M 166 204 "/>
</clipPath>
<clipPath id="clip42">
  <path d="M 168.972656 206.113281 C 168.972656 206.113281 166.871094 203.371094 166.132812 205.414062 C 165.390625 207.460938 169.078125 209.273438 169.078125 209.273438 Z M 168.972656 206.113281 "/>
</clipPath>
<mask id="mask22">
  <g filter="url(#alpha)">
<rect x="0" y="0" width="350" height="350" style="fill:rgb(0%,0%,0%);fill-opacity:0.101961;stroke:none;"/>
  </g>
</mask>
<clipPath id="clip43">
  <rect x="0" y="0" width="350" height="350"/>
</clipPath>
<g id="surface71" clip-path="url(#clip43)">
<path style=" stroke:none;fill-rule:nonzero;fill:rgb(0%,0%,0%);fill-opacity:1;" d="M 168.972656 206.113281 C 168.972656 206.113281 166.871094 203.371094 166.132812 205.414062 C 165.390625 207.460938 169.078125 209.273438 169.078125 209.273438 Z M 168.972656 206.113281 "/>
</g>
<clipPath id="clip44">
  <path d="M 187 204 L 191 204 L 191 210 L 187 210 Z M 187 204 "/>
</clipPath>
<clipPath id="clip45">
  <path d="M 187.542969 206.113281 C 187.542969 206.113281 189.679688 203.371094 190.386719 205.414062 C 191.09375 207.460938 187.445312 209.273438 187.445312 209.273438 Z M 187.542969 206.113281 "/>
</clipPath>
<mask id="mask23">
  <g filter="url(#alpha)">
<rect x="0" y="0" width="350" height="350" style="fill:rgb(0%,0%,0%);fill-opacity:0.101961;stroke:none;"/>
  </g>
</mask>
<clipPath id="clip46">
  <rect x="0" y="0" width="350" height="350"/>
</clipPath>
<g id="surface74" clip-path="url(#clip46)">
<path style=" stroke:none;fill-rule:nonzero;fill:rgb(0%,0%,0%);fill-opacity:1;" d="M 187.542969 206.113281 C 187.542969 206.113281 189.679688 203.371094 190.386719 205.414062 C 191.09375 207.460938 187.445312 209.273438 187.445312 209.273438 Z M 187.542969 206.113281 "/>
</g>
<clipPath id="clip47">
  <path d="M 169 191 L 188 191 L 188 218 L 169 218 Z M 169 191 "/>
</clipPath>
<clipPath id="clip48">
  <path d="M 178.351562 217.945312 C 173.265625 217.945312 169.140625 213.820312 169.140625 208.734375 L 169.140625 194.601562 C 169.140625 193.6875 169.5 192.816406 170.144531 192.171875 C 170.785156 191.523438 171.660156 191.164062 172.570312 191.164062 L 184.101562 191.164062 C 185.023438 191.144531 185.914062 191.5 186.570312 192.148438 C 187.230469 192.792969 187.601562 193.675781 187.601562 194.601562 L 187.601562 208.753906 C 187.585938 213.84375 183.445312 217.960938 178.351562 217.945312 Z M 178.351562 217.945312 "/>
</clipPath>
<mask id="mask24">
  <g filter="url(#alpha)">
<rect x="0" y="0" width="350" height="350" style="fill:rgb(0%,0%,0%);fill-opacity:0.101961;stroke:none;"/>
  </g>
</mask>
<clipPath id="clip49">
  <rect x="0" y="0" width="350" height="350"/>
</clipPath>
<g id="surface77" clip-path="url(#clip49)">
<path style=" stroke:none;fill-rule:nonzero;fill:rgb(0%,0%,0%);fill-opacity:1;" d="M 178.351562 217.945312 C 173.265625 217.945312 169.140625 213.820312 169.140625 208.734375 L 169.140625 194.601562 C 169.140625 193.6875 169.5 192.816406 170.144531 192.171875 C 170.785156 191.523438 171.660156 191.164062 172.570312 191.164062 L 184.101562 191.164062 C 185.023438 191.144531 185.914062 191.5 186.570312 192.148438 C 187.230469 192.792969 187.601562 193.675781 187.601562 194.601562 L 187.601562 208.753906 C 187.585938 213.84375 183.445312 217.960938 178.351562 217.945312 Z M 178.351562 217.945312 "/>
</g>
<clipPath id="clip50">
  <path d="M 181 293 L 205 293 L 205 302 L 181 302 Z M 181 293 "/>
</clipPath>
<clipPath id="clip51">
  <path d="M 203.761719 296.367188 C 203.761719 296.367188 204.589844 295.820312 204.175781 294.441406 C 203.761719 293.0625 201.558594 294.160156 200.039062 294.160156 C 198.519531 294.160156 192.730469 293.609375 189.980469 293.335938 C 187.621094 293.097656 183.765625 293.167969 182.691406 293.1875 C 182.847656 294.882812 182.5 296.589844 181.691406 298.089844 L 182.230469 298.144531 C 186.921875 298.605469 188.957031 298.695312 190.394531 298.996094 C 193.011719 299.550781 195.902344 301.757812 198.792969 301.621094 C 201.683594 301.488281 204.308594 299.523438 204.308594 298.3125 C 204.335938 297.621094 204.144531 296.941406 203.761719 296.367188 Z M 203.761719 296.367188 "/>
</clipPath>
<mask id="mask25">
  <g filter="url(#alpha)">
<rect x="0" y="0" width="350" height="350" style="fill:rgb(0%,0%,0%);fill-opacity:0.101961;stroke:none;"/>
  </g>
</mask>
<clipPath id="clip52">
  <rect x="0" y="0" width="350" height="350"/>
</clipPath>
<g id="surface80" clip-path="url(#clip52)">
<path style=" stroke:none;fill-rule:nonzero;fill:rgb(0%,0%,0%);fill-opacity:1;" d="M 203.761719 296.367188 C 203.761719 296.367188 204.589844 295.820312 204.175781 294.441406 C 203.761719 293.0625 201.558594 294.160156 200.039062 294.160156 C 198.519531 294.160156 192.730469 293.609375 189.980469 293.335938 C 187.621094 293.097656 183.765625 293.167969 182.691406 293.1875 C 182.847656 294.882812 182.5 296.589844 181.691406 298.089844 L 182.230469 298.144531 C 186.921875 298.605469 188.957031 298.695312 190.394531 298.996094 C 193.011719 299.550781 195.902344 301.757812 198.792969 301.621094 C 201.683594 301.488281 204.308594 299.523438 204.308594 298.3125 C 204.335938 297.621094 204.144531 296.941406 203.761719 296.367188 Z M 203.761719 296.367188 "/>
</g>
<clipPath id="clip53">
  <path d="M 147 293 L 170 293 L 170 303 L 147 303 Z M 147 293 "/>
</clipPath>
<clipPath id="clip54">
  <path d="M 168.300781 294.644531 C 168.300781 294.644531 158.089844 295.042969 154.847656 294.820312 C 151.605469 294.59375 149.148438 293.027344 148.261719 293.8125 C 147.371094 294.59375 148.484375 295.820312 148.484375 295.820312 C 148.484375 295.820312 148.148438 297.71875 149.042969 298.726562 C 149.941406 299.734375 151.144531 300.621094 154.960938 301.742188 C 158.773438 302.863281 162.660156 301.28125 164.757812 300.71875 L 169.273438 299.53125 C 169.273438 299.53125 168.238281 297.925781 168.300781 294.644531 Z M 168.300781 294.644531 "/>
</clipPath>
<mask id="mask26">
  <g filter="url(#alpha)">
<rect x="0" y="0" width="350" height="350" style="fill:rgb(0%,0%,0%);fill-opacity:0.101961;stroke:none;"/>
  </g>
</mask>
<clipPath id="clip55">
  <rect x="0" y="0" width="350" height="350"/>
</clipPath>
<g id="surface83" clip-path="url(#clip55)">
<path style=" stroke:none;fill-rule:nonzero;fill:rgb(0%,0%,0%);fill-opacity:1;" d="M 168.300781 294.644531 C 168.300781 294.644531 158.089844 295.042969 154.847656 294.820312 C 151.605469 294.59375 149.148438 293.027344 148.261719 293.8125 C 147.371094 294.59375 148.484375 295.820312 148.484375 295.820312 C 148.484375 295.820312 148.148438 297.71875 149.042969 298.726562 C 149.941406 299.734375 151.144531 300.621094 154.960938 301.742188 C 158.773438 302.863281 162.660156 301.28125 164.757812 300.71875 L 169.273438 299.53125 C 169.273438 299.53125 168.238281 297.925781 168.300781 294.644531 Z M 168.300781 294.644531 "/>
</g>
</defs>
<g id="surface1">
<path style=" stroke:none;fill-rule:nonzero;fill:rgb(81.176471%,84.705882%,86.27451%);fill-opacity:1;" d="M 292.472656 162.902344 C 293.273438 151.9375 292.738281 140.914062 290.878906 130.074219 C 289.113281 120.34375 286.050781 110.894531 281.777344 101.976562 C 260.316406 57.132812 209.410156 28.390625 159.976562 38.359375 C 132.679688 43.855469 99.273438 62.964844 90.621094 91.160156 C 84.503906 111.089844 87.121094 132.914062 77.371094 151.851562 C 67.359375 171.359375 57.230469 188.636719 59.871094 211.625 C 62.671875 236.25 79.378906 257.761719 100.15625 271.269531 C 125.949219 288.070312 159.964844 297.339844 190.671875 295.183594 C 251.007812 290.953125 288.566406 222.179688 292.472656 162.902344 Z M 292.472656 162.902344 "/>
<use xlink:href="#surface5" mask="url(#mask0)"/>
<use xlink:href="#surface8" mask="url(#mask1)"/>
<path style="fill:none;stroke-width:0.75;stroke-linecap:round;stroke-linejoin:round;stroke:rgb(100%,100%,100%);stroke-opacity:1;stroke-miterlimit:4;" d="M 374.921875 195.552455 L 395.061384 205.887277 C 396.344866 206.534598 397.857143 206.534598 399.140625 205.887277 L 419.799107 195.46875 " transform="matrix(0.7,0,0,0.7,0,0)"/>
<use xlink:href="#surface11" mask="url(#mask2)"/>
<use xlink:href="#surface14" mask="url(#mask3)"/>
<use xlink:href="#surface17" mask="url(#mask4)"/>
<use xlink:href="#surface20" mask="url(#mask5)"/>
<path style=" stroke:none;fill-rule:nonzero;fill:rgb(100%,100%,100%);fill-opacity:1;" d="M 114.148438 71.765625 C 114.148438 75.023438 111.507812 77.664062 108.246094 77.664062 C 104.988281 77.664062 102.347656 75.023438 102.347656 71.765625 C 102.347656 68.503906 104.988281 65.863281 108.246094 65.863281 C 111.507812 65.863281 114.148438 68.503906 114.148438 71.765625 Z M 114.148438 71.765625 "/>
<use xlink:href="#surface23" mask="url(#mask6)"/>
<use xlink:href="#surface26" mask="url(#mask7)"/>
<use xlink:href="#surface29" mask="url(#mask8)"/>
<use xlink:href="#surface32" mask="url(#mask9)"/>
<path style="fill-rule:nonzero;fill:rgb(81.176471%,84.705882%,86.27451%);fill-opacity:1;stroke-width:1;stroke-linecap:butt;stroke-linejoin:miter;stroke:rgb(14.901961%,19.607843%,21.960784%);stroke-opacity:1;stroke-miterlimit:10;" d="M 355.987723 217.371652 C 355.987723 273.922991 310.145089 319.771205 253.58817 319.771205 C 197.03683 319.771205 151.188616 273.922991 151.188616 217.371652 C 151.188616 160.814732 197.03683 114.972098 253.58817 114.972098 C 310.145089 114.972098 355.987723 160.814732 355.987723 217.371652 Z M 355.987723 217.371652 " transform="matrix(0.7,0,0,0.7,0,0)"/>
<use xlink:href="#surface35" mask="url(#mask10)"/>
<use xlink:href="#surface38" mask="url(#mask11)"/>
<path style="fill-rule:nonzero;fill:rgb(14.901961%,19.607843%,21.960784%);fill-opacity:1;stroke-width:1;stroke-linecap:round;stroke-linejoin:miter;stroke:rgb(14.901961%,19.607843%,21.960784%);stroke-opacity:1;stroke-miterlimit:10;" d="M 257.739955 217.371652 C 257.745536 215.078125 255.887277 213.214286 253.59933 213.208705 C 251.305804 213.208705 249.441964 215.061384 249.441964 217.354911 C 249.436384 219.648438 251.294643 221.512277 253.58817 221.512277 C 255.876116 221.512277 257.734375 219.659598 257.739955 217.371652 Z M 257.739955 217.371652 " transform="matrix(0.7,0,0,0.7,0,0)"/>
<path style="fill:none;stroke-width:2;stroke-linecap:round;stroke-linejoin:miter;stroke:rgb(14.901961%,19.607843%,21.960784%);stroke-opacity:1;stroke-miterlimit:10;" d="M 253.671875 124.129464 L 253.671875 137.96875 " transform="matrix(0.7,0,0,0.7,0,0)"/>
<path style="fill:none;stroke-width:2;stroke-linecap:round;stroke-linejoin:miter;stroke:rgb(14.901961%,19.607843%,21.960784%);stroke-opacity:1;stroke-miterlimit:10;" d="M 253.671875 295.691964 L 253.671875 309.53125 " transform="matrix(0.7,0,0,0.7,0,0)"/>
<path style="fill:none;stroke-width:2;stroke-linecap:round;stroke-linejoin:miter;stroke:rgb(14.901961%,19.607843%,21.960784%);stroke-opacity:1;stroke-miterlimit:10;" d="M 346.372768 216.830357 L 332.522321 216.830357 " transform="matrix(0.7,0,0,0.7,0,0)"/>
<path style="fill:none;stroke-width:2;stroke-linecap:round;stroke-linejoin:miter;stroke:rgb(14.901961%,19.607843%,21.960784%);stroke-opacity:1;stroke-miterlimit:10;" d="M 174.810268 216.830357 L 160.970982 216.830357 " transform="matrix(0.7,0,0,0.7,0,0)"/>
<path style="fill-rule:nonzero;fill:rgb(100%,100%,100%);fill-opacity:1;stroke-width:2;stroke-linecap:round;stroke-linejoin:miter;stroke:rgb(14.901961%,19.607843%,21.960784%);stroke-opacity:1;stroke-miterlimit:10;" d="M 302.282366 137.901786 L 295.022321 149.6875 " transform="matrix(0.7,0,0,0.7,0,0)"/>
<path style="fill-rule:nonzero;fill:rgb(100%,100%,100%);fill-opacity:1;stroke-width:2;stroke-linecap:round;stroke-linejoin:miter;stroke:rgb(14.901961%,19.607843%,21.960784%);stroke-opacity:1;stroke-miterlimit:10;" d="M 212.310268 283.967634 L 205.050223 295.758929 " transform="matrix(0.7,0,0,0.7,0,0)"/>
<path style="fill-rule:nonzero;fill:rgb(100%,100%,100%);fill-opacity:1;stroke-width:2;stroke-linecap:round;stroke-linejoin:miter;stroke:rgb(14.901961%,19.607843%,21.960784%);stroke-opacity:1;stroke-miterlimit:10;" d="M 335.217634 172.762277 L 323.041295 179.341518 " transform="matrix(0.7,0,0,0.7,0,0)"/>
<path style="fill-rule:nonzero;fill:rgb(100%,100%,100%);fill-opacity:1;stroke-width:2;stroke-linecap:round;stroke-linejoin:miter;stroke:rgb(14.901961%,19.607843%,21.960784%);stroke-opacity:1;stroke-miterlimit:10;" d="M 184.291295 254.319196 L 172.109375 260.898438 " transform="matrix(0.7,0,0,0.7,0,0)"/>
<path style="fill-rule:nonzero;fill:rgb(100%,100%,100%);fill-opacity:1;stroke-width:2;stroke-linecap:round;stroke-linejoin:miter;stroke:rgb(14.901961%,19.607843%,21.960784%);stroke-opacity:1;stroke-miterlimit:10;" d="M 332.600446 265.452009 L 320.809152 258.180804 " transform="matrix(0.7,0,0,0.7,0,0)"/>
<path style="fill-rule:nonzero;fill:rgb(100%,100%,100%);fill-opacity:1;stroke-width:2;stroke-linecap:round;stroke-linejoin:miter;stroke:rgb(14.901961%,19.607843%,21.960784%);stroke-opacity:1;stroke-miterlimit:10;" d="M 186.529018 175.479911 L 174.737723 168.219866 " transform="matrix(0.7,0,0,0.7,0,0)"/>
<path style="fill-rule:nonzero;fill:rgb(100%,100%,100%);fill-opacity:1;stroke-width:2;stroke-linecap:round;stroke-linejoin:miter;stroke:rgb(14.901961%,19.607843%,21.960784%);stroke-opacity:1;stroke-miterlimit:10;" d="M 297.739955 298.387277 L 291.160714 286.199777 " transform="matrix(0.7,0,0,0.7,0,0)"/>
<path style="fill-rule:nonzero;fill:rgb(100%,100%,100%);fill-opacity:1;stroke-width:2;stroke-linecap:round;stroke-linejoin:miter;stroke:rgb(14.901961%,19.607843%,21.960784%);stroke-opacity:1;stroke-miterlimit:10;" d="M 216.177455 147.460938 L 209.598214 135.279018 " transform="matrix(0.7,0,0,0.7,0,0)"/>
<path style=" stroke:none;fill-rule:nonzero;fill:rgb(81.176471%,84.705882%,86.27451%);fill-opacity:1;" d="M 231.839844 310.457031 C 231.839844 306.816406 206.859375 303.863281 176.042969 303.863281 C 145.226562 303.863281 120.246094 306.816406 120.246094 310.457031 C 120.246094 314.097656 145.226562 317.050781 176.042969 317.050781 C 206.859375 317.050781 231.839844 314.097656 231.839844 310.457031 Z M 231.839844 310.457031 "/>
<use xlink:href="#surface41" mask="url(#mask12)"/>
<path style=" stroke:none;fill-rule:nonzero;fill:rgb(14.901961%,19.607843%,21.960784%);fill-opacity:1;" d="M 191.015625 212.34375 C 190.9375 210.789062 191.015625 208.398438 191.078125 207.019531 C 191.265625 205.902344 191.359375 204.773438 191.359375 203.644531 C 191.359375 188.636719 185.570312 187.375 178.414062 187.375 C 171.261719 187.375 165.472656 189.785156 165.472656 203.644531 C 165.472656 204.007812 165.472656 204.34375 165.507812 204.730469 C 165.570312 205.332031 166.160156 211.085938 165.621094 213.253906 C 165.046875 215.542969 160.460938 216.007812 157.828125 221.5 C 155.195312 226.996094 160.921875 235.019531 179.59375 236.046875 C 198.261719 237.074219 200.199219 224.601562 200.199219 220.367188 C 200.199219 216.132812 191.136719 214.632812 191.015625 212.34375 Z M 191.015625 212.34375 "/>
<path style=" stroke:none;fill-rule:nonzero;fill:rgb(14.901961%,19.607843%,21.960784%);fill-opacity:1;" d="M 165.019531 204.785156 L 165.480469 204.734375 L 165.480469 204.671875 Z M 165.019531 204.785156 "/>
<path style=" stroke:none;fill-rule:nonzero;fill:rgb(100%,100%,100%);fill-opacity:1;" d="M 167.648438 225.398438 C 167.648438 225.398438 160.097656 225.8125 157.414062 227.316406 C 154.734375 228.824219 154.230469 237.707031 154.230469 237.707031 L 146.195312 254.953125 C 146.195312 254.953125 124.585938 239.882812 122.746094 238.378906 C 120.902344 236.871094 120.398438 235.695312 118.546875 234.519531 C 116.691406 233.34375 116.03125 233.351562 113.6875 233.351562 C 111.34375 233.351562 111.007812 233.6875 111.175781 234.351562 C 111.34375 235.019531 112.183594 235.191406 112.847656 235.191406 C 113.582031 235.25 114.3125 235.363281 115.03125 235.527344 L 108.324219 238.210938 C 106.652344 238.875 106.988281 236.195312 105.484375 236.195312 C 103.976562 236.195312 104.140625 240.050781 106.652344 241.890625 C 109.164062 243.734375 110.851562 243.230469 112.847656 243.0625 C 114.84375 242.894531 119.554688 242.226562 119.554688 242.226562 C 119.554688 242.226562 132.445312 253.617188 137.136719 257.804688 C 141.828125 261.988281 148.191406 266.007812 150.535156 264.335938 C 152.878906 262.660156 161.734375 246.246094 161.734375 246.246094 L 167.425781 231.175781 C 167.425781 231.175781 169.015625 228.011719 167.648438 225.398438 Z M 167.648438 225.398438 "/>
<g clip-path="url(#clip14)" clip-rule="nonzero">
<g clip-path="url(#clip15)" clip-rule="nonzero">
<use xlink:href="#surface44" mask="url(#mask13)"/>
</g>
</g>
<path style="fill:none;stroke-width:1;stroke-linecap:round;stroke-linejoin:miter;stroke:rgb(14.901961%,19.607843%,21.960784%);stroke-opacity:1;stroke-miterlimit:10;" d="M 239.497768 321.997768 C 239.497768 321.997768 228.710938 322.589286 224.877232 324.737723 C 221.049107 326.891741 220.329241 339.581473 220.329241 339.581473 L 208.850446 364.21875 C 208.850446 364.21875 177.979911 342.689732 175.351562 340.541295 C 172.717634 338.387277 171.997768 336.707589 169.352679 335.027902 C 166.702009 333.348214 165.758929 333.359375 162.410714 333.359375 C 159.0625 333.359375 158.582589 333.839286 158.822545 334.787946 C 159.0625 335.742188 160.262277 335.987723 161.210938 335.987723 C 162.260045 336.071429 163.303571 336.233259 164.330357 336.467634 L 154.748884 340.301339 C 152.360491 341.25 152.840402 337.421875 150.691964 337.421875 C 148.537946 337.421875 148.772321 342.929688 152.360491 345.558036 C 155.948661 348.191964 158.359375 347.472098 161.210938 347.232143 C 164.0625 346.992188 170.792411 346.037946 170.792411 346.037946 C 170.792411 346.037946 189.207589 362.310268 195.909598 368.292411 C 202.611607 374.268973 211.702009 380.011161 215.050223 377.622768 C 218.398438 375.228795 231.049107 351.780134 231.049107 351.780134 L 239.179688 330.251116 C 239.179688 330.251116 241.450893 325.731027 239.497768 321.997768 Z M 239.497768 321.997768 " transform="matrix(0.7,0,0,0.7,0,0)"/>
<path style=" stroke:none;fill-rule:nonzero;fill:rgb(100%,100%,100%);fill-opacity:1;" d="M 107.136719 242.261719 C 107.136719 242.261719 103.871094 239.617188 105.628906 237.027344 C 106.0625 236.382812 107.03125 237.355469 107.308594 239.128906 C 107.589844 240.898438 108.472656 241.585938 108.925781 241.710938 "/>
<g clip-path="url(#clip17)" clip-rule="nonzero">
<g clip-path="url(#clip18)" clip-rule="nonzero">
<use xlink:href="#surface47" mask="url(#mask14)"/>
</g>
</g>
<path style="fill:none;stroke-width:1;stroke-linecap:round;stroke-linejoin:miter;stroke:rgb(14.901961%,19.607843%,21.960784%);stroke-opacity:1;stroke-miterlimit:10;" d="M 153.052455 346.08817 C 153.052455 346.08817 148.387277 342.310268 150.898438 338.610491 C 151.517857 337.689732 152.901786 339.079241 153.297991 341.612723 C 153.699777 344.140625 154.960938 345.122768 155.608259 345.301339 " transform="matrix(0.7,0,0,0.7,0,0)"/>
<path style=" stroke:none;fill-rule:nonzero;fill:rgb(100%,100%,100%);fill-opacity:1;" d="M 109.570312 241.683594 C 108.792969 241.683594 108.835938 239.582031 107.371094 238.582031 C 106.210938 237.761719 106.359375 239.371094 106.632812 240.679688 C 106.851562 241.78125 107.71875 242.632812 108.820312 242.828125 C 109.324219 242.957031 109.84375 242.976562 110.355469 242.894531 "/>
<g clip-path="url(#clip20)" clip-rule="nonzero">
<g clip-path="url(#clip21)" clip-rule="nonzero">
<use xlink:href="#surface50" mask="url(#mask15)"/>
</g>
</g>
<path style="fill:none;stroke-width:1;stroke-linecap:round;stroke-linejoin:miter;stroke:rgb(14.901961%,19.607843%,21.960784%);stroke-opacity:1;stroke-miterlimit:10;" d="M 156.529018 345.262277 C 155.418527 345.262277 155.479911 342.260045 153.387277 340.831473 C 151.729911 339.659598 151.941964 341.958705 152.332589 343.828125 C 152.645089 345.401786 153.883929 346.618304 155.457589 346.897321 C 156.177455 347.081473 156.919643 347.109375 157.65067 346.992188 " transform="matrix(0.7,0,0,0.7,0,0)"/>
<path style=" stroke:none;fill-rule:nonzero;fill:rgb(100%,100%,100%);fill-opacity:1;" d="M 119.398438 238.257812 C 119.398438 238.257812 118.300781 237.480469 116.164062 238.195312 C 114.03125 238.910156 111.511719 242.011719 110.929688 241.753906 C 110.386719 241.441406 109.972656 240.945312 109.765625 240.351562 C 109.4375 239.707031 108.800781 238.777344 108.367188 239.527344 C 107.402344 241.164062 110.03125 243.027344 110.03125 243.027344 C 110.03125 243.027344 110.398438 243.335938 112.433594 243.089844 C 114.472656 242.84375 119.070312 242.199219 119.070312 242.199219 "/>
<g clip-path="url(#clip23)" clip-rule="nonzero">
<g clip-path="url(#clip24)" clip-rule="nonzero">
<use xlink:href="#surface53" mask="url(#mask16)"/>
</g>
</g>
<path style="fill:none;stroke-width:1;stroke-linecap:round;stroke-linejoin:miter;stroke:rgb(14.901961%,19.607843%,21.960784%);stroke-opacity:1;stroke-miterlimit:10;" d="M 170.569196 340.368304 C 170.569196 340.368304 169.001116 339.257812 165.948661 340.279018 C 162.901786 341.300223 159.302455 345.731027 158.470982 345.362723 C 157.695312 344.916295 157.103795 344.207589 156.808036 343.359375 C 156.339286 342.438616 155.429688 341.110491 154.810268 342.18192 C 153.43192 344.520089 157.1875 347.18192 157.1875 347.18192 C 157.1875 347.18192 157.712054 347.622768 160.61942 347.271205 C 163.532366 346.919643 170.100446 345.998884 170.100446 345.998884 " transform="matrix(0.7,0,0,0.7,0,0)"/>
<path style="fill:none;stroke-width:1;stroke-linecap:round;stroke-linejoin:miter;stroke:rgb(14.901961%,19.607843%,21.960784%);stroke-opacity:1;stroke-miterlimit:10;" d="M 231.227679 346.651786 L 227.739955 336.657366 " transform="matrix(0.7,0,0,0.7,0,0)"/>
<path style=" stroke:none;fill-rule:nonzero;fill:rgb(100%,100%,100%);fill-opacity:1;" d="M 187.257812 225.246094 C 187.257812 225.246094 195.214844 225.8125 197.898438 227.347656 C 200.578125 228.878906 201.082031 237.734375 201.082031 237.734375 L 209.117188 254.980469 C 209.117188 254.980469 230.726562 239.910156 232.566406 238.40625 C 234.410156 236.902344 234.914062 235.726562 236.769531 234.550781 C 238.621094 233.371094 239.28125 233.378906 241.625 233.378906 C 243.972656 233.378906 244.308594 233.714844 244.140625 234.382812 C 243.972656 235.046875 243.132812 235.222656 242.460938 235.222656 C 241.726562 235.28125 241 235.390625 240.28125 235.558594 L 246.980469 238.238281 C 248.660156 238.902344 248.324219 236.222656 249.828125 236.222656 C 251.335938 236.222656 251.175781 240.078125 248.660156 241.921875 C 246.148438 243.761719 244.460938 243.257812 242.460938 243.089844 C 240.457031 242.921875 235.761719 242.257812 235.761719 242.257812 C 235.761719 242.257812 222.867188 253.644531 218.175781 257.832031 C 213.484375 262.015625 207.121094 266.035156 204.777344 264.363281 C 202.433594 262.6875 193.578125 246.273438 193.578125 246.273438 L 187.886719 231.203125 C 187.886719 231.203125 185.898438 227.855469 187.257812 225.246094 Z M 187.257812 225.246094 "/>
<g clip-path="url(#clip26)" clip-rule="nonzero">
<g clip-path="url(#clip27)" clip-rule="nonzero">
<use xlink:href="#surface56" mask="url(#mask17)"/>
</g>
</g>
<path style="fill:none;stroke-width:1;stroke-linecap:round;stroke-linejoin:miter;stroke:rgb(14.901961%,19.607843%,21.960784%);stroke-opacity:1;stroke-miterlimit:10;" d="M 267.511161 321.780134 C 267.511161 321.780134 278.878348 322.589286 282.712054 324.782366 C 286.540179 326.969866 287.260045 339.620536 287.260045 339.620536 L 298.738839 364.257812 C 298.738839 364.257812 329.609375 342.728795 332.237723 340.580357 C 334.871652 338.43192 335.591518 336.752232 338.242188 335.072545 C 340.887277 333.387277 341.830357 333.398438 345.178571 333.398438 C 348.532366 333.398438 349.012277 333.878348 348.772321 334.832589 C 348.532366 335.78125 347.332589 336.032366 346.372768 336.032366 C 345.323661 336.116071 344.285714 336.272321 343.258929 336.512277 L 352.829241 340.340402 C 355.228795 341.289062 354.748884 337.460938 356.897321 337.460938 C 359.051339 337.460938 358.822545 342.96875 355.228795 345.602679 C 351.640625 348.231027 349.229911 347.511161 346.372768 347.271205 C 343.510045 347.03125 336.802455 346.082589 336.802455 346.082589 C 336.802455 346.082589 318.381696 362.34933 311.679688 368.331473 C 304.977679 374.308036 295.887277 380.050223 292.539062 377.66183 C 289.190848 375.267857 276.540179 351.819196 276.540179 351.819196 L 268.409598 330.290179 C 268.409598 330.290179 265.569196 325.507812 267.511161 321.780134 Z M 267.511161 321.780134 " transform="matrix(0.7,0,0,0.7,0,0)"/>
<path style="fill:none;stroke-width:1;stroke-linecap:round;stroke-linejoin:miter;stroke:rgb(14.901961%,19.607843%,21.960784%);stroke-opacity:1;stroke-miterlimit:10;" d="M 276.540179 344.559152 L 279.319196 336.428571 " transform="matrix(0.7,0,0,0.7,0,0)"/>
<path style=" stroke:none;fill-rule:nonzero;fill:rgb(100%,100%,100%);fill-opacity:1;" d="M 248.984375 241.3125 C 248.984375 241.3125 250.382812 237.355469 249.683594 237.027344 C 248.984375 236.699219 248.28125 237.355469 248.003906 239.128906 C 247.722656 240.898438 246.839844 241.585938 246.386719 241.710938 "/>
<g clip-path="url(#clip29)" clip-rule="nonzero">
<g clip-path="url(#clip30)" clip-rule="nonzero">
<use xlink:href="#surface59" mask="url(#mask18)"/>
</g>
</g>
<path style="fill:none;stroke-width:1;stroke-linecap:round;stroke-linejoin:miter;stroke:rgb(14.901961%,19.607843%,21.960784%);stroke-opacity:1;stroke-miterlimit:10;" d="M 355.691964 344.732143 C 355.691964 344.732143 357.689732 339.079241 356.690848 338.610491 C 355.691964 338.141741 354.6875 339.079241 354.291295 341.612723 C 353.889509 344.140625 352.628348 345.122768 351.981027 345.301339 " transform="matrix(0.7,0,0,0.7,0,0)"/>
<path style=" stroke:none;fill-rule:nonzero;fill:rgb(100%,100%,100%);fill-opacity:1;" d="M 247.917969 242.019531 C 247.917969 242.019531 249.683594 237.027344 247.640625 238.351562 C 246.132812 239.324219 246.519531 241.683594 245.742188 241.683594 "/>
<g clip-path="url(#clip32)" clip-rule="nonzero">
<g clip-path="url(#clip33)" clip-rule="nonzero">
<use xlink:href="#surface62" mask="url(#mask19)"/>
</g>
</g>
<path style="fill:none;stroke-width:1;stroke-linecap:round;stroke-linejoin:miter;stroke:rgb(14.901961%,19.607843%,21.960784%);stroke-opacity:1;stroke-miterlimit:10;" d="M 354.168527 345.742188 C 354.168527 345.742188 356.690848 338.610491 353.772321 340.502232 C 351.618304 341.891741 352.170759 345.262277 351.060268 345.262277 " transform="matrix(0.7,0,0,0.7,0,0)"/>
<path style=" stroke:none;fill-rule:nonzero;fill:rgb(100%,100%,100%);fill-opacity:1;" d="M 235.898438 238.257812 C 235.898438 238.257812 237 237.480469 239.132812 238.195312 C 241.269531 238.910156 243.789062 242.011719 244.371094 241.753906 C 244.914062 241.441406 245.324219 240.945312 245.53125 240.351562 C 245.855469 239.707031 246.441406 239.324219 246.828125 240.09375 C 247.210938 240.863281 246.050781 243.136719 246.050781 243.136719 C 246.050781 243.136719 245.351562 243.636719 243.636719 243.234375 C 241.699219 242.769531 239.730469 242.445312 237.746094 242.261719 "/>
<g clip-path="url(#clip35)" clip-rule="nonzero">
<g clip-path="url(#clip36)" clip-rule="nonzero">
<use xlink:href="#surface65" mask="url(#mask20)"/>
</g>
</g>
<path style="fill:none;stroke-width:1;stroke-linecap:round;stroke-linejoin:miter;stroke:rgb(14.901961%,19.607843%,21.960784%);stroke-opacity:1;stroke-miterlimit:10;" d="M 336.997768 340.368304 C 336.997768 340.368304 338.571429 339.257812 341.618304 340.279018 C 344.670759 341.300223 348.270089 345.731027 349.101562 345.362723 C 349.877232 344.916295 350.46317 344.207589 350.758929 343.359375 C 351.222098 342.438616 352.059152 341.891741 352.611607 342.991071 C 353.158482 344.090402 351.501116 347.33817 351.501116 347.33817 C 351.501116 347.33817 350.502232 348.052455 348.052455 347.477679 C 345.284598 346.813616 342.472098 346.350446 339.637277 346.08817 " transform="matrix(0.7,0,0,0.7,0,0)"/>
<path style=" stroke:none;fill-rule:nonzero;fill:rgb(100%,100%,100%);fill-opacity:1;" d="M 174.523438 215.207031 C 174.523438 215.207031 174.179688 219.105469 172.578125 221.738281 C 170.976562 224.371094 167.679688 225.398438 167.679688 225.398438 L 161.152344 245.449219 L 164.5625 259 C 164.5625 259 158.488281 268.238281 156.101562 273.855469 C 153.714844 279.46875 156.582031 285.816406 159.101562 288.449219 C 161.621094 291.082031 164.96875 294.652344 173.507812 294.316406 C 185.410156 293.847656 193.808594 294.929688 197.625 290.464844 C 201.4375 286 201.824219 277.5625 197.289062 271.199219 C 194.542969 267.328125 190.800781 258.964844 190.800781 258.964844 L 194.507812 245 L 188.824219 225.398438 C 188.824219 225.398438 185.402344 225.203125 183.34375 222.683594 C 181.285156 220.164062 181.742188 215.578125 181.742188 215.578125 Z M 174.523438 215.207031 "/>
<g clip-path="url(#clip38)" clip-rule="nonzero">
<g clip-path="url(#clip39)" clip-rule="nonzero">
<use xlink:href="#surface68" mask="url(#mask21)"/>
</g>
</g>
<path style="fill:none;stroke-width:1;stroke-linecap:round;stroke-linejoin:miter;stroke:rgb(14.901961%,19.607843%,21.960784%);stroke-opacity:1;stroke-miterlimit:10;" d="M 249.319196 307.438616 C 249.319196 307.438616 248.828125 313.007812 246.540179 316.768973 C 244.252232 320.530134 239.542411 321.997768 239.542411 321.997768 L 230.217634 350.641741 L 235.089286 370 C 235.089286 370 226.41183 383.197545 223.002232 391.222098 C 219.592634 399.241071 223.688616 408.309152 227.287946 412.070312 C 230.887277 415.831473 235.669643 420.93192 247.868304 420.452009 C 264.871652 419.782366 276.86942 421.328125 282.321429 414.949777 C 287.767857 408.571429 288.320312 396.517857 281.841518 387.427455 C 277.918527 381.897321 272.572545 369.949777 272.572545 369.949777 L 277.868304 350 L 269.748884 321.997768 C 269.748884 321.997768 264.860491 321.71875 261.919643 318.11942 C 258.978795 314.520089 259.631696 307.96875 259.631696 307.96875 Z M 249.319196 307.438616 " transform="matrix(0.7,0,0,0.7,0,0)"/>
<path style="fill-rule:nonzero;fill:rgb(14.901961%,19.607843%,21.960784%);fill-opacity:1;stroke-width:1;stroke-linecap:round;stroke-linejoin:miter;stroke:rgb(14.901961%,19.607843%,21.960784%);stroke-opacity:1;stroke-miterlimit:10;" d="M 277.868304 350 L 269.748884 321.997768 C 268.934152 321.941964 268.13058 321.808036 267.33817 321.601562 C 268.28125 328.108259 267.159598 331.372768 267.159598 331.372768 C 266.835938 334.268973 265.122768 336.830357 262.572545 338.242188 C 258.158482 340.859375 249.810268 341.350446 244.570312 337.098214 C 240.569196 333.889509 241.322545 325.100446 241.908482 320.970982 C 241.138393 321.383929 240.329241 321.729911 239.497768 321.997768 L 230.178571 350.641741 L 235.089286 370 L 272.550223 370 Z M 277.868304 350 " transform="matrix(0.7,0,0,0.7,0,0)"/>
<path style=" stroke:none;fill-rule:nonzero;fill:rgb(100%,100%,100%);fill-opacity:1;" d="M 168.972656 206.113281 C 168.972656 206.113281 166.871094 203.371094 166.132812 205.414062 C 165.390625 207.460938 169.078125 209.273438 169.078125 209.273438 Z M 168.972656 206.113281 "/>
<g clip-path="url(#clip41)" clip-rule="nonzero">
<g clip-path="url(#clip42)" clip-rule="nonzero">
<use xlink:href="#surface71" mask="url(#mask22)"/>
</g>
</g>
<path style="fill:none;stroke-width:1;stroke-linecap:round;stroke-linejoin:miter;stroke:rgb(14.901961%,19.607843%,21.960784%);stroke-opacity:1;stroke-miterlimit:10;" d="M 241.389509 294.447545 C 241.389509 294.447545 238.387277 290.530134 237.332589 293.448661 C 236.272321 296.372768 241.540179 298.962054 241.540179 298.962054 Z M 241.389509 294.447545 " transform="matrix(0.7,0,0,0.7,0,0)"/>
<path style=" stroke:none;fill-rule:nonzero;fill:rgb(100%,100%,100%);fill-opacity:1;" d="M 187.542969 206.113281 C 187.542969 206.113281 189.679688 203.371094 190.386719 205.414062 C 191.09375 207.460938 187.445312 209.273438 187.445312 209.273438 Z M 187.542969 206.113281 "/>
<g clip-path="url(#clip44)" clip-rule="nonzero">
<g clip-path="url(#clip45)" clip-rule="nonzero">
<use xlink:href="#surface74" mask="url(#mask23)"/>
</g>
</g>
<path style="fill:none;stroke-width:1;stroke-linecap:round;stroke-linejoin:miter;stroke:rgb(14.901961%,19.607843%,21.960784%);stroke-opacity:1;stroke-miterlimit:10;" d="M 267.918527 294.447545 C 267.918527 294.447545 270.970982 290.530134 271.981027 293.448661 C 272.991071 296.372768 267.779018 298.962054 267.779018 298.962054 Z M 267.918527 294.447545 " transform="matrix(0.7,0,0,0.7,0,0)"/>
<path style=" stroke:none;fill-rule:nonzero;fill:rgb(100%,100%,100%);fill-opacity:1;" d="M 178.351562 217.945312 C 173.265625 217.945312 169.140625 213.820312 169.140625 208.734375 L 169.140625 194.601562 C 169.140625 193.6875 169.5 192.816406 170.144531 192.171875 C 170.785156 191.523438 171.660156 191.164062 172.570312 191.164062 L 184.101562 191.164062 C 185.023438 191.144531 185.914062 191.5 186.570312 192.148438 C 187.230469 192.792969 187.601562 193.675781 187.601562 194.601562 L 187.601562 208.753906 C 187.585938 213.84375 183.445312 217.960938 178.351562 217.945312 Z M 178.351562 217.945312 "/>
<g clip-path="url(#clip47)" clip-rule="nonzero">
<g clip-path="url(#clip48)" clip-rule="nonzero">
<use xlink:href="#surface77" mask="url(#mask24)"/>
</g>
</g>
<path style="fill:none;stroke-width:1;stroke-linecap:round;stroke-linejoin:miter;stroke:rgb(14.901961%,19.607843%,21.960784%);stroke-opacity:1;stroke-miterlimit:10;" d="M 254.787946 311.350446 C 247.522321 311.350446 241.629464 305.457589 241.629464 298.191964 L 241.629464 278.002232 C 241.629464 276.696429 242.142857 275.452009 243.063616 274.53125 C 243.978795 273.604911 245.228795 273.091518 246.529018 273.091518 L 263.002232 273.091518 C 264.319196 273.063616 265.591518 273.571429 266.529018 274.497768 C 267.472098 275.418527 268.002232 276.679688 268.002232 278.002232 L 268.002232 298.219866 C 267.979911 305.491071 262.064732 311.372768 254.787946 311.350446 Z M 254.787946 311.350446 " transform="matrix(0.7,0,0,0.7,0,0)"/>
<path style="fill:none;stroke-width:1;stroke-linecap:round;stroke-linejoin:miter;stroke:rgb(14.901961%,19.607843%,21.960784%);stroke-opacity:1;stroke-miterlimit:10;" d="M 245 289.229911 C 246.847098 290.452009 249.246652 290.452009 251.08817 289.229911 " transform="matrix(0.7,0,0,0.7,0,0)"/>
<path style="fill:none;stroke-width:1;stroke-linecap:round;stroke-linejoin:miter;stroke:rgb(14.901961%,19.607843%,21.960784%);stroke-opacity:1;stroke-miterlimit:10;" d="M 258.638393 289.229911 C 260.479911 290.452009 262.879464 290.452009 264.720982 289.229911 " transform="matrix(0.7,0,0,0.7,0,0)"/>
<path style="fill:none;stroke-width:1;stroke-linecap:round;stroke-linejoin:miter;stroke:rgb(14.901961%,19.607843%,21.960784%);stroke-opacity:1;stroke-miterlimit:10;" d="M 256.032366 287.059152 L 256.897321 295.457589 L 253.420759 295.457589 " transform="matrix(0.7,0,0,0.7,0,0)"/>
<path style="fill:none;stroke-width:1;stroke-linecap:round;stroke-linejoin:miter;stroke:rgb(14.901961%,19.607843%,21.960784%);stroke-opacity:1;stroke-miterlimit:10;" d="M 253.560268 300.239955 L 257.042411 300.239955 " transform="matrix(0.7,0,0,0.7,0,0)"/>
<path style="fill-rule:nonzero;fill:rgb(14.901961%,19.607843%,21.960784%);fill-opacity:1;stroke-width:1;stroke-linecap:butt;stroke-linejoin:miter;stroke:rgb(14.901961%,19.607843%,21.960784%);stroke-opacity:1;stroke-miterlimit:10;" d="M 254.921875 273.058036 L 246.529018 273.058036 C 245.228795 273.058036 243.978795 273.577009 243.063616 274.497768 C 242.142857 275.418527 241.629464 276.668527 241.629464 277.96875 L 241.629464 287.96875 C 246.997768 283.297991 253.247768 275.267857 254.921875 273.058036 Z M 254.921875 273.058036 " transform="matrix(0.7,0,0,0.7,0,0)"/>
<path style="fill-rule:nonzero;fill:rgb(14.901961%,19.607843%,21.960784%);fill-opacity:1;stroke-width:1;stroke-linecap:butt;stroke-linejoin:miter;stroke:rgb(14.901961%,19.607843%,21.960784%);stroke-opacity:1;stroke-miterlimit:10;" d="M 268.002232 288.348214 L 268.002232 278.002232 C 268.002232 275.290179 265.803571 273.091518 263.091518 273.091518 L 255.580357 273.091518 C 257.310268 278.571429 264.001116 285 268.002232 288.348214 Z M 268.002232 288.348214 " transform="matrix(0.7,0,0,0.7,0,0)"/>
<path style="fill:none;stroke-width:2;stroke-linecap:round;stroke-linejoin:miter;stroke:rgb(14.901961%,19.607843%,21.960784%);stroke-opacity:1;stroke-miterlimit:10;" d="M 244.430804 285.31808 C 244.430804 285.31808 245.998884 282.561384 250.998884 283.002232 " transform="matrix(0.7,0,0,0.7,0,0)"/>
<path style="fill:none;stroke-width:2;stroke-linecap:round;stroke-linejoin:miter;stroke:rgb(14.901961%,19.607843%,21.960784%);stroke-opacity:1;stroke-miterlimit:10;" d="M 257.622768 283.002232 C 260.362723 281.858259 263.532366 282.829241 265.16183 285.31808 " transform="matrix(0.7,0,0,0.7,0,0)"/>
<path style="fill-rule:nonzero;fill:rgb(14.901961%,19.607843%,21.960784%);fill-opacity:1;stroke-width:1;stroke-linecap:round;stroke-linejoin:miter;stroke:rgb(14.901961%,19.607843%,21.960784%);stroke-opacity:1;stroke-miterlimit:10;" d="M 223.002232 391.222098 C 219.559152 399.21875 223.688616 408.309152 227.287946 412.070312 C 230.887277 415.831473 235.669643 420.93192 247.868304 420.452009 C 264.871652 419.782366 276.86942 421.328125 282.321429 414.949777 C 287.767857 408.571429 288.320312 396.517857 281.841518 387.427455 C 280.373884 385.279018 279.040179 383.041295 277.840402 380.731027 L 228.448661 380.731027 C 226.434152 384.118304 224.614955 387.622768 223.002232 391.222098 Z M 223.002232 391.222098 " transform="matrix(0.7,0,0,0.7,0,0)"/>
<path style="fill-rule:nonzero;fill:rgb(14.901961%,19.607843%,21.960784%);fill-opacity:1;stroke-width:1;stroke-linecap:round;stroke-linejoin:miter;stroke:rgb(14.901961%,19.607843%,21.960784%);stroke-opacity:1;stroke-miterlimit:10;" d="M 249.760045 407.449777 C 241.149554 398.521205 225.518973 394.051339 217.862723 392.767857 C 210.200893 391.489955 196.171875 383.772321 196.171875 383.772321 C 196.171875 383.772321 187.868304 383.487723 188.510045 393.381696 C 189.151786 403.270089 213.069196 414.760045 222.332589 419.860491 C 230.770089 424.620536 240.993304 424.99442 249.760045 420.859375 " transform="matrix(0.7,0,0,0.7,0,0)"/>
<path style="fill-rule:nonzero;fill:rgb(14.901961%,19.607843%,21.960784%);fill-opacity:1;stroke-width:1;stroke-linecap:round;stroke-linejoin:miter;stroke:rgb(14.901961%,19.607843%,21.960784%);stroke-opacity:1;stroke-miterlimit:10;" d="M 255.15067 407.767857 C 263.761161 398.839286 279.391741 394.36942 287.047991 393.091518 C 294.709821 391.808036 306.618304 385.290179 306.618304 385.290179 C 306.618304 385.290179 317.042411 383.839286 316.40067 393.727679 C 315.758929 403.621652 291.841518 415.100446 282.578125 420.212054 C 274.140625 424.966518 263.917411 425.340402 255.15067 421.210938 " transform="matrix(0.7,0,0,0.7,0,0)"/>
<path style=" stroke:none;fill-rule:nonzero;fill:rgb(100%,100%,100%);fill-opacity:1;" d="M 203.761719 296.367188 C 203.761719 296.367188 204.589844 295.820312 204.175781 294.441406 C 203.761719 293.0625 201.558594 294.160156 200.039062 294.160156 C 198.519531 294.160156 192.730469 293.609375 189.980469 293.335938 C 187.621094 293.097656 183.765625 293.167969 182.691406 293.1875 C 182.847656 294.882812 182.5 296.589844 181.691406 298.089844 L 182.230469 298.144531 C 186.921875 298.605469 188.957031 298.695312 190.394531 298.996094 C 193.011719 299.550781 195.902344 301.757812 198.792969 301.621094 C 201.683594 301.488281 204.308594 299.523438 204.308594 298.3125 C 204.335938 297.621094 204.144531 296.941406 203.761719 296.367188 Z M 203.761719 296.367188 "/>
<g clip-path="url(#clip50)" clip-rule="nonzero">
<g clip-path="url(#clip51)" clip-rule="nonzero">
<use xlink:href="#surface80" mask="url(#mask25)"/>
</g>
</g>
<path style="fill:none;stroke-width:1;stroke-linecap:round;stroke-linejoin:miter;stroke:rgb(14.901961%,19.607843%,21.960784%);stroke-opacity:1;stroke-miterlimit:10;" d="M 291.08817 423.381696 C 291.08817 423.381696 292.271205 422.600446 291.679688 420.63058 C 291.08817 418.660714 287.940848 420.228795 285.770089 420.228795 C 283.59933 420.228795 275.329241 419.441964 271.40067 419.051339 C 268.030134 418.710938 262.522321 418.811384 260.987723 418.839286 C 261.210938 421.261161 260.714286 423.699777 259.559152 425.842634 L 260.329241 425.920759 C 267.03125 426.579241 269.938616 426.707589 271.992188 427.137277 C 275.731027 427.929688 279.860491 431.082589 283.989955 430.887277 C 288.11942 430.697545 291.86942 427.890625 291.86942 426.160714 C 291.908482 425.172991 291.635045 424.202009 291.08817 423.381696 Z M 291.08817 423.381696 " transform="matrix(0.7,0,0,0.7,0,0)"/>
<path style="fill:none;stroke-width:1;stroke-linecap:round;stroke-linejoin:miter;stroke:rgb(14.901961%,19.607843%,21.960784%);stroke-opacity:1;stroke-miterlimit:10;" d="M 260.747768 418.850446 Z M 260.747768 418.850446 " transform="matrix(0.7,0,0,0.7,0,0)"/>
<path style="fill:none;stroke-width:1;stroke-linecap:round;stroke-linejoin:miter;stroke:rgb(14.901961%,19.607843%,21.960784%);stroke-opacity:1;stroke-miterlimit:10;" d="M 260.558036 418.850446 Z M 260.558036 418.850446 " transform="matrix(0.7,0,0,0.7,0,0)"/>
<path style="fill:none;stroke-width:1;stroke-linecap:round;stroke-linejoin:miter;stroke:rgb(14.901961%,19.607843%,21.960784%);stroke-opacity:1;stroke-miterlimit:10;" d="M 291.08817 423.381696 C 289.944196 423.577009 288.766741 423.577009 287.622768 423.381696 " transform="matrix(0.7,0,0,0.7,0,0)"/>
<path style="fill:none;stroke-width:1;stroke-linecap:round;stroke-linejoin:miter;stroke:rgb(14.901961%,19.607843%,21.960784%);stroke-opacity:1;stroke-miterlimit:10;" d="M 291.88058 426.138393 C 290.351562 426.25558 288.816964 426.25558 287.287946 426.138393 " transform="matrix(0.7,0,0,0.7,0,0)"/>
<path style="fill:none;stroke-width:1;stroke-linecap:round;stroke-linejoin:miter;stroke:rgb(14.901961%,19.607843%,21.960784%);stroke-opacity:1;stroke-miterlimit:10;" d="M 286.517857 427.901786 C 287.594866 428.498884 288.850446 428.705357 290.061384 428.482143 " transform="matrix(0.7,0,0,0.7,0,0)"/>
<path style="fill:none;stroke-width:1;stroke-linecap:round;stroke-linejoin:miter;stroke:rgb(14.901961%,19.607843%,21.960784%);stroke-opacity:1;stroke-miterlimit:10;" d="M 285 429.190848 C 286.021205 429.68192 287.159598 429.854911 288.28125 429.698661 " transform="matrix(0.7,0,0,0.7,0,0)"/>
<path style="fill-rule:nonzero;fill:rgb(14.901961%,19.607843%,21.960784%);fill-opacity:1;stroke-width:1;stroke-linecap:round;stroke-linejoin:miter;stroke:rgb(14.901961%,19.607843%,21.960784%);stroke-opacity:1;stroke-miterlimit:10;" d="M 259.559152 425.820312 C 260.714286 423.677455 261.210938 421.24442 260.987723 418.822545 L 260.558036 418.822545 C 260.558036 418.822545 245.401786 415.697545 232.801339 408.002232 C 220.200893 400.301339 204.241071 388.510045 196.171875 383.777902 C 188.102679 379.051339 180.407366 386.138393 181.171875 393.627232 C 181.930804 401.121652 188.058036 405.050223 199.090402 409.631696 C 210.122768 414.207589 230.212054 421.25 240.842634 423.409598 C 246.350446 424.497768 253.448661 425.251116 259.559152 425.820312 Z M 259.559152 425.820312 " transform="matrix(0.7,0,0,0.7,0,0)"/>
<path style="fill-rule:nonzero;fill:rgb(14.901961%,19.607843%,21.960784%);fill-opacity:1;stroke-width:1;stroke-linecap:round;stroke-linejoin:miter;stroke:rgb(14.901961%,19.607843%,21.960784%);stroke-opacity:1;stroke-miterlimit:10;" d="M 241.852679 427.901786 C 240.697545 425.758929 240.206473 423.320312 240.429688 420.898438 L 240.848214 420.898438 C 240.848214 420.898438 256.010045 417.751116 268.621652 410.072545 C 281.227679 402.388393 297.170759 390.569196 305.251116 385.842634 C 313.331473 381.110491 320.998884 388.208705 320.251116 395.691964 C 319.497768 403.169643 313.359375 407.109375 302.332589 411.640625 C 291.300223 416.171875 271.222098 423.258929 260.580357 425.429688 C 255.061384 426.56808 248.002232 427.321429 241.852679 427.901786 Z M 241.852679 427.901786 " transform="matrix(0.7,0,0,0.7,0,0)"/>
<path style=" stroke:none;fill-rule:nonzero;fill:rgb(100%,100%,100%);fill-opacity:1;" d="M 168.300781 294.644531 C 168.300781 294.644531 158.089844 295.042969 154.847656 294.820312 C 151.605469 294.59375 149.148438 293.027344 148.261719 293.8125 C 147.371094 294.59375 148.484375 295.820312 148.484375 295.820312 C 148.484375 295.820312 148.148438 297.71875 149.042969 298.726562 C 149.941406 299.734375 151.144531 300.621094 154.960938 301.742188 C 158.773438 302.863281 162.660156 301.28125 164.757812 300.71875 L 169.273438 299.53125 C 169.273438 299.53125 168.238281 297.925781 168.300781 294.644531 Z M 168.300781 294.644531 "/>
<g clip-path="url(#clip53)" clip-rule="nonzero">
<g clip-path="url(#clip54)" clip-rule="nonzero">
<use xlink:href="#surface83" mask="url(#mask26)"/>
</g>
</g>
<path style="fill:none;stroke-width:1;stroke-linecap:round;stroke-linejoin:miter;stroke:rgb(14.901961%,19.607843%,21.960784%);stroke-opacity:1;stroke-miterlimit:10;" d="M 240.429688 420.920759 C 240.429688 420.920759 225.842634 421.489955 221.210938 421.171875 C 216.579241 420.848214 213.069196 418.610491 211.802455 419.732143 C 210.530134 420.848214 212.120536 422.600446 212.120536 422.600446 C 212.120536 422.600446 211.640625 425.3125 212.918527 426.752232 C 214.202009 428.191964 215.920759 429.458705 221.372768 431.060268 C 226.819196 432.66183 232.371652 430.401786 235.368304 429.598214 L 241.819196 427.901786 C 241.819196 427.901786 240.340402 425.608259 240.429688 420.920759 Z M 240.429688 420.920759 " transform="matrix(0.7,0,0,0.7,0,0)"/>
<path style="fill:none;stroke-width:1;stroke-linecap:round;stroke-linejoin:miter;stroke:rgb(14.901961%,19.607843%,21.960784%);stroke-opacity:1;stroke-miterlimit:10;" d="M 212.120536 422.600446 C 212.795759 422.148438 213.677455 422.148438 214.352679 422.600446 C 215.111607 423.11942 215.987723 423.465402 216.897321 423.59933 " transform="matrix(0.7,0,0,0.7,0,0)"/>
<path style="fill:none;stroke-width:1;stroke-linecap:round;stroke-linejoin:miter;stroke:rgb(14.901961%,19.607843%,21.960784%);stroke-opacity:1;stroke-miterlimit:10;" d="M 212.299107 425.697545 C 212.81808 425.234375 213.532366 425.055804 214.207589 425.217634 C 214.972098 425.435268 215.758929 425.552455 216.551339 425.558036 " transform="matrix(0.7,0,0,0.7,0,0)"/>
<path style="fill:none;stroke-width:1;stroke-linecap:round;stroke-linejoin:miter;stroke:rgb(14.901961%,19.607843%,21.960784%);stroke-opacity:1;stroke-miterlimit:10;" d="M 214.737723 428.231027 C 214.737723 428.231027 215.022321 427.421875 215.552455 427.421875 C 216.082589 427.421875 218.270089 427.712054 218.839286 427.66183 " transform="matrix(0.7,0,0,0.7,0,0)"/>
<path style="fill:none;stroke-width:1;stroke-linecap:round;stroke-linejoin:miter;stroke:rgb(14.901961%,19.607843%,21.960784%);stroke-opacity:1;stroke-miterlimit:10;" d="M 217.840402 429.810268 C 217.840402 429.810268 218.370536 429.090402 218.839286 429.051339 C 219.441964 428.967634 220.050223 428.917411 220.658482 428.90067 " transform="matrix(0.7,0,0,0.7,0,0)"/>
<path style="fill:none;stroke-width:1;stroke-linecap:round;stroke-linejoin:miter;stroke:rgb(100%,100%,100%);stroke-opacity:1;stroke-miterlimit:10;" d="M 247.851562 420.452009 C 247.851562 420.452009 278.370536 405.452009 290.697545 396.919643 " transform="matrix(0.7,0,0,0.7,0,0)"/>
<path style="fill:none;stroke-width:1;stroke-linecap:round;stroke-linejoin:miter;stroke:rgb(100%,100%,100%);stroke-opacity:1;stroke-miterlimit:10;" d="M 213.398438 395 C 213.398438 395 239.481027 415.390625 254.179688 416.808036 " transform="matrix(0.7,0,0,0.7,0,0)"/>
<path style="fill:none;stroke-width:1;stroke-linecap:round;stroke-linejoin:miter;stroke:rgb(100%,100%,100%);stroke-opacity:1;stroke-miterlimit:10;" d="M 225.608259 394.447545 C 225.608259 394.447545 245.452009 400.602679 250.608259 408.537946 " transform="matrix(0.7,0,0,0.7,0,0)"/>
<path style="fill:none;stroke-width:1;stroke-linecap:round;stroke-linejoin:miter;stroke:rgb(100%,100%,100%);stroke-opacity:1;stroke-miterlimit:10;" d="M 257.561384 405.758929 C 257.561384 405.758929 269.860491 397.03125 282.561384 394.447545 " transform="matrix(0.7,0,0,0.7,0,0)"/>
</g>
</svg>
